<svg width="323" height="312" viewBox="0 0 323 312" fill="none" xmlns="http://www.w3.org/2000/svg">
    <circle cx="166.884" cy="156.155" r="155.372" fill="#F1F9E8"/>
    <g clip-path="url(#clip0_429_2474)">
        <path d="M186.773 127.975C190.04 127.613 193.307 127.354 196.573 127.282C199.771 127.197 202.971 127.293 206.157 127.571C208.919 127.83 211.804 128.349 213.67 130.167C214.522 130.964 215.058 132.043 215.181 133.206C215.304 134.368 215.005 135.536 214.34 136.496C212.867 138.852 210.064 140.258 207.311 141.094C201.799 142.654 195.953 142.56 190.493 140.826C187.605 140 184.855 138.749 182.332 137.115C181.152 136.337 180.057 135.435 179.065 134.427C178.271 133.604 177.595 132.675 177.055 131.666C176.925 131.518 176.833 131.34 176.788 131.148C176.767 131.094 176.743 131.042 176.714 130.993C176.675 130.91 176.669 130.815 176.698 130.729C176.727 130.642 176.789 130.57 176.87 130.529C176.993 130.31 177.175 130.13 177.396 130.01C180.137 128.43 183.723 128.347 186.773 127.975Z" fill="#ECBF4C"/>
        <path d="M316.124 190.026C315.629 191.06 315.093 192.094 314.588 193.128C313.285 195.659 311.032 197.567 308.327 198.431C305.621 199.296 302.684 199.047 300.161 197.739L271.441 182.767L271.132 182.602C269.862 181.935 268.738 181.019 267.827 179.909C266.916 178.798 266.238 177.514 265.831 176.135C265.424 174.756 265.298 173.309 265.46 171.879C265.621 170.45 266.068 169.068 266.772 167.815L268.122 165.417L270.183 161.694C270.767 160.672 271.145 159.544 271.296 158.375C271.842 154.022 271.213 144.323 255.034 143.444H175.881C160.62 144.272 159.198 152.947 159.538 157.589C159.665 159.136 160.13 160.636 160.898 161.984L162.959 165.644L164.195 167.816C164.903 169.071 165.352 170.456 165.515 171.888C165.678 173.321 165.551 174.772 165.144 176.154C164.736 177.537 164.055 178.823 163.142 179.936C162.228 181.049 161.1 181.966 159.826 182.633L159.692 182.707L130.838 197.771C129.589 198.42 128.225 198.815 126.824 198.935C125.422 199.054 124.011 198.895 122.671 198.466C121.331 198.038 120.089 197.348 119.014 196.438C117.94 195.527 117.056 194.412 116.411 193.158C115.916 192.196 115.442 191.245 114.979 190.294C109.424 178.807 106.353 167.764 111.052 154.85C112.557 150.771 114.914 147.062 117.966 143.973C121.018 140.883 124.694 138.486 128.746 136.941C156.43 126.329 185.884 121.138 215.515 121.647C245.143 121.139 274.594 126.33 302.275 136.94C306.328 138.484 310.005 140.881 313.057 143.97C316.109 147.06 318.465 150.77 319.968 154.85C324.605 167.64 321.617 178.631 316.124 190.026Z" fill="#86C839"/>
        <path d="M160.785 183.073L131.797 198.211C129.274 199.519 126.337 199.768 123.631 198.903C120.926 198.038 118.673 196.13 117.37 193.599C116.875 192.638 116.401 191.687 115.938 190.724L163.949 166.074L165.186 168.256C165.891 169.513 166.336 170.9 166.496 172.334C166.656 173.767 166.527 175.218 166.117 176.601C165.706 177.983 165.023 179.269 164.107 180.381C163.191 181.493 162.061 182.408 160.785 183.073Z" fill="#66A51C"/>
        <path d="M315.064 191.728C314.569 192.762 314.033 193.796 313.528 194.83C312.223 197.359 309.97 199.265 307.266 200.129C304.561 200.994 301.625 200.747 299.101 199.441L270.071 184.304C268.801 183.637 267.677 182.721 266.767 181.61C265.856 180.499 265.178 179.216 264.771 177.837C264.365 176.457 264.239 175.01 264.4 173.581C264.562 172.152 265.009 170.77 265.713 169.518L267.062 167.108L315.064 191.728Z" fill="#66A51C"/>
        <path opacity="0.3" d="M278.592 160.878C277.625 165.427 274.637 169.242 272.719 173.482C271.317 176.368 270.869 179.628 271.441 182.788L271.132 182.622C269.859 181.956 268.733 181.039 267.82 179.927C266.908 178.814 266.228 177.529 265.821 176.147C265.414 174.765 265.289 173.316 265.452 171.884C265.616 170.453 266.065 169.069 266.772 167.816L268.123 165.417L270.183 161.695C270.767 160.672 271.145 159.544 271.296 158.375C271.843 154.022 271.214 144.323 255.035 143.445H175.881C160.62 144.271 159.198 152.947 159.538 157.59C159.665 159.137 160.13 160.637 160.898 161.984L162.959 165.645L164.196 167.816C164.904 169.071 165.353 170.456 165.516 171.889C165.679 173.322 165.553 174.773 165.145 176.155C164.737 177.538 164.056 178.825 163.142 179.938C162.229 181.051 161.101 181.968 159.826 182.635L159.692 182.709C160.071 181.97 160.326 181.173 160.444 180.351C160.97 176.949 159.227 173.652 157.621 170.6C154.004 163.711 150.778 155.521 153.829 148.366C156.24 142.721 162.073 139.236 168.03 137.707C173.635 136.258 179.488 136.206 185.28 136.165L239.608 135.752C248.543 135.689 257.816 135.752 265.896 139.515C273.977 143.279 280.468 152.109 278.592 160.878Z" fill="#66A51C"/>
        <path d="M296.369 228.821V253.409C296.37 253.917 296.272 254.421 296.079 254.89C295.885 255.36 295.601 255.787 295.243 256.146C294.885 256.506 294.46 256.791 293.992 256.984C293.523 257.178 293.022 257.277 292.515 257.276H137.939C137.432 257.277 136.929 257.178 136.461 256.985C135.992 256.791 135.566 256.506 135.207 256.147C134.848 255.788 134.563 255.361 134.369 254.891C134.174 254.421 134.074 253.918 134.074 253.409V228.821C134.077 228.165 134.245 227.522 134.564 226.95C134.884 226.378 135.343 225.898 135.898 225.553C168.679 205.153 176.089 148.769 177.407 134.934C177.486 134.086 177.878 133.299 178.505 132.725C179.132 132.152 179.949 131.833 180.798 131.832H188.722C190.631 131.846 192.457 132.614 193.807 133.968C195.156 135.322 195.921 137.155 195.934 139.07V146.102C195.933 146.61 196.031 147.113 196.224 147.583C196.416 148.053 196.699 148.48 197.056 148.84C197.413 149.2 197.837 149.486 198.304 149.682C198.771 149.877 199.272 149.978 199.778 149.98H230.612C231.635 149.977 232.616 149.567 233.338 148.841C234.061 148.114 234.466 147.129 234.466 146.102V139.101C234.466 138.146 234.655 137.201 235.02 136.319C235.386 135.437 235.922 134.637 236.598 133.964C237.273 133.292 238.074 132.76 238.955 132.399C239.837 132.038 240.78 131.856 241.732 131.863H249.656C250.504 131.865 251.32 132.184 251.945 132.757C252.57 133.331 252.959 134.119 253.036 134.965C254.376 148.8 261.765 205.184 294.545 225.584C295.097 225.926 295.553 226.402 295.872 226.967C296.191 227.533 296.362 228.171 296.369 228.821H296.369Z" fill="#86C839"/>
        <path d="M248.851 196.498C248.851 203.345 246.827 210.038 243.036 215.731C239.245 221.424 233.857 225.861 227.552 228.481C221.248 231.101 214.311 231.787 207.618 230.451C200.926 229.115 194.778 225.818 189.953 220.977C185.128 216.135 181.842 209.967 180.511 203.252C179.179 196.536 179.863 189.576 182.474 183.25C185.085 176.924 189.508 171.518 195.181 167.714C200.855 163.91 207.526 161.88 214.35 161.88C223.5 161.88 232.275 165.527 238.746 172.019C245.216 178.512 248.851 187.317 248.851 196.498Z" fill="white"/>
        <path d="M227.922 196.498C227.917 199.873 226.66 203.125 224.398 205.622C222.135 208.12 219.028 209.683 215.68 210.009C212.332 210.335 208.983 209.4 206.284 207.386C203.586 205.372 201.73 202.423 201.077 199.112C200.425 195.801 201.024 192.365 202.756 189.472C204.489 186.58 207.231 184.437 210.451 183.46C213.671 182.484 217.137 182.744 220.176 184.19C223.216 185.635 225.61 188.164 226.895 191.283C227.576 192.936 227.925 194.708 227.923 196.497L227.922 196.498Z" fill="#E4E4E4"/>
        <path d="M197.377 196.209C197.38 197.722 196.859 199.188 195.904 200.358C194.95 201.529 193.62 202.331 192.142 202.627C190.664 202.924 189.13 202.697 187.8 201.986C186.47 201.274 185.427 200.122 184.849 198.725C184.271 197.328 184.194 195.773 184.631 194.326C185.068 192.879 185.991 191.628 187.244 190.787C188.497 189.947 190.002 189.568 191.502 189.716C193.002 189.864 194.404 190.529 195.47 191.599C196.69 192.821 197.376 194.48 197.377 196.209Z" fill="#E4E4E4"/>
        <path d="M244.327 196.209C244.329 197.722 243.808 199.188 242.854 200.358C241.899 201.529 240.57 202.331 239.092 202.627C237.614 202.924 236.079 202.697 234.749 201.986C233.419 201.274 232.376 200.122 231.798 198.725C231.221 197.328 231.143 195.773 231.58 194.326C232.017 192.879 232.94 191.628 234.193 190.787C235.446 189.947 236.951 189.568 238.451 189.716C239.951 189.864 241.353 190.529 242.419 191.599C243.639 192.821 244.325 194.48 244.327 196.209Z" fill="#E4E4E4"/>
        <path d="M214.35 213.238C215.858 213.236 217.319 213.758 218.485 214.716C219.652 215.674 220.451 217.008 220.747 218.491C221.043 219.974 220.817 221.514 220.107 222.848C219.398 224.183 218.25 225.229 216.858 225.809C215.465 226.389 213.916 226.466 212.473 226.028C211.031 225.59 209.784 224.663 208.947 223.406C208.109 222.149 207.731 220.639 207.879 219.134C208.026 217.629 208.69 216.222 209.755 215.152C210.974 213.929 212.627 213.241 214.35 213.238Z" fill="#E4E4E4"/>
        <path d="M214.35 166.129C215.858 166.127 217.319 166.649 218.485 167.607C219.652 168.564 220.451 169.899 220.747 171.381C221.043 172.864 220.817 174.404 220.107 175.739C219.398 177.073 218.25 178.12 216.858 178.699C215.465 179.279 213.916 179.357 212.473 178.918C211.031 178.48 209.784 177.554 208.947 176.296C208.109 175.039 207.731 173.529 207.879 172.024C208.026 170.519 208.69 169.112 209.755 168.043C210.974 166.82 212.627 166.132 214.35 166.129Z" fill="#E4E4E4"/>
        <path d="M226.346 208.255C227.488 207.111 229.014 206.434 230.626 206.355C232.238 206.277 233.822 206.803 235.069 207.831C236.316 208.86 237.138 210.317 237.374 211.919C237.609 213.521 237.243 215.154 236.345 216.501C235.448 217.847 234.083 218.81 232.517 219.203C230.951 219.595 229.295 219.39 227.872 218.625C226.449 217.861 225.36 216.593 224.817 215.068C224.274 213.543 224.315 211.869 224.933 210.373C225.261 209.581 225.741 208.861 226.346 208.255Z" fill="#E4E4E4"/>
        <path d="M193.123 174.94C194.265 173.795 195.791 173.118 197.403 173.04C199.015 172.962 200.599 173.488 201.846 174.516C203.093 175.544 203.914 177.001 204.15 178.603C204.386 180.206 204.019 181.838 203.122 183.185C202.224 184.531 200.86 185.494 199.294 185.887C197.728 186.279 196.073 186.074 194.649 185.309C193.226 184.545 192.137 183.277 191.594 181.752C191.051 180.227 191.093 178.554 191.711 177.058C192.038 176.265 192.518 175.546 193.123 174.94Z" fill="#E4E4E4"/>
        <path d="M226.348 184.173C225.277 183.104 224.61 181.696 224.459 180.189C224.307 178.682 224.682 177.168 225.519 175.907C226.355 174.646 227.602 173.715 229.046 173.273C230.49 172.831 232.042 172.905 233.438 173.483C234.834 174.061 235.986 175.107 236.699 176.443C237.412 177.778 237.641 179.32 237.348 180.806C237.054 182.292 236.256 183.63 235.089 184.592C233.922 185.553 232.459 186.079 230.949 186.079C230.095 186.08 229.249 185.912 228.459 185.585C227.67 185.258 226.952 184.778 226.348 184.173Z" fill="#E4E4E4"/>
        <path d="M193.121 217.449C192.057 216.382 191.394 214.977 191.246 213.475C191.098 211.973 191.474 210.465 192.31 209.21C193.145 207.955 194.389 207.029 195.828 206.59C197.268 206.151 198.814 206.227 200.204 206.805C201.595 207.382 202.742 208.425 203.452 209.757C204.161 211.088 204.388 212.625 204.095 214.105C203.802 215.586 203.006 216.919 201.843 217.876C200.68 218.834 199.222 219.358 197.717 219.358C195.994 219.358 194.341 218.671 193.121 217.449Z" fill="#E4E4E4"/>
        <path d="M296.369 241.902V253.359C296.37 253.867 296.271 254.371 296.078 254.84C295.885 255.31 295.601 255.737 295.243 256.096C294.885 256.455 294.459 256.74 293.991 256.934C293.523 257.128 293.021 257.227 292.515 257.225H137.939C137.432 257.227 136.929 257.128 136.461 256.934C135.992 256.74 135.566 256.456 135.207 256.097C134.848 255.738 134.563 255.311 134.369 254.841C134.174 254.371 134.074 253.868 134.074 253.359V241.902H296.369Z" fill="#66A51C"/>
        <path opacity="0.41" d="M221.244 208.235C219.664 209.142 217.918 209.72 216.11 209.936C214.302 210.151 212.469 209.999 210.721 209.489C208.973 208.98 207.345 208.122 205.934 206.968C204.522 205.813 203.357 204.386 202.507 202.771C201.657 201.155 201.14 199.385 200.986 197.564C200.832 195.744 201.045 193.911 201.611 192.175C202.178 190.439 203.087 188.835 204.284 187.459C205.481 186.083 206.942 184.962 208.579 184.164L221.244 208.235Z" fill="white"/>
        <path d="M53.5526 49.0576C68.5983 49.0576 80.7992 58.2396 80.7992 69.572C80.7992 75.6002 77.3469 81.0184 71.844 84.7718C71.7307 86.4781 71.4832 88.2139 71.4216 89.0423C71.2434 91.3254 70.8989 93.5924 70.391 95.8251C70.3566 95.9854 70.275 96.1316 70.1568 96.2447C70.0385 96.3577 69.8891 96.4325 69.7279 96.4593C69.5668 96.486 69.4013 96.4635 69.253 96.3946C69.1048 96.3258 68.9806 96.2137 68.8967 96.0731C67.3382 93.4833 65.6352 90.9838 63.7959 88.5867C60.4797 89.5838 57.0352 90.0855 53.5733 90.0756C38.5177 90.076 26.3164 80.8944 26.3164 69.572C26.3164 58.2496 38.466 49.0576 53.5526 49.0576Z" fill="white"/>
        <path d="M62.168 69.2302C62.168 70.2851 62.5327 71.3074 63.1997 72.1229C63.8668 72.9383 64.795 73.4964 65.8262 73.7022C66.8574 73.9079 67.9278 73.7485 68.8551 73.2512C69.7823 72.7538 70.5089 71.9493 70.9112 70.9746C71.3135 69.9999 71.3666 68.9154 71.0613 67.9059C70.756 66.8964 70.1114 66.0243 69.2371 65.4383C68.3629 64.8522 67.3132 64.5885 66.2668 64.6919C65.2205 64.7954 64.2423 65.2597 63.4989 66.0057C63.0769 66.4291 62.7422 66.9318 62.5138 67.4851C62.2854 68.0384 62.1679 68.6313 62.168 69.2302Z" fill="#86C839"/>
        <path d="M47.8125 69.2304C47.8098 70.2882 48.1729 71.3143 48.8399 72.1335C49.5069 72.9528 50.4365 73.5145 51.4701 73.7229C52.5037 73.9313 53.5774 73.7734 54.508 73.2763C55.4386 72.7791 56.1685 71.9734 56.5732 70.9966C56.978 70.0198 57.0324 68.9324 56.7274 67.9198C56.4224 66.9072 55.7767 66.0321 54.9005 65.4438C54.0243 64.8555 52.9718 64.5904 51.9225 64.6937C50.8733 64.797 49.8923 65.2624 49.1467 66.0103C48.2944 66.8639 47.8145 68.0221 47.8125 69.2304Z" fill="#86C839"/>
        <path d="M33.4688 69.2304C33.4661 70.2882 33.8292 71.3143 34.4961 72.1335C35.1631 72.9528 36.0927 73.5145 37.1263 73.7229C38.16 73.9313 39.2336 73.7734 40.1642 73.2763C41.0948 72.7791 41.8247 71.9734 42.2295 70.9966C42.6342 70.0198 42.6887 68.9324 42.3837 67.9198C42.0786 66.9072 41.4329 66.0321 40.5567 65.4438C39.6805 64.8555 38.628 64.5904 37.5788 64.6937C36.5295 64.797 35.5485 65.2624 34.803 66.0103C33.9506 66.8639 33.4707 68.0221 33.4688 69.2304Z" fill="#86C839"/>
        <path d="M132.715 213.256C132.453 213.513 132.118 213.683 131.756 213.742C127.981 214.669 124.12 215.196 120.235 215.313C118.823 215.375 117.401 215.406 115.979 215.427H83.4143C78.882 215.548 74.3484 215.236 69.8748 214.497C69.576 214.497 71.2865 197.033 71.441 195.327C72.0023 188.444 73.0109 181.605 74.4603 174.854C75.6031 169.279 77.4127 163.863 79.8499 158.723C82.6736 153.171 86.6409 148.383 92.5355 145.902L93.195 145.623C97.9412 143.71 103.107 143.093 108.168 143.833C109.66 144.074 111.124 144.466 112.538 145.002C122.08 148.674 126.625 158.537 128.81 168.586C131.901 182.836 132.488 197.538 132.983 212.014C133.045 212.447 132.95 212.887 132.715 213.255V213.256Z" fill="#F0C9A1"/>
        <path d="M81.1789 131.281C79.2726 128.489 78.8089 125.077 78.3246 121.81C76.789 111.314 81.169 99.7132 92.268 95.6908C98.3154 93.4985 105.344 93.054 111.383 95.5046C122.945 100.178 125.213 111.864 124.584 122.502C124.367 127.378 122.469 132.027 119.215 135.654C116.664 138.711 113.121 140.768 109.209 141.465C98.945 143.151 88.3189 141.724 81.1789 131.281Z" fill="#7F4E2B"/>
        <path d="M109.571 127.776V147.174C109.501 148.96 108.744 150.65 107.46 151.889C106.176 153.127 104.463 153.819 102.682 153.819C100.9 153.819 99.1881 153.127 97.9039 151.889C96.6196 150.65 95.8631 148.96 95.793 147.174V127.776H109.571Z" fill="#F0C9A1"/>
        <path d="M109.571 131.457V144.827C106.669 145.794 103.632 146.293 100.574 146.305C98.9546 146.28 97.3459 146.033 95.793 145.571V133.659C96.5765 133.29 97.3859 132.979 98.2146 132.729C101.89 131.61 105.74 131.179 109.571 131.457Z" fill="#E9B588"/>
        <path d="M84.1289 121.313C84.1289 133.721 90.7037 143.823 101.009 143.823C111.313 143.823 119.671 133.752 119.671 121.313C119.671 108.874 111.315 98.8027 101.009 98.8027C90.7023 98.8027 84.1289 108.884 84.1289 121.313Z" fill="#F0C9A1"/>
        <path d="M121.66 118.141C124.523 118.825 126.152 122.295 125.297 125.89C124.443 129.485 121.43 131.844 118.567 131.159C115.704 130.474 114.075 127.005 114.93 123.41C115.784 119.814 118.797 117.456 121.66 118.141Z" fill="#F0C9A1"/>
        <path d="M78.9333 125.903C78.09 122.305 79.7182 118.841 82.5829 118.159C85.4476 117.476 88.4569 119.825 89.3123 123.412C90.1677 126.999 88.5377 130.474 85.6745 131.167C82.8113 131.859 79.7905 129.491 78.9333 125.903Z" fill="#F0C9A1"/>
        <path d="M85.8685 117.115C93.2265 115.461 98.3055 108.533 100.842 101.409C104.587 107.648 110.062 112.656 116.598 115.823C117.979 116.495 119.958 116.94 120.813 115.658C121.087 115.158 121.226 114.594 121.215 114.024C121.291 110.715 120.402 107.456 118.657 104.648C116.912 101.839 114.388 99.6027 111.394 98.2137C109.807 97.5338 108.142 97.0512 106.438 96.7765C100.474 95.6376 94.3027 96.9087 89.2681 100.313C86.0667 102.629 83.7336 105.958 82.6431 109.764C81.6744 113.042 80.7677 118.244 85.8685 117.115Z" fill="#7F4E2B"/>
        <path d="M85.4658 97.025C86.1133 98.3858 87.1633 99.5131 88.4726 100.253C89.782 100.993 91.2869 101.31 92.7824 101.161C95.204 100.851 97.3682 99.2276 99.8105 99.2365C102.047 99.2365 104.036 100.612 106.21 101.139C107.462 101.444 108.765 101.468 110.027 101.208C111.288 100.948 112.477 100.411 113.508 99.6362C114.538 98.861 115.385 97.8665 115.987 96.7242C116.589 95.5819 116.932 94.32 116.991 93.029C117.05 91.7381 116.823 90.45 116.327 89.2573C115.832 88.0646 115.079 86.9968 114.123 86.1304C113.167 85.2641 112.033 84.6207 110.8 84.2464C109.567 83.8722 108.267 83.7763 106.993 83.9656C104.005 84.3998 101.511 85.8577 98.4088 85.7441C96.3479 85.6615 94.3589 84.8961 92.3183 85.2259C87.0423 86.106 83.1264 91.9377 85.4658 97.025Z" fill="#7F4E2B"/>
        <path d="M120.238 155.414V215.313C118.826 215.376 117.404 215.406 115.982 215.427H85.582V155.456L120.238 155.414Z" fill="white"/>
        <path opacity="0.37" d="M119.135 182.018C110.088 185.678 100.051 185.688 90.2812 185.575C90.7977 174.918 91.3576 164.261 91.9611 153.604C92.2193 154.017 92.4868 154.513 92.7855 155.113C95.152 159.931 98.2645 164.343 102.007 168.183C107.161 173.435 113.158 177.735 119.135 182.018Z" fill="#E4E4E4"/>
        <path d="M92.5355 145.859C92.5871 147.266 92.216 149.013 92.1541 150.212C92.0921 151.412 92.0202 152.477 91.9696 153.604C91.3376 164.268 90.7777 174.915 90.2898 185.545C90.1249 188.937 89.9703 192.319 89.8158 195.71C89.5135 202.258 89.2318 208.807 88.9707 215.356H83.4143C78.8824 215.474 74.3493 215.166 69.8748 214.434C69.576 214.372 71.2865 196.96 71.441 195.254C72.0031 188.374 73.0116 181.539 74.4603 174.791C75.6015 169.215 77.4112 163.799 79.8499 158.66C82.6736 153.139 86.6412 148.372 92.5355 145.859Z" fill="#514E92"/>
        <path d="M132.717 213.256C132.455 213.514 132.12 213.684 131.758 213.742C126.587 214.946 121.289 215.512 115.982 215.427C115.727 208.864 115.449 202.315 115.147 195.781C114.46 180.616 113.68 165.451 112.807 150.286C112.725 148.808 112.189 146.512 112.54 145.033C122.082 148.704 126.626 158.568 128.811 168.618C131.903 182.868 132.49 197.57 132.985 212.046C133.039 212.469 132.945 212.897 132.717 213.256Z" fill="#514E92"/>
        <path d="M114.919 137.195L113.817 135.82C115.986 133.984 117.728 131.695 118.921 129.111C120.113 126.528 120.728 123.714 120.721 120.867V116.95C120.762 112.539 119.058 108.291 115.983 105.14C112.907 101.988 108.711 100.189 104.315 100.137H98.7504C96.5851 100.16 94.4456 100.611 92.4539 101.463C90.4623 102.316 88.6575 103.554 87.1427 105.107C85.628 106.659 84.4328 108.496 83.6255 110.512C82.8182 112.528 82.4145 114.684 82.4376 116.857V120.868H80.7157V116.857C80.6686 112.002 82.5436 107.328 85.9289 103.859C89.3142 100.391 93.933 98.4124 98.771 98.3584H104.336C109.201 98.4153 113.845 100.407 117.248 103.897C120.651 107.387 122.534 112.089 122.484 116.97V120.889C122.484 123.996 121.807 127.066 120.5 129.882C119.194 132.699 117.289 135.195 114.919 137.195Z" fill="white"/>
        <path d="M80.4607 114.852H83.1709C83.8131 114.852 84.4291 115.108 84.8832 115.563C85.3374 116.019 85.5925 116.637 85.5925 117.281V128.914C85.5925 129.558 85.3374 130.176 84.8832 130.632C84.4291 131.088 83.8131 131.344 83.1709 131.344H80.4607C79.8185 131.344 79.2025 131.088 78.7484 130.632C78.2942 130.176 78.0391 129.558 78.0391 128.914V117.281C78.0391 116.637 78.2942 116.019 78.7484 115.563C79.2025 115.108 79.8185 114.852 80.4607 114.852V114.852Z" fill="#DFA331"/>
        <path d="M120.886 114.852H123.597C124.239 114.852 124.855 115.108 125.309 115.563C125.763 116.019 126.018 116.637 126.018 117.281V128.914C126.018 129.558 125.763 130.176 125.309 130.632C124.855 131.088 124.239 131.344 123.597 131.344H120.886C120.244 131.344 119.628 131.088 119.174 130.632C118.72 130.176 118.465 129.558 118.465 128.914V117.281C118.465 116.637 118.72 116.019 119.174 115.563C119.628 115.108 120.244 114.852 120.886 114.852V114.852Z" fill="#DFA331"/>
        <path d="M116.218 136.214C116.216 136.781 116.019 137.33 115.66 137.769C115.302 138.208 114.804 138.509 114.25 138.623L111.631 139.142C110.995 139.263 110.336 139.128 109.799 138.766C109.261 138.404 108.887 137.844 108.758 137.207C108.742 137.052 108.742 136.896 108.758 136.742C108.756 136.353 108.848 135.97 109.025 135.625C109.192 135.293 109.432 135.003 109.727 134.777C110.021 134.552 110.363 134.396 110.726 134.322L113.345 133.804C113.846 133.707 114.364 133.77 114.828 133.983C115.291 134.197 115.677 134.549 115.931 134.993C116.066 135.223 116.161 135.475 116.21 135.737C116.228 135.895 116.232 136.054 116.22 136.213L116.218 136.214Z" fill="#DFA331"/>
        <path opacity="0.41" d="M115.889 134.993C115.724 135.324 115.486 135.612 115.193 135.836C114.9 136.06 114.56 136.214 114.198 136.286L111.579 136.804C111.407 136.998 111.188 137.144 110.943 137.227C110.698 137.31 110.435 137.328 110.181 137.279C109.927 137.231 109.69 137.116 109.493 136.948C109.296 136.779 109.147 136.562 109.058 136.318C108.97 136.074 108.947 135.811 108.99 135.555C109.033 135.299 109.142 135.059 109.306 134.858C109.47 134.657 109.683 134.502 109.924 134.408C110.166 134.315 110.427 134.286 110.683 134.324L113.302 133.806C113.803 133.709 114.321 133.772 114.784 133.985C115.248 134.198 115.634 134.55 115.889 134.993Z" fill="#ECBF4C"/>
        <path d="M77.4104 117.083H78.2142C78.4027 117.083 78.5835 117.158 78.7168 117.292C78.8501 117.426 78.925 117.607 78.925 117.797V127.961C78.925 128.15 78.8501 128.331 78.7167 128.465C78.5833 128.599 78.4024 128.674 78.2138 128.674H77.4104C77.2218 128.674 77.0409 128.599 76.9075 128.465C76.7741 128.331 76.6992 128.15 76.6992 127.961V117.797C76.6992 117.607 76.7741 117.426 76.9075 117.292C77.0409 117.158 77.2218 117.083 77.4104 117.083V117.083Z" fill="#ECBF4C"/>
        <path d="M125.399 117.083H126.202C126.391 117.083 126.572 117.158 126.705 117.292C126.838 117.426 126.913 117.607 126.913 117.797V127.961C126.913 128.15 126.838 128.331 126.705 128.465C126.572 128.599 126.391 128.674 126.202 128.674H125.399C125.21 128.674 125.029 128.599 124.896 128.465C124.762 128.331 124.688 128.15 124.688 127.961V117.797C124.688 117.607 124.762 117.426 124.896 117.292C125.029 117.158 125.21 117.083 125.399 117.083V117.083Z" fill="#ECBF4C"/>
        <path d="M71.2985 119.608V165.734C71.2948 166.098 71.1953 166.455 71.0101 166.768C70.821 167.086 70.5522 167.349 70.2303 167.531C69.9085 167.712 69.5448 167.806 69.1757 167.802H3.63515C3.0838 167.789 2.55959 167.559 2.1745 167.163C1.78941 166.767 1.57399 166.236 1.57425 165.682V119.608C1.57138 119.052 1.78565 118.518 2.17101 118.12C2.55637 117.722 3.08207 117.491 3.63515 117.478H69.1757C69.4545 117.478 69.7305 117.533 69.9881 117.64C70.2456 117.747 70.4796 117.904 70.6768 118.101C70.8739 118.299 71.0303 118.534 71.137 118.792C71.2436 119.051 71.2985 119.328 71.2985 119.608Z" fill="#01346C"/>
        <path opacity="0.06" d="M71.0101 166.758C70.821 167.076 70.5522 167.339 70.2303 167.52C69.9084 167.702 69.5448 167.795 69.1757 167.792H3.63515C3.0838 167.778 2.55959 167.549 2.1745 167.153C1.78941 166.757 1.57399 166.225 1.57425 165.672V119.608C1.57138 119.052 1.78565 118.518 2.17101 118.12C2.55637 117.722 3.08207 117.491 3.63515 117.478H7.69535C7.93248 118.414 8.22502 119.336 8.57143 120.238C11.4408 126.872 15.5904 132.871 20.7812 137.889C27.6031 144.672 35.7649 149.955 44.1309 154.681C52.6415 159.643 61.65 163.691 71.0067 166.758H71.0101Z" fill="white"/>
        <path d="M47.3485 145.396H25.4809L21.3281 176.819H51.491L47.3485 145.396Z" fill="#4978AB"/>
        <path d="M42.166 158.104C42.1659 159.441 41.7038 160.737 40.8583 161.77C40.0128 162.804 38.8362 163.512 37.529 163.773C36.2219 164.033 34.865 163.832 33.6896 163.201C32.5142 162.571 31.593 161.551 31.083 160.315C30.573 159.08 30.5057 157.705 30.8926 156.425C31.2795 155.146 32.0967 154.04 33.2048 153.297C34.313 152.554 35.6436 152.22 36.97 152.351C38.2963 152.482 39.5363 153.071 40.4787 154.016C41.0137 154.553 41.438 155.19 41.7275 155.892C42.017 156.593 42.166 157.344 42.166 158.104Z" fill="#01346C"/>
        <path d="M145.483 183.126L144.958 188.461L144.628 191.729L141.443 223.876L140.897 229.346L140.217 236.315L139.135 247.255L138.383 254.856L138.125 257.43H17.0611L16.0408 247.256L14.9692 236.316L14.2772 229.346L13.7323 223.876L10.56 191.729L10.2302 188.462L9.70312 183.126H145.483Z" fill="#FFA412"/>
        <path d="M140.217 236.314L139.145 247.244H16.0507L14.9688 236.314H140.217Z" fill="white"/>
        <path d="M141.457 223.875L140.911 229.345H14.2924L13.7461 223.875H141.457Z" fill="white"/>
        <path opacity="0.11" d="M138.383 254.865L138.125 257.439H17.0613L16.0307 247.254L15.0001 236.314L14.3084 229.354L13.7621 223.885L10.5898 191.727L10.26 188.46L9.73438 183.126H28.665C28.8402 183.25 29.0258 183.385 29.201 183.529C37.8677 190.457 44.9265 200.333 53.5415 207.652C71.6212 222.996 91.8365 235.609 113.548 245.093C119.559 247.72 125.666 250.094 131.87 252.217C133.365 252.746 135.756 253.81 138.383 254.865Z" fill="#5F5EA5"/>
        <path d="M4.38664 176.415H150.812C151.831 176.415 152.809 176.821 153.53 177.545C154.25 178.268 154.655 179.249 154.655 180.272V184.595C154.655 185.618 154.25 186.599 153.53 187.322C152.809 188.045 151.831 188.451 150.812 188.451H4.38664C3.36724 188.451 2.38958 188.045 1.66875 187.322C0.947926 186.599 0.542969 185.618 0.542969 184.595V180.272C0.542969 179.249 0.947926 178.268 1.66875 177.545C2.38958 176.821 3.36724 176.415 4.38664 176.415Z" fill="white"/>
    </g>
    <defs>
        <clipPath id="clip0_429_2474">
            <rect width="321.712" height="208.382" fill="white" transform="translate(0.542969 49.0576)"/>
        </clipPath>
    </defs>
</svg>
