<svg width="453" height="451" viewBox="0 0 453 451" fill="none" xmlns="http://www.w3.org/2000/svg">
    <g opacity="0.05">
        <path d="M10.2734 499.999H179.794C260.178 499.999 325.342 434.835 325.342 354.451H155.821C75.4375 354.451 10.2734 419.615 10.2734 499.999Z" fill="white"/>
        <path d="M10.2734 154.11V368.152C90.6573 368.152 155.821 302.988 155.821 222.604V8.5625C75.4375 8.5625 10.2734 73.7265 10.2734 154.11Z" fill="white"/>
        <path d="M489.727 0H320.206C239.822 0 174.658 65.164 174.658 145.548H344.179C424.563 145.548 489.727 80.3839 489.727 0Z" fill="white"/>
        <path d="M489.726 345.891V131.85C409.342 131.85 344.178 197.014 344.178 277.398V491.439C424.562 491.439 489.726 426.275 489.726 345.891Z" fill="white"/>
    </g>
</svg>
