<svg width="448" height="500" viewBox="0 0 448 500" fill="none" xmlns="http://www.w3.org/2000/svg">
    <g opacity="0.05">
        <path d="M-41.7266 499.999H127.794C208.178 499.999 273.342 434.835 273.342 354.451H103.821C23.4375 354.451 -41.7266 419.615 -41.7266 499.999Z" fill="white"/>
        <path d="M-41.7266 154.11V368.152C38.6573 368.152 103.821 302.988 103.821 222.604V8.5625C23.4375 8.5625 -41.7266 73.7265 -41.7266 154.11Z" fill="white"/>
        <path d="M437.727 0H268.206C187.822 0 122.658 65.164 122.658 145.548H292.179C372.563 145.548 437.727 80.3839 437.727 0Z" fill="white"/>
        <path d="M437.726 345.891V131.85C357.342 131.85 292.178 197.014 292.178 277.398V491.439C372.562 491.439 437.726 426.275 437.726 345.891Z" fill="white"/>
    </g>
</svg>
