<svg width="611" height="448" viewBox="0 0 611 448" fill="none" xmlns="http://www.w3.org/2000/svg">
    <g clip-path="url(#clip0_370_2339)">
        <path d="M582.943 443.261H37.6165C37.6165 443.261 -29.7288 390.635 15.8 292.067C57.2743 202.264 87.2664 258.218 74.7271 97.04C69.7083 32.5542 105.746 0.0513684 155.675 7.14525e-05C205.059 -0.0484527 256.649 24.6379 304.148 13.2797C316.239 10.3882 327.864 8.11446 339.025 6.45863C340.342 6.2687 341.653 6.07853 342.957 5.88813L344.03 5.74256C385.851 0.039584 421.089 2.67444 450.298 11.0109C558.174 41.7891 583.837 150.434 555.418 205.801C516.019 282.528 672.336 290.048 582.943 443.261Z" fill="#EDEDFF"/>
    </g>
    <path d="M240.38 272.425C241.161 271.652 241.764 270.717 242.145 269.686C242.526 268.655 242.677 267.553 242.586 266.457C242.495 265.362 242.165 264.3 241.62 263.345C241.074 262.391 240.325 261.568 239.427 260.935L235.63 235.902L220.033 240.811L228.578 263.144C227.613 264.724 227.262 266.602 227.59 268.423C227.917 270.245 228.902 271.883 230.357 273.026C231.812 274.17 233.635 274.741 235.483 274.63C237.33 274.519 239.073 273.734 240.38 272.425H240.38Z" fill="#ECAB7E"/>
    <path d="M224.312 260.651L214.691 215.718C213.753 211.413 213.937 206.941 215.223 202.728C216.51 198.515 218.857 194.703 222.039 191.656C234.354 179.789 250.182 164.83 255.649 160.961C260.781 157.303 266.99 155.471 273.285 155.755L273.417 155.77L281.693 163.591L263.664 193.27L236.295 210.419L239.341 254.459L224.312 260.651Z" fill="#B5453C"/>
    <path d="M258.007 199.59H217.632C215.883 199.59 214.465 201.008 214.465 202.757C214.465 204.505 215.883 205.923 217.632 205.923H258.007C259.756 205.923 261.174 204.505 261.174 202.757C261.174 201.008 259.756 199.59 258.007 199.59Z" fill="#E5C1A1"/>
    <path d="M258.007 268.465H217.632C215.883 268.465 214.465 269.883 214.465 271.632C214.465 273.38 215.883 274.798 217.632 274.798H258.007C259.756 274.798 261.174 273.38 261.174 271.632C261.174 269.883 259.756 268.465 258.007 268.465Z" fill="#E5C1A1"/>
    <path d="M238.215 441.05C237.82 441.05 237.438 440.902 237.146 440.635C236.854 440.368 236.673 440.001 236.638 439.607L216.453 202.895C216.416 202.477 216.547 202.061 216.816 201.739C217.086 201.417 217.472 201.215 217.891 201.178C218.309 201.141 218.725 201.272 219.047 201.541C219.369 201.811 219.571 202.197 219.608 202.615L238.193 421.317L256.249 202.619C256.267 202.412 256.325 202.21 256.421 202.026C256.517 201.841 256.648 201.677 256.807 201.544C256.966 201.41 257.15 201.309 257.349 201.246C257.547 201.183 257.756 201.16 257.963 201.178C258.17 201.196 258.371 201.254 258.556 201.35C258.741 201.446 258.904 201.577 259.038 201.736C259.172 201.895 259.273 202.079 259.336 202.277C259.399 202.476 259.422 202.684 259.404 202.891L239.793 439.603C239.759 439.998 239.578 440.365 239.286 440.633C238.995 440.901 238.613 441.05 238.217 441.05H238.215Z" fill="#E5C1A1"/>
    <path d="M283.529 146.28C295.001 146.28 304.301 136.979 304.301 125.507C304.301 114.035 295.001 104.734 283.529 104.734C272.056 104.734 262.756 114.035 262.756 125.507C262.756 136.979 272.056 146.28 283.529 146.28Z" fill="#ECAB7E"/>
    <path d="M221.617 431.557L211.738 428.408L219.182 388.805L233.763 393.452L221.617 431.557Z" fill="#FFB8B8"/>
    <path d="M221.07 440.318L189.268 430.182L189.53 429.356C190.542 426.195 192.765 423.565 195.714 422.042C198.662 420.519 202.093 420.228 205.256 421.232L225.134 427.568L221.07 440.318Z" fill="#2F2E41"/>
    <path d="M293.493 431.353H283.124L278.189 391.359H293.493V431.353Z" fill="#FFB8B8"/>
    <path d="M264 442H295V429H275.431C272.4 429.004 269.495 430.366 267.352 432.788C265.209 435.209 264.003 438.493 264 441.917V442Z" fill="#2F2E41"/>
    <path d="M293.192 418.375L289.692 417.853C279.078 416.271 278.443 416.177 276.758 415.437C275.897 415.059 275.837 409.346 276.354 377.234C276.733 353.662 277.205 324.326 276.288 308.577C276.25 307.956 276.004 307.365 275.59 306.901C275.175 306.436 274.617 306.125 274.003 306.017C273.39 305.909 272.759 306.011 272.211 306.306C271.662 306.601 271.229 307.072 270.982 307.643C263.084 325.881 249.834 366.694 241.066 393.701C238.017 403.096 235.608 410.516 234.084 414.964C233.789 415.805 233.192 416.506 232.408 416.93C231.624 417.355 230.711 417.472 229.845 417.258C222.63 415.454 223.112 414.687 212.836 412.029C211.947 411.803 211.18 411.241 210.695 410.461C210.211 409.682 210.047 408.746 210.238 407.848C212.096 399.082 246.112 256.955 248.716 243.444C248.804 242.981 248.983 242.541 249.242 242.148C249.501 241.755 249.836 241.417 250.226 241.154C250.617 240.892 251.056 240.709 251.517 240.616C251.979 240.524 252.454 240.524 252.916 240.616C260.574 242.159 265.234 243.796 272.802 245.379C280.968 247.088 289.413 248.854 297.65 250.503C298.47 250.668 299.204 251.118 299.723 251.774C301.761 254.348 304.784 255.793 307.983 257.323C310.141 258.354 305.252 258.261 307.131 259.748C314.739 265.771 303.798 388.069 297.188 415.691C296.976 416.556 296.449 417.31 295.71 417.807C294.97 418.303 294.073 418.506 293.192 418.375V418.375Z" fill="#2F2E41"/>
    <path d="M292.381 143.684C291.168 138.538 297.299 127.465 296.086 122.319C295.265 118.834 287.07 121.203 285.158 118.176C283.245 115.149 280.042 112.697 276.462 112.657C272.347 112.611 268.297 115.663 264.399 114.344C260.458 113.01 259.198 107.612 260.94 103.834C262.683 100.055 266.437 97.647 270.146 95.7602C276.461 92.5472 283.815 90.2009 290.575 92.3267C294.661 93.6117 298.077 96.3961 301.384 99.1195C304.397 101.602 307.462 104.141 309.569 107.428C313.696 113.868 313.447 122.546 309.92 129.333C306.393 136.121 299.966 141.102 292.884 143.993" fill="#2F2E41"/>
    <path d="M241.375 263.437C243.617 259.691 247.021 242.143 251.219 212.687C254.077 192.58 256.567 172.149 257.802 161.712C257.898 160.868 258.207 160.061 258.7 159.369C259.193 158.676 259.854 158.12 260.62 157.753C261.422 157.366 262.219 157 263.011 156.654C273.242 152.204 283.61 150.73 293.826 152.271C304.027 153.838 313.595 158.198 321.471 164.868L321.564 164.956L321.588 165.081C321.632 165.313 325.923 188.434 317.135 204.055C308.467 219.468 308.366 260.285 308.366 260.695V261.22L307.862 261.076C294.378 257.223 242.291 263.964 241.766 264.032L240.955 264.138L241.375 263.437Z" fill="#B5453C"/>
    <path d="M319.757 209.879H279.382C277.633 209.879 276.215 211.297 276.215 213.046C276.215 214.795 277.633 216.212 279.382 216.212H319.757C321.506 216.212 322.924 214.795 322.924 213.046C322.924 211.297 321.506 209.879 319.757 209.879Z" fill="#E5C1A1"/>
    <path d="M319.757 278.758H279.382C277.633 278.758 276.215 280.176 276.215 281.925C276.215 283.673 277.633 285.091 279.382 285.091H319.757C321.506 285.091 322.924 283.673 322.924 281.925C322.924 280.176 321.506 278.758 319.757 278.758Z" fill="#E5C1A1"/>
    <path d="M299.967 441.843C299.572 441.843 299.19 441.695 298.898 441.428C298.606 441.161 298.425 440.794 298.39 440.4L278.205 213.188C278.187 212.981 278.21 212.772 278.272 212.574C278.334 212.376 278.435 212.191 278.568 212.032C278.702 211.873 278.865 211.741 279.05 211.645C279.234 211.548 279.436 211.489 279.643 211.471C279.85 211.453 280.058 211.475 280.257 211.538C280.455 211.6 280.639 211.701 280.799 211.834C280.958 211.968 281.09 212.131 281.186 212.315C281.282 212.5 281.341 212.701 281.36 212.908L299.944 422.11L318.001 212.912C318.037 212.494 318.238 212.107 318.559 211.837C318.881 211.566 319.296 211.435 319.715 211.471C320.133 211.507 320.52 211.708 320.79 212.029C321.061 212.35 321.192 212.766 321.156 213.184L301.545 440.396C301.511 440.79 301.33 441.158 301.038 441.426C300.747 441.694 300.365 441.843 299.969 441.843H299.967Z" fill="#E5C1A1"/>
    <path d="M286.929 279.759C286.693 278.685 286.695 277.573 286.936 276.5C287.176 275.428 287.648 274.421 288.32 273.551C288.991 272.68 289.846 271.968 290.822 271.463C291.799 270.959 292.874 270.675 293.972 270.631L310.762 251.68L321.188 264.276L301.88 278.381C301.831 280.231 301.106 281.999 299.841 283.35C298.576 284.701 296.859 285.541 295.017 285.71C293.174 285.88 291.333 285.368 289.842 284.271C288.352 283.174 287.315 281.569 286.929 279.759V279.759Z" fill="#ECAB7E"/>
    <path d="M296.707 266.568L323.194 231.252L309.536 201.984L310.528 167.272L321.725 165.203L321.844 165.263C327.283 168.444 331.5 173.357 333.82 179.216C336.308 185.435 341.467 206.593 345.357 223.247C346.373 227.534 346.272 232.009 345.063 236.245C343.853 240.481 341.577 244.335 338.451 247.439L305.959 279.932L296.707 266.568Z" fill="#B5453C"/>
    <path d="M185.672 432.02L221.909 440.745C222.612 440.931 223.358 440.865 224.017 440.557C224.676 440.249 225.206 439.72 225.515 439.062L256.644 356.298C256.781 355.98 256.852 355.637 256.853 355.291C256.853 354.944 256.783 354.601 256.646 354.283C256.489 353.925 256.262 353.603 255.977 353.336C255.691 353.07 255.355 352.863 254.988 352.73L227.743 342.326C227.312 342.161 226.852 342.089 226.391 342.114C225.931 342.14 225.481 342.262 225.071 342.473C224.715 342.649 224.401 342.899 224.15 343.207C223.898 343.514 223.716 343.872 223.614 344.256L223.614 344.26L204.384 417.204L204.098 417.222C203.988 417.229 192.964 417.979 188.006 423.93C187.081 425.045 186.396 426.339 185.994 427.731C185.593 429.123 185.483 430.584 185.672 432.02Z" fill="#CCCCCC"/>
    <path d="M584 442C584.001 442.131 583.972 442.262 583.917 442.383C583.862 442.505 583.781 442.615 583.678 442.708C583.576 442.801 583.454 442.875 583.32 442.925C583.186 442.975 583.042 443 582.897 443H38.1028C37.8103 443 37.5298 442.895 37.323 442.707C37.1162 442.52 37 442.265 37 442C37 441.735 37.1162 441.48 37.323 441.293C37.5298 441.105 37.8103 441 38.1028 441H582.897C583.042 441 583.186 441.025 583.32 441.075C583.454 441.125 583.576 441.199 583.678 441.292C583.781 441.385 583.862 441.495 583.917 441.617C583.972 441.738 584.001 441.869 584 442Z" fill="#3F3D56"/>
    <path d="M211.915 385.628L211.748 387.203L244.786 390.702L244.953 389.127L211.915 385.628Z" fill="#B3B3B3"/>
    <path d="M209.035 398.669L208.385 400.113L234.971 412.075L235.621 410.631L209.035 398.669Z" fill="#B3B3B3"/>
    <path d="M248.431 378.034L217.094 367.655L217.744 366.211L249.081 376.59L248.431 378.034Z" fill="#B3B3B3"/>
    <path d="M251.597 370.909L220.26 355.78L220.91 354.336L252.247 369.465L251.597 370.909Z" fill="#B3B3B3"/>
    <path d="M206.272 411.07L205.244 412.273L227.838 431.574L228.866 430.37L206.272 411.07Z" fill="#B3B3B3"/>
    <path d="M199.858 417.467L198.416 418.121L207.488 438.126L208.93 437.473L199.858 417.467Z" fill="#B3B3B3"/>
    <path d="M412.272 418.412V57.5619C412.272 52.6891 412.364 47.806 412.272 42.9338C412.268 42.7208 412.272 42.5073 412.272 42.2942C412.272 39.2378 407.522 39.2327 407.522 42.2942V403.144C407.522 408.017 407.429 412.9 407.522 417.772C407.526 417.985 407.522 418.199 407.522 418.412C407.522 421.468 412.272 421.473 412.272 418.412V418.412Z" fill="#E78B37"/>
    <path d="M438.543 143.15H381.542C380.178 143.148 378.87 142.605 377.905 141.641C376.941 140.676 376.398 139.368 376.396 138.004V68.7318C376.398 67.3675 376.941 66.0596 377.905 65.0949C378.87 64.1302 380.178 63.5875 381.542 63.5859H438.543C439.907 63.5875 441.215 64.1302 442.18 65.0949C443.145 66.0596 443.688 67.3675 443.689 68.7318V138.004C443.688 139.368 443.145 140.676 442.18 141.641C441.215 142.605 439.907 143.148 438.543 143.15Z" fill="#E78B37"/>
    <path d="M507.14 399.589C502.153 409.944 492.962 417.647 483.326 423.909C472.796 430.748 461.45 436.24 449.554 440.258C447.923 440.82 446.276 441.342 444.622 441.841H377.717C377.25 441.334 376.806 440.804 376.387 440.258C371.906 434.518 369.483 427.163 370.362 419.959C371.494 410.704 378.524 402.202 387.629 400.238C396.741 398.267 407.128 403.706 409.898 412.612C411.419 395.449 413.176 377.572 422.296 362.958C430.561 349.729 444.867 340.261 460.368 338.567C469.485 337.617 478.684 339.301 486.873 343.42C487.625 343.8 488.37 344.195 489.098 344.607C494.013 347.394 498.35 351.094 501.876 355.508C511.542 367.748 513.909 385.537 507.14 399.589Z" fill="#92BC67"/>
    <path d="M488.606 345.695C457.494 371.034 432.909 403.462 416.912 440.261C416.683 440.783 416.453 441.313 416.231 441.844H413.08C413.302 441.313 413.524 440.783 413.753 440.261C416.801 433.135 420.166 426.137 423.863 419.321C431.73 404.826 440.986 391.129 451.5 378.423C462.008 365.701 473.745 354.046 486.54 343.628C486.641 343.546 486.753 343.477 486.872 343.423C487.095 343.326 487.336 343.281 487.578 343.29C487.821 343.3 488.058 343.364 488.272 343.479C488.486 343.593 488.671 343.754 488.814 343.95C488.957 344.146 489.054 344.371 489.097 344.61C489.12 344.818 489.086 345.029 489 345.219C488.914 345.41 488.778 345.574 488.606 345.695Z" fill="#A8D29F"/>
    <defs>
        <clipPath id="clip0_370_2339">
            <rect width="611" height="447.808" fill="white"/>
        </clipPath>
    </defs>
</svg>
