<svg xmlns="http://www.w3.org/2000/svg" width="631.987" height="507.403" viewBox="0 0 631.987 507.403">
  <g id="Group_13" data-name="Group 13" transform="translate(-90.042 -1757)">
    <path id="Vector" d="M78.53,39.265A39.265,39.265,0,1,1,39.265,0,39.265,39.265,0,0,1,78.53,39.265Z" transform="translate(360.962 2185.5)" fill="#fff"/>
    <path id="Vector-2" data-name="Vector" d="M497.252,464.794c21.967-6.6,45.32-13.476,62.741-29.159,15.567-14.014,26.077-35.414,19.628-56.432-6.436-20.974-25.714-34.96-45.617-41.916-11.289-3.945-23.1-6.134-34.9-7.853-12.834-1.869-25.724-3.4-38.608-4.874q-78.254-8.95-157.1-10.935c-25.936-.653-51.867-.637-77.806-.261-23.166.336-47.564.328-69.054-9.518-16.712-7.656-31.88-21.586-36.536-39.891-5.375-21.13,4.539-42.648,18.762-57.952,7.5-8.066,16.259-14.856,25.3-21.1,9.805-6.772,19.953-13.065,30.32-18.939a422.211,422.211,0,0,1,63.82-29.422c10.879-3.956,21.921-7.369,33.057-10.517a282.867,282.867,0,0,0,27.926-8.943c17.57-7,34.281-18.864,38.748-38.31,4.234-18.43-2.9-38.438-15.42-52.129C328.029,10.8,306.2,3.86,285.267,2.736c-23.5-1.261-46.454,4.62-68.54,12.083-23.556,7.961-46.6,17.114-70.658,23.562A475.412,475.412,0,0,1,73.346,51.9c-12.02,1.28-24.4,2.725-36.5,1.745-10.134-.821-20.217-3.8-27.685-10.994C2.761,36.484-1.054,28.008.257,19.064c.238-1.625,2.706-.934,2.469.681-1.6,10.888,5.8,20.92,14.924,26.059,10.54,5.94,23.366,5.948,35.1,5.268A459.08,459.08,0,0,0,128.306,40.15c24.406-5.574,47.941-13.543,71.449-22.056,22.326-8.085,45.152-15.976,69-17.727,20.7-1.519,42.467,1.5,60.5,12.311a66.925,66.925,0,0,1,31.211,43.548C364.1,74,359.07,91.895,345.615,104.3c-13.932,12.843-33.034,18.334-50.837,23.391C272.2,134.1,250.1,141.6,228.717,151.337a414.692,414.692,0,0,0-62.141,34.936c-18.989,12.976-37.729,29.3-43.735,52.454a48.322,48.322,0,0,0,2.4,32.406c4.162,9.056,11.017,16.675,19,22.55,19.053,14.02,43.066,16.9,66.08,17.185,25.848.322,51.7-.551,77.553-.126q79.041,1.3,157.759,9.622,19.725,2.088,39.4,4.615c11.8,1.516,23.636,3.022,35.235,5.714,20.625,4.787,40.694,13.992,53.513,31.479a52.341,52.341,0,0,1,10.2,25.988c.9,9.837-1.511,19.692-5.958,28.442-9.844,19.368-28.282,31.688-47.863,39.781-10.488,4.335-21.367,7.619-32.224,10.88a1.281,1.281,0,0,1-.681-2.469Z" transform="translate(137.546 1797.03)" fill="#f2f2f2"/>
    <path id="Vector-3" data-name="Vector" d="M40.972,20.486A20.486,20.486,0,1,1,20.486,0,20.486,20.486,0,0,1,40.972,20.486Z" transform="translate(118.971 1795.838)" fill="#f2f2f2"/>
    <path id="Vector-4" data-name="Vector" d="M40.972,20.486A20.486,20.486,0,1,1,20.486,0,20.486,20.486,0,0,1,40.972,20.486Z" transform="translate(261.093 1834.676)" fill="#f2f2f2"/>
    <path id="Vector-5" data-name="Vector" d="M40.972,20.486A20.486,20.486,0,1,1,20.486,0,20.486,20.486,0,0,1,40.972,20.486Z" transform="translate(381.448 1757)" fill="#f2f2f2"/>
    <path id="Vector-6" data-name="Vector" d="M40.972,20.486A20.486,20.486,0,1,1,20.486,0,20.486,20.486,0,0,1,40.972,20.486Z" transform="translate(456.564 1844.066)" fill="#f2f2f2"/>
    <path id="Vector-7" data-name="Vector" d="M40.972,20.486A20.486,20.486,0,1,1,20.486,0,20.486,20.486,0,0,1,40.972,20.486Z" transform="translate(354.987 1944.789)" fill="#f2f2f2"/>
    <path id="Vector-8" data-name="Vector" d="M40.972,20.486A20.486,20.486,0,1,1,20.486,0,20.486,20.486,0,0,1,40.972,20.486Z" transform="translate(226.096 1993.443)" fill="#f2f2f2"/>
    <path id="Vector-9" data-name="Vector" d="M40.972,20.486A20.486,20.486,0,1,1,20.486,0,20.486,20.486,0,0,1,40.972,20.486Z" transform="translate(362.669 2069.412)" fill="#f2f2f2"/>
    <path id="Vector-10" data-name="Vector" d="M40.972,20.486A20.486,20.486,0,1,1,20.486,0,20.486,20.486,0,0,1,40.972,20.486Z" transform="translate(509.486 2112.092)" fill="#f2f2f2"/>
    <path id="Vector-11" data-name="Vector" d="M40.972,20.486A20.486,20.486,0,1,1,20.486,0,20.486,20.486,0,0,1,40.972,20.486Z" transform="translate(681.057 2102.702)" fill="#f2f2f2"/>
    <path id="Vector-12" data-name="Vector" d="M112.495,0C51.129.436.883,50.3.011,111.666,0,112.232,0,116.216,0,121.426a28.807,28.807,0,0,0,28.8,28.805h0a28.824,28.824,0,0,0,28.818-28.849c0-3.544,0-6,0-6.148a54.63,54.63,0,1,1,84.1,45.991l.01.012s-41,26.393-53.495,62.6l.011,0a80.24,80.24,0,0,0-3.306,22.849c0,3.18.187,31,.549,53.586a29.693,29.693,0,0,0,29.7,29.212h0a29.7,29.7,0,0,0,29.7-29.885c-.126-20.682-.193-44.763-.193-46.511,0-22.231,21.447-44.382,39.063-58.827a118.48,118.48,0,0,0,40.748-64.872,74.058,74.058,0,0,0,2.133-16.076A113.314,113.314,0,0,0,112.495,0Z" transform="translate(283.527 1815.044)" fill="#fff"/>
    <path id="Vector-13" data-name="Vector" d="M51.215,25.608A25.608,25.608,0,1,1,25.608,0,25.608,25.608,0,0,1,51.215,25.608Z" transform="translate(542.824 1938.81)" fill="#2f2e41"/>
    <path id="Vector-14" data-name="Vector" d="M15.443,40.364H4.979L0,0H15.446Z" transform="translate(505.668 2213.533)" fill="#a0616a"/>
    <path id="Vector-15" data-name="Vector" d="M12.707,0H32.889V12.707H0A12.707,12.707,0,0,1,12.707,0Z" transform="translate(490.465 2250.907)" fill="#2f2e41"/>
    <path id="Vector-16" data-name="Vector" d="M15.443,40.364H4.979L0,0H15.446Z" transform="translate(586.759 2213.533)" fill="#a0616a"/>
    <path id="Vector-17" data-name="Vector" d="M12.707,0H32.889V12.707H0A12.707,12.707,0,0,1,12.707,0Z" transform="translate(571.555 2250.907)" fill="#2f2e41"/>
    <path id="Vector-18" data-name="Vector" d="M41.93,20.965A20.965,20.965,0,1,1,20.965,0,20.965,20.965,0,0,1,41.93,20.965Z" transform="translate(543.576 1948.245)" fill="#a0616a"/>
    <path id="Vector-19" data-name="Vector" d="M74.958,59.828l9.381-21.553A26.788,26.788,0,0,0,78.406,7.887a27.206,27.206,0,0,0-2.621-2.279A26.406,26.406,0,0,0,59.576,0,27.468,27.468,0,0,0,48.138,2.544c-.308.137-.606.282-.914.427-.589.282-1.169.589-1.733.9a27.04,27.04,0,0,0-13.4,20.384l-4.14,34.69C26.909,61.672-10.239,160,2.753,235.078a3.813,3.813,0,0,0,3.261,3.133L19.185,240a3.838,3.838,0,0,0,4.276-3.013l22.1-105.341a2.99,2.99,0,0,1,5.8-.2L82.589,242.231a3.817,3.817,0,0,0,3.679,2.8,4.372,4.372,0,0,0,.743-.068l16.09-3.1a3.816,3.816,0,0,0,3.1-4.106C103.835,211.391,91.27,79.315,74.958,59.828Z" transform="translate(502.078 1997.981)" fill="#2f2e41"/>
    <path id="Vector-20" data-name="Vector" d="M.058,7.685A8.583,8.583,0,0,0,9.1,17.248L20.82,45.41l8.864-13.14L17.2,7.541A8.63,8.63,0,0,0,.058,7.685Z" transform="translate(483.007 1978.972)" fill="#a0616a"/>
    <path id="Vector-21" data-name="Vector" d="M9.71,34.539A8.584,8.584,0,0,0,16.9,23.517L41.558,5.559,26.714,0,5.576,17.906A8.63,8.63,0,0,0,9.71,34.539Z" transform="translate(553.668 2051.626)" fill="#a0616a"/>
    <path id="Vector-22" data-name="Vector" d="M30.3,42.013a14.559,14.559,0,0,1-2.815-.278,13.918,13.918,0,0,1-10.2-8.208L.871,13.508a3.842,3.842,0,0,1,.948-5.7L13.5.575a3.841,3.841,0,0,1,5.305,1.272L30.377,20.911,52.537,4.534a8.3,8.3,0,0,1,9.654,13.283L40.073,37.993A13.873,13.873,0,0,1,30.3,42.013Z" transform="translate(492.88 2001.144)" fill="#2f2e41"/>
    <path id="Vector-23" data-name="Vector" d="M14.226,65.862h-.09a3.848,3.848,0,0,1-2.826-1.34L.925,52.405a3.841,3.841,0,0,1,.786-5.7L21.156,33.746,3.54,12.566a8.3,8.3,0,0,1,12.708-10.4L37.658,23.091a14.105,14.105,0,0,1-3.137,23l-17.5,18.569a3.848,3.848,0,0,1-2.8,1.206Z" transform="translate(568.837 2007.403)" fill="#2f2e41"/>
    <path id="Vector-24" data-name="Vector" d="M11.6,32.776a3.954,3.954,0,0,1-.5-.032,3.808,3.808,0,0,1-3.167-2.62L.128,6.2A2.631,2.631,0,0,1,1.488,3.021l.253-.12c.23-.109.457-.217.689-.321A27.8,27.8,0,0,1,14.042,0,26.74,26.74,0,0,1,28.691,4.4a2.672,2.672,0,0,1,.769,3.666L14.821,31A3.8,3.8,0,0,1,11.6,32.776Z" transform="translate(547.613 1995.847)" fill="#e6e6e6"/>
    <path id="Vector-25" data-name="Vector" d="M16.759,8.379A8.379,8.379,0,1,1,8.379,0,8.379,8.379,0,0,1,16.759,8.379Z" transform="translate(580.241 1936.227)" fill="#2f2e41"/>
    <path id="Vector-26" data-name="Vector" d="M22.193,0A22.193,22.193,0,0,0,0,22.193v9.389H11.548l5.523-9.389,1.657,9.389H53.776l-9.389-9.389A22.193,22.193,0,0,0,22.193,0Z" transform="translate(537.703 1935.396)" fill="#2f2e41"/>
    <path id="Vector-27" data-name="Vector" d="M0,8.993A12.932,12.932,0,0,1,14.068.119c5.34.893,9.562,5.185,12.078,9.979s3.677,10.16,5.369,15.3,4.09,10.314,8.359,13.644,10.821,4.232,15.014.808a17.173,17.173,0,0,1-31.99,6.13c-2.213-3.937-2.784-8.55-3.44-13.018s-1.509-9.091-4.15-12.753S7.721,14.157,3.525,15.825Z" transform="translate(592.928 1929.874)" fill="#2f2e41"/>
    <path id="Vector-28" data-name="Vector" d="M37.339,89.7A28.807,28.807,0,0,1,8.536,60.9c0-5.21,0-9.194.011-9.76A112.253,112.253,0,0,1,21.657,0,112.505,112.505,0,0,0,.011,64.795C0,65.361,0,69.345,0,74.555A28.807,28.807,0,0,0,28.8,103.36h0A28.828,28.828,0,0,0,56.535,82.37a28.7,28.7,0,0,1-19.2,7.333Z" transform="translate(283.123 1861.948)" fill="#3f3d56"/>
    <path id="Vector-29" data-name="Vector" d="M44.187,13.72A54.633,54.633,0,0,1,91.7,90.042,54.627,54.627,0,1,0,0,32.864,54.519,54.519,0,0,1,44.187,13.72Z" transform="translate(353.787 1862.021)" fill="#3f3d56"/>
    <path id="Vector-30" data-name="Vector" d="M38.781,116.49a29.693,29.693,0,0,1-29.7-29.212C8.723,64.7,8.536,36.873,8.536,33.693a80.24,80.24,0,0,1,3.306-22.849l-.01,0A81.15,81.15,0,0,1,16.522,0,93.935,93.935,0,0,0,3.3,24.5l.01,0A80.24,80.24,0,0,0,0,47.35c0,3.18.187,31,.548,53.586a29.693,29.693,0,0,0,29.7,29.212h0a29.707,29.707,0,0,0,28.511-21.381,29.585,29.585,0,0,1-19.975,7.724Z" transform="translate(368.055 2014.413)" fill="#3f3d56"/>
    <path id="Vector-31" data-name="Vector" d="M0,40.365H10.467L15.446,0H0Z" transform="translate(140.008 2213.921)" fill="#ffb8b8"/>
    <path id="Vector-32" data-name="Vector" d="M0,0H32.889V12.707H12.707A12.707,12.707,0,0,1,3.722,8.985,12.707,12.707,0,0,1,0,0H0Z" transform="translate(170.657 2264.002) rotate(179.997)" fill="#2f2e41"/>
    <path id="Vector-33" data-name="Vector" d="M0,40.365H10.467L15.446,0H0Z" transform="translate(102.45 2213.921)" fill="#ffb8b8"/>
    <path id="Vector-34" data-name="Vector" d="M0,0H32.889V12.707H12.707A12.707,12.707,0,0,1,3.722,8.985,12.707,12.707,0,0,1,0,0H0Z" transform="translate(133.099 2264.002) rotate(179.997)" fill="#2f2e41"/>
    <path id="Vector-35" data-name="Vector" d="M14,140.042,3.78,139.5a3.989,3.989,0,0,1-3.772-4.24L12.225,0,68.486,15.182l5.42-1.479L56.956,133.448a4.009,4.009,0,0,1-3.72,3.367l-11.019.513a3.99,3.99,0,0,1-4.209-4.093l2-71.869a1.33,1.33,0,0,0-2.632-.307L18.118,136.868a3.965,3.965,0,0,1-3.9,3.18C14.146,140.048,14.074,140.046,14,140.042Z" transform="translate(97.596 2101.831)" fill="#2f2e41"/>
    <path id="Vector-36" data-name="Vector" d="M41.93,20.965A20.965,20.965,0,1,1,20.965,0,20.965,20.965,0,0,1,41.93,20.965Z" transform="translate(120.924 1949.226)" fill="#ffb8b8"/>
    <path id="Vector-37" data-name="Vector" d="M.037,33.216,2.342,82.952l.833,18.095A3.963,3.963,0,0,0,5.8,104.611L59.862,124.2a3.822,3.822,0,0,0,1.365.239,3.964,3.964,0,0,0,3.981-4.087L62.992,30.92A31.523,31.523,0,0,0,36.75.466c-.523-.08-1.055-.16-1.587-.231A30.942,30.942,0,0,0,10.268,8.295,31.784,31.784,0,0,0,.037,33.216Z" transform="translate(106.947 1998.569)" fill="#ccc"/>
    <path id="Vector-38" data-name="Vector" d="M22.916,38.355a8.59,8.59,0,0,1-4.583-13L0,.979,15.821,0,30.8,23.3a8.631,8.631,0,0,1-7.889,15.054Z" transform="translate(169.719 2074.485)" fill="#ffb8b8"/>
    <path id="Vector-39" data-name="Vector" d="M30.622,82.72a3.965,3.965,0,0,1-2.169-2.15L.832,14.763A10.639,10.639,0,1,1,20.451,6.529L48.072,72.336a3.994,3.994,0,0,1-2.134,5.222L33.675,82.705a3.962,3.962,0,0,1-3.054.015Z" transform="translate(149.123 2012.711)" fill="#ccc"/>
    <path id="Vector-40" data-name="Vector" d="M.471,53.028,27,2.232A4.164,4.164,0,0,1,32.612.471L71.119,20.581a4.164,4.164,0,0,1,1.761,5.612L46.351,76.99a4.164,4.164,0,0,1-5.612,1.761L2.232,58.64A4.164,4.164,0,0,1,.471,53.028Z" transform="translate(134.678 2040.081)" fill="#3f3d56"/>
    <path id="Vector-41" data-name="Vector" d="M38.707,20.669a8.59,8.59,0,0,0-13.245-3.807L.043,0,0,15.851,24.144,29.433a8.631,8.631,0,0,0,14.562-8.764Z" transform="translate(114.233 2049.233)" fill="#ffb8b8"/>
    <path id="Vector-42" data-name="Vector" d="M30.76,67.5,9.987,51.042A14.65,14.65,0,0,1,3.309,27.88L22.171,3.16a8.618,8.618,0,0,1,14.622,8.779L21.868,36.351,43.8,46.754a3.989,3.989,0,0,1,1.663,5.736L36.61,66.5a4,4,0,0,1-2.7,1.8l-.066.011A4.008,4.008,0,0,1,30.76,67.5Z" transform="translate(90.042 2005.97)" fill="#ccc"/>
    <path id="Vector-43" data-name="Vector" d="M10.307,43.569a1.822,1.822,0,0,1,1.585-2.406,4.209,4.209,0,0,1,2.967,1.464,11.808,11.808,0,0,0,2.622,2.251,2.255,2.255,0,0,0,2.968-.536c.543-.915.171-2.141-.158-3.2A31.5,31.5,0,0,1,18.9,32.8c-.095-3.159.351-6.455,2.1-8.918,2.257-3.179,6.292-4.386,10.111-4.3s7.576,1.266,11.359,2.012c1.306.257,2.841.389,3.714-.623.929-1.076.588-2.818.193-4.271-1.025-3.771-2.113-7.669-4.494-10.714A16.131,16.131,0,0,0,31.586.187,24.7,24.7,0,0,0,20.1,1.492,30.811,30.811,0,0,0,5,12.007,24.955,24.955,0,0,0,.24,30.445,22.763,22.763,0,0,0,8.678,44.831Z" transform="translate(115.74 1940.66)" fill="#2f2e41"/>
    <path id="Vector-44" data-name="Vector" d="M30.681,61.022A39.26,39.26,0,0,1,16.11,0,39.263,39.263,0,1,0,69.518,56.733a39.238,39.238,0,0,1-38.837,4.289Z" transform="translate(360.896 2193.431)" fill="#3f3d56"/>
  </g>
</svg>
