<svg xmlns="http://www.w3.org/2000/svg" xmlns:xlink="http://www.w3.org/1999/xlink" width="881.417" height="646" viewBox="0 0 881.417 646">
  <defs>
    <linearGradient id="linear-gradient" x1="6497.91" y1="1474.49" x2="6542.979" y2="1474.49" gradientUnits="objectBoundingBox">
      <stop offset="0" stop-color="#090056"/>
      <stop offset="1" stop-color="#020039"/>
    </linearGradient>
    <linearGradient id="linear-gradient-2" x1="6528.502" y1="788.18" x2="6442.422" y2="886.78" gradientUnits="objectBoundingBox">
      <stop offset="0" stop-color="#fdf53f"/>
      <stop offset="1" stop-color="#d93c65"/>
    </linearGradient>
    <linearGradient id="linear-gradient-3" x1="6471.337" y1="1165.31" x2="6531.427" y2="1165.31" gradientUnits="objectBoundingBox">
      <stop offset="0" stop-color="#ffb27d"/>
      <stop offset="1" stop-color="#ff928e"/>
    </linearGradient>
    <linearGradient id="linear-gradient-4" x1="6286.958" y1="1423.19" x2="6278.347" y2="1498.31" xlink:href="#linear-gradient-3"/>
    <linearGradient id="linear-gradient-5" x1="6607.854" y1="1475.69" x2="6672.725" y2="1475.69" xlink:href="#linear-gradient"/>
    <linearGradient id="linear-gradient-6" x1="6350.968" y1="1431.22" x2="6342.358" y2="1506.35" xlink:href="#linear-gradient-3"/>
    <linearGradient id="linear-gradient-7" x1="6764.092" y1="1087.7" x2="6488.783" y2="1514.9" xlink:href="#linear-gradient"/>
    <linearGradient id="linear-gradient-8" x1="6709.693" y1="905.78" x2="6453.383" y2="1468.25" gradientUnits="objectBoundingBox">
      <stop offset="0" stop-color="#9a90ff"/>
      <stop offset="1" stop-color="#9b91ff"/>
    </linearGradient>
    <linearGradient id="linear-gradient-9" x1="6675.275" y1="852.67" x2="6615.345" y2="937.22" gradientUnits="objectBoundingBox">
      <stop offset="0" stop-color="#ffb27d"/>
      <stop offset="1" stop-color="#ffb27d"/>
    </linearGradient>
    <linearGradient id="linear-gradient-10" x1="6626.351" y1="834.69" x2="6566.421" y2="919.24" xlink:href="#linear-gradient-9"/>
    <linearGradient id="linear-gradient-11" x1="6512.894" y1="937.17" x2="6480.034" y2="1079.19" xlink:href="#linear-gradient-9"/>
    <linearGradient id="linear-gradient-12" x1="4973.2" y1="572.922" x2="4995.392" y2="664.162" xlink:href="#linear-gradient-3"/>
    <linearGradient id="linear-gradient-13" x1="5186.329" y1="741.843" x2="5234.069" y2="698.996" xlink:href="#linear-gradient"/>
    <linearGradient id="linear-gradient-14" x1="4413.21" y1="354.494" x2="4412.009" y2="285.821" xlink:href="#linear-gradient-9"/>
    <linearGradient id="linear-gradient-15" x1="5911.159" y1="924.5" x2="5843.129" y2="1049.49" gradientUnits="objectBoundingBox">
      <stop offset="0" stop-color="#3e30cb"/>
      <stop offset="1" stop-color="#1d129d"/>
    </linearGradient>
  </defs>
  <g id="Group_721" data-name="Group 721" transform="translate(-102 665)">
    <g id="Group_719" data-name="Group 719" transform="translate(102 -665)">
      <path id="Vector" d="M840.942,639.44H54.265S-42.886,563.523,22.793,421.33C82.623,291.782,125.889,372.5,107.8,139.988,100.56,46.962,152.548.074,224.574,0c71.241-.07,145.663,35.542,214.184,19.157q26.163-6.257,50.313-9.84,2.85-.411,5.672-.823l1.548-.21c60.33-8.227,111.164-4.426,153.3,7.6,155.62,44.4,192.641,201.129,151.644,281C744.4,407.57,969.9,418.417,840.942,639.44Z" transform="translate(0 0)" fill="#ebf3fa"/>
      <g id="Group_717" data-name="Group 717" transform="translate(45.188 133.136)">
        <g id="Group_644" data-name="Group 644" transform="translate(246.35)">
          <path id="Vector-2" data-name="Vector" d="M0,0H378.174V507.779H0Z" fill="#f7b076"/>
          <path id="Vector-3" data-name="Vector" d="M0,0H337.886V468.631H0Z" transform="translate(22.044 16.343)" fill="#fff"/>
          <path id="Vector-4" data-name="Vector" d="M0,0V17.293A17.342,17.342,0,0,0,5.027,29.519a17.124,17.124,0,0,0,12.145,5.068h92.222a17.124,17.124,0,0,0,12.145-5.068,17.342,17.342,0,0,0,5.027-12.225V0Z" transform="translate(122.384)" fill="#f99746"/>
          <path id="Vector-5" data-name="Vector" d="M24.5,34.512C19.168,36.237,13.969,37.137,9.881,36.8,3.653,36.278.144,33.016,0,27.613A13.85,13.85,0,0,1,5.167,16.528c-.034-.291-.061-.585-.085-.88-.227-3.022.42-5.028,1.924-5.969,2.432-1.512,6.046.558,6.2.646l-.809,1.38c-.809-.47-3.214-1.506-4.545-.677-1.148.721-1.284,2.707-1.185,4.3a34.158,34.158,0,0,1,11.079-4.95A59.325,59.325,0,0,1,28.178,8.6a8.988,8.988,0,0,1,.091-.988c.108-.741.366-1.611,1.1-1.783a1.205,1.205,0,0,1,1.29.677,3.864,3.864,0,0,1,.491,1.942c1.158-.027,2.235,0,3.191.064l.027-.061a18.284,18.284,0,0,1,.244-5.569c.406-1.851,1.07-2.785,2-2.876a1.229,1.229,0,0,1,1.27.785c.522,1.255-.457,4.642-1.873,7.9,1.328.223,2.229.589,2.513,1.1a1.19,1.19,0,0,1-.339,1.5,1.887,1.887,0,0,1-2.34.5,2.315,2.315,0,0,1-.857-.978,16.672,16.672,0,0,1-3.153,4.69,1.576,1.576,0,0,1-1.863.271,1.693,1.693,0,0,1-.4-.338,22.322,22.322,0,0,1-1.219,2.521c-1.673,2.934-3.56,4.446-5.453,4.355a3.094,3.094,0,0,1-2.032-.9,29.584,29.584,0,0,1-3.671,6.03,4.3,4.3,0,0,1-4.779,1.692C9.306,28.161,6.5,23.674,5.448,18.362a11.983,11.983,0,0,0-3.854,9.176c.119,4.612,2.95,7.177,8.41,7.633C23.788,36.315,47.957,23.515,49.79,14.1,48.31,21.786,36.841,30.516,24.5,34.512ZM6.857,17.167c.84,5.607,3.648,9.724,6.032,10.469a2.721,2.721,0,0,0,3.048-1.171,27.5,27.5,0,0,0,3.851-6.581,9.806,9.806,0,0,1-.677-2.084,15.1,15.1,0,0,1,0-6.124A40.247,40.247,0,0,0,11.565,14.3a24.929,24.929,0,0,0-4.708,2.869ZM21.57,19.79a1.839,1.839,0,0,0,1.409.958c1.213.051,2.669-1.238,3.99-3.549a21.069,21.069,0,0,0,1.649-3.722,15.742,15.742,0,0,1-.447-3.252,57.3,57.3,0,0,0-5.7.744c1.043,2.013.444,5.424-.894,8.821ZM30.294,13.5c.251.751.474.9.474.9a14.935,14.935,0,0,0,2.845-4.324c-.759-.03-1.616-.034-2.547,0a19.436,19.436,0,0,1-.772,3.424ZM20.9,11.442a12.238,12.238,0,0,0-.2,5.979c.8-2.646.969-4.94.2-5.975Zm15.519-9.22a9.784,9.784,0,0,0-.379,1.692,12.957,12.957,0,0,0,.379-1.692Z" transform="translate(179.775 429.104)" fill="#f99746"/>
          <path id="Vector-6" data-name="Vector" d="M60.812,61.192H0V0H60.812ZM2.865,58.309H57.944V2.883H2.865Z" transform="translate(62.712 164.572)" fill="#92bc67"/>
          <path id="Vector-7" data-name="Vector" d="M23.2,59.292a4.324,4.324,0,0,1-3.329-1.567L.991,34.9a4.32,4.32,0,0,1,6.662-5.5L22.628,47.489,49.73,2.106a4.325,4.325,0,1,1,7.43,4.428L26.916,57.183a4.329,4.329,0,0,1-3.38,2.095C23.423,59.288,23.314,59.292,23.2,59.292Z" transform="translate(71.454 154.31)" fill="#f99746"/>
          <path id="Vector-8" data-name="Vector" d="M60.812,60.812H0V0H60.812ZM2.865,57.947H57.944V2.865H2.865Z" transform="translate(62.712 260.351)" fill="#92bc67"/>
          <path id="Vector-9" data-name="Vector" d="M23.237,59.292a4.322,4.322,0,0,1-3.328-1.567L1.038,34.908a4.318,4.318,0,1,1,6.659-5.5l14.967,18.08L49.735,2.105A4.323,4.323,0,1,1,57.16,6.533L26.95,57.18a4.327,4.327,0,0,1-3.379,2.094C23.458,59.285,23.349,59.292,23.237,59.292Z" transform="translate(71.454 249.329)" fill="#f99746"/>
          <path id="Vector-10" data-name="Vector" d="M60.812,61.192H0V0H60.812ZM2.865,58.309H57.944V2.879H2.865Z" transform="translate(62.712 353.849)" fill="#92bc67"/>
          <path id="Vector-11" data-name="Vector" d="M23.208,59.292a4.313,4.313,0,0,1-3.33-1.567L.992,34.908a4.32,4.32,0,0,1,6.664-5.5l14.98,18.084L49.728,2.105A4.325,4.325,0,1,1,57.16,6.533L26.924,57.177a4.321,4.321,0,0,1-3.381,2.094A2.2,2.2,0,0,1,23.208,59.292Z" transform="translate(71.454 341.687)" fill="#f99746"/>
          <g id="Group" transform="translate(164.818 178.964)" opacity="0.5">
            <path id="Vector-12" data-name="Vector" d="M0,0H79.66V5.961H0Z" transform="translate(0 0)" fill="#abd87d" opacity="0.5"/>
            <path id="Vector-13" data-name="Vector" d="M0,0H18.106V5.961H0Z" transform="translate(129.242 0)" fill="#abd87d" opacity="0.5"/>
            <path id="Vector-14" data-name="Vector" d="M0,0H79.66V5.961H0Z" transform="translate(0 26.622)" fill="#abd87d" opacity="0.5"/>
            <path id="Vector-15" data-name="Vector" d="M0,0H26.993V5.961H0Z" transform="translate(120.355 26.622)" fill="#abd87d" opacity="0.5"/>
            <path id="Vector-16" data-name="Vector" d="M0,0H22.187V5.961H0Z" transform="translate(125.162 13.311)" fill="#abd87d" opacity="0.5"/>
            <path id="Vector-17" data-name="Vector" d="M0,0H22.187V5.961H0Z" transform="translate(58.853 13.311)" fill="#abd87d" opacity="0.5"/>
            <path id="Vector-18" data-name="Vector" d="M0,0H49.3V5.961H0Z" transform="translate(0 13.311)" fill="#abd87d" opacity="0.5"/>
          </g>
          <g id="Group-2" data-name="Group" transform="translate(164.818 270.705)" opacity="0.5">
            <path id="Vector-19" data-name="Vector" d="M0,0H76.619V5.961H0Z" transform="translate(0 0)" fill="#abd87d" opacity="0.5"/>
            <path id="Vector-20" data-name="Vector" d="M0,0H79.66V5.961H0Z" transform="translate(0 26.621)" fill="#abd87d" opacity="0.5"/>
            <path id="Vector-21" data-name="Vector" d="M0,0H20.617V5.961H0Z" transform="translate(55.011 13.31)" fill="#abd87d" opacity="0.5"/>
            <path id="Vector-22" data-name="Vector" d="M0,0H49.3V5.961H0Z" transform="translate(0 13.31)" fill="#abd87d" opacity="0.5"/>
          </g>
          <g id="Group-3" data-name="Group" transform="translate(164.818 365.045)" opacity="0.5">
            <path id="Vector-23" data-name="Vector" d="M0,0H79.66V5.961H0Z" transform="translate(0)" fill="#abd87d" opacity="0.5"/>
            <path id="Vector-24" data-name="Vector" d="M0,0H79.66V5.961H0Z" transform="translate(0 26.623)" fill="#abd87d" opacity="0.5"/>
            <path id="Vector-25" data-name="Vector" d="M0,0H34.643V5.961H0Z" transform="translate(55.011 13.311)" fill="#abd87d" opacity="0.5"/>
            <path id="Vector-26" data-name="Vector" d="M0,0H49.3V5.961H0Z" transform="translate(0 13.311)" fill="#abd87d" opacity="0.5"/>
          </g>
          <path id="Vector-27" data-name="Vector" d="M0,0H41.808V4.561H0Z" transform="translate(62.712 447.347)" fill="#abd87d"/>
          <path id="Vector-28" data-name="Vector" d="M0,0H41.808V4.561H0Z" transform="translate(114.022 447.347)" fill="#abd87d"/>
          <path id="Vector-29" data-name="Vector" d="M0,0H57.771V4.181H0Z" transform="translate(62.712 456.849)" fill="#abd87d"/>
          <text id="HEALTH_INSURANCE" data-name="HEALTH INSURANCE" transform="translate(190.962 89.863)" fill="#92bc67" font-size="25" font-family="Lato-Bold, Lato" font-weight="700" letter-spacing="0.06em"><tspan x="-132.625" y="0">HEALTH INSURANCE</tspan></text>
        </g>
        <g id="Group_647" data-name="Group 647" transform="translate(647.215 312.918)">
          <path id="Vector-30" data-name="Vector" d="M119.343,16.3V162.338a16.341,16.341,0,0,1-16.289,16.3H16.289a16.1,16.1,0,0,1-6.538-1.362A16.345,16.345,0,0,1,0,162.355V16.3A16.341,16.341,0,0,1,16.289,0h86.765a16.341,16.341,0,0,1,16.289,16.3Z" transform="translate(0 0)" fill="#b5d891"/>
          <path id="Vector-31" data-name="Vector" d="M11.582,34.217A17.842,17.842,0,0,1,3.35,27.977,17.517,17.517,0,0,1,2.687,8.351,17.805,17.805,0,0,1,10.48,1.58,18.01,18.01,0,0,1,30.066,4.766a17.55,17.55,0,0,1,.845,24.98,18,18,0,0,1-19.328,4.472Z" transform="translate(69.174 20.523)" fill="#d8f9b6"/>
          <path id="Vector-32" data-name="Vector" d="M33.366,24.325,0,11.784A17.824,17.824,0,1,1,33.366,24.325Z" transform="translate(70.314 20.144)" fill="#91be62"/>
          <path id="Vector-33" data-name="Vector" d="M6.5,31.365a17.673,17.673,0,1,1,12.953,3.892A17.673,17.673,0,0,1,6.5,31.365Z" transform="translate(14.443 20.523)" fill="#d8f9b6"/>
          <path id="Vector-34" data-name="Vector" d="M27.4,29.266,0,6.738A17.609,17.609,0,0,1,25.043,4.014,17.893,17.893,0,0,1,27.4,29.262Z" transform="translate(18.244 20.144)" fill="#91be62"/>
          <path id="Vector-35" data-name="Vector" d="M11.584,34.219a17.842,17.842,0,0,1-8.232-6.24A17.518,17.518,0,0,1,2.686,8.353a17.805,17.805,0,0,1,7.792-6.771A18.01,18.01,0,0,1,30.064,4.764a17.548,17.548,0,0,1,.848,24.98,18.008,18.008,0,0,1-19.328,4.475Z" transform="translate(69.174 128.845)" fill="#d8f9b6"/>
          <path id="Vector-36" data-name="Vector" d="M33.447,23.934,0,11.49a17.777,17.777,0,0,1,9.338-9.9A17.966,17.966,0,0,1,28.924,4.776a17.609,17.609,0,0,1,4.523,19.169Z" transform="translate(69.828 129.013)" fill="#91be62"/>
          <path id="Vector-37" data-name="Vector" d="M35.484,17.742A17.742,17.742,0,1,1,17.742,0,17.742,17.742,0,0,1,35.484,17.742Z" transform="translate(8.796 137.145) rotate(-23.18)" fill="#d8f9b6"/>
          <path id="Vector-38" data-name="Vector" d="M27.541,28.886,0,6.506a17.786,17.786,0,0,1,31.456,9.409,17.641,17.641,0,0,1-3.915,12.971Z" transform="translate(17.978 128.763)" fill="#91be62"/>
          <path id="Vector-39" data-name="Vector" d="M25.51,33.646A18.012,18.012,0,0,1,5.876,30.776,17.564,17.564,0,0,1,7.211,3.486a18.022,18.022,0,0,1,19.823-.98A17.743,17.743,0,0,1,34,10.1a17.54,17.54,0,0,1-2.9,19.431,17.851,17.851,0,0,1-5.6,4.112Z" transform="translate(69.174 76.775)" fill="#d8f9b6"/>
          <path id="Vector-40" data-name="Vector" d="M33.827,10.042,1.712,25.085a17.377,17.377,0,0,1-.678-13.426,17.638,17.638,0,0,1,9.125-9.967,17.961,17.961,0,0,1,13.583-.67A17.7,17.7,0,0,1,33.827,10.042Z" transform="translate(69.174 76.775)" fill="#91be62"/>
          <path id="Vector-41" data-name="Vector" d="M1.267,11.1A17.67,17.67,0,1,1,0,17.883,17.673,17.673,0,0,1,1.267,11.1Z" transform="translate(14.443 76.775)" fill="#d8f9b6"/>
          <path id="Vector-42" data-name="Vector" d="M0,32.937,13.179,0A17.738,17.738,0,0,1,0,32.937Z" transform="translate(25.753 78.229)" fill="#91be62"/>
        </g>
        <g id="Group_646" data-name="Group 646" transform="translate(594.738 331.868)">
          <path id="Vector-43" data-name="Vector" d="M16.331,0H162.683a16.311,16.311,0,0,1,16.331,16.29v86.764a16.311,16.311,0,0,1-16.331,16.29H16.331A16.311,16.311,0,0,1,0,103.054V16.29A16.311,16.311,0,0,1,16.331,0Z" transform="translate(119.343 0) rotate(90)" fill="#a3d372"/>
          <path id="Vector-44" data-name="Vector" d="M11.466,34.222a17.677,17.677,0,1,1,13.516-.458,17.674,17.674,0,0,1-13.516.458Z" transform="translate(69.553 20.904)" fill="#d8f9b6"/>
          <path id="Vector-45" data-name="Vector" d="M33.079,23.945,0,11.49A17.673,17.673,0,1,1,33.079,23.945Z" transform="translate(70.694 20.904)" fill="#91be62"/>
          <path id="Vector-46" data-name="Vector" d="M6.568,31.365A17.559,17.559,0,0,1,6.5,4.041,18.018,18.018,0,0,1,26.244,2.066,17.771,17.771,0,0,1,33.6,9.3a17.522,17.522,0,0,1-1.9,19.549A17.995,17.995,0,0,1,6.568,31.365Z" transform="translate(14.443 20.904)" fill="#d8f9b6"/>
          <path id="Vector-47" data-name="Vector" d="M27.4,29.259,0,6.738A17.608,17.608,0,0,1,25.043,4.014,17.9,17.9,0,0,1,27.4,29.266Z" transform="translate(18.623 20.523)" fill="#91be62"/>
          <path id="Vector-48" data-name="Vector" d="M11.469,34.591a17.7,17.7,0,0,1-8.148-6.3A18.024,18.024,0,0,1,2.654,8.449,17.734,17.734,0,0,1,10.36,1.6,17.53,17.53,0,0,1,29.74,4.812a17.95,17.95,0,0,1-4.754,29.314,17.5,17.5,0,0,1-13.517.465Z" transform="translate(69.553 128.844)" fill="#d8f9b6"/>
          <path id="Vector-49" data-name="Vector" d="M33.079,23.945,0,11.49A17.673,17.673,0,1,1,33.079,23.945Z" transform="translate(70.694 128.421)" fill="#91be62"/>
          <path id="Vector-50" data-name="Vector" d="M6.568,31.7A17.864,17.864,0,1,1,19.66,35.636,17.864,17.864,0,0,1,6.568,31.7Z" transform="translate(14.443 128.844)" fill="#d8f9b6"/>
          <path id="Vector-51" data-name="Vector" d="M27.4,29.266,0,6.738A17.608,17.608,0,0,1,25.043,4.014,17.9,17.9,0,0,1,27.4,29.266Z" transform="translate(18.623 128.527)" fill="#91be62"/>
          <path id="Vector-52" data-name="Vector" d="M25.239,34.007a17.528,17.528,0,0,1-19.426-2.9A17.976,17.976,0,0,1,7.134,3.524a17.519,17.519,0,0,1,19.612-.99,17.8,17.8,0,0,1,6.9,7.678,18,18,0,0,1-2.867,19.64,17.689,17.689,0,0,1-5.537,4.156Z" transform="translate(69.553 76.775)" fill="#d8f9b6"/>
          <path id="Vector-53" data-name="Vector" d="M33.827,10.207,1.712,25.465A17.78,17.78,0,1,1,33.827,10.194Z" transform="translate(69.553 76.775)" fill="#91be62"/>
          <path id="Vector-54" data-name="Vector" d="M35.484,17.742A17.742,17.742,0,1,1,17.742,0,17.742,17.742,0,0,1,35.484,17.742Z" transform="matrix(0.885, -0.466, 0.466, 0.885, 8.339, 87.223)" fill="#d8f9b6"/>
          <path id="Vector-55" data-name="Vector" d="M0,32.936,13.182,0A17.738,17.738,0,0,1,0,32.936Z" transform="translate(25.845 78.295)" fill="#91be62"/>
        </g>
        <g id="Group_645" data-name="Group 645" transform="translate(648.672 443.624)">
          <path id="Vector-56" data-name="Vector" d="M98.059,14.633A14.667,14.667,0,0,1,83.47,29.266H14.586A14.633,14.633,0,0,1,14.586,0H83.473A14.667,14.667,0,0,1,98.059,14.633Z" transform="translate(38.388 34.967)" fill="#68a42a"/>
          <path id="Vector-57" data-name="Vector" d="M62.712,14.633A14.689,14.689,0,0,1,48.086,29.266H14.629A14.633,14.633,0,0,1,14.629,0H48.086A14.689,14.689,0,0,1,62.712,14.633Z" transform="translate(38.388 34.967)" fill="#92bc67"/>
          <path id="Vector-58" data-name="Vector" d="M94.528,8.492a15.474,15.474,0,0,1-6.9,20.741L22.277,61.9A15.448,15.448,0,0,1,8.409,34.3L73.757,1.626A15.536,15.536,0,0,1,94.528,8.492Z" transform="translate(0 0)" fill="#ef7e29"/>
          <path id="Vector-59" data-name="Vector" d="M60.7,8.514a15.548,15.548,0,0,1-6.885,20.8L22.235,45.175A15.477,15.477,0,0,1,8.392,17.492L39.975,1.627A15.479,15.479,0,0,1,60.7,8.514Z" transform="translate(0 16.724)" fill="#feab66"/>
        </g>
        <path id="Vector-60" data-name="Vector" d="M1.125,0h788.3a1.219,1.219,0,0,1,1.125,1.295V2.506A1.219,1.219,0,0,1,789.429,3.8H1.125A1.219,1.219,0,0,1,0,2.506V1.295A1.219,1.219,0,0,1,1.125,0Z" transform="translate(0 507.779)" fill="#2e3552"/>
        <g id="Group_718" data-name="Group 718" transform="translate(469.862 143.825)">
          <g id="Group_642" data-name="Group 642" transform="translate(0 0)">
            <path id="Vector-61" data-name="Vector" d="M30.418,0l7.8.106S26.488,13.127,22.885,19.751L12.968,38.044,0,34.838,16.459,11.517Z" transform="translate(79.552 358.706) rotate(180)" fill="#e49963"/>
            <path id="Vector-62" data-name="Vector" d="M78.624,104.527a16.765,16.765,0,0,1-9.084,1.739,4.386,4.386,0,0,0,1.917.909c-1.557.231-5.025-1.322-5.025-1.322-21.612,8.343-25.027-23.5-24.571-30.894S34.59,65.144,23.351,59.316C1.884,48.2,0,33.3,0,33.3q.248-.142.526-.331c1.068,1.8,3.259,5.193,5.107,5.7a76.592,76.592,0,0,1-2.975-7.243c6.33-4.816,18.181-15.49,26.445-23.06a12.157,12.157,0,0,0,.562,4.687l1.021-6.142C35.1,2.856,38.15,0,38.15,0,37.6,5.977,65.187,37.522,79.576,46.969c3.5,5.16,4.747,14.27,4.843,14.988-.6-7.226-1.841-11.275-2.945-13.553C93.645,59.607,86.551,100.025,78.624,104.527Z" transform="translate(200.948 107.235) rotate(180)" fill="#67402a"/>
            <path id="Vector-63" data-name="Vector" d="M20.377,2.57c.073-.033-6.942-3.676-12.231-2.231C3.188,1.691-.065,8.133,0,8.146c2.106.417,2.711,3.306,2.668,15.728l.949-.185,15.989-3.167s-.364-5.031-.374-9.771C19.213,6.771,19.468,3,20.377,2.57Z" transform="translate(142.615 63.312) rotate(180)" fill="#e49963"/>
            <path id="Vector-64" data-name="Vector" d="M0,0S7.887,8.4,17.788.43C17.788.43,12.026,1.425,0,0Z" transform="translate(140.316 7.921) rotate(180)" fill="#e37970"/>
            <path id="Vector-65" data-name="Vector" d="M15.989,9.771S15.626,4.74,15.616,0C6.667.251,1.94,8.413,0,12.938Z" transform="translate(138.994 52.561) rotate(180)" fill="#d68d5d"/>
            <path id="Vector-66" data-name="Vector" d="M5.952,0S1.261,7.408.137,13.745c-.8,4.522,1.5,21.285,18.346,18.872a22.878,22.878,0,0,0,9.49-3.59c3.659-2.469,8.925-7.8,3.035-22.432L29.474,1.636Z" transform="translate(146.595 37.883) rotate(180)" fill="#67402a"/>
            <path id="Vector-67" data-name="Vector" d="M90.762.542,82.29.281,73.114,0S51.925,23.592,40.038,61.412q-.417,1.322-.876,2.668c-6.505,18.968-19.992,42.778-27.106,64.327-1.131,3.431-2.145,6.664-3.058,9.722-.291.992-.575,1.94-.846,2.889A228.49,228.49,0,0,0,0,183.924l45.379-.364A1387.4,1387.4,0,0,1,90.762.542Z" transform="translate(150.035 333.101) rotate(180)" fill="#1c468a"/>
            <path id="Vector-68" data-name="Vector" d="M44.533,40.86c.6-24.412,3.58-34.894,3.58-34.894A68.957,68.957,0,0,0,.03,3.017c-.307.1,1.692,100.877,9.1,103.654,1.7-2.119,6.78-4.182,11.3-4.082,5.2.116,6.889,2.344,6.611,4.773C32.587,104.278,43.671,75.813,44.533,40.86Z" transform="translate(150.435 160.961) rotate(180)" fill="#e7f1fd"/>
            <path id="Vector-69" data-name="Vector" d="M21.425,0S.27-.35.243,12.837-2.514,34.859,11,35.645,27.147,31.4,28.222,27,26.933.431,21.425,0Z" transform="translate(141.442 47.279) rotate(180)" fill="#e49963"/>
            <path id="Vector-70" data-name="Vector" d="M34.395,17.1c-3.266,3.967-5.739,3.1-7.124,1.911C22.7,25.851,8.238,15.963,8.238,15.963A27.948,27.948,0,0,1,0,1.088S3.858-1.3,12.753.992c7,1.8,12.079,11.765,13.927,15.926,1.259-1.117,3.914-3.7,4.71-6.234C32.445,7.326,32.921.414,34.934.649,34.934.642,39.3,11.17,34.395,17.1Z" transform="translate(148.243 30.059) rotate(180)" fill="#67402a"/>
            <path id="Vector-71" data-name="Vector" d="M0,7.516s2.975,10.753,14.806,9.236c1.359-.426,5.322-2.006,2.79-6.251-1.871-3.13-2.678-1.517-5.62-5.722S5.851-.391,2.2.128Z" transform="translate(34.638 76.814) rotate(180)" fill="#e49963"/>
            <path id="Vector-72" data-name="Vector" d="M16.538,4.456c-.721,3.967-2.089,10.813-2.089,10.813l.331,24.313H0L5.524,16.31A23.635,23.635,0,0,0,4.39,6.6S2.972.133,9.348.014,17.259.493,16.538,4.456Z" transform="translate(152.415 362.409) rotate(180)" fill="#e49963"/>
            <path id="Vector-73" data-name="Vector" d="M.761,10.062S-.5,3.243.223,0H13.591s.056,7.4-1.114,10.228C12.493,10.228,7.964,3.458.761,10.062Z" transform="translate(148.786 365.877) rotate(180)" fill="#8db186"/>
            <path id="Vector-74" data-name="Vector" d="M26.472,7.213a.82.82,0,0,0-.129.069,11.338,11.338,0,0,0-9.117,4.254C8.562,21.3,3.673,22.392,1.987,22.386.526,19.371-1.091,15.983,1,12.165L4.1.007H7.445l.033,11.48c2.2-.582,4.357-1.653,5.315-3.554C15.133,3.253,16.76,0,18.932,0H33.972S33.675,3.97,26.472,7.213Z" transform="translate(67.676 365.882) rotate(180)" fill="#8db186"/>
            <path id="Vector-75" data-name="Vector" d="M88.567,123.92s-13.884-7.771-18.842-10.009c-2.83-1.279-9.342-4.327-13.93-6.482a7.157,7.157,0,0,0-8.485,1.828c-7.533,8.8-27.053,27.886-47.191,30.227l.023-.05-.142.05s12.247-30.256,12.608-36.362S14.059,2.961,14.059,2.961,13.338-1.362,21.622.439,32.064,4.052,32.064,4.052,24.131,62.043,26.3,82.213a44.992,44.992,0,0,1-.856,13.06c12.27-7.461,26.775-10.78,26.775-10.78S63.078,89.231,77.917,100.1c4.658,3.411,12.839,16.429,12.839,16.429Z" transform="translate(123.402 193.082) rotate(180)" fill="#a8d29f"/>
            <path id="Vector-76" data-name="Vector" d="M74.138.281,64.962,0S43.773,23.592,31.886,61.412q-.417,1.322-.876,2.668C24.5,83.047,11.018,106.857,3.9,128.407c-1.131,3.431-2.145,6.664-3.058,9.722-.291.992-.575,1.94-.846,2.889l7.58,5.732s22.69-36.739,29.711-71.312C43.376,45.406,67.811,9.269,74.138.281Z" transform="translate(141.89 333.101) rotate(180)" fill="#163560"/>
            <path id="Vector-77" data-name="Vector" d="M24.389,1.372,23.946,0,.2,7.722a.912.912,0,0,0-.152.843.681.681,0,0,0,.6.526Z" transform="translate(116.232 106.624) rotate(180)" fill="#163560"/>
            <path id="Vector-78" data-name="Vector" d="M39.268,71.471C39.4,54.658,38.547,16,36.356,0H28.247c-4.492,0-6.73.063-6.73.063C16.023,27.886,12.116,50.91,9.286,70.75c-2.334,16.28-4.41,30.236-6,42.252C1.676,125.094.559,135.219.159,143.774.1,145.12.05,146.419.027,147.7S-.006,150.224,0,151.43l44.338,4.324C43.75,126.294,39.2,81.242,39.268,71.471Z" transform="translate(172.804 332.354) rotate(180)" fill="#1c468a"/>
            <path id="Vector-79" data-name="Vector" d="M28.088,0c-4.492,0-6.73.063-6.73.063C15.864,27.886,11.956,50.91,9.127,70.75c-2.334,16.28-4.41,30.236-6,42.252C1.517,125.094.4,135.219,0,143.774l16.27-9.586s-10.386-3.666-6.423-31.4S22.557,3.924,28.088,0Z" transform="translate(172.645 332.354) rotate(180)" fill="#163560"/>
            <path id="Vector-80" data-name="Vector" d="M40.1,9.968S36.977-1.314,26.171.127,0,8.061,0,8.061s4.628,14.591,10.36,33.76C17.3,65.026,25.916,94.942,29.972,113.814a116.721,116.721,0,0,1,2.2,12.865L41.274,144S54.5,114.072,55.227,106.508,40.1,9.968,40.1,9.968Z" transform="translate(182.578 198.276) rotate(180)" fill="#a8d29f"/>
            <path id="Vector-81" data-name="Vector" d="M29.261,48.84C28.779,36.61,25.9,12.809.2.1.136.063.066.026,0,0,6.942,23.205,15.556,53.121,19.612,71.993,24.329,64.939,29.522,55.6,29.261,48.84Z" transform="translate(172.219 156.466) rotate(180)" fill="#8db286"/>
            <path id="Vector-82" data-name="Vector" d="M46.48,27.1c0-1.468-4.248-11.7-11.708-17.814a8.117,8.117,0,0,0-3.524-1.917A155.052,155.052,0,0,0,0,0V13.553c10.578.678,23.6,1.385,28.957,1.673a15.835,15.835,0,0,1,2.264,5.4c.641,3.729,2.644,6.492,7.838,7.176S46.493,28.564,46.48,27.1Z" transform="translate(142.948 128.027) rotate(180)" fill="#e49963"/>
            <path id="Vector-83" data-name="Vector" d="M12,56.457,36.015,40.838a1.378,1.378,0,0,0,.42-1.23L24.865.5A.7.7,0,0,0,23.688.2L.4,17.659c-.271.2-.469.426-.377.75L10.634,55.849A1.011,1.011,0,0,0,12,56.457Z" transform="translate(36.452 113.044) rotate(180)" fill="#163560"/>
            <path id="Vector-84" data-name="Vector" d="M11.9,56.39,36.125,40.616a.823.823,0,0,0,.331-.919L24.886.588A.82.82,0,0,0,23.606.165L.328,17.612a.816.816,0,0,0-.3.876L10.642,55.924a.82.82,0,0,0,1.256.466Z" transform="translate(37.2 112.412) rotate(180)" fill="#1c468a"/>
            <path id="Vector-85" data-name="Vector" d="M9.322,49.419l23.5-14.991L22.154,0,0,16.029Z" transform="translate(34.966 107.026) rotate(180)" fill="#fff"/>
            <path id="Vector-86" data-name="Vector" d="M0,.962A.959.959,0,1,0,.072.594.962.962,0,0,0,0,.962Z" transform="translate(27.263 100.74) rotate(180)" fill="#163560"/>
            <path id="Vector-87" data-name="Vector" d="M11.335,0,0,7.92,7.814,39.568l11.335-7.924Z" transform="translate(28.823 101.806) rotate(180)" fill="#fff"/>
            <g id="Group-4" data-name="Group" transform="translate(13.537 71.724)" opacity="0.5">
              <path id="Vector-88" data-name="Vector" d="M7.62.02.109,5.269a.493.493,0,0,0-.083.469l.033.132c.05.192.165.3.258.231L7.825.853A.476.476,0,0,0,7.907.383L7.878.254C7.828.059,7.712-.046,7.62.02Z" transform="translate(9.309 11.675) rotate(180)" fill="#699dee" opacity="0.5"/>
              <path id="Vector-89" data-name="Vector" d="M7.619.014.109,5.253a.5.5,0,0,0-.083.469l.033.132c.05.192.162.3.258.231L7.824.84A.489.489,0,0,0,7.907.371L7.874.238C7.828.053,7.712-.036,7.619.014Z" transform="translate(7.934 6.106) rotate(180)" fill="#699dee" opacity="0.5"/>
              <path id="Vector-90" data-name="Vector" d="M7.617.02.11,5.266a.489.489,0,0,0-.083.469l.033.132c.046.2.162.3.255.235L7.828.853A.5.5,0,0,0,7.911.383L7.878.251C7.828.059,7.713-.046,7.617.02Z" transform="translate(8.411 8.043) rotate(180)" fill="#699dee" opacity="0.5"/>
              <path id="Vector-91" data-name="Vector" d="M7.619.018.109,5.268a.5.5,0,0,0-.083.469l.033.132c.046.192.162.3.255.231L7.824.855A.5.5,0,0,0,7.907.385L7.874.253C7.831.058,7.715-.044,7.619.018Z" transform="translate(8.863 9.859) rotate(180)" fill="#699dee" opacity="0.5"/>
              <path id="Vector-92" data-name="Vector" d="M7.619.018.109,5.267a.5.5,0,0,0-.083.469l.033.132c.046.192.162.3.255.235L7.824.854A.5.5,0,0,0,7.907.385L7.874.253C7.828.061,7.712-.045,7.619.018Z" transform="translate(10.221 15.376) rotate(180)" fill="#699dee" opacity="0.5"/>
              <path id="Vector-93" data-name="Vector" d="M7.618.02.111,5.266a.479.479,0,0,0-.083.469l.033.132c.046.2.162.3.255.235L7.826.853A.492.492,0,0,0,7.909.383L7.876.251C7.826.059,7.711-.046,7.618.02Z" transform="translate(9.774 13.559) rotate(180)" fill="#699dee" opacity="0.5"/>
              <path id="Vector-94" data-name="Vector" d="M1.959.023.131,1.3a.575.575,0,0,0-.1.555c.056.231.2.354.3.278L2.161.856A.582.582,0,0,0,2.26.3h0C2.2.069,2.068-.053,1.959.023Z" transform="translate(6.003 21.063) rotate(180)" fill="#699dee" opacity="0.5"/>
              <path id="Vector-95" data-name="Vector" d="M1.953.022.132,1.3a.579.579,0,0,0-.1.559h0c.056.228.2.354.3.274L2.161.859A.585.585,0,0,0,2.257.3C2.2.072,2.079-.054,1.953.022Z" transform="translate(11.586 17.158) rotate(180)" fill="#699dee" opacity="0.5"/>
            </g>
            <path id="Vector-96" data-name="Vector" d="M2.93,0a.152.152,0,0,0-.1.033L.173,1.891a.76.76,0,0,0-.132.727l.393,1.6c.06.235.185.393.331.393a.169.169,0,0,0,.1-.033L3.508,2.721A.767.767,0,0,0,3.64,1.99L3.247.393C3.187.159,3.059,0,2.93,0ZM.751,4.578c-.112,0-.231-.152-.284-.37l-.393-1.6a.734.734,0,0,1,.119-.694L2.837.06A.152.152,0,0,1,2.916.033c.112,0,.231.152.284.37L3.594,2a.737.737,0,0,1-.119.694L.831,4.552a.152.152,0,0,1-.079.026Z" transform="translate(20.973 97.666) rotate(180)" fill="#476ba7"/>
            <path id="Vector-97" data-name="Vector" d="M2.918,0a.169.169,0,0,0-.1.033L.174,1.891a.757.757,0,0,0-.132.731l.393,1.6c.06.235.185.393.331.393a.172.172,0,0,0,.1-.03L3.523,2.721a.76.76,0,0,0,.132-.727L3.258.4C3.182.159,3.047,0,2.918,0ZM.739,4.578c-.112,0-.231-.152-.284-.37l-.393-1.6a.747.747,0,0,1,.116-.694L2.838.059A.152.152,0,0,1,2.918.033c.112,0,.228.152.284.37L3.6,2a.734.734,0,0,1-.119.694L.832,4.552a.126.126,0,0,1-.093.026Z" transform="translate(26.557 93.755) rotate(180)" fill="#476ba7"/>
            <path id="Vector-98" data-name="Vector" d="M.066,1.463c.142.572.463.9.764.688a.866.866,0,0,0,.294-.588l-.2-.218a.6.6,0,0,1-.192.4c-.165.112-.35-.086-.44-.436A.851.851,0,0,1,.414.478C.526.4.615.445.728.537L.787.14A.331.331,0,0,0,.308.074,1.4,1.4,0,0,0,.066,1.463Z" transform="translate(20.245 68.07) rotate(180)" fill="#476ba7"/>
            <path id="Vector-99" data-name="Vector" d="M2.922.793A8.694,8.694,0,0,1,1.6.37c.026.093.046.185.069.281S1.64.813,1.6.744L1.554.658c0,.066-.02.136-.056.1.023.089-.043.152-.076.073L1.372.714a.169.169,0,0,0-.136-.1,1.365,1.365,0,0,0,0,.165A.119.119,0,0,1,1.21.869c0,.05,0,.093-.046.083a.2.2,0,0,1-.1-.089c0,.1-.083.083-.122.023.023.066,0,.179-.046.126A.909.909,0,0,1,.7.615.559.559,0,0,0,.612.5C.612.476.526.39.512.41a.364.364,0,0,0,0,.152V.578c.063.129.374.731.2.843a.046.046,0,0,1-.053-.033,3.213,3.213,0,0,1-.2-.6A.8.8,0,0,0,.423.635V.6C.337.44.215.2.093.178a4.985,4.985,0,0,0,.2.992L.4,1.564H.426a.992.992,0,0,1,.164.35A.992.992,0,0,1,.608,2.3c0,.079-.063.053-.083,0C.407,1.927.3,1.547.2,1.16A4.3,4.3,0,0,1,0,.086C0,.046,0,.02.036.017.169-.01.3.175.413.374A.2.2,0,0,1,.44.278C.5.2.592.278.658.377V.241c0-.05.023-.073.05-.069A.331.331,0,0,1,.876.3C.939.3,1,.374,1.048.473a.8.8,0,0,1,.089.119.962.962,0,0,1,0-.1c0-.073.076-.056.116-.046a.268.268,0,0,1,.1.076.076.076,0,0,1,.066,0,.274.274,0,0,1,0-.05c0-.046.043-.053.073-.033a.368.368,0,0,0-.026-.1L1.276.255c-.04-.02-.06-.149,0-.172L1.438,0c.023,0,.046,0,.059.056l.04.129A8.714,8.714,0,0,0,2.9.628C3,.631,2.978.807,2.922.793ZM.959.678.939.608V.565a1.117,1.117,0,0,0,.02.112ZM.823.529a.413.413,0,0,1,0-.139A.235.235,0,0,0,.777.357,1.464,1.464,0,0,0,.8.526.992.992,0,0,1,.859.645.334.334,0,0,1,.823.529Z" transform="translate(20.097 95.687) rotate(180)" fill="#365da2"/>
            <path id="Vector-100" data-name="Vector" d="M1.193,2.857C1,2.344.863,1.772.7,1.234A5.441,5.441,0,0,0,.423.49C.347.335.178-.006.076.159a.228.228,0,0,0,0,.172V.374A.04.04,0,0,1,.136.351.284.284,0,0,1,.235.5a.331.331,0,0,1,0,.218c-.023.05-.063.05-.1,0a.777.777,0,0,1-.076-.2A1.045,1.045,0,0,1,0,.252C0,.11.056.011.122,0S.288.093.35.2a3.1,3.1,0,0,1,.208.42,8.555,8.555,0,0,1,.331.992c.109.393.215.8.354,1.167C1.256,2.857,1.213,2.913,1.193,2.857ZM.2.616A.255.255,0,0,0,.162.5.093.093,0,0,0,.142.47a.063.063,0,0,1,0,.03A.6.6,0,0,0,.169.582C.145.6.192.715.2.6Z" transform="translate(25.709 92.018) rotate(180)" fill="#365da2"/>
            <path id="Vector-101" data-name="Vector" d="M1.4.385A.142.142,0,0,0,1.3.358H1.276a.3.3,0,0,1,.059.132c0,.083-.03.132-.069.112A.212.212,0,0,1,1.2.451a.221.221,0,0,1,0-.066C1.16.355,1.1.322,1.071.358A.5.5,0,0,1,1.2.527a.109.109,0,0,1,0,.056c0,.066-.05.1-.089.079S1.035.573,1.012.5A.575.575,0,0,1,.995.428a.129.129,0,0,0-.119.02h0A.6.6,0,0,0,.919.5a.083.083,0,0,1,0,.093C.883.63.85.577.833.511a.817.817,0,0,0-.2-.175C.608.335.582.3.575.335a.516.516,0,0,1,.086.1A.4.4,0,0,1,.727.765c0,.02-.026.03-.04,0L.6.6A.81.81,0,0,1,.536.451a.383.383,0,0,1,0-.059A.284.284,0,0,0,.456.355h0L.5.4A.311.311,0,0,1,.6.6a.631.631,0,0,1-.03.245c0,.02-.023.023-.033,0a.8.8,0,0,1-.2-.367.42.42,0,0,1,0-.155C.255.256.182.19.106.127c0,0-.026-.03-.033-.02a.119.119,0,0,0,0,.06V.292A2.258,2.258,0,0,0,.126.56,1.765,1.765,0,0,0,.2.772.017.017,0,0,1,.2.765l.009,0,.009,0A.017.017,0,0,1,.225.772a.443.443,0,0,1,.1.284c0,.043-.026.056-.043.03A2.122,2.122,0,0,1,0,.144C0,.064,0-.012.056,0A.152.152,0,0,1,.119.048.833.833,0,0,1,.2.117C.255.16.3.206.357.256A.106.106,0,0,1,.44.24a.251.251,0,0,1,.1.04A.112.112,0,0,1,.585.19.2.2,0,0,1,.671.23.433.433,0,0,1,.76.292C.79.316.816.345.846.372A.06.06,0,0,1,.876.329.169.169,0,0,1,.945.3a.149.149,0,0,1,.076,0,.119.119,0,0,1,0-.03.089.089,0,0,1,.1-.053.169.169,0,0,1,.1.056A.172.172,0,0,1,1.25.233c.046-.046.1-.023.155,0S1.428.408,1.4.385ZM.383.544A.691.691,0,0,0,.509.768a.284.284,0,0,0,0-.2A.331.331,0,0,0,.446.5L.377.435.357.415A.387.387,0,0,0,.377.55Zm.3.109A.38.38,0,0,0,.618.511h0A.514.514,0,0,0,.681.659ZM1.14.573A.367.367,0,0,0,1.064.481c0,.063.05.119.069.1ZM1.259.494s.02.036.017,0A.274.274,0,0,0,1.253.451a.1.1,0,0,0,0,.05Z" transform="translate(25.301 91.997) rotate(180)" fill="#365da2"/>
            <path id="Vector-102" data-name="Vector" d="M2.155.046.446,1.369,0,0Z" transform="translate(92.289 106.623) rotate(180)" fill="#163560"/>
            <path id="Vector-103" data-name="Vector" d="M32,76.714S9.934,75.243,4.651,63.492-2.313,12.585,4.41,1.059c0,0,9.256-2.645,25.628.426l.6.116s5.223,12.786.542,15.3c0,0-13.808-.717-12.366,3.844S32,76.714,32,76.714Z" transform="translate(173.303 131.003) rotate(180)" fill="#a8d29f"/>
          </g>
        </g>
      </g>
    </g>
    <path id="Vector-104" data-name="Vector" d="M0,1.4S1.586,0,5.345,0c4.26,0,5.345,1.4,5.345,1.4V60.737H0Z" transform="translate(252.142 -28.961) rotate(180)" fill="#345315"/>
    <path id="Vector-105" data-name="Vector" d="M.511,42.754a.362.362,0,0,1,.018-.134,55.587,55.587,0,0,1,1.51-7.32A43.575,43.575,0,0,1,6.3,24.92C12.005,15.273,22.826,4.537,48.775,1.033c1.256-.166,2.554-.325,3.881-.46Q56.286.2,60.294.018h.512A4.846,4.846,0,0,0,61.317,0a125.158,125.158,0,0,1,25.4,3.816c19.334,4.6,31.929,14.06,39.9,25.575q1.009,1.468,1.933,2.974a63.989,63.989,0,0,1,4.142,8.084c4.424,10.358,6.118,21.522,6.276,31.876A105.446,105.446,0,0,1,135.6,97.33a45.455,45.455,0,0,1-6.146,13.714,36.774,36.774,0,0,1-2.35,3.133,34.737,34.737,0,0,1-9.526,8.049c-9.237,5.276-39.61,10.531-65.34-3.08C4.885,94.1-2.238,63.155.511,42.754Z" transform="translate(310.45 -70.748) rotate(180)" fill="#68a42a"/>
    <path id="Vector-106" data-name="Vector" d="M0,1.066A52.4,52.4,0,0,1,7.9.06C8.609.025,9.315.007,10.021,0h1.207A126.008,126.008,0,0,1,36.644,3.808c25.267,6,39.031,20.281,46,36.57,4.427,10.338,6.121,21.481,6.28,31.815a105.022,105.022,0,0,1-3.361,24.957,45.352,45.352,0,0,1-6.149,13.688c-.547.812-1.13,1.609-1.747,2.375C59.6,94.246,8.267,37.42,0,1.066Z" transform="translate(260.402 -70.748) rotate(180)" fill="#68a42a"/>
    <path id="Vector-107" data-name="Vector" d="M115.643,0H0C5.506,11.925,29.3,20.894,57.827,20.894S110.152,11.925,115.643,0Z" transform="translate(302.675 -23.13) rotate(180)" fill="#345315"/>
    <g id="Group_656" data-name="Group 656" transform="translate(194.32 -330.373)">
      <path id="Vector-108" data-name="Vector" d="M51.869,1.974C44.942,14.037,36.232,18.689,36.232,18.689H0S57.136-7.221,51.869,1.974Z" transform="translate(45.418 184.618)" fill="#233862"/>
      <path id="Vector-109" data-name="Vector" d="M.876,30.081a3.331,3.331,0,0,0-.6,3.582c.865,2.378,3.723,5.056,7.036,7.72.423.342.8.656,1.132.951l.252.228.195.176c3.1,2.854,1.93,3.506,7.483,9.294,6.337,6.593,10.7,6.712,11.943,6.112,1.046-.514-1.084-4.01-3.447-7.939-.119-.19-.228-.385-.347-.576-.314-.523-.628-1.051-.951-1.579C20.8,43.295,21.514,41.1,22.147,34.057c.532-5.708,8.9-31.964,8.9-31.964L18.9,0s-3.656,20.9-7.683,24.116c-2.154,1.717-4.564,1.736-6.656,3.011-.143.086-.29.176-.428.271A15.743,15.743,0,0,0,.876,30.081Z" transform="translate(68.579 249.812)" fill="#ffb27d"/>
      <path id="Vector-110" data-name="Vector" d="M.876,2.973a3.331,3.331,0,0,0-.6,3.582c1.06,2.378,3.841,5.042,7.051,7.7.418.347.789.666,1.117.951l.252.228.195.176c3.1,2.854,1.93,3.506,7.483,9.294,6.337,6.593,10.7,6.712,11.943,6.112,1.046-.514-1.084-4.01-3.447-7.939a27.038,27.038,0,0,1-11.3-8.329C9.771,9.875,7.218,3.62,4.618,0c-.143.086-.29.176-.428.271A15.743,15.743,0,0,0,.876,2.973Z" transform="translate(68.579 276.92)" fill="#233862"/>
      <path id="Vector-111" data-name="Vector" d="M9.708,26.176c.751,3.753,6.095,3.125,12.062,1.67s4.55.276,13.046-.666S45.879,23.07,46.14,21.8c.233-1.123-3.965-1.517-8.467-2.036-.566-.062-1.136-.133-1.7-.2-5.082-.637-8.8-3.919-13.421-6.612C18.176,10.4,11.648,0,11.648,0L0,.923s6.114,9.29,8.477,13.319C9.87,16.62,9.794,19.754,9.623,22.18a15.124,15.124,0,0,0,.086,4Z" transform="translate(157.642 246.125)" fill="#ffb27d"/>
      <path id="Vector-112" data-name="Vector" d="M12.24,8.077c5.967-1.46,4.55.276,13.046-.666S36.349,3.3,36.61,2.036C36.843.913,32.645.518,28.143,0L28.1.086A23.93,23.93,0,0,1,15.938,3.891C10.172,4.029,4.053,2.378.093,2.464A15.124,15.124,0,0,0,.178,6.45C.929,10.16,6.273,9.532,12.24,8.077Z" transform="translate(167.171 265.895)" fill="#233862"/>
      <path id="Vector-113" data-name="Vector" d="M39.964,18.684,29.072,48,14.857,86.28A23.019,23.019,0,0,1,7.3,85.585,32.8,32.8,0,0,1,0,82.027s3.946-41.1,11.31-64.69c1.9-6.06,4-10.94,6.337-13.713C29.063-9.875,39.964,18.684,39.964,18.684Z" transform="translate(82.748 179.1)" fill="#233862"/>
      <path id="Vector-114" data-name="Vector" d="M13.974,19.936S86.11-4.465,102.2.724,166.59,102.073,166.59,102.073a9.593,9.593,0,0,1-4.065,2.569c-2.767,1.037-9.466.951-9.466.951s-43.6-37.387-48.783-48.289S97.007,36.014,91.82,37.055c-3.171.633-27.684,15.735-49.639,15.735H10.389C-3.351,37.988.5,14.528.5,14.528Z" transform="translate(9.441 150.498)" fill="#2b478b"/>
      <path id="Vector-115" data-name="Vector" d="M65.366,4.4a17.509,17.509,0,0,0-9.3-2.54,4.42,4.42,0,0,1,2.068-.79c-1.6-.366-5.33.951-5.33.951C31-8.392,24.889,24.443,24.751,32.173S23.99,48.759,12.233,54.786C-10.9,66.644,5.881,91.792,5.881,91.792c.166.114,8.933,18.037,8.933,18.037-.086-6.26,31.135-36.835,46.858-45.492,4.06-5.08,6.09-14.455,6.242-15.193-1.212,7.463-2.824,11.578-4.155,13.861C77.323,52.331,73.216,9.726,65.366,4.4Z" transform="translate(8.187 0)" fill="#b5453c"/>
      <path id="Vector-116" data-name="Vector" d="M21.509,24.706c.067.048-7.735,2.711-12.955.4C3.648,22.96-.075,14.874,0,14.874c2.234-.1,4.683-2.055,6.57-14.874l.951.342L23.516,6.1s-1.16,5.132-1.9,10.017C20.977,20.2,20.634,24.13,21.509,24.706Z" transform="translate(41.775 38.722)" fill="#ffb27d"/>
      <path id="Vector-117" data-name="Vector" d="M15.984,5.755s-1.16,5.132-1.9,10.017C4.9,14.122,1.293,4.966,0,0Z" transform="translate(49.307 39.041)" fill="#ed975d"/>
      <path id="Vector-118" data-name="Vector" d="M6.2,34.266S1.317,26.537.143,19.93C-.694,15.211,1.707-2.274,19.269.247a23.807,23.807,0,0,1,9.9,3.743c3.8,2.573,9.313,8.139,3.162,23.4l-1.6,5.151Z" transform="translate(39.237 0.779)" fill="#b5453c"/>
      <path id="Vector-119" data-name="Vector" d="M19.968,38.5S-1.9,35.56.134,21.961.718-1.18,14.772.118s15.984,6.9,16.407,11.6S25.711,38.913,19.968,38.5Z" transform="translate(47.699 11.392)" fill="#ffb27d"/>
      <path id="Vector-120" data-name="Vector" d="M31.04,3.716s-8.382,15.05-17.909,16.025S0,17.653,0,17.653A26.255,26.255,0,0,0,10.811,3.588S27.684-4.57,31.04,3.716Z" transform="translate(41.419 8.974)" fill="#b5453c"/>
      <path id="Vector-121" data-name="Vector" d="M0,2.057S3.922,6.3,4.488,9.92s0,10.831,2.092,10.9c0,0,6.138-10.165,2.006-17.062C4.193-3.555,0,2.057,0,2.057Z" transform="translate(70.786 11.692)" fill="#b5453c"/>
      <path id="Vector-122" data-name="Vector" d="M.477,117.756c1.193,3.33,4.84,4.157,9.737,3.586,9.328-1.094,23.182-7.358,33.17-11.692,15.214-6.6,22.145-.4,26.985-4.6S64.835,91.5,73.83,48.119C76.882,33.406,57.366,1.756,57.366,1.756S55.878,10.993,37.4.01c-.651-.39-7.935,10.4-14.947,23.693C14.721,38.377,7.318,56.1,9.5,65.228,13.627,82.637-2.98,108.152.477,117.756Z" transform="translate(6.013 53.058)" fill="#2a4e96"/>
      <path id="Vector-123" data-name="Vector" d="M.477,77c1.193,3.33,4.84,4.157,9.737,3.586,6.456-2.816,34.345-13.628,34.036-20.929-.475-10.845-5.363-11.192-1.9-24.577C45.129,24.33,19.356,4.348,15.248,0,7.518,14.669,7.3,15.364,9.481,24.5,13.627,41.882-2.979,67.4.477,77Z" transform="translate(6.013 93.814)" fill="#1e3d70"/>
      <path id="Vector-124" data-name="Vector" d="M29.072,30.661,14.857,68.942A23.018,23.018,0,0,1,7.3,68.248,32.794,32.794,0,0,1,0,64.69S3.946,23.593,11.31,0Z" transform="translate(82.748 196.438)" fill="#2b478b"/>
      <path id="Vector-125" data-name="Vector" d="M0,0S19.017,3.23,21.266,11.416,36.65,67.806,36.65,67.806s-9.675,1.741-14.144-2.73S6.955,23.588,6.955,23.588Z" transform="translate(63.379 54.814)" fill="#2a4e96"/>
      <path id="Vector-126" data-name="Vector" d="M43.392,0S25.407,1.108,19.179,9.8C10.412,22.028-6.969,74.156,2.991,81.11c11.22,7.829,51.075,2.045,51.075,2.045s1.326-6.184-.518-9.2-31.853-7.848-33.218-9.233,17.3-27,17.3-31.156S43.392,0,43.392,0Z" transform="translate(0 53.069)" fill="#2a4e96"/>
      <path id="Vector-127" data-name="Vector" d="M0,48.313H76.814L90.663,0h-76.7Z" transform="translate(44.134 104.811)" fill="#f99746"/>
      <path id="Vector-128" data-name="Vector" d="M0,0H100.419V1.884H0Z" transform="matrix(-1, 0, 0, -1, 120.687, 153.124)" fill="#ed7d2b"/>
      <path id="Vector-129" data-name="Vector" d="M6.269,3.073A2.233,2.233,0,0,0,4.078,0,4.4,4.4,0,0,0,.122,3.073,2.235,2.235,0,0,0,2.314,6.15,4.4,4.4,0,0,0,6.269,3.073Z" transform="translate(90.289 125.108)" fill="#ffb93e"/>
    </g>
    <g id="Group_641" data-name="Group 641" transform="translate(302.675 -426.911)">
      <path id="Vector-130" data-name="Vector" d="M26.971,20.139a2.357,2.357,0,0,0-.066-.6C23.872,7.5,8.8,0,8.8,0L2.818.473C-.616,11.08-.174,17.59.377,20.486a1.556,1.556,0,0,0,.06.239,141.956,141.956,0,0,0,26.534-.586Z" transform="translate(50.147 384.576)" fill="url(#linear-gradient)"/>
      <path id="Vector-131" data-name="Vector" d="M0,.574A2.585,2.585,0,0,0,.679,1.8a2.585,2.585,0,0,0,1.218.69c7.006,1.472,18.146.287,22.819-.323A2.178,2.178,0,0,0,26.51,0,141.957,141.957,0,0,1,0,.574Z" transform="translate(50.596 404.714)" fill="#91b3fa"/>
      <path id="Vector-132" data-name="Vector" d="M.065,14.281,39.4,0,42.43,6.354,4.618,20.6S-.641,20.144.065,14.281Z" transform="translate(137.576 2.418)" fill="#91b3fa"/>
      <path id="Vector-133" data-name="Vector" d="M.2,1.478C-.957,4.99,3.231,7.832,3.231,7.832l7.138-5.05A14.228,14.228,0,0,1,9.614,0Z" transform="translate(176.776 0.951)" fill="url(#linear-gradient-2)"/>
      <path id="Vector-134" data-name="Vector" d="M0,.951A14.228,14.228,0,0,0,.754,3.733L6.025,0Z" transform="translate(186.39 0)" fill="#91b3fa"/>
      <path id="Vector-135" data-name="Vector" d="M12.941,0C9.25,3.937,3.823,7.341,0,9.459c5.708,7.054,13.432,14.12,23.651,21.036l2.932,6.581L35.951,25.84S19.133,17.452,12.941,0Z" transform="translate(14.004 191.603)" fill="url(#linear-gradient-3)"/>
      <path id="Vector-136" data-name="Vector" d="M0,0,2.531,12.175a1.986,1.986,0,0,0,1.7,1.639,16.794,16.794,0,0,0,3.919-.066,2.507,2.507,0,0,0,1.986-2.938L8.376,0Z" transform="translate(50.572 376.14)" fill="url(#linear-gradient-4)"/>
      <path id="Vector-137" data-name="Vector" d="M11.775,1.681C5.193,1.5,1.765.724,0,0V2.016A1.3,1.3,0,0,0,1.239,3.339l36.221-.233A1.651,1.651,0,0,0,38.787.712C34.061,1.089,21.97,1.968,11.775,1.681Z" transform="translate(91.208 403.482)" fill="#91b3fa"/>
      <path id="Vector-138" data-name="Vector" d="M38.805,17.739a1.723,1.723,0,0,0-.144-.275C35.461,12.995,27.294,4.1,11.218.239L3.506,0S.066,5.983,0,17.045c1.795.724,5.175,1.5,11.774,1.681C21.975,19.008,34.067,18.128,38.805,17.739Z" transform="translate(91.202 386.443)" fill="url(#linear-gradient-5)"/>
      <path id="Vector-139" data-name="Vector" d="M0,1.9c.09.6,1.149,9.321,1.556,12.714a1.681,1.681,0,0,0,1.418,1.52,17.715,17.715,0,0,0,5.307-.084,2.285,2.285,0,0,0,1.729-2.291V0Z" transform="translate(93.278 372.832)" fill="url(#linear-gradient-6)"/>
      <path id="Vector-140" data-name="Vector" d="M49.068,0s18.625,70.784,18.29,159.852a3.452,3.452,0,0,1-2.74,3.362,40.083,40.083,0,0,1-8.633.993,3.2,3.2,0,0,1-3.045-2.668c-2.615-15.316-17.6-101.59-26.139-115.6,0,0-5.618,76.839-3.823,116.7a1.885,1.885,0,0,1-1.663,1.968,31.71,31.71,0,0,1-6.934,0,2.531,2.531,0,0,1-2.25-2.148C10.268,149.507-.435,72.357.014,16.782.044,13.647,8.306.03,8.306.03Z" transform="translate(38.018 215.086)" fill="url(#linear-gradient-7)"/>
      <path id="Vector-141" data-name="Vector" d="M147.986,0c-8.173,15.221-21.742,30.746-43.825,34.91-20.384,3.841-56.987,8.585-71.7,10.44a18.021,18.021,0,0,0-11.368,6.115C9.529,64.849-15.844,101.482,14.023,138.4c3.823-2.118,9.25-5.522,12.941-9.459-3.3-9.315-3.59-21.215,3.35-35.814a32.385,32.385,0,0,0,.885,3.428,212.3,212.3,0,0,1,10.027,61.2,1.927,1.927,0,0,0,1.2,1.795c12.564,5.032,36.741,2.034,44.872.826a2.728,2.728,0,0,0,2.279-3.1c-3.979-28.856,16.465-76.33,21.862-88.224a7.885,7.885,0,0,1,3.925-3.925c30.878-13.97,44.274-35.473,49.742-54.839C160.371,3.955,153.078,1.2,147.986,0Z" transform="translate(0 62.666)" fill="url(#linear-gradient-8)"/>
      <path id="Vector-142" data-name="Vector" d="M17.093,43.825A93.993,93.993,0,0,0,18.559,0H11.523A113.825,113.825,0,0,1,0,33.546C5.091,34.749,12.385,37.507,17.093,43.825Z" transform="translate(147.986 29.113)" fill="url(#linear-gradient-9)"/>
      <path id="Vector-143" data-name="Vector" d="M7.924,27.642S-2.786,13.768.7,6.54,16.1.019,16.1.019l1.675,5.66a7.09,7.09,0,0,1-.168,4.535L11.029,27.642Z" transform="translate(154.062 5.21)" fill="url(#linear-gradient-10)"/>
      <path id="Vector-144" data-name="Vector" d="M2.393.7,0,25.433s13.916,4.188,24.033-2.956L16.92,0Z" transform="translate(51.781 79.555)" fill="url(#linear-gradient-11)"/>
      <path id="Vector-145" data-name="Vector" d="M18.4,1.041c.335.311,14.132,27.408,14.132,27.408L16.9,36,0,12.265S12.791-4.236,18.4,1.041Z" transform="translate(51.918 51.022)" fill="url(#linear-gradient-12)"/>
      <path id="Vector-146" data-name="Vector" d="M15.99,24.139a2.5,2.5,0,0,0,.185,2.2l7.778,13a2.28,2.28,0,0,0,.425.532c.927.862,4.1,3.374,6.581-.048,2.094-2.914,4.056-5.564,6.162-6.659a2.489,2.489,0,0,1,3.362,1.107,92.694,92.694,0,0,1,5.337,12.66,2.477,2.477,0,0,1-1.442,3.045,70.139,70.139,0,0,1-14.957,4.374,2.5,2.5,0,0,1-2.357-1.005c-2.393-3.273-9.124-12.421-11.421-14.712-2.136-2.124-6.079-1.322-7.856-.814a2.507,2.507,0,0,1-1.992-.263C4,36.47.847,33.765,3.725,29.176a2.483,2.483,0,0,0-.772-3.386C.943,24.462-1.235,21.979.841,17.958S6.7,13.519,9.265,13.836a2.591,2.591,0,0,0,2.716-1.514,1.663,1.663,0,0,1,1.286-1.017A2.393,2.393,0,0,0,15.23,8.464c-.455-2.3-.114-5.295,3.59-7.317,6.749-3.709,12.66,2.333,14.162,7.437s-6.043,8.711-10.769,9.309C18.67,18.323,16.755,22.129,15.99,24.139Z" transform="translate(42.851 39.825)" fill="url(#linear-gradient-13)"/>
      <path id="Vector-147" data-name="Vector" d="M11.384,8.463S8.393-.314,4.546.009-2.317,4.155,2.44,8.457C8.363,13.805,11.384,8.463,11.384,8.463Z" transform="translate(50.017 74.742)" fill="url(#linear-gradient-14)"/>
      <path id="Vector-148" data-name="Vector" d="M3.546,30.752C-1.515,16.9.321.168.339,0L1.733.162c0,.162-1.795,16.573,3.135,30.112Z" transform="translate(25.482 122.776)" fill="url(#linear-gradient-15)"/>
    </g>
  </g>
</svg>
