<svg xmlns="http://www.w3.org/2000/svg" width="970.802" height="586.666" viewBox="0 0 970.802 586.666">
  <g id="Group_708" data-name="Group 708" transform="translate(-143 -264)">
    <path id="Path_2063" data-name="Path 2063" d="M1015.366,849.775H294.711s-89-69.545-28.831-199.8c54.81-118.676,94.445-44.734,77.871-257.731C337.121,307.02,384.746,264.068,450.727,264c65.262-.064,133.44,32.559,196.21,17.55q23.963-5.732,46.088-9.014,2.611-.377,5.2-.754l1.416-.192c55.27-7.537,101.834-4.055,140.435,6.964,142.558,40.673,176.471,184.25,138.917,257.417C926.925,637.365,1133.5,647.3,1015.366,849.775Z" transform="translate(-56.598 0)" fill="#ebf3fa"/>
    <path id="Path_2064" data-name="Path 2064" d="M879.006,525.188,823.7,564.92a5.482,5.482,0,0,1-7.626-1.245l-69.7-96.961a5.479,5.479,0,0,1,1.25-7.623l55.292-39.731a5.485,5.485,0,0,1,7.626,1.249l69.7,96.959a5.484,5.484,0,0,1-1.242,7.622Z" transform="translate(-334.238 -85.641)" fill="#699ff0"/>
    <path id="Path_2065" data-name="Path 2065" d="M800.286,538.551l-18.577-25.839a2.455,2.455,0,0,1,.56-3.407l.262-.179a2.46,2.46,0,0,1,3.409.56l18.576,25.853a2.452,2.452,0,0,1-.561,3.407l-.248.178a2.452,2.452,0,0,1-3.421-.573Z" transform="translate(-354.157 -135.765)" fill="#afcdfb"/>
    <path id="Path_2066" data-name="Path 2066" d="M855.281,615.039,836.7,589.186a2.454,2.454,0,0,1,.563-3.407l.262-.179a2.454,2.454,0,0,1,3.408.56L859.514,612a2.457,2.457,0,0,1-.561,3.407l-.248.178a2.457,2.457,0,0,1-3.424-.545Z" transform="translate(-384.672 -178.198)" fill="#afcdfb"/>
    <path id="Path_2067" data-name="Path 2067" d="M837.857,474.856a5.932,5.932,0,0,1-2.681,1.171,2.68,2.68,0,0,1-2.75-3.828,7.04,7.04,0,0,1,4.618-3.331,2.7,2.7,0,0,1,2.766,3.846A5.968,5.968,0,0,1,837.857,474.856Zm-.848-1.188a5.936,5.936,0,0,0,1.344-1.27,1.345,1.345,0,0,0,.179-1.663,1.363,1.363,0,0,0-1.63-.378,5.7,5.7,0,0,0-1.651.868q-2.412,1.734-1.526,2.964a1.334,1.334,0,0,0,1.642.355A5.869,5.869,0,0,0,837.009,473.668Z" transform="translate(-382.4 -113.666)" fill="#afcdfb"/>
    <path id="Path_2068" data-name="Path 2068" d="M846.423,486.777a5.919,5.919,0,0,1-2.681,1.174,2.684,2.684,0,0,1-2.754-3.828,7.039,7.039,0,0,1,4.619-3.331,2.7,2.7,0,0,1,2.766,3.846A5.944,5.944,0,0,1,846.423,486.777Zm-.848-1.186a5.969,5.969,0,0,0,1.347-1.27,1.347,1.347,0,0,0,.177-1.663,1.362,1.362,0,0,0-1.63-.378,5.656,5.656,0,0,0-1.649.867q-2.414,1.735-1.529,2.964a1.342,1.342,0,0,0,1.642.355,5.885,5.885,0,0,0,1.643-.866Z" transform="translate(-387.154 -120.283)" fill="#afcdfb"/>
    <path id="Path_2069" data-name="Path 2069" d="M854.989,498.7a5.887,5.887,0,0,1-2.681,1.174,2.683,2.683,0,0,1-2.753-3.828,7.051,7.051,0,0,1,4.618-3.332,2.7,2.7,0,0,1,2.766,3.847A5.914,5.914,0,0,1,854.989,498.7Zm-.845-1.189a5.813,5.813,0,0,0,1.344-1.27,1.341,1.341,0,0,0,.177-1.66,1.357,1.357,0,0,0-1.63-.378,5.682,5.682,0,0,0-1.649.867q-2.414,1.732-1.529,2.964a1.342,1.342,0,0,0,1.642.355A5.8,5.8,0,0,0,854.144,497.508Z" transform="translate(-391.907 -126.896)" fill="#afcdfb"/>
    <path id="Path_2070" data-name="Path 2070" d="M863.564,510.619a5.916,5.916,0,0,1-2.681,1.174,2.683,2.683,0,0,1-2.75-3.831,7.048,7.048,0,0,1,4.619-3.329,2.7,2.7,0,0,1,2.766,3.846A5.942,5.942,0,0,1,863.564,510.619Zm-.848-1.189a5.8,5.8,0,0,0,1.344-1.27,1.26,1.26,0,0,0-1.45-2.038,5.687,5.687,0,0,0-1.651.867q-2.409,1.731-1.527,2.961a1.334,1.334,0,0,0,1.642.357A5.881,5.881,0,0,0,862.716,509.43Z" transform="translate(-396.665 -133.512)" fill="#afcdfb"/>
    <path id="Path_2071" data-name="Path 2071" d="M876.556,528.681a5.917,5.917,0,0,1-2.681,1.174,2.683,2.683,0,0,1-2.753-3.828,7.053,7.053,0,0,1,4.621-3.332,2.7,2.7,0,0,1,2.763,3.847A5.926,5.926,0,0,1,876.556,528.681Zm-.848-1.186a5.886,5.886,0,0,0,1.344-1.273,1.336,1.336,0,0,0,.177-1.66,1.353,1.353,0,0,0-1.63-.378,5.679,5.679,0,0,0-1.649.867q-2.412,1.734-1.526,2.964a1.332,1.332,0,0,0,1.639.355,5.861,5.861,0,0,0,1.642-.875Z" transform="translate(-403.874 -143.534)" fill="#afcdfb"/>
    <path id="Path_2072" data-name="Path 2072" d="M885.117,540.6a5.919,5.919,0,0,1-2.681,1.174,2.681,2.681,0,0,1-2.753-3.828,7.042,7.042,0,0,1,4.619-3.331,2.7,2.7,0,0,1,2.766,3.846A5.947,5.947,0,0,1,885.117,540.6Zm-.848-1.189a5.88,5.88,0,0,0,1.347-1.271,1.261,1.261,0,0,0-1.453-2.038,5.653,5.653,0,0,0-1.649.867q-2.414,1.732-1.529,2.964a1.334,1.334,0,0,0,1.642.355A5.815,5.815,0,0,0,884.269,539.414Z" transform="translate(-408.623 -150.15)" fill="#afcdfb"/>
    <path id="Path_2073" data-name="Path 2073" d="M893.683,552.525A5.9,5.9,0,0,1,891,553.7a2.682,2.682,0,0,1-2.753-3.831,7.045,7.045,0,0,1,4.618-3.329,2.7,2.7,0,0,1,2.766,3.846A5.922,5.922,0,0,1,893.683,552.525Zm-.84-1.2a5.8,5.8,0,0,0,1.347-1.27,1.342,1.342,0,0,0,.177-1.66,1.361,1.361,0,0,0-1.63-.378,5.648,5.648,0,0,0-1.649.867q-2.415,1.729-1.529,2.961a1.343,1.343,0,0,0,1.642.357A5.864,5.864,0,0,0,892.842,551.327Z" transform="translate(-413.376 -156.765)" fill="#afcdfb"/>
    <path id="Path_2074" data-name="Path 2074" d="M902.26,564.445a5.945,5.945,0,0,1-2.681,1.174,2.683,2.683,0,0,1-2.751-3.831,7.047,7.047,0,0,1,4.618-3.329,2.7,2.7,0,0,1,2.763,3.847A5.951,5.951,0,0,1,902.26,564.445Zm-.848-1.189a5.805,5.805,0,0,0,1.344-1.27,1.262,1.262,0,0,0-1.453-2.041,5.753,5.753,0,0,0-1.649.867q-2.408,1.734-1.526,2.964a1.338,1.338,0,0,0,1.639.357A5.862,5.862,0,0,0,901.412,563.256Z" transform="translate(-418.137 -163.379)" fill="#afcdfb"/>
    <path id="Path_2075" data-name="Path 2075" d="M915.238,582.51a5.9,5.9,0,0,1-2.681,1.174,2.683,2.683,0,0,1-2.753-3.831,7.066,7.066,0,0,1,4.619-3.329,2.7,2.7,0,0,1,2.766,3.847A5.921,5.921,0,0,1,915.238,582.51Zm-.845-1.189a5.817,5.817,0,0,0,1.344-1.27,1.342,1.342,0,0,0,.177-1.66,1.357,1.357,0,0,0-1.63-.378,5.666,5.666,0,0,0-1.649.867q-2.414,1.732-1.529,2.962a1.342,1.342,0,0,0,1.642.357A5.9,5.9,0,0,0,914.393,581.32Z" transform="translate(-425.337 -173.403)" fill="#afcdfb"/>
    <path id="Path_2076" data-name="Path 2076" d="M923.815,594.424a5.92,5.92,0,0,1-2.681,1.174,2.683,2.683,0,0,1-2.751-3.832A7.048,7.048,0,0,1,923,588.437a2.7,2.7,0,0,1,2.766,3.847A5.967,5.967,0,0,1,923.815,594.424Zm-.848-1.189a5.807,5.807,0,0,0,1.344-1.27,1.26,1.26,0,0,0-1.45-2.038,5.587,5.587,0,0,0-1.651.867q-2.409,1.731-1.526,2.961a1.334,1.334,0,0,0,1.642.357,5.882,5.882,0,0,0,1.642-.875Z" transform="translate(-430.097 -180.014)" fill="#afcdfb"/>
    <path id="Path_2077" data-name="Path 2077" d="M932.378,606.36a5.979,5.979,0,0,1-2.681,1.174,2.683,2.683,0,0,1-2.754-3.831,5.9,5.9,0,0,1,1.963-2.146,5.977,5.977,0,0,1,2.656-1.177,2.705,2.705,0,0,1,2.766,3.849A5.963,5.963,0,0,1,932.378,606.36Zm-.847-1.189a5.846,5.846,0,0,0,1.347-1.271,1.262,1.262,0,0,0-1.453-2.04,5.715,5.715,0,0,0-1.649.867q-2.414,1.735-1.529,2.964a1.332,1.332,0,0,0,1.642.355A5.8,5.8,0,0,0,931.531,605.171Z" transform="translate(-434.848 -186.64)" fill="#afcdfb"/>
    <path id="Path_2078" data-name="Path 2078" d="M940.947,618.27a5.917,5.917,0,0,1-2.681,1.171,2.683,2.683,0,0,1-2.753-3.828,7.055,7.055,0,0,1,4.619-3.332,2.7,2.7,0,0,1,2.766,3.849A5.936,5.936,0,0,1,940.947,618.27Zm-.845-1.189a5.878,5.878,0,0,0,1.344-1.27,1.262,1.262,0,0,0-1.453-2.041,5.649,5.649,0,0,0-1.649.867q-2.414,1.735-1.529,2.964a1.339,1.339,0,0,0,1.642.354A5.887,5.887,0,0,0,940.1,617.081Z" transform="translate(-439.603 -193.244)" fill="#afcdfb"/>
    <path id="Path_2079" data-name="Path 2079" d="M962.5,648.257a5.919,5.919,0,0,1-2.681,1.171,2.684,2.684,0,0,1-2.753-3.829,7.052,7.052,0,0,1,4.618-3.331,2.7,2.7,0,0,1,2.766,3.849A5.94,5.94,0,0,1,962.5,648.257Zm-.845-1.189A5.808,5.808,0,0,0,963,645.8a1.262,1.262,0,0,0-1.453-2.04,5.746,5.746,0,0,0-1.649.867q-2.414,1.735-1.529,2.964a1.338,1.338,0,0,0,1.642.355A5.784,5.784,0,0,0,961.657,647.067Z" transform="translate(-451.564 -209.883)" fill="#afcdfb"/>
    <path id="Path_2080" data-name="Path 2080" d="M979.65,672.1a5.937,5.937,0,0,1-2.681,1.171,2.683,2.683,0,0,1-2.753-3.828,7.041,7.041,0,0,1,4.618-3.332,2.7,2.7,0,0,1,2.766,3.847A5.971,5.971,0,0,1,979.65,672.1Zm-.847-1.189a5.951,5.951,0,0,0,1.346-1.27,1.347,1.347,0,0,0,.177-1.663,1.362,1.362,0,0,0-1.63-.378,5.648,5.648,0,0,0-1.649.867q-2.414,1.734-1.529,2.964a1.342,1.342,0,0,0,1.642.355,5.87,5.87,0,0,0,1.639-.874Z" transform="translate(-461.078 -223.112)" fill="#afcdfb"/>
    <path id="Path_2081" data-name="Path 2081" d="M897.848,467.884l-18.179-25.277a2.442,2.442,0,0,1,3.969-2.847l18.188,25.28a2.445,2.445,0,0,1-3.978,2.844Z" transform="translate(-408.512 -96.965)" fill="#afcdfb"/>
    <path id="Path_2082" data-name="Path 2082" d="M1005.119,642.772a3.723,3.723,0,0,0,1.429-2.044.427.427,0,0,0,.009-.168.394.394,0,0,0-.058-.157.446.446,0,0,0-.12-.118.4.4,0,0,0-.16-.059l-.2-.033a.394.394,0,0,0-.276.056.4.4,0,0,0-.169.224,2.746,2.746,0,0,1-2.777,2,.4.4,0,0,0-.263.084.413.413,0,0,0-.147.235l-.031.2a.356.356,0,0,0,0,.168.39.39,0,0,0,.076.15.411.411,0,0,0,.129.107.394.394,0,0,0,.16.044A3.754,3.754,0,0,0,1005.119,642.772Z" transform="translate(-476.833 -208.74)" fill="#afcdfb"/>
    <path id="Path_2083" data-name="Path 2083" d="M1007.243,648.5a9.42,9.42,0,0,0,3.752-5.829.387.387,0,0,0,0-.16.365.365,0,0,0-.062-.148.369.369,0,0,0-.116-.111.383.383,0,0,0-.147-.057l-.2-.031a.406.406,0,0,0-.294.07.394.394,0,0,0-.16.253,8.451,8.451,0,0,1-9.361,6.722.4.4,0,0,0-.285.073.386.386,0,0,0-.156.25l-.04.2a.392.392,0,0,0,.009.161.431.431,0,0,0,.067.146.366.366,0,0,0,.12.108.4.4,0,0,0,.151.053A9.448,9.448,0,0,0,1007.243,648.5Z" transform="translate(-475.628 -209.836)" fill="#afcdfb"/>
    <path id="Path_2084" data-name="Path 2084" d="M769.13,522.247a2.857,2.857,0,0,1-1.29.563,1.29,1.29,0,0,1-1.325-1.846,2.832,2.832,0,0,1,.945-1.039,2.905,2.905,0,0,1,1.281-.568,1.3,1.3,0,0,1,1.334,1.857A2.868,2.868,0,0,1,769.13,522.247Zm-.408-.575a2.8,2.8,0,0,0,.647-.621.61.61,0,0,0-.7-.983,2.731,2.731,0,0,0-.8.418c-.784.56-1.018,1.032-.736,1.429a.644.644,0,0,0,.791.172A2.83,2.83,0,0,0,768.722,521.672Z" transform="translate(-345.904 -141.688)" fill="#afcdfb"/>
    <path id="Path_2085" data-name="Path 2085" d="M773.264,528a2.859,2.859,0,0,1-1.287.564,1.293,1.293,0,0,1-1.328-1.846,2.864,2.864,0,0,1,.948-1.039,2.9,2.9,0,0,1,1.281-.569,1.3,1.3,0,0,1,1.332,1.857A2.858,2.858,0,0,1,773.264,528Zm-.408-.575a2.8,2.8,0,0,0,.647-.622.61.61,0,0,0-.7-.982,2.71,2.71,0,0,0-.8.418q-1.162.839-.739,1.429a.648.648,0,0,0,.794.172A2.839,2.839,0,0,0,772.856,527.422Z" transform="translate(-348.199 -144.878)" fill="#afcdfb"/>
    <path id="Path_2086" data-name="Path 2086" d="M777.626,532.95a.445.445,0,0,1-.187.063l-3.719.641a.358.358,0,0,1-.21,0,.353.353,0,0,1-.176-.115.3.3,0,0,1-.054-.212.281.281,0,0,1,.04-.1.271.271,0,0,1,.077-.081.434.434,0,0,1,.186-.074l3.717-.64a.362.362,0,0,1,.379.108.3.3,0,0,1,.06.215.249.249,0,0,1-.033.111A.252.252,0,0,1,777.626,532.95Z" transform="translate(-349.73 -148.939)" fill="#afcdfb"/>
    <path id="Path_2087" data-name="Path 2087" d="M780.223,537.668a2.855,2.855,0,0,1-1.29.564,1.293,1.293,0,0,1-1.328-1.846,3.4,3.4,0,0,1,2.228-1.613,1.3,1.3,0,0,1,1.334,1.854A2.839,2.839,0,0,1,780.223,537.668Zm-.41-.572a2.869,2.869,0,0,0,.649-.622.611.611,0,0,0-.7-.985,2.8,2.8,0,0,0-.8.418q-1.162.839-.736,1.429a.643.643,0,0,0,.791.172A2.864,2.864,0,0,0,779.813,537.1Z" transform="translate(-352.059 -150.242)" fill="#afcdfb"/>
    <path id="Path_2088" data-name="Path 2088" d="M784.357,543.418a2.852,2.852,0,0,1-1.287.564,1.293,1.293,0,0,1-1.328-1.846,3.4,3.4,0,0,1,2.225-1.613,1.3,1.3,0,0,1,1.334,1.854A2.841,2.841,0,0,1,784.357,543.418Zm-.408-.572a2.861,2.861,0,0,0,.647-.622.611.611,0,0,0-.7-.985,2.712,2.712,0,0,0-.8.418q-1.165.839-.739,1.429a.647.647,0,0,0,.794.172A2.889,2.889,0,0,0,783.949,542.846Z" transform="translate(-354.354 -153.432)" fill="#afcdfb"/>
    <path id="Path_2089" data-name="Path 2089" d="M788.488,549.169a2.858,2.858,0,0,1-1.287.564,1.293,1.293,0,0,1-1.328-1.846,3.4,3.4,0,0,1,2.227-1.613,1.3,1.3,0,0,1,1.334,1.854A2.871,2.871,0,0,1,788.488,549.169Zm-.422-.582a2.889,2.889,0,0,0,.649-.622.649.649,0,0,0,.085-.8.658.658,0,0,0-.787-.183,2.779,2.779,0,0,0-.8.418q-1.165.84-.736,1.429a.642.642,0,0,0,.791.172A2.884,2.884,0,0,0,788.066,548.587Z" transform="translate(-356.647 -156.623)" fill="#afcdfb"/>
    <path id="Path_2090" data-name="Path 2090" d="M792.614,554.907a2.857,2.857,0,0,1-1.29.564A1.293,1.293,0,0,1,790,553.625a2.858,2.858,0,0,1,.947-1.039,2.9,2.9,0,0,1,1.281-.569,1.3,1.3,0,0,1,1.335,1.857A2.891,2.891,0,0,1,792.614,554.907Zm-.411-.575a2.892,2.892,0,0,0,.649-.622.646.646,0,0,0,.085-.8.659.659,0,0,0-.786-.183,2.723,2.723,0,0,0-.8.418q-1.162.839-.736,1.429a.643.643,0,0,0,.791.172,2.794,2.794,0,0,0,.8-.4Z" transform="translate(-358.935 -159.81)" fill="#afcdfb"/>
    <path id="Path_2091" data-name="Path 2091" d="M946.538,732.453l-86.255,93.234-124.29-115h0L683.62,662.24l86.25-93.23,97.788,90.466Z" transform="translate(-299.98 -169.245)" fill="#a8d29f"/>
    <path id="Path_2092" data-name="Path 2092" d="M948.509,755.491l-66.968,72.381L722.75,680.983l66.968-72.4Zm-60.955,61.457,50.5-54.585a9.141,9.141,0,0,0-.5-12.908L796.711,619.143a9.312,9.312,0,0,0-13.149.512l-50.3,54.367a9.231,9.231,0,0,0,.507,13.042L874.7,817.452a9.1,9.1,0,0,0,12.851-.5Z" transform="translate(-321.693 -191.201)" fill="#82b378"/>
    <path id="Path_2093" data-name="Path 2093" d="M925.258,841.313a26.523,26.523,0,1,1,8.823,5.414A26.529,26.529,0,0,1,925.258,841.313Z" transform="translate(-429.337 -294.815)" fill="#82b378"/>
    <path id="Path_2094" data-name="Path 2094" d="M1129.722,604.511l-123.885,28.011L968.5,467.357l-15.73-69.59,123.881-28.007,29.378,129.934Z" transform="translate(-449.327 -58.684)" fill="#a8d29f"/>
    <path id="Path_2095" data-name="Path 2095" d="M1133.02,610.986l-96.181,21.757-47.7-210.986L1085.317,400Zm-85.044,16.144,72.554-16.4a9.139,9.139,0,0,0,6.9-10.932l-42.286-187.15a9.306,9.306,0,0,0-11.128-7.024l-72.243,16.331a9.228,9.228,0,0,0-6.966,11.034l42.335,187.27a9.091,9.091,0,0,0,10.834,6.886Z" transform="translate(-469.508 -75.464)" fill="#82b378"/>
    <path id="Path_2096" data-name="Path 2096" d="M1091.806,634.232a26.533,26.533,0,1,1,11.715,16.586A26.511,26.511,0,0,1,1091.806,634.232Z" transform="translate(-526.113 -187.471)" fill="#82b378"/>
    <path id="Path_2097" data-name="Path 2097" d="M1275.98,920.132A149.179,149.179,0,0,1,1262.551,982c-25.924,57.135-86.54,97.481-156.73,97.481h-48.651c-62.1,0-116.715-31.572-146.444-78.421A150.763,150.763,0,0,1,887,920.132a149.2,149.2,0,0,1,13.429-61.872c25.919-57.135,86.54-97.481,156.731-97.481h48.651c63.83,0,119.737,33.348,148.847,82.347A150.31,150.31,0,0,1,1275.98,920.132Z" transform="translate(-412.832 -275.654)" fill="#ed7d2b"/>
    <path id="Path_2098" data-name="Path 2098" d="M1422.974,1297.465l-15.873,96.5c-2.11,7.474,3.912,14.8,12.169,14.8h41.712a24.121,24.121,0,0,0,21.228-12.121l64.831-121.072Z" transform="translate(-701.192 -561.302)" fill="#ed7d2b"/>
    <path id="Path_2099" data-name="Path 2099" d="M1069.227,1312.993l12.735,94.846c2.105,7.473-3.913,14.8-12.17,14.8h-41.716a24.126,24.126,0,0,1-21.228-12.121L940.33,1300.57Z" transform="translate(-442.424 -575.174)" fill="#ed7d2b"/>
    <path id="Path_2100" data-name="Path 2100" d="M864.75,1052.113v42.811c0,8.2-7.166,14.9-15.917,14.9H816.067c-8.751,0-15.917-6.7-15.917-14.9v-42.811c0-8.2,7.166-14.9,15.917-14.9h32.765C857.584,1037.21,864.75,1043.913,864.75,1052.113Z" transform="translate(-364.641 -429.04)" fill="#ed7d2b"/>
    <path id="Path_2101" data-name="Path 2101" d="M864.75,1052.113v23.849c0,8.195-7.166,14.907-15.917,14.907H816.067c-8.751,0-15.917-6.712-15.917-14.907v-23.849c0-8.2,7.166-14.9,15.917-14.9h32.765C857.584,1037.21,864.75,1043.913,864.75,1052.113Z" transform="translate(-364.641 -429.04)" fill="#f99746"/>
    <path id="Path_2102" data-name="Path 2102" d="M1254.667,843.166c4.037,18.374.859,44.641-4.3,58.547-34.341,92.482-115.058,109.174-197.57,116.207-58.671,5-142.055-16.883-142.055-16.883A149.529,149.529,0,0,1,900.429,858.26c25.919-57.135,86.54-97.481,156.731-97.481h48.651C1169.65,760.806,1225.561,794.154,1254.667,843.166Z" transform="translate(-412.832 -275.654)" fill="#f99746"/>
    <path id="Path_2103" data-name="Path 2103" d="M1059.621,744.647l-65.6,12.463c-6.615,1.255-12.793-1.491-13.8-6.129l-18.13-83.865a6.454,6.454,0,0,1,.476-4.113c2.261-4.968,10.3-8.364,17.3-6.232,27.762,8.493,74.78,29.485,89.762,76.645C1071.149,738.188,1066.574,743.347,1059.621,744.647Z" transform="translate(-454.419 -217.582)" fill="#f99746"/>
    <path id="Path_2104" data-name="Path 2104" d="M996.69,765.171l-2.671.507c-6.615,1.255-12.793-1.491-13.8-6.129l-18.13-83.856a6.453,6.453,0,0,1,.476-4.113,8.424,8.424,0,0,1,.966.588c17.466,12.147,44.316,37.434,47.369,79.4C1011.348,757.675,1005.21,763.559,996.69,765.171Z" transform="translate(-454.419 -226.159)" fill="#ed7d2b"/>
    <path id="Path_2105" data-name="Path 2105" d="M1000.74,967.347c0-5.154,4.451-9.348,9.971-9.348s9.971,4.18,9.971,9.348-4.451,9.347-9.971,9.347S1000.74,972.511,1000.74,967.347Z" transform="translate(-475.945 -385.088)" fill="#2b478b"/>
    <path id="Path_2106" data-name="Path 2106" d="M1771.437,1108.1a12.014,12.014,0,0,1-2.871-.347c-7.4-1.825-11.631-10.091-11.048-21.579.57-11.261,5.6-23.146,13.8-32.623a61.177,61.177,0,0,1,12.508-10.963,34.281,34.281,0,0,0-9.2-9.494c-6.815-4.789-13.861-6.169-21.53-4.22-20.622,5.244-38.1,32.841-39.513,35.943a3.561,3.561,0,0,1-4.38,1.985,3.2,3.2,0,0,1-1.166-.583,3.234,3.234,0,0,1-.837-1,3.163,3.163,0,0,1-.374-1.251,3.2,3.2,0,0,1,.151-1.3c.614-1.723,5.72-9.962,12.846-18.121,12.414-14.217,23.235-19.585,30.121-21.619,10.238-2.991,19.928-1.335,28.848,4.936a41.334,41.334,0,0,1,10.928,11.235,76.109,76.109,0,0,1,23.72-7.567,3.465,3.465,0,0,1,4.006,2.671,3.272,3.272,0,0,1-.65,2.484,3.212,3.212,0,0,1-.988.859,3.322,3.322,0,0,1-1.242.41,68.56,68.56,0,0,0-21.682,6.971,46.877,46.877,0,0,1,3.726,14.689,61.029,61.029,0,0,1-6.432,32.747C1784.987,1102.44,1778.145,1108.1,1771.437,1108.1Zm15.49-59.539a54.389,54.389,0,0,0-10.18,9.1c-7.291,8.413-11.76,18.917-12.263,28.817-.4,7.856,2.012,14.008,5.858,14.956s9.472-3.935,13.585-11.9a55.532,55.532,0,0,0,5.787-29.338,41.289,41.289,0,0,0-2.809-11.64Zm-73.3,16.176a.129.129,0,0,0,0,.058.222.222,0,0,1-.022-.058Z" transform="translate(-867.731 -420.314)" fill="#ed7d2b"/>
    <path id="Path_2107" data-name="Path 2107" d="M1557.2,1171.368a4.461,4.461,0,0,1-4.042-2.8L1449.2,850.575c-.512-1.553.476-2.822,2.226-2.835a4.456,4.456,0,0,1,4.046,2.8l103.953,317.988A2.123,2.123,0,0,1,1557.2,1171.368Z" transform="translate(-724.713 -323.907)" fill="#aec3ff"/>
    <path id="Path_2108" data-name="Path 2108" d="M1745.4,1170.262a4.431,4.431,0,0,1-4.046-2.8l-103.957-318a2.1,2.1,0,0,1,2.226-2.835,4.431,4.431,0,0,1,4.046,2.8l103.957,317.987A2.115,2.115,0,0,1,1745.4,1170.262Z" transform="translate(-829.139 -323.292)" fill="#aec3ff"/>
    <path id="Path_2109" data-name="Path 2109" d="M1567.74,945.941l-84.127.49a4.227,4.227,0,0,1-3.819-2.64,1.969,1.969,0,0,1,2.079-2.671l84.127-.49a4.217,4.217,0,0,1,3.819,2.644A1.971,1.971,0,0,1,1567.74,945.941Z" transform="translate(-741.693 -375.45)" fill="#aec3ff"/>
    <path id="Path_2110" data-name="Path 2110" d="M1608.518,1070.67l-84.127.49a4.2,4.2,0,0,1-3.819-2.64,1.968,1.968,0,0,1,2.079-2.671l84.127-.49A4.215,4.215,0,0,1,1610.6,1068,1.966,1.966,0,0,1,1608.518,1070.67Z" transform="translate(-764.319 -444.66)" fill="#aec3ff"/>
    <path id="Path_2111" data-name="Path 2111" d="M1647.79,1190.8l-84.127.49a4.226,4.226,0,0,1-3.819-2.64,1.969,1.969,0,0,1,2.079-2.671l84.127-.49a4.216,4.216,0,0,1,3.819,2.644A1.971,1.971,0,0,1,1647.79,1190.8Z" transform="translate(-786.111 -511.318)" fill="#aec3ff"/>
    <path id="Path_2112" data-name="Path 2112" d="M1692,1326.045l-84.127.485a4.22,4.22,0,0,1-3.819-2.64,1.97,1.97,0,0,1,2.083-2.671l84.127-.49a4.215,4.215,0,0,1,3.819,2.644A1.98,1.98,0,0,1,1692,1326.045Z" transform="translate(-810.643 -586.361)" fill="#aec3ff"/>
    <path id="Path_2113" data-name="Path 2113" d="M1738.278,1467.595l-84.127.49a4.214,4.214,0,0,1-3.819-2.644,1.968,1.968,0,0,1,2.079-2.671l84.127-.49a4.2,4.2,0,0,1,3.819,2.64A1.977,1.977,0,0,1,1738.278,1467.595Z" transform="translate(-836.321 -664.904)" fill="#aec3ff"/>
    <path id="Path_2114" data-name="Path 2114" d="M1317.067,785.094a3.184,3.184,0,0,1-2.9,2.626,3.5,3.5,0,0,1-.8-.045,252.817,252.817,0,0,0-26.792-3.231c-1.754-.12-3.494-.218-5.212-.307l-2.141-.1-1.1-.04c-2.292-.094-4.558-.151-6.775-.187-1.1,0-2.2-.036-3.276-.04-4.545,0-8.9.049-13.028.2-1.113.036-2.226.08-3.281.129-.859.036-1.7.08-2.533.12a2.921,2.921,0,0,0-.556.036q-2.757.155-5.341.329h-.107a269.364,269.364,0,0,0-26.783,3.116,3.191,3.191,0,1,1-1.2-6.267c.361-.071,6.784-1.278,17.36-2.373l2.724-.267,1.429-.134c.939-.08,1.905-.165,2.9-.24.289-.027.588-.058.89-.076l1.335-.1c.557-.044,1.117-.085,1.687-.12l2.105-.142c1.309-.085,2.671-.156,4.082-.227,8.257-.414,18.214-.592,29.12-.142l2,.089,1.335.071c1.077.053,2.159.116,3.258.191l1.5.094.512.036c1.4.1,2.818.209,4.242.338,2.163.178,4.362.392,6.57.637,5.3.583,10.683,1.335,16.144,2.306a3.2,3.2,0,0,1,1.179.444,3.234,3.234,0,0,1,.913.866,3.193,3.193,0,0,1,.53,2.412Z" transform="translate(-593.486 -284.848)" fill="#233862"/>
    <path id="Path_2115" data-name="Path 2115" d="M1287.366,631.555a55.184,55.184,0,1,0-78.043,0A55.18,55.18,0,0,0,1287.366,631.555Z" transform="translate(-582.716 -151.678)" fill="#e2810e"/>
    <path id="Path_2116" data-name="Path 2116" d="M1276.556,631.561a55.184,55.184,0,1,0-78.042,0A55.179,55.179,0,0,0,1276.556,631.561Z" transform="translate(-576.718 -151.681)" fill="#ffc76c"/>
    <path id="Path_2117" data-name="Path 2117" d="M1243.771,650.423a50.243,50.243,0,0,1-49.337-40.3,50.021,50.021,0,0,1,30.081-56.036,50.423,50.423,0,0,1,61.07,18.44,50.093,50.093,0,0,1-41.814,77.9Zm0-97.167a47.306,47.306,0,0,0-43.7,29.074,46.944,46.944,0,0,0,10.26,51.322,47.185,47.185,0,1,0,33.442-80.4Z" transform="translate(-582.885 -158.847)" fill="#ffa412"/>
    <path id="Path_2118" data-name="Path 2118" d="M1285.436,631.011a8.271,8.271,0,0,0-.12-2.922,6.089,6.089,0,0,0-1.233-2.424,11.718,11.718,0,0,0-2.47-2.178,30.154,30.154,0,0,0-3.828-2.142,79.141,79.141,0,0,1-7.069-3.882,24.876,24.876,0,0,1-5.283-4.3,14.689,14.689,0,0,1-3.125-5.239,16.614,16.614,0,0,1,1.344-12.56,13.944,13.944,0,0,1,3.9-4.33,17.368,17.368,0,0,1,5.582-2.654,23.243,23.243,0,0,1,6.966-.8l.988-8.309,6.672.794-1,8.4a20.961,20.961,0,0,1,6.281,2.668,15.782,15.782,0,0,1,7.028,10.081,21.039,21.039,0,0,1,.28,7.122l-12.058-1.431q.548-4.648-1.237-7.2a7.082,7.082,0,0,0-5.257-2.959,9.093,9.093,0,0,0-3.294.138,6.181,6.181,0,0,0-2.4,1.168,5.715,5.715,0,0,0-1.549,2,8.284,8.284,0,0,0-.734,2.622,7.765,7.765,0,0,0,.107,2.645,5.683,5.683,0,0,0,1.188,2.308,11.306,11.306,0,0,0,2.488,2.179,38.634,38.634,0,0,0,3.979,2.308q3.866,1.994,6.993,3.97a25.681,25.681,0,0,1,5.261,4.335,14.211,14.211,0,0,1,3.655,11.923,15.169,15.169,0,0,1-1.91,5.973,13.829,13.829,0,0,1-3.917,4.288,16.839,16.839,0,0,1-5.609,2.557,25.313,25.313,0,0,1-7.006.738l-.926,7.7-6.632-.784.926-7.667a28.315,28.315,0,0,1-6.512-2.308,17.814,17.814,0,0,1-5.342-4.03,16.032,16.032,0,0,1-3.347-6,19.57,19.57,0,0,1-.557-8.156l12.058,1.431a12.018,12.018,0,0,0,.223,4.681,7.864,7.864,0,0,0,1.714,3.185,7.525,7.525,0,0,0,2.773,1.9,12.771,12.771,0,0,0,3.307.845,10.642,10.642,0,0,0,3.5-.1,7.138,7.138,0,0,0,2.644-1.1,5.706,5.706,0,0,0,1.754-1.934A7,7,0,0,0,1285.436,631.011Z" transform="translate(-617.842 -174.938)" fill="#ffa412"/>
    <path id="Path_2119" data-name="Path 2119" d="M1969.491,1555.9v4.945a1.659,1.659,0,0,1-.392,1.064,2.2,2.2,0,0,1-1.064.712,2.166,2.166,0,0,1-.414.1,3.1,3.1,0,0,1-.406.027h-93.808a2.147,2.147,0,0,1-2.226-1.62.549.549,0,0,0-.022-.187V1555.8a.536.536,0,0,1,.022-.187,2.187,2.187,0,0,1,2.226-1.62h93.826a2.46,2.46,0,0,1,.405.031,2.139,2.139,0,0,1,.414.1,2.279,2.279,0,0,1,1.064.712A1.684,1.684,0,0,1,1969.491,1555.9Z" transform="translate(-958.925 -715.792)" fill="#ffb93e"/>
    <path id="Path_2120" data-name="Path 2120" d="M1923.4,1562.745h-50.263a2.027,2.027,0,0,1-1.207-.383,1.98,1.98,0,0,1-.743-1.024,1.846,1.846,0,0,1-.053-.214.553.553,0,0,0-.022-.187V1555.8a.539.539,0,0,1,.022-.187,1.578,1.578,0,0,1,.053-.209,2,2,0,0,1,.739-1.028,2.04,2.04,0,0,1,1.211-.383H1917.2A15.327,15.327,0,0,0,1923.4,1562.745Z" transform="translate(-958.897 -715.792)" fill="#ffa412"/>
    <path id="Path_2121" data-name="Path 2121" d="M2065.1,1553.99h-1.068v8.756h1.068Z" transform="translate(-1065.945 -715.792)" fill="#ffa412"/>
    <path id="Path_2122" data-name="Path 2122" d="M2056.988,1553.99h-1.068v8.756h1.068Z" transform="translate(-1061.445 -715.792)" fill="#ffa412"/>
    <path id="Path_2123" data-name="Path 2123" d="M2047.258,1553.99h-1.068v8.756h1.068Z" transform="translate(-1056.046 -715.792)" fill="#ffa412"/>
    <path id="Path_2124" data-name="Path 2124" d="M2032.358,1553.99h-1.068v8.756h1.068Z" transform="translate(-1047.778 -715.792)" fill="#ffa412"/>
    <path id="Path_2125" data-name="Path 2125" d="M2016.6,1553.99h-1.068v8.756h1.068Z" transform="translate(-1039.033 -715.792)" fill="#ffa412"/>
    <path id="Path_2126" data-name="Path 2126" d="M1992.434,1553.99h-1.064v8.756h1.064Z" transform="translate(-1025.627 -715.792)" fill="#ffa412"/>
    <path id="Path_2127" data-name="Path 2127" d="M1969.818,1553.99h-1.068v8.756h1.068Z" transform="translate(-1013.076 -715.792)" fill="#ffa412"/>
    <path id="Path_2128" data-name="Path 2128" d="M1949.618,1553.99h-1.068v8.756h1.068Z" transform="translate(-1001.867 -715.792)" fill="#ffa412"/>
    <path id="Path_2129" data-name="Path 2129" d="M2072.8,1553.99h-1.064v8.756h1.064Z" transform="translate(-1070.223 -715.792)" fill="#ffa412"/>
    <path id="Path_2130" data-name="Path 2130" d="M2077.908,1553.99h-1.068v8.756h1.068Z" transform="translate(-1073.053 -715.792)" fill="#ffa412"/>
    <path id="Path_2131" data-name="Path 2131" d="M2082.838,1553.99h-1.068v8.756h1.068Z" transform="translate(-1075.788 -715.792)" fill="#ffa412"/>
    <path id="Path_2132" data-name="Path 2132" d="M2086.538,1554.027v8.7a3.053,3.053,0,0,1-.4.031h-.668V1554h.668A3.025,3.025,0,0,1,2086.538,1554.027Z" transform="translate(-1077.841 -715.798)" fill="#ffa412"/>
    <path id="Path_2133" data-name="Path 2133" d="M2089.864,1554.992v7.073a2.3,2.3,0,0,1-1.064.717v-8.5A2.281,2.281,0,0,1,2089.864,1554.992Z" transform="translate(-1079.689 -715.953)" fill="#ffa412"/>
    <path id="Path_2134" data-name="Path 2134" d="M1946.951,1536.215v4.945a1.689,1.689,0,0,1-.387,1.064,2.592,2.592,0,0,1-.214.227,2.378,2.378,0,0,1-.85.485,2.732,2.732,0,0,1-.418.1,2.93,2.93,0,0,1-.4.031h-93.817a2.2,2.2,0,0,1-2.226-1.625.527.527,0,0,0-.022-.182v-5.141a.539.539,0,0,1,.022-.187,2.2,2.2,0,0,1,2.226-1.625h94.058a.272.272,0,0,1,.084,0h.058a2.7,2.7,0,0,1,.418.1l.227.089.147.071.08.045.075.049a1.742,1.742,0,0,1,.276.2l.08.076a.211.211,0,0,1,.045.044l.022.027a.886.886,0,0,1,.085.1A1.665,1.665,0,0,1,1946.951,1536.215Z" transform="translate(-946.418 -704.868)" fill="#ffb93e"/>
    <path id="Path_2135" data-name="Path 2135" d="M1900.846,1543.08h-50.24a2.008,2.008,0,0,1-1.95-1.416,1.635,1.635,0,0,1-.053-.209.53.53,0,0,0-.022-.182v-5.141a.543.543,0,0,1,.022-.187,1.641,1.641,0,0,1,.053-.209,2.008,2.008,0,0,1,1.95-1.416h44.067a.765.765,0,0,0,.062.218A15.3,15.3,0,0,0,1900.846,1543.08Z" transform="translate(-946.396 -704.878)" fill="#ffa412"/>
    <path id="Path_2136" data-name="Path 2136" d="M2042.554,1534.31h-1.064v8.76h1.064Z" transform="translate(-1053.438 -704.872)" fill="#ffa412"/>
    <path id="Path_2137" data-name="Path 2137" d="M2034.448,1534.31h-1.068v8.76h1.068Z" transform="translate(-1048.938 -704.872)" fill="#ffa412"/>
    <path id="Path_2138" data-name="Path 2138" d="M2024.728,1534.31h-1.068v8.76h1.068Z" transform="translate(-1043.545 -704.872)" fill="#ffa412"/>
    <path id="Path_2139" data-name="Path 2139" d="M2009.824,1534.31h-1.064v8.76h1.064Z" transform="translate(-1035.276 -704.872)" fill="#ffa412"/>
    <path id="Path_2140" data-name="Path 2140" d="M1994.064,1534.31H1993v8.76h1.064Z" transform="translate(-1026.532 -704.872)" fill="#ffa412"/>
    <path id="Path_2141" data-name="Path 2141" d="M1969.9,1534.31h-1.068v8.76h1.068Z" transform="translate(-1013.12 -704.872)" fill="#ffa412"/>
    <path id="Path_2142" data-name="Path 2142" d="M1947.278,1534.31h-1.068v8.76h1.068Z" transform="translate(-1000.569 -704.872)" fill="#ffa412"/>
    <path id="Path_2143" data-name="Path 2143" d="M1927.078,1534.31h-1.069v8.76h1.069Z" transform="translate(-989.36 -704.872)" fill="#ffa412"/>
    <path id="Path_2144" data-name="Path 2144" d="M2050.278,1534.31h-1.069v8.76h1.069Z" transform="translate(-1057.721 -704.872)" fill="#ffa412"/>
    <path id="Path_2145" data-name="Path 2145" d="M2055.378,1534.31h-1.068v8.76h1.068Z" transform="translate(-1060.551 -704.872)" fill="#ffa412"/>
    <path id="Path_2146" data-name="Path 2146" d="M2060.294,1534.31h-1.064v8.76h1.064Z" transform="translate(-1063.281 -704.872)" fill="#ffa412"/>
    <path id="Path_2147" data-name="Path 2147" d="M2064,1534.341v8.7a2.426,2.426,0,0,1-.4.031h-.663v-8.76h.663A3.039,3.039,0,0,1,2064,1534.341Z" transform="translate(-1065.34 -704.872)" fill="#ffa412"/>
    <path id="Path_2148" data-name="Path 2148" d="M2067.334,1535.317v7.073a2.281,2.281,0,0,1-1.064.712v-8.5A2.323,2.323,0,0,1,2067.334,1535.317Z" transform="translate(-1067.188 -705.033)" fill="#ffa412"/>
    <path id="Path_2149" data-name="Path 2149" d="M1957.848,1517.035v4.945a1.685,1.685,0,0,1-.392,1.064,2.213,2.213,0,0,1-1.059.712,2.724,2.724,0,0,1-.418.1,2.911,2.911,0,0,1-.4.031h-93.817a2.64,2.64,0,0,1-1.046-.218,1.945,1.945,0,0,1-.766-.548,1.925,1.925,0,0,1-.427-.837.521.521,0,0,1,0-.12.259.259,0,0,1,0-.085v-5.141a1.257,1.257,0,0,1,0-.187,2.182,2.182,0,0,1,2.226-1.62h93.818a2.977,2.977,0,0,1,.4.027,2.718,2.718,0,0,1,.418.1,2.223,2.223,0,0,1,1.059.717A1.648,1.648,0,0,1,1957.848,1517.035Z" transform="translate(-952.467 -694.23)" fill="#ffb93e"/>
    <path id="Path_2150" data-name="Path 2150" d="M1911.771,1523.885H1861.5a2.12,2.12,0,0,1-.935-.218,1.922,1.922,0,0,1-1.064-1.384v-5.346a1.292,1.292,0,0,1,0-.187,1.6,1.6,0,0,1,.053-.2,2,2,0,0,1,1.949-1.42h44.067a15.352,15.352,0,0,0,5.867,8.537C1911.562,1523.743,1911.665,1523.814,1911.771,1523.885Z" transform="translate(-952.456 -694.229)" fill="#ffa412"/>
    <path id="Path_2151" data-name="Path 2151" d="M2053.448,1515.13h-1.069v8.755h1.069Z" transform="translate(-1059.481 -694.23)" fill="#ffa412"/>
    <path id="Path_2152" data-name="Path 2152" d="M2045.339,1515.13h-1.069v8.755h1.069Z" transform="translate(-1054.98 -694.23)" fill="#ffa412"/>
    <path id="Path_2153" data-name="Path 2153" d="M2035.618,1515.13h-1.068v8.755h1.068Z" transform="translate(-1049.587 -694.23)" fill="#ffa412"/>
    <path id="Path_2154" data-name="Path 2154" d="M2020.718,1515.13h-1.068v8.755h1.068Z" transform="translate(-1041.319 -694.23)" fill="#ffa412"/>
    <path id="Path_2155" data-name="Path 2155" d="M2004.958,1515.13h-1.068v8.755h1.068Z" transform="translate(-1032.575 -694.23)" fill="#ffa412"/>
    <path id="Path_2156" data-name="Path 2156" d="M1980.784,1515.13h-1.064v8.755h1.064Z" transform="translate(-1019.163 -694.23)" fill="#ffa412"/>
    <path id="Path_2157" data-name="Path 2157" d="M1958.164,1515.13H1957.1v8.755h1.064Z" transform="translate(-1006.612 -694.23)" fill="#ffa412"/>
    <path id="Path_2158" data-name="Path 2158" d="M1937.964,1515.13H1936.9v8.755h1.064Z" transform="translate(-995.403 -694.23)" fill="#ffa412"/>
    <path id="Path_2159" data-name="Path 2159" d="M2061.164,1515.13H2060.1v8.755h1.064Z" transform="translate(-1063.764 -694.23)" fill="#ffa412"/>
    <path id="Path_2160" data-name="Path 2160" d="M2066.264,1515.13H2065.2v8.755h1.064Z" transform="translate(-1066.594 -694.23)" fill="#ffa412"/>
    <path id="Path_2161" data-name="Path 2161" d="M2071.188,1515.13h-1.068v8.755h1.068Z" transform="translate(-1069.324 -694.23)" fill="#ffa412"/>
    <path id="Path_2162" data-name="Path 2162" d="M2074.894,1515.151v8.7a2.411,2.411,0,0,1-.4.031h-.663v-8.76h.663A3.036,3.036,0,0,1,2074.894,1515.151Z" transform="translate(-1071.383 -694.224)" fill="#ffa412"/>
    <path id="Path_2163" data-name="Path 2163" d="M2078.224,1516.107v7.073a2.282,2.282,0,0,1-1.064.712v-8.5A2.325,2.325,0,0,1,2078.224,1516.107Z" transform="translate(-1073.231 -694.374)" fill="#ffa412"/>
    <path id="Path_2164" data-name="Path 2164" d="M1962.914,1497.373v4.945a1.664,1.664,0,0,1-.387,1.064l-.107.116a2.176,2.176,0,0,1-.646.472,2.715,2.715,0,0,1-.312.129,2.281,2.281,0,0,1-.418.094l-.2.027h-94.018a2.23,2.23,0,0,1-2.225-1.625,1.289,1.289,0,0,1,0-.187v-5.141a2.093,2.093,0,0,1,2-1.78,2.632,2.632,0,0,1,.267,0h94.018a1.416,1.416,0,0,1,.2,0,2.732,2.732,0,0,1,.418.1,2.206,2.206,0,0,1,1.064.712A1.678,1.678,0,0,1,1962.914,1497.373Z" transform="translate(-955.286 -683.328)" fill="#ffb93e"/>
    <path id="Path_2165" data-name="Path 2165" d="M1916.83,1504.239h-50.267a2.008,2.008,0,0,1-1.95-1.416,1.113,1.113,0,0,1-.058-.209,1.326,1.326,0,0,1,0-.187v-5.141a1.954,1.954,0,0,1,1.78-1.781,2.193,2.193,0,0,1,.24,0h44.067A15.353,15.353,0,0,0,1916.83,1504.239Z" transform="translate(-955.259 -683.339)" fill="#ffa412"/>
    <path id="Path_2166" data-name="Path 2166" d="M2058.494,1495.45h-1.064v8.76h1.064Z" transform="translate(-1062.283 -683.309)" fill="#ffa412"/>
    <path id="Path_2167" data-name="Path 2167" d="M2050.389,1495.45h-1.069v8.76h1.069Z" transform="translate(-1057.782 -683.309)" fill="#ffa412"/>
    <path id="Path_2168" data-name="Path 2168" d="M2040.668,1495.45H2039.6v8.76h1.068Z" transform="translate(-1052.389 -683.309)" fill="#ffa412"/>
    <path id="Path_2169" data-name="Path 2169" d="M2025.758,1495.45h-1.068v8.76h1.068Z" transform="translate(-1044.116 -683.309)" fill="#ffa412"/>
    <path id="Path_2170" data-name="Path 2170" d="M2009.994,1495.45h-1.064v8.76h1.064Z" transform="translate(-1035.371 -683.309)" fill="#ffa412"/>
    <path id="Path_2171" data-name="Path 2171" d="M1985.838,1495.45h-1.068v8.76h1.068Z" transform="translate(-1021.965 -683.309)" fill="#ffa412"/>
    <path id="Path_2172" data-name="Path 2172" d="M1963.214,1495.45h-1.064v8.76h1.064Z" transform="translate(-1009.414 -683.309)" fill="#ffa412"/>
    <path id="Path_2173" data-name="Path 2173" d="M1943.018,1495.45h-1.068v8.76h1.068Z" transform="translate(-998.205 -683.309)" fill="#ffa412"/>
    <path id="Path_2174" data-name="Path 2174" d="M2066.218,1495.45h-1.068v8.76h1.068Z" transform="translate(-1066.567 -683.309)" fill="#ffa412"/>
    <path id="Path_2175" data-name="Path 2175" d="M2071.318,1495.45h-1.068v8.76h1.068Z" transform="translate(-1069.396 -683.309)" fill="#ffa412"/>
    <path id="Path_2176" data-name="Path 2176" d="M2076.234,1495.45h-1.064v8.76h1.064Z" transform="translate(-1072.126 -683.309)" fill="#ffa412"/>
    <path id="Path_2177" data-name="Path 2177" d="M2079.944,1495.481v8.693a2.421,2.421,0,0,1-.4.031h-.664v-8.756h.664A2.421,2.421,0,0,1,2079.944,1495.481Z" transform="translate(-1074.185 -683.309)" fill="#ffa412"/>
    <path id="Path_2178" data-name="Path 2178" d="M2083.268,1496.452v7.073a2.24,2.24,0,0,1-1.068.712v-8.5A2.243,2.243,0,0,1,2083.268,1496.452Z" transform="translate(-1076.027 -683.47)" fill="#ffa412"/>
    <path id="Path_2179" data-name="Path 2179" d="M1947.382,1477.687v4.941a1.663,1.663,0,0,1-.387,1.064,2.215,2.215,0,0,1-1.064.717,2.557,2.557,0,0,1-.414.1H1851.29a2.134,2.134,0,0,1-2.27-1.807v-5.221a2.071,2.071,0,0,1,.583-1.1,2.038,2.038,0,0,1,1.117-.565h.067a2.65,2.65,0,0,1,.494-.049h94.2a2.564,2.564,0,0,1,.414.1,2.213,2.213,0,0,1,1.064.717A1.656,1.656,0,0,1,1947.382,1477.687Z" transform="translate(-946.64 -672.384)" fill="#ffb93e"/>
    <path id="Path_2180" data-name="Path 2180" d="M1901.3,1484.582h-50.258a1.983,1.983,0,0,1-2.025-1.807v-5.221a1.959,1.959,0,0,1,.512-1.095,1.983,1.983,0,0,1,1.059-.588h.085a2.461,2.461,0,0,1,.361-.031H1895.1v.067a15.36,15.36,0,0,0,6.134,8.68Z" transform="translate(-946.64 -672.428)" fill="#ffa412"/>
    <path id="Path_2181" data-name="Path 2181" d="M2043,1475.8h-1.068v8.76H2043Z" transform="translate(-1053.682 -672.406)" fill="#ffa412"/>
    <path id="Path_2182" data-name="Path 2182" d="M2034.9,1475.8h-1.068v8.76h1.068Z" transform="translate(-1049.188 -672.406)" fill="#ffa412"/>
    <path id="Path_2183" data-name="Path 2183" d="M2025.164,1475.8H2024.1v8.76h1.064Z" transform="translate(-1043.789 -672.406)" fill="#ffa412"/>
    <path id="Path_2184" data-name="Path 2184" d="M2010.264,1475.8H2009.2v8.76h1.064Z" transform="translate(-1035.521 -672.406)" fill="#ffa412"/>
    <path id="Path_2185" data-name="Path 2185" d="M1994.5,1475.8h-1.064v8.76h1.064Z" transform="translate(-1026.776 -672.406)" fill="#ffa412"/>
    <path id="Path_2186" data-name="Path 2186" d="M1970.344,1475.8h-1.064v8.76h1.064Z" transform="translate(-1013.37 -672.406)" fill="#ffa412"/>
    <path id="Path_2187" data-name="Path 2187" d="M1947.729,1475.8h-1.068v8.76h1.068Z" transform="translate(-1000.819 -672.406)" fill="#ffa412"/>
    <path id="Path_2188" data-name="Path 2188" d="M1927.524,1475.8h-1.064v8.76h1.064Z" transform="translate(-989.61 -672.406)" fill="#ffa412"/>
    <path id="Path_2189" data-name="Path 2189" d="M2050.718,1475.8h-1.068v8.76h1.068Z" transform="translate(-1057.966 -672.406)" fill="#ffa412"/>
    <path id="Path_2190" data-name="Path 2190" d="M2055.814,1475.8h-1.064v8.76h1.064Z" transform="translate(-1060.796 -672.406)" fill="#ffa412"/>
    <path id="Path_2191" data-name="Path 2191" d="M2060.744,1475.8h-1.064v8.76h1.064Z" transform="translate(-1063.531 -672.406)" fill="#ffa412"/>
    <path id="Path_2192" data-name="Path 2192" d="M2064.448,1475.831v8.7a2.437,2.437,0,0,1-.4.031h-.668v-8.76h.668A3.016,3.016,0,0,1,2064.448,1475.831Z" transform="translate(-1065.584 -672.406)" fill="#ffa412"/>
    <path id="Path_2193" data-name="Path 2193" d="M2067.774,1476.8v7.077a2.28,2.28,0,0,1-1.064.712v-8.5A2.284,2.284,0,0,1,2067.774,1476.8Z" transform="translate(-1067.432 -672.567)" fill="#ffa412"/>
    <path id="Path_2194" data-name="Path 2194" d="M1946.951,1458.2v4.945a1.664,1.664,0,0,1-.387,1.064,2.555,2.555,0,0,1-.214.227,2.324,2.324,0,0,1-.85.49,2.03,2.03,0,0,1-.325.08.26.26,0,0,1-.085,0,2.317,2.317,0,0,1-.4.036h-94.232a2.111,2.111,0,0,1-1.843-1.611v-5.306a.5.5,0,0,1,.022-.182,2.2,2.2,0,0,1,2.226-1.625h94.209a2.722,2.722,0,0,1,.418.1c.076.027.156.053.227.084a2.27,2.27,0,0,1,.748.53.864.864,0,0,1,.084.1A1.686,1.686,0,0,1,1946.951,1458.2Z" transform="translate(-946.418 -661.594)" fill="#ffb93e"/>
    <path id="Path_2195" data-name="Path 2195" d="M1900.84,1465.1h-50.49a1.982,1.982,0,0,1-1.781-1.629v-5.306a.5.5,0,0,1,.022-.182,1.6,1.6,0,0,1,.053-.209,2.007,2.007,0,0,1,1.95-1.416h44.066a.776.776,0,0,0,.063.214,15.332,15.332,0,0,0,6.018,8.457Z" transform="translate(-946.39 -661.619)" fill="#ffa412"/>
    <path id="Path_2196" data-name="Path 2196" d="M2042.554,1456.27h-1.064v8.756h1.064Z" transform="translate(-1053.438 -661.569)" fill="#ffa412"/>
    <path id="Path_2197" data-name="Path 2197" d="M2034.448,1456.27h-1.068v8.756h1.068Z" transform="translate(-1048.938 -661.569)" fill="#ffa412"/>
    <path id="Path_2198" data-name="Path 2198" d="M2024.728,1456.27h-1.068v8.756h1.068Z" transform="translate(-1043.545 -661.569)" fill="#ffa412"/>
    <path id="Path_2199" data-name="Path 2199" d="M2009.824,1456.27h-1.064v8.756h1.064Z" transform="translate(-1035.276 -661.569)" fill="#ffa412"/>
    <path id="Path_2200" data-name="Path 2200" d="M1994.064,1456.27H1993v8.756h1.064Z" transform="translate(-1026.532 -661.569)" fill="#ffa412"/>
    <path id="Path_2201" data-name="Path 2201" d="M1969.9,1456.27h-1.068v8.756h1.068Z" transform="translate(-1013.12 -661.569)" fill="#ffa412"/>
    <path id="Path_2202" data-name="Path 2202" d="M1947.278,1456.27h-1.068v8.756h1.068Z" transform="translate(-1000.569 -661.569)" fill="#ffa412"/>
    <path id="Path_2203" data-name="Path 2203" d="M1927.078,1456.27h-1.069v8.756h1.069Z" transform="translate(-989.36 -661.569)" fill="#ffa412"/>
    <path id="Path_2204" data-name="Path 2204" d="M2050.278,1456.27h-1.069v8.756h1.069Z" transform="translate(-1057.721 -661.569)" fill="#ffa412"/>
    <path id="Path_2205" data-name="Path 2205" d="M2055.378,1456.27h-1.068v8.756h1.068Z" transform="translate(-1060.551 -661.569)" fill="#ffa412"/>
    <path id="Path_2206" data-name="Path 2206" d="M2060.294,1456.27h-1.064v8.756h1.064Z" transform="translate(-1063.281 -661.569)" fill="#ffa412"/>
    <path id="Path_2207" data-name="Path 2207" d="M2064,1456.3v8.7a3.032,3.032,0,0,1-.4.027h-.663v-8.756h.663A2.426,2.426,0,0,1,2064,1456.3Z" transform="translate(-1065.34 -661.569)" fill="#ffa412"/>
    <path id="Path_2208" data-name="Path 2208" d="M2067.334,1457.272v7.073a2.323,2.323,0,0,1-1.064.717v-8.5A2.2,2.2,0,0,1,2067.334,1457.272Z" transform="translate(-1067.188 -661.73)" fill="#ffa412"/>
    <path id="Path_2209" data-name="Path 2209" d="M1957.848,1438.985v4.945a1.7,1.7,0,0,1-.392,1.068,2.379,2.379,0,0,1-1.478.806,2.345,2.345,0,0,1-.4.031h-93.817a2.634,2.634,0,0,1-1.046-.214,2.039,2.039,0,0,1-.766-.547,1.925,1.925,0,0,1-.427-.837.56.56,0,0,1,0-.125.259.259,0,0,1,0-.085v-5.141a1.258,1.258,0,0,1,0-.187,2.21,2.21,0,0,1,2.226-1.62h93.818a2.355,2.355,0,0,1,.4.031,2.384,2.384,0,0,1,1.478.81A1.673,1.673,0,0,1,1957.848,1438.985Z" transform="translate(-952.467 -650.921)" fill="#ffb93e"/>
    <path id="Path_2210" data-name="Path 2210" d="M1911.771,1445.835H1861.5a2.116,2.116,0,0,1-.935-.214,1.954,1.954,0,0,1-.7-.565,1.976,1.976,0,0,1-.365-.819.575.575,0,0,1,0-.125.266.266,0,0,1,0-.085v-5.141a1.291,1.291,0,0,1,0-.187,1.608,1.608,0,0,1,.053-.2,2,2,0,0,1,1.949-1.42h44.067a15.376,15.376,0,0,0,5.867,8.542Z" transform="translate(-952.456 -650.921)" fill="#ffa412"/>
    <path id="Path_2211" data-name="Path 2211" d="M2053.448,1437.08h-1.069v8.76h1.069Z" transform="translate(-1059.481 -650.921)" fill="#ffa412"/>
    <path id="Path_2212" data-name="Path 2212" d="M2045.339,1437.08h-1.069v8.76h1.069Z" transform="translate(-1054.98 -650.921)" fill="#ffa412"/>
    <path id="Path_2213" data-name="Path 2213" d="M2035.618,1437.08h-1.068v8.76h1.068Z" transform="translate(-1049.587 -650.921)" fill="#ffa412"/>
    <path id="Path_2214" data-name="Path 2214" d="M2020.718,1437.08h-1.068v8.76h1.068Z" transform="translate(-1041.319 -650.921)" fill="#ffa412"/>
    <path id="Path_2215" data-name="Path 2215" d="M2004.958,1437.08h-1.068v8.76h1.068Z" transform="translate(-1032.575 -650.921)" fill="#ffa412"/>
    <path id="Path_2216" data-name="Path 2216" d="M1980.784,1437.08h-1.064v8.76h1.064Z" transform="translate(-1019.163 -650.921)" fill="#ffa412"/>
    <path id="Path_2217" data-name="Path 2217" d="M1958.164,1437.08H1957.1v8.76h1.064Z" transform="translate(-1006.612 -650.921)" fill="#ffa412"/>
    <path id="Path_2218" data-name="Path 2218" d="M1937.964,1437.08H1936.9v8.76h1.064Z" transform="translate(-995.403 -650.921)" fill="#ffa412"/>
    <path id="Path_2219" data-name="Path 2219" d="M2061.164,1437.08H2060.1v8.76h1.064Z" transform="translate(-1063.764 -650.921)" fill="#ffa412"/>
    <path id="Path_2220" data-name="Path 2220" d="M2066.264,1437.08H2065.2v8.76h1.064Z" transform="translate(-1066.594 -650.921)" fill="#ffa412"/>
    <path id="Path_2221" data-name="Path 2221" d="M2071.188,1437.08h-1.068v8.76h1.068Z" transform="translate(-1069.324 -650.921)" fill="#ffa412"/>
    <path id="Path_2222" data-name="Path 2222" d="M2074.894,1437.111v8.7a3.009,3.009,0,0,1-.4.027h-.663v-8.755h.663A2.45,2.45,0,0,1,2074.894,1437.111Z" transform="translate(-1071.383 -650.921)" fill="#ffa412"/>
    <path id="Path_2223" data-name="Path 2223" d="M2078.224,1438.112v7.073a2.208,2.208,0,0,1-1.064.712v-8.5A2.208,2.208,0,0,1,2078.224,1438.112Z" transform="translate(-1073.231 -651.099)" fill="#ffa412"/>
    <path id="Path_2224" data-name="Path 2224" d="M1975.09,1419.319v4.95a1.7,1.7,0,0,1-.383,1.059c-.031.04-.067.075-.1.115a2.032,2.032,0,0,1-.5.392,2.277,2.277,0,0,1-.3.143l-.156.058a2.72,2.72,0,0,1-.419.1,2.329,2.329,0,0,1-.4.031h-93.822a2.209,2.209,0,0,1-2.226-1.625,1.332,1.332,0,0,1,0-.187.332.332,0,0,1,0-.093v-5.048a2.051,2.051,0,0,1,2-1.781,1.4,1.4,0,0,1,.267,0h93.813a2.911,2.911,0,0,1,.4.031,2.666,2.666,0,0,1,.418.1,2.3,2.3,0,0,1,.961.6,1.277,1.277,0,0,1,.1.116A1.7,1.7,0,0,1,1975.09,1419.319Z" transform="translate(-962.045 -640.015)" fill="#ffb93e"/>
    <path id="Path_2225" data-name="Path 2225" d="M1929,1426.189h-50.258a2,2,0,0,1-1.211-.383,2.023,2.023,0,0,1-.739-1.037,1.532,1.532,0,0,1-.054-.2,1.326,1.326,0,0,1,0-.187v-5.141a1.955,1.955,0,0,1,1.781-1.781,2.19,2.19,0,0,1,.24,0h44.067A15.386,15.386,0,0,0,1929,1426.189Z" transform="translate(-962.017 -640.03)" fill="#ffa412"/>
    <path id="Path_2226" data-name="Path 2226" d="M2070.668,1417.4H2069.6v8.76h1.068Z" transform="translate(-1069.036 -640.001)" fill="#ffa412"/>
    <path id="Path_2227" data-name="Path 2227" d="M2062.568,1417.4H2061.5v8.76h1.068Z" transform="translate(-1064.541 -640.001)" fill="#ffa412"/>
    <path id="Path_2228" data-name="Path 2228" d="M2052.838,1417.4h-1.068v8.76h1.068Z" transform="translate(-1059.142 -640.001)" fill="#ffa412"/>
    <path id="Path_2229" data-name="Path 2229" d="M2037.938,1417.4h-1.068v8.76h1.068Z" transform="translate(-1050.874 -640.001)" fill="#ffa412"/>
    <path id="Path_2230" data-name="Path 2230" d="M2022.174,1417.4h-1.064v8.76h1.064Z" transform="translate(-1042.129 -640.001)" fill="#ffa412"/>
    <path id="Path_2231" data-name="Path 2231" d="M1998.018,1417.4h-1.068v8.76h1.068Z" transform="translate(-1028.723 -640.001)" fill="#ffa412"/>
    <path id="Path_2232" data-name="Path 2232" d="M1975.4,1417.4h-1.068v8.76h1.068Z" transform="translate(-1016.172 -640.001)" fill="#ffa412"/>
    <path id="Path_2233" data-name="Path 2233" d="M1955.194,1417.4h-1.064v8.76h1.064Z" transform="translate(-1004.963 -640.001)" fill="#ffa412"/>
    <path id="Path_2234" data-name="Path 2234" d="M2078.388,1417.4h-1.068v8.76h1.068Z" transform="translate(-1073.319 -640.001)" fill="#ffa412"/>
    <path id="Path_2235" data-name="Path 2235" d="M2083.488,1417.4h-1.068v8.76h1.068Z" transform="translate(-1076.149 -640.001)" fill="#ffa412"/>
    <path id="Path_2236" data-name="Path 2236" d="M2088.418,1417.4h-1.068v8.76h1.068Z" transform="translate(-1078.885 -640.001)" fill="#ffa412"/>
    <path id="Path_2237" data-name="Path 2237" d="M2092.119,1417.431v8.693a3.036,3.036,0,0,1-.4.031h-.667V1417.4h.667A3.036,3.036,0,0,1,2092.119,1417.431Z" transform="translate(-1080.938 -640.001)" fill="#ffa412"/>
    <path id="Path_2238" data-name="Path 2238" d="M2095.444,1418.4v7.077a2.28,2.28,0,0,1-1.064.712v-8.5A2.283,2.283,0,0,1,2095.444,1418.4Z" transform="translate(-1082.786 -640.162)" fill="#ffa412"/>
    <path id="Path_2239" data-name="Path 2239" d="M1947.382,1399.615v4.945a1.664,1.664,0,0,1-.387,1.064,2.236,2.236,0,0,1-1.064.717,2.149,2.149,0,0,1-.414.094h-.134a.267.267,0,0,1-.085,0H1851.29a2.353,2.353,0,0,1-1.073-.218,2.387,2.387,0,0,1-.859-.672,1.7,1.7,0,0,1-.339-.89v-5.141a2.03,2.03,0,0,1,.53-1.122,2,2,0,0,1,1.082-.6,2.517,2.517,0,0,1,.659-.085h93.978a1.827,1.827,0,0,1,.222,0,2.526,2.526,0,0,1,.414.1.989.989,0,0,1,.191.071,2.24,2.24,0,0,1,.655.414h.026a1.2,1.2,0,0,1,.178.191A1.669,1.669,0,0,1,1947.382,1399.615Z" transform="translate(-946.64 -629.071)" fill="#ffb93e"/>
    <path id="Path_2240" data-name="Path 2240" d="M1901.3,1406.475h-50.258a2.046,2.046,0,0,1-1.692-.89,1.768,1.768,0,0,1-.334-.944V1399.5a1.962,1.962,0,0,1,1.616-1.781,2.09,2.09,0,0,1,.409-.04h44.067a1.679,1.679,0,0,0,.058.2,15.311,15.311,0,0,0,6.089,8.542c.009,0,.013,0,.018,0s.013,0,.018.013a.024.024,0,0,1,.009.018Z" transform="translate(-946.64 -629.059)" fill="#ffa412"/>
    <path id="Path_2241" data-name="Path 2241" d="M2043,1397.76h-1.068v8.755H2043Z" transform="translate(-1053.682 -629.103)" fill="#ffa412"/>
    <path id="Path_2242" data-name="Path 2242" d="M2034.9,1397.76h-1.068v8.755h1.068Z" transform="translate(-1049.188 -629.103)" fill="#ffa412"/>
    <path id="Path_2243" data-name="Path 2243" d="M2025.164,1397.76H2024.1v8.755h1.064Z" transform="translate(-1043.789 -629.103)" fill="#ffa412"/>
    <path id="Path_2244" data-name="Path 2244" d="M2010.264,1397.76H2009.2v8.755h1.064Z" transform="translate(-1035.521 -629.103)" fill="#ffa412"/>
    <path id="Path_2245" data-name="Path 2245" d="M1994.5,1397.76h-1.064v8.755h1.064Z" transform="translate(-1026.776 -629.103)" fill="#ffa412"/>
    <path id="Path_2246" data-name="Path 2246" d="M1970.344,1397.76h-1.064v8.755h1.064Z" transform="translate(-1013.37 -629.103)" fill="#ffa412"/>
    <path id="Path_2247" data-name="Path 2247" d="M1947.729,1397.76h-1.068v8.755h1.068Z" transform="translate(-1000.819 -629.103)" fill="#ffa412"/>
    <path id="Path_2248" data-name="Path 2248" d="M1927.524,1397.76h-1.064v8.755h1.064Z" transform="translate(-989.61 -629.103)" fill="#ffa412"/>
    <path id="Path_2249" data-name="Path 2249" d="M2050.718,1397.76h-1.068v8.755h1.068Z" transform="translate(-1057.966 -629.103)" fill="#ffa412"/>
    <path id="Path_2250" data-name="Path 2250" d="M2055.814,1397.76h-1.064v8.755h1.064Z" transform="translate(-1060.796 -629.103)" fill="#ffa412"/>
    <path id="Path_2251" data-name="Path 2251" d="M2060.744,1397.76h-1.064v8.755h1.064Z" transform="translate(-1063.531 -629.103)" fill="#ffa412"/>
    <path id="Path_2252" data-name="Path 2252" d="M2064.448,1397.791v8.693a2.424,2.424,0,0,1-.4.031h-.668v-8.755h.668A2.437,2.437,0,0,1,2064.448,1397.791Z" transform="translate(-1065.584 -629.103)" fill="#ffa412"/>
    <path id="Path_2253" data-name="Path 2253" d="M2067.774,1398.762v7.073a2.209,2.209,0,0,1-1.064.712v-8.5A2.209,2.209,0,0,1,2067.774,1398.762Z" transform="translate(-1067.432 -629.264)" fill="#ffa412"/>
    <path id="Path_2254" data-name="Path 2254" d="M1962.874,1380.478v4.946a1.663,1.663,0,0,1-.387,1.064,2.24,2.24,0,0,1-1.068.712,2.16,2.16,0,0,1-.414.1,2.434,2.434,0,0,1-.4.031h-93.813a2.647,2.647,0,0,1-1.015-.2,1.908,1.908,0,0,1-.828-.6,1.945,1.945,0,0,1-.418-.93v-5.221a2.078,2.078,0,0,1,.677-1.251,2.055,2.055,0,0,1,1.322-.53h94.08a3.026,3.026,0,0,1,.4.027,2.532,2.532,0,0,1,.414.1,2.238,2.238,0,0,1,1.068.712A1.7,1.7,0,0,1,1962.874,1380.478Z" transform="translate(-955.246 -618.471)" fill="#ffb93e"/>
    <path id="Path_2255" data-name="Path 2255" d="M1916.84,1387.325h-50.267a2.129,2.129,0,0,1-.89-.2,1.93,1.93,0,0,1-1.113-1.527v-5.221a1.955,1.955,0,0,1,1.781-1.781,2.193,2.193,0,0,1,.24,0h44.067a15.385,15.385,0,0,0,5.88,8.542Z" transform="translate(-955.268 -618.468)" fill="#ffa412"/>
    <path id="Path_2256" data-name="Path 2256" d="M2058.494,1378.54h-1.064v8.76h1.064Z" transform="translate(-1062.283 -618.438)" fill="#ffa412"/>
    <path id="Path_2257" data-name="Path 2257" d="M2050.389,1378.54h-1.069v8.76h1.069Z" transform="translate(-1057.782 -618.438)" fill="#ffa412"/>
    <path id="Path_2258" data-name="Path 2258" d="M2040.668,1378.54H2039.6v8.76h1.068Z" transform="translate(-1052.389 -618.438)" fill="#ffa412"/>
    <path id="Path_2259" data-name="Path 2259" d="M2025.758,1378.54h-1.068v8.76h1.068Z" transform="translate(-1044.116 -618.438)" fill="#ffa412"/>
    <path id="Path_2260" data-name="Path 2260" d="M2009.994,1378.54h-1.064v8.76h1.064Z" transform="translate(-1035.371 -618.438)" fill="#ffa412"/>
    <path id="Path_2261" data-name="Path 2261" d="M1985.838,1378.54h-1.068v8.76h1.068Z" transform="translate(-1021.965 -618.438)" fill="#ffa412"/>
    <path id="Path_2262" data-name="Path 2262" d="M1963.214,1378.54h-1.064v8.76h1.064Z" transform="translate(-1009.414 -618.438)" fill="#ffa412"/>
    <path id="Path_2263" data-name="Path 2263" d="M1943.018,1378.54h-1.068v8.76h1.068Z" transform="translate(-998.205 -618.438)" fill="#ffa412"/>
    <path id="Path_2264" data-name="Path 2264" d="M2066.218,1378.54h-1.068v8.76h1.068Z" transform="translate(-1066.567 -618.438)" fill="#ffa412"/>
    <path id="Path_2265" data-name="Path 2265" d="M2071.318,1378.54h-1.068v8.76h1.068Z" transform="translate(-1069.396 -618.438)" fill="#ffa412"/>
    <path id="Path_2266" data-name="Path 2266" d="M2076.234,1378.54h-1.064v8.76h1.064Z" transform="translate(-1072.126 -618.438)" fill="#ffa412"/>
    <path id="Path_2267" data-name="Path 2267" d="M2079.944,1378.567v8.7a2.434,2.434,0,0,1-.4.031h-.664v-8.756h.664A3.025,3.025,0,0,1,2079.944,1378.567Z" transform="translate(-1074.185 -618.438)" fill="#ffa412"/>
    <path id="Path_2268" data-name="Path 2268" d="M2083.268,1379.542v7.073a2.241,2.241,0,0,1-1.068.712v-8.5A2.241,2.241,0,0,1,2083.268,1379.542Z" transform="translate(-1076.027 -618.599)" fill="#ffa412"/>
    <path id="Path_2269" data-name="Path 2269" d="M1969.465,1360.756v4.95a1.683,1.683,0,0,1-.392,1.064,2.282,2.282,0,0,1-1.064.712,2.58,2.58,0,0,1-.414.1h-94.214a2.126,2.126,0,0,1-2.266-1.812.333.333,0,0,1,0-.094v-5.048a2.139,2.139,0,0,1,2.266-1.807h93.826a3.029,3.029,0,0,1,.4.031,2.551,2.551,0,0,1,.414.1,2.282,2.282,0,0,1,1.064.712A1.664,1.664,0,0,1,1969.465,1360.756Z" transform="translate(-958.899 -607.496)" fill="#ffb93e"/>
    <path id="Path_2270" data-name="Path 2270" d="M1923.4,1367.649h-50.258a1.982,1.982,0,0,1-2.021-1.812.332.332,0,0,1,0-.093V1360.7a1.982,1.982,0,0,1,2.021-1.807H1917.2a15.355,15.355,0,0,0,6.152,8.747Z" transform="translate(-958.899 -607.534)" fill="#ffa412"/>
    <path id="Path_2271" data-name="Path 2271" d="M2065.1,1358.89h-1.068v8.755h1.068Z" transform="translate(-1065.945 -607.535)" fill="#ffa412"/>
    <path id="Path_2272" data-name="Path 2272" d="M2056.988,1358.89h-1.068v8.755h1.068Z" transform="translate(-1061.445 -607.535)" fill="#ffa412"/>
    <path id="Path_2273" data-name="Path 2273" d="M2047.258,1358.89h-1.068v8.755h1.068Z" transform="translate(-1056.046 -607.535)" fill="#ffa412"/>
    <path id="Path_2274" data-name="Path 2274" d="M2032.358,1358.89h-1.068v8.755h1.068Z" transform="translate(-1047.778 -607.535)" fill="#ffa412"/>
    <path id="Path_2275" data-name="Path 2275" d="M2016.6,1358.89h-1.068v8.755h1.068Z" transform="translate(-1039.033 -607.535)" fill="#ffa412"/>
    <path id="Path_2276" data-name="Path 2276" d="M1992.434,1358.89h-1.064v8.755h1.064Z" transform="translate(-1025.627 -607.535)" fill="#ffa412"/>
    <path id="Path_2277" data-name="Path 2277" d="M1969.818,1358.89h-1.068v8.755h1.068Z" transform="translate(-1013.076 -607.535)" fill="#ffa412"/>
    <path id="Path_2278" data-name="Path 2278" d="M1949.618,1358.89h-1.068v8.755h1.068Z" transform="translate(-1001.867 -607.535)" fill="#ffa412"/>
    <path id="Path_2279" data-name="Path 2279" d="M2072.8,1358.89h-1.064v8.755h1.064Z" transform="translate(-1070.223 -607.535)" fill="#ffa412"/>
    <path id="Path_2280" data-name="Path 2280" d="M2077.908,1358.89h-1.068v8.755h1.068Z" transform="translate(-1073.053 -607.535)" fill="#ffa412"/>
    <path id="Path_2281" data-name="Path 2281" d="M2082.838,1358.89h-1.068v8.755h1.068Z" transform="translate(-1075.788 -607.535)" fill="#ffa412"/>
    <path id="Path_2282" data-name="Path 2282" d="M2086.538,1358.961v8.7a3.033,3.033,0,0,1-.4.031h-.668v-8.76h.668A3.053,3.053,0,0,1,2086.538,1358.961Z" transform="translate(-1077.841 -607.557)" fill="#ffa412"/>
    <path id="Path_2283" data-name="Path 2283" d="M2089.864,1359.892v7.077a2.282,2.282,0,0,1-1.064.712v-8.5A2.281,2.281,0,0,1,2089.864,1359.892Z" transform="translate(-1079.689 -607.696)" fill="#ffa412"/>
    <path id="Path_2284" data-name="Path 2284" d="M1996.4,1235.052s-4.927,6.935-9.445,7.033-11.391-3.218-11.391-3.218-4.148-9.241-1.335-12.859a6.033,6.033,0,0,1,5.786.948,8.978,8.978,0,0,1,1.527,1.464,4.873,4.873,0,0,0,2.372,1.607c3.223.979,7.051-1.335,8.457.89a15.21,15.21,0,0,0,2.492,2.951A11.669,11.669,0,0,0,1996.4,1235.052Z" transform="translate(-1015.574 -533.604)" fill="#aec3ff"/>
    <path id="Path_2285" data-name="Path 2285" d="M1880.94,1305.573s17.417-42.2,48.767-43c0,0,28.933,3.214,30.544,43Z" transform="translate(-964.352 -554.089)" fill="#aec3ff"/>
    <path id="Path_2286" data-name="Path 2286" d="M1971.12,1258.653s12.566,2.8,16.443,1.153c0,0,.588-5.252-4.705-4.518-3.623.507-5.982-1.237-7.366-1.941C1973.529,1252.346,1970.587,1256.459,1971.12,1258.653Z" transform="translate(-1014.356 -548.886)" fill="#db6a1d"/>
    <path id="Path_2287" data-name="Path 2287" d="M1991.691,1237.077c-.806.6-3.271-8.5-3.271-8.5a8.966,8.966,0,0,1,1.527,1.464,4.876,4.876,0,0,0,2.373,1.607C1992.328,1231.918,1992.471,1236.49,1991.691,1237.077Z" transform="translate(-1023.99 -535.228)" fill="#91b0f2"/>
    <path id="Path_2288" data-name="Path 2288" d="M2013.281,1240.423c-.178.107-5.987,3.561-6.775,3.561s4.282-6.534,4.282-6.534A15.189,15.189,0,0,0,2013.281,1240.423Z" transform="translate(-1033.98 -540.15)" fill="#91b0f2"/>
    <path id="Path_2289" data-name="Path 2289" d="M1919.162,1309.309c-.325-.272,12.325-18.619,15.806-18.753s11.31,4.006,16.977,4.553,11.159-1.073,12.227,2.279,4.006,15.223,2.226,17.124S1926.115,1315.233,1919.162,1309.309Z" transform="translate(-985.557 -569.616)" fill="#91b0f2"/>
    <path id="Path_2290" data-name="Path 2290" d="M1891.912,1418.719v.067a42.151,42.151,0,0,1-1.406,8.68c-.111.41-.232.819-.356,1.229a43.361,43.361,0,0,1-8.987,16.055c-.062.076-.125.147-.192.218a45.212,45.212,0,0,1-10.3,8.542q-1.248.761-2.559,1.451c-.6.312-1.188.605-1.781.89s-1.175.614-1.745.962a24.281,24.281,0,0,1-5.96,2.453v-3.948a.539.539,0,0,1,.022-.187,1.579,1.579,0,0,1,.054-.209,2,2,0,0,1,.739-1.028,2.04,2.04,0,0,1,1.211-.383h-10.029a2.007,2.007,0,0,1-1.949-1.416,1.551,1.551,0,0,1-.053-.209.522.522,0,0,0-.022-.182v-5.141a.533.533,0,0,1,.022-.187,1.56,1.56,0,0,1,.053-.209,2.008,2.008,0,0,1,1.949-1.415h3.913a1.921,1.921,0,0,1-1.064-1.384v-5.346a1.258,1.258,0,0,1,0-.187,1.637,1.637,0,0,1,.053-.2,2,2,0,0,1,1.95-1.42h2.226a2.008,2.008,0,0,1-1.95-1.416,1.11,1.11,0,0,1-.058-.209,1.291,1.291,0,0,1,0-.187v-5.141a1.954,1.954,0,0,1,1.78-1.781h-6.677a1.982,1.982,0,0,1-2.025-1.807v-5.221a1.645,1.645,0,0,0,.65-.142,1.623,1.623,0,0,0,.547-.383,1.679,1.679,0,0,0,.445-1.229,1.708,1.708,0,0,0-.169-.645,1.686,1.686,0,0,0-.414-.525,1.627,1.627,0,0,0-.583-.321,1.669,1.669,0,0,0-.663-.067v-5.306a.506.506,0,0,1,.022-.182,1.628,1.628,0,0,1,.053-.209,2.007,2.007,0,0,1,1.95-1.415h3.913a1.954,1.954,0,0,1-.7-.565,1.978,1.978,0,0,1-.365-.819.608.608,0,0,1,0-.125.281.281,0,0,1,0-.085v-5.141a1.362,1.362,0,0,1,0-.187,1.709,1.709,0,0,1,.054-.2,2,2,0,0,1,1.95-1.42h7.665a2,2,0,0,1-1.949-1.42,1.481,1.481,0,0,1-.053-.2,1.258,1.258,0,0,1,0-.187v-5.141a1.954,1.954,0,0,1,1.781-1.78h-12.076a2.044,2.044,0,0,1-1.691-.89v-.044l1.273-7.763v-.045l1.812-11.079a48.722,48.722,0,0,1,6.232,1.251l.356.093c1.188.334,2.359.708,3.516,1.131h.031a46.5,46.5,0,0,1,14.564,8.546l.227.2a44.29,44.29,0,0,1,6.107,6.579c.365.481.721.97,1.064,1.469l.338.494c.556.815,1.082,1.656,1.58,2.515a42.5,42.5,0,0,1,2.969,6.232,41.983,41.983,0,0,1,2.274,8.542.508.508,0,0,0,.031.214A41.7,41.7,0,0,1,1891.912,1418.719Z" transform="translate(-946.396 -615.326)" fill="#e2810e" opacity="0.5"/>
    <path id="Path_2291" data-name="Path 2291" d="M1806.453,1418.92a46.145,46.145,0,1,0-55.577,34.2A46.143,46.143,0,0,0,1806.453,1418.92Z" transform="translate(-872.501 -609.304)" fill="#e2810e"/>
    <path id="Path_2292" data-name="Path 2292" d="M1777.331,1451.88c-.57.347-1.149.681-1.736,1.006-.2.111-.4.218-.6.321-.445.245-.89.476-1.366.7a46.141,46.141,0,0,1-42.594-81.844c.592-.33,1.188-.641,1.781-.935s1.166-.57,1.78-.828a46.142,46.142,0,0,1,42.731,81.577Z" transform="translate(-867.838 -611.658)" fill="#ffb93e"/>
    <path id="Path_2293" data-name="Path 2293" d="M788,1294.148q-.79.481-1.6.93c-.181.1-.366.2-.552.3-.411.227-.823.441-1.263.65a42.676,42.676,0,0,1-39.368-75.71c.549-.3,1.1-.592,1.646-.864s1.078-.53,1.646-.766a42.677,42.677,0,0,1,39.5,75.461Z" transform="translate(-321.832 -527.695)" fill="#ffb93e"/>
    <path id="Path_2294" data-name="Path 2294" d="M698.3,1165.289c-.335.2-.674.405-1.02.592-.115.067-.232.129-.35.191-.262.142-.523.276-.8.41a27.115,27.115,0,0,1-25.015-48.1c.349-.2.7-.378,1.046-.552s.685-.334,1.046-.485a27.117,27.117,0,0,1,25.1,47.948Z" transform="translate(-285.209 -472.205)" fill="#ffb93e"/>
    <path id="Path_2295" data-name="Path 2295" d="M1760.067,1460.793a41.39,41.39,0,1,1,19.9-5.159A41.409,41.409,0,0,1,1760.067,1460.793Zm-.125-81.59a11,11,0,1,1,0,.009Z" transform="translate(-874.25 -618.139)" fill="#ffa412"/>
    <path id="Path_2296" data-name="Path 2296" d="M772.384,1302.561a38.285,38.285,0,1,1,18.4-4.772A38.272,38.272,0,0,1,772.384,1302.561Zm-.115-75.448a37,37,0,1,0,18.97,5.123,37.183,37.183,0,0,0-18.97-5.123Z" transform="translate(-327.935 -533.797)" fill="#ffa412"/>
    <path id="Path_2297" data-name="Path 2297" d="M688.324,1170.517a24.256,24.256,0,1,1,11.663-3.022A24.233,24.233,0,0,1,688.324,1170.517Zm-.073-47.815a23.459,23.459,0,1,0,12.021,3.249,23.571,23.571,0,0,0-12.021-3.249Z" transform="translate(-289.094 -476.088)" fill="#ffa412"/>
    <path id="Path_2298" data-name="Path 2298" d="M1807.848,1437.256c-.089-.227-.187-.445-.285-.663a12.042,12.042,0,0,0-2.8-4.006,12.5,12.5,0,0,0-4.406-2.595,21.182,21.182,0,0,0-5.6-1.051q-3.091-.187-6.726-.089a31.529,31.529,0,0,1-3.837-.076,9.69,9.69,0,0,1-2.7-.592,4.738,4.738,0,0,1-1.807-1.224,6.3,6.3,0,0,1-1.144-1.887,6.964,6.964,0,0,1-.521-2.226,4.772,4.772,0,0,1,.325-2.088,5.156,5.156,0,0,1,1.286-1.825,7.574,7.574,0,0,1,2.355-1.433,5.964,5.964,0,0,1,5.039.049q2.344,1.149,3.815,4.772l9.4-3.819a17.664,17.664,0,0,0-3.08-5.1,13.175,13.175,0,0,0-9.214-4.549,17.441,17.441,0,0,0-5.675.583l-2.671-6.557-5.2,2.11,2.626,6.468a19.4,19.4,0,0,0-4.776,3.4,14.644,14.644,0,0,0-3.013,4.2,11.741,11.741,0,0,0-1.108,4.74,13.907,13.907,0,0,0,4.091,9.744,12.353,12.353,0,0,0,4.4,2.577,20.845,20.845,0,0,0,5.6,1.015,65.455,65.455,0,0,0,6.739,0,25.2,25.2,0,0,1,3.668.027,9.673,9.673,0,0,1,2.671.6,5.144,5.144,0,0,1,1.883,1.277,6.939,6.939,0,0,1,1.264,2.092,5.792,5.792,0,0,1,.445,2.226,4.744,4.744,0,0,1-.5,2.123,5.926,5.926,0,0,1-1.491,1.874,9.015,9.015,0,0,1-2.524,1.482,10.962,10.962,0,0,1-2.76.717,6.3,6.3,0,0,1-2.787-.28,6.4,6.4,0,0,1-2.537-1.643,9.934,9.934,0,0,1-2.056-3.334l-9.4,3.815a16.2,16.2,0,0,0,3.7,5.751,13.321,13.321,0,0,0,4.87,3.036,14.792,14.792,0,0,0,5.533.8,23.317,23.317,0,0,0,5.7-.939l2.43,5.982,5.168-2.1-2.439-6.009a20.978,20.978,0,0,0,4.825-3.37,14.3,14.3,0,0,0,2.916-3.806c.058-.107.111-.218.165-.329a11.557,11.557,0,0,0,1.131-4.718A12.646,12.646,0,0,0,1807.848,1437.256Z" transform="translate(-901.755 -631.944)" fill="#ffa412"/>
    <path id="Path_2299" data-name="Path 2299" d="M815.922,1280.7c-.083-.209-.174-.41-.265-.61a11.134,11.134,0,0,0-2.6-3.694,11.712,11.712,0,0,0-4.1-2.395,19.7,19.7,0,0,0-5.2-.966q-2.876-.174-6.253-.085a28.908,28.908,0,0,1-3.567-.071,8.989,8.989,0,0,1-2.512-.543,4.363,4.363,0,0,1-1.68-1.131,5.834,5.834,0,0,1-1.063-1.74,6.436,6.436,0,0,1-.484-2.052,4.314,4.314,0,0,1,.3-1.923,4.766,4.766,0,0,1,1.2-1.687,7.214,7.214,0,0,1,2.189-1.322,5.681,5.681,0,0,1,2.347-.494,5.585,5.585,0,0,1,2.337.543,7.884,7.884,0,0,1,3.546,4.4l8.739-3.521a16.245,16.245,0,0,0-2.863-4.7,12.276,12.276,0,0,0-8.565-4.193,16.352,16.352,0,0,0-5.276.534L789.667,1249l-4.837,1.945,2.441,5.965a17.956,17.956,0,0,0-4.44,3.138,13.379,13.379,0,0,0-2.8,3.868,10.766,10.766,0,0,0-1.03,4.371,12.771,12.771,0,0,0,3.8,8.987,11.423,11.423,0,0,0,4.092,2.377,19.53,19.53,0,0,0,5.206.935,61.277,61.277,0,0,0,6.265,0,22.954,22.954,0,0,1,3.41.027,8.957,8.957,0,0,1,2.483.548,4.861,4.861,0,0,1,1.75,1.179,6.419,6.419,0,0,1,1.175,1.932,5.288,5.288,0,0,1,.414,2.052,4.4,4.4,0,0,1-.467,1.958,5.474,5.474,0,0,1-1.386,1.727,8.392,8.392,0,0,1-2.346,1.367,10.23,10.23,0,0,1-2.566.659,5.811,5.811,0,0,1-2.59-.258,5.951,5.951,0,0,1-2.359-1.513,9.146,9.146,0,0,1-1.912-3.076l-8.739,3.521a14.925,14.925,0,0,0,3.439,5.3,12.444,12.444,0,0,0,4.527,2.8,13.923,13.923,0,0,0,5.143.734,22.012,22.012,0,0,0,5.3-.864l2.259,5.515,4.8-1.936-2.268-5.542a19.629,19.629,0,0,0,4.485-3.107,13.212,13.212,0,0,0,2.71-3.512c.054-.1.1-.2.153-.3a10.61,10.61,0,0,0,1.051-4.353A11.562,11.562,0,0,0,815.922,1280.7Z" transform="translate(-352.905 -546.559)" fill="#ffa412"/>
    <path id="Path_2300" data-name="Path 2300" d="M716.022,1156.2c-.052-.134-.108-.263-.165-.392a7.073,7.073,0,0,0-1.623-2.355,7.236,7.236,0,0,0-2.554-1.522,12.037,12.037,0,0,0-3.243-.619q-1.793-.107-3.9-.053a17.652,17.652,0,0,1-2.224-.044,5.413,5.413,0,0,1-1.566-.347,2.739,2.739,0,0,1-1.048-.717,3.74,3.74,0,0,1-.663-1.113,4.145,4.145,0,0,1-.3-1.3,2.82,2.82,0,0,1,.189-1.229,3.023,3.023,0,0,1,.746-1.073,4.469,4.469,0,0,1,1.365-.841,3.381,3.381,0,0,1,2.92.031,5.007,5.007,0,0,1,2.211,2.8l5.449-2.243a10.375,10.375,0,0,0-1.785-3,7.745,7.745,0,0,0-2.4-1.887,7.6,7.6,0,0,0-2.938-.788,10.123,10.123,0,0,0-3.289.343l-1.548-3.85-3.016,1.237,1.522,3.8a11.235,11.235,0,0,0-2.769,2,8.586,8.586,0,0,0-1.747,2.466,6.977,6.977,0,0,0-.642,2.786,8.226,8.226,0,0,0,2.371,5.724,7.058,7.058,0,0,0,2.552,1.513,12.037,12.037,0,0,0,3.245.6,38.112,38.112,0,0,0,3.906,0,13.554,13.554,0,0,1,2.126.018,5.443,5.443,0,0,1,1.548.347,2.991,2.991,0,0,1,1.091.752,4.075,4.075,0,0,1,.733,1.229,3.437,3.437,0,0,1,.258,1.309,2.846,2.846,0,0,1-.292,1.246,3.455,3.455,0,0,1-.864,1.1,5.143,5.143,0,0,1-1.463.873,6.434,6.434,0,0,1-1.6.423,3.619,3.619,0,0,1-1.615-.165,3.734,3.734,0,0,1-1.471-.966,5.861,5.861,0,0,1-1.192-1.959l-5.449,2.239a9.512,9.512,0,0,0,2.144,3.378,7.681,7.681,0,0,0,2.822,1.785,8.458,8.458,0,0,0,3.207.467,13.214,13.214,0,0,0,3.3-.552l1.409,3.517,3-1.233-1.414-3.53a12.286,12.286,0,0,0,2.8-1.981,8.433,8.433,0,0,0,1.69-2.239c.033-.062.065-.125.1-.191a6.884,6.884,0,0,0,.656-2.773A7.483,7.483,0,0,0,716.022,1156.2Z" transform="translate(-305.185 -483.857)" fill="#ffa412"/>
    <path id="Path_2301" data-name="Path 2301" d="M439.379,1536.6h25.95c1.393-1.18-.961-3.859-3.423-4.042a15.049,15.049,0,0,0-3.962.472c-.356-4.749-2.395-26.075-10.086-25.22-8.644.961,0,9.392,2.444,14.386A118.622,118.622,0,0,1,454.9,1533.7c-.7.151-1.429.3-2.168.445-1.148-3.516-5.413-15.352-10.834-14.662-6.365.806-3.806,5.551.708,8.368,3.307,2.07,7.371,5.017,9.3,6.436a27.688,27.688,0,0,1-5.074.41C442.384,1534.587,440.212,1535.891,439.379,1536.6Z" transform="translate(-163.734 -690.153)" fill="#a8d29f"/>
    <path id="Path_2302" data-name="Path 2302" d="M1112.574,1577.006l-968.348-.378a1.183,1.183,0,0,1-.866-.41,1.5,1.5,0,0,1-.36-.984v-.846a1.487,1.487,0,0,1,.362-.979,1.154,1.154,0,0,1,.867-.41l968.344.378a1.158,1.158,0,0,1,.868.41,1.479,1.479,0,0,1,.361.984v.868a1.486,1.486,0,0,1-.37.966A1.153,1.153,0,0,1,1112.574,1577.006Z" transform="translate(0 -726.341)" fill="#2e3552"/>
    <path id="Path_2303" data-name="Path 2303" d="M619.158,1051.96l4.235,3.441s11.585-4.162,14.2,9.615c0,0,.7,5.871-3.025,5.875s-2.182-.636-7.441-.485-9.612-2.617-10.4-6.89l-2.516-3.619Z" transform="translate(-261.469 -437.225)" fill="#ea8e50"/>
    <path id="Path_2304" data-name="Path 2304" d="M467.277,958.049c3.392-3.53,3.1-6.138,3.1-6.138s-39.12-32.044-43.089-34.652c-2.7-1.782-31.516-27.334-44.984-42.913-6.677-7.727-14.955-4.729-24.42-2.014l-7.8,2.263c-9.414,2.7-11.874,15.873-4.139,22.277,21.757,18.029,57.943,38.3,64.716,42.567,16.809,10.58,49.71,23.151,49.71,23.151A20.914,20.914,0,0,0,467.277,958.049Z" transform="translate(-110.064 -335.934)" fill="#1e3d70"/>
    <path id="Path_2305" data-name="Path 2305" d="M708.971,1510.86s9.493,7.122,24.041,3.361c0,0,11.727-2.675,14.3,3.178,0,0-17.985,9.143-22.537,11.64a54.829,54.829,0,0,0-9.544,7.157,4.724,4.724,0,0,1-3.528,1.206,4.711,4.711,0,0,1-3.3-1.732c-.792-.975-1.7-2.132-2.692-3.481-2.77-3.757-9.233-15.9-9.233-15.9Z" transform="translate(-307.114 -691.86)" fill="#233862"/>
    <path id="Path_2306" data-name="Path 2306" d="M554.594,1291.191s-5.779,13.336-19.122,10.883c0,0-27.23-22.5-45.911-45.874-6.067-7.589-11.234-15.272-14.265-22.3-12.388-28.692-45.8-71.486-67.074-93.172L461.4,1121.49s17.035,34.287,39.7,76.4C517.429,1228.207,536.687,1262.615,554.594,1291.191Z" transform="translate(-147.167 -475.806)" fill="#2b478b"/>
    <path id="Path_2307" data-name="Path 2307" d="M501.1,1197.868l-11.54,58.333c-6.067-7.589-11.234-15.272-14.265-22.3-12.388-28.692-45.8-71.486-67.074-93.172L461.4,1121.49S478.434,1155.76,501.1,1197.868Z" transform="translate(-147.167 -475.806)" fill="#233862"/>
    <path id="Path_2308" data-name="Path 2308" d="M495.369,1520.948s-.565,10.643,12.315,12.063c0,0,7.35.04,7.39,6.788l-37.475.12s-1.086-2.733-1.351-8.582c-.2-4.5,4.354-16.247,4.354-16.247Z" transform="translate(-184.909 -694.207)" fill="#233862"/>
    <path id="Path_2309" data-name="Path 2309" d="M424.085,1118.5s23.69,26.022,38.73,72.973C471,1217.007,447.82,1281.2,443.3,1303.48c0,0-15.554,1.322-26.184-2.791,0,0-.809-46.065,5.411-81.572,3.477-19.866-31.193-42.5-46.363-78.394-10.307-24.424,2.262-24.005,17.64-24.593Z" transform="translate(-127.296 -472.832)" fill="#2b478b"/>
    <path id="Path_2310" data-name="Path 2310" d="M377.016,820.309c-13.179,7.445-40.143.566-40.143.566s10.957-12.535,5.982-32.725l10.347,5.261,11.116,5.657a92.715,92.715,0,0,1,1.221,9.967c.125,1.646.238,3.49.317,5.5A34.521,34.521,0,0,1,377.016,820.309Z" transform="translate(-107.577 -290.842)" fill="#ffb07b"/>
    <path id="Path_2311" data-name="Path 2311" d="M412.947,967.349c0,2.319-2.668,3.428-3.234,3.539-5.32.975-20.162,6.748-33.534,8.074-11.263,1.18-21.717.063-33.2-2.266-1.521-.3-5.089-1.264-5.343-2.724-.316-1.589-44.3-89.707-10.11-127.563.8-.888,7.548.713,13.723,2.177a25.35,25.35,0,0,0,15.6-1.273l5.79,3.043c7.107,3.96,20.558,18.045,22.13,29.093.8,5.617,4.009,9.781,4.941,14.708.345,1.833.7,3.614,1.058,5.357q1.052,5.091,2.165,9.753c2.007,8.356,4.133,15.545,6.219,21.763,2.222,6.6,4.4,12.081,6.339,16.674,2.522,5.951,4.653,10.4,5.982,13.807A17.376,17.376,0,0,1,412.947,967.349Z" transform="translate(-95.171 -323.027)" fill="#2a4e96"/>
    <path id="Path_2312" data-name="Path 2312" d="M428.122,998.849c-62.087-29.271-83.59-85.466-83.59-85.466s50.445,18.617,62.89,23.464q1.052,5.092,2.165,9.753c2.007,8.356,4.133,15.544,6.22,21.763,2.222,6.6,4.4,12.08,6.338,16.674C424.672,990.988,426.792,995.439,428.122,998.849Z" transform="translate(-111.826 -360.331)" fill="#1e3d70"/>
    <path id="Path_2313" data-name="Path 2313" d="M374.552,815.593c-12.965.73-21.4-9.979-21.4-9.979a102.084,102.084,0,0,0,9.047-5.657l11.116,5.657A92.839,92.839,0,0,1,374.552,815.593Z" transform="translate(-116.612 -297.393)" fill="#ea8e50"/>
    <path id="Path_2314" data-name="Path 2314" d="M364.9,763.98s-19.642,14.1-28.231,1.731-16.911-18.888-4.732-28.415,17.918-6.516,21.785-3.083S369.789,759.969,364.9,763.98Z" transform="translate(-101.441 -259.072)" fill="#ffb07b"/>
    <path id="Path_2315" data-name="Path 2315" d="M333.709,703.1a31.554,31.554,0,0,0-2.262-8.1s-1.233,5.091-10.567,4.4-24.115.917-29.045,11.557a21.747,21.747,0,0,0-.843,2.088,24.6,24.6,0,0,1-1.131-5.895c-1.77,4.582,0,10.307,0,10.307a3.116,3.116,0,0,1-.073.5C287.73,719.7,286,725.117,286,725.117a6.5,6.5,0,0,1,3.488-3.106c-.04,8.282,3.313,16.371,9.205,18.781,8.611,3.524,8.543.837,17.2,6.585,0,0,2.324-2.885.741-4.826s-7.571-4.752-4.223-7.569,4.574.351,5.807-1.59-4.925-7.574,3-12.858S334.415,707.858,333.709,703.1Z" transform="translate(-79.348 -239.154)" fill="#233862"/>
    <path id="Path_2316" data-name="Path 2316" d="M616.361,1075.828s10.505,3.543,16.561,3.4,16.583-6.516,16.6-6.97-4.732-3.192-11.624-2.319-8.3-.165-6.157-1.019c2.414-.966,4.133-2.408,3.545-3.33-.328-.5-3.788.565-4.97.984s-4.133-.685-6.6,1.091c-1.634,1.18-7.774,2.061-7.774,2.061Z" transform="translate(-262.427 -444.712)" fill="#ffc299"/>
    <path id="Path_2317" data-name="Path 2317" d="M458.4,968.721c1.855-5.23,2.7-7.6,2.7-7.6s-41.359-32.041-45.56-34.757c-2.861-1.861-31.4-22.1-45.475-38.087a28.587,28.587,0,0,0-28.033-8.932l-8.481,2a12.667,12.667,0,0,0-5.089,22.141c22.927,18.668,61.346,40.055,68.521,44.52,17.81,11.088,56.975,26.266,56.975,26.266A9.951,9.951,0,0,0,458.4,968.721Z" transform="translate(-100.319 -341.02)" fill="#2a4e96"/>
    <path id="Path_2318" data-name="Path 2318" d="M606.779,932.313a56.75,56.75,0,0,1-11.282,6.16l-2.322-.107-1.187-.044c-2.486-.1-4.943-.16-7.347-.2-1.2,0-2.385-.04-3.553-.044-4.929,0-9.655.053-14.13.218-1.207.04-2.413.085-3.558.138-.932.04-1.844.089-2.747.133a3.432,3.432,0,0,0-.6.036c-2,.116-3.926.232-5.793.361h-.116a57.469,57.469,0,0,1-33.787-34.875A58.839,58.839,0,0,1,534.837,842.3a56.587,56.587,0,0,1,61.9-11.237,57.352,57.352,0,0,1,15.061,9.62,57.929,57.929,0,0,1,16.234,24.236A58.71,58.71,0,0,1,606.779,932.313Z" transform="translate(-207.526 -312.036)" fill="#e06236"/>
    <path id="Path_2319" data-name="Path 2319" d="M1766.237,826.751l-19.937-6.184,8.253-26.59h0l3.481-11.2,19.937,6.184-6.494,20.919Z" transform="translate(-889.642 -287.857)" fill="#a8d29f"/>
    <path id="Path_2320" data-name="Path 2320" d="M1766.237,840.719l-19.937-6.183,8.253-26.591a30.983,30.983,0,0,0,16.923,15.9Z" transform="translate(-889.642 -301.826)" fill="#9dc993"/>
    <path id="Path_2321" data-name="Path 2321" d="M1768.3,826.834l-15.477-4.8,10.545-33.969,15.477,4.8Zm-13.433-4.683,11.675,3.62a1.5,1.5,0,0,0,.583.061,1.488,1.488,0,0,0,.561-.167,1.558,1.558,0,0,0,.458-.37,1.51,1.51,0,0,0,.276-.515l9.356-30.129a1.536,1.536,0,0,0-1.01-1.914l-11.626-3.6a1.512,1.512,0,0,0-1.616.479,1.553,1.553,0,0,0-.285.52l-9.356,30.151a1.488,1.488,0,0,0,.984,1.869Z" transform="translate(-893.26 -290.794)" fill="#82b378"/>
    <path id="Path_2322" data-name="Path 2322" d="M1772.445,824.888a4.359,4.359,0,1,1,1.375,4.646,4.283,4.283,0,0,1-1.068-1.322,4.35,4.35,0,0,1-.307-3.324Z" transform="translate(-904.04 -309.524)" fill="#82b378"/>
    <path id="Path_2323" data-name="Path 2323" d="M627.647,876.151a50.1,50.1,0,0,0-64.282-30.814c-26.152,9.476-39.767,38.637-30.414,65.132a50.113,50.113,0,0,0,64.283,30.819C623.385,931.812,637,902.651,627.647,876.151Z" transform="translate(-214.739 -320.914)" fill="#dce4ff"/>
    <path id="Path_2324" data-name="Path 2324" d="M485.245,855.745a25.075,25.075,0,0,0,7.092,32.627,1.969,1.969,0,0,0,2.885-.651l22.12-39.242a2.048,2.048,0,0,0-.889-2.856,24,24,0,0,0-31.208,10.123Z" transform="translate(-188.105 -321.469)" fill="#e06236"/>
    <path id="Path_2325" data-name="Path 2325" d="M693.63,819.248a3.385,3.385,0,0,1-4.646,2.186L654.316,806.1l-.058-.029-3.178-1.4a3.456,3.456,0,0,1-1.6-4.931,24.234,24.234,0,0,1,30.287-9.351,24.589,24.589,0,0,1,12.774,13.189A25.145,25.145,0,0,1,693.63,819.248Z" transform="translate(-280.77 -290.95)" fill="#f77d48"/>
    <path id="Path_2326" data-name="Path 2326" d="M725.849,969.381a2.47,2.47,0,0,1,1.6,1.091,2.818,2.818,0,0,1,.416,1.982,2.75,2.75,0,0,1-.328.972,2.563,2.563,0,0,1-.652.761,2.365,2.365,0,0,1-.875.431,2.279,2.279,0,0,1-.962.034,2.472,2.472,0,0,1-1.595-1.095,2.821,2.821,0,0,1-.412-1.984,2.757,2.757,0,0,1,.328-.969,2.561,2.561,0,0,1,.651-.758,2.369,2.369,0,0,1,.873-.43A2.277,2.277,0,0,1,725.849,969.381Z" transform="translate(-321.832 -391.384)" fill="#233862"/>
    <path id="Path_2327" data-name="Path 2327" d="M608.148,873.647a2.456,2.456,0,0,1,.081-1.874,2.5,2.5,0,0,1,1.385-1.281,2.461,2.461,0,0,1,2.64.642,2.42,2.42,0,0,1,.494.808,2.451,2.451,0,0,1-.079,1.875,2.493,2.493,0,0,1-1.387,1.281,2.459,2.459,0,0,1-2.64-.642A2.423,2.423,0,0,1,608.148,873.647Z" transform="translate(-258.02 -336.45)" fill="#233862"/>
    <path id="Path_2328" data-name="Path 2328" d="M666.148,1037.929a2.886,2.886,0,0,1,.081-2.039,2.576,2.576,0,0,1,1.384-1.389,2.238,2.238,0,0,1,.948-.156,2.289,2.289,0,0,1,.93.254,2.433,2.433,0,0,1,.769.614,2.706,2.706,0,0,1,.488.886,2.886,2.886,0,0,1-.081,2.039,2.576,2.576,0,0,1-1.384,1.389,2.239,2.239,0,0,1-.948.156,2.355,2.355,0,0,1-.93-.249,2.507,2.507,0,0,1-.769-.619A2.7,2.7,0,0,1,666.148,1037.929Z" transform="translate(-290.203 -427.449)" fill="#233862"/>
    <path id="Path_2329" data-name="Path 2329" d="M655.051,869.294a2.412,2.412,0,0,1,1.058-1.556,2.448,2.448,0,0,1,1.863-.334,2.481,2.481,0,0,1,1.532,1.069,2.442,2.442,0,0,1,.342,1.825,2.411,2.411,0,0,1-1.049,1.546,2.451,2.451,0,0,1-1.847.345,2.478,2.478,0,0,1-1.549-1.061A2.438,2.438,0,0,1,655.051,869.294Z" transform="translate(-284.1 -334.786)" fill="#233862"/>
    <path id="Path_2330" data-name="Path 2330" d="M570.052,899.293a2.4,2.4,0,0,1,.37-.884,2.445,2.445,0,0,1,2.55-1.005,2.481,2.481,0,0,1,1.532,1.067,2.437,2.437,0,0,1,.342,1.824,2.406,2.406,0,0,1-1.057,1.554,2.454,2.454,0,0,1-1.862.334,2.477,2.477,0,0,1-1.533-1.067A2.433,2.433,0,0,1,570.052,899.293Z" transform="translate(-236.935 -351.432)" fill="#233862"/>
    <path id="Path_2331" data-name="Path 2331" d="M619.051,1040.292a2.413,2.413,0,0,1,1.057-1.553,2.423,2.423,0,0,1,1.862-.334,2.479,2.479,0,0,1,1.534,1.064,2.437,2.437,0,0,1,.34,1.825,2.4,2.4,0,0,1-.37.885,2.374,2.374,0,0,1-.688.668,2.423,2.423,0,0,1-1.862.334,2.478,2.478,0,0,1-1.531-1.064A2.443,2.443,0,0,1,619.051,1040.292Z" transform="translate(-264.124 -429.67)" fill="#233862"/>
    <path id="Path_2332" data-name="Path 2332" d="M693.595,887.2a2.407,2.407,0,0,1,.749-.589,2.449,2.449,0,0,1,1.872-.138,2.418,2.418,0,0,1,.829.472,2.452,2.452,0,0,1,.259,3.456,2.433,2.433,0,0,1-.751.583,2.448,2.448,0,0,1-2.958-3.784Z" transform="translate(-305.185 -345.329)" fill="#233862"/>
    <path id="Path_2333" data-name="Path 2333" d="M555.593,937.187a2.439,2.439,0,0,1,.752-.582,2.449,2.449,0,0,1,2.957,3.786,2.411,2.411,0,0,1-.748.588,2.453,2.453,0,0,1-2.961-3.792Z" transform="translate(-228.611 -373.073)" fill="#233862"/>
    <path id="Path_2334" data-name="Path 2334" d="M581.592,1020.189a2.433,2.433,0,0,1,.752-.583,2.461,2.461,0,0,1,.921-.254,2.539,2.539,0,0,1,.949.116,2.446,2.446,0,0,1,1.086,3.922,2.422,2.422,0,0,1-.748.592,2.462,2.462,0,0,1-.922.254,2.54,2.54,0,0,1-.95-.116,2.456,2.456,0,0,1-1.088-3.93Z" transform="translate(-243.038 -419.128)" fill="#233862"/>
    <path id="Path_2335" data-name="Path 2335" d="M719.619,923.489a2.466,2.466,0,0,1,1.876.091,2.435,2.435,0,0,1,.767.567,2.4,2.4,0,0,1,.487.814,2.432,2.432,0,0,1-.081,1.863,2.45,2.45,0,0,1-3.25,1.193,2.444,2.444,0,0,1-.768-.557,2.406,2.406,0,0,1-.493-.806,2.432,2.432,0,0,1,.068-1.881A2.482,2.482,0,0,1,719.619,923.489Z" transform="translate(-319.057 -365.859)" fill="#233862"/>
    <path id="Path_2336" data-name="Path 2336" d="M557.616,982.489a2.468,2.468,0,0,1,1.876.089,2.427,2.427,0,0,1,.767.565,2.394,2.394,0,0,1,.488.813,2.431,2.431,0,0,1-.079,1.866,2.45,2.45,0,0,1-3.251,1.193,2.436,2.436,0,0,1-.767-.557,2.4,2.4,0,0,1-.492-.8,2.431,2.431,0,0,1,.066-1.88A2.483,2.483,0,0,1,557.616,982.489Z" transform="translate(-229.166 -398.597)" fill="#233862"/>
    <path id="Path_2337" data-name="Path 2337" d="M705.051,1007.989a2.784,2.784,0,0,1,.839,1.834,2.84,2.84,0,0,1-.594,1.941,2.526,2.526,0,0,1-.749.641,2.34,2.34,0,0,1-.922.276,2.23,2.23,0,0,1-.95-.129,2.361,2.361,0,0,1-.828-.516,2.8,2.8,0,0,1-.84-1.834,2.836,2.836,0,0,1,.591-1.941,2.489,2.489,0,0,1,.754-.636,2.409,2.409,0,0,1,.922-.271,2.3,2.3,0,0,1,.949.129A2.359,2.359,0,0,1,705.051,1007.989Z" transform="translate(-309.624 -412.47)" fill="#233862"/>
    <path id="Path_2338" data-name="Path 2338" d="M589.284,963.89c7.147-3.235,21.012-9.544,21.012-9.544l1.405,4.067-22.215,6.135a.318.318,0,0,1-.14.035.323.323,0,0,1-.141-.028.335.335,0,0,1-.117-.086.359.359,0,0,1-.038-.417.338.338,0,0,1,.234-.162Z" transform="translate(-247.477 -383.061)" fill="#f77d48"/>
    <path id="Path_2339" data-name="Path 2339" d="M622.238,899.04c4.351,10.6,10.335,25.036,10.335,25.036l-3.867,1.422-7.633-26.06C620.715,898.253,621.769,897.9,622.238,899.04Z" transform="translate(-265.233 -351.987)" fill="#233862"/>
    <path id="Path_2340" data-name="Path 2340" d="M700.289,838.1a3.376,3.376,0,0,1-4.643,2.2L661,824.882c1.067.363,18.269,6.394,26.918,4.124,8.476-2.231,11.043-6.258,11.285-6.66A25.415,25.415,0,0,1,700.289,838.1Z" transform="translate(-287.429 -309.816)" fill="#e06236"/>
    <path id="Path_2341" data-name="Path 2341" d="M634.229,954.719a4.191,4.191,0,0,1,.125-3.053,3.939,3.939,0,0,1,2.141-2.086,3.629,3.629,0,0,1,2.9.146,3.787,3.787,0,0,1,1.187.925,3.973,3.973,0,0,1,.753,1.331,4.194,4.194,0,0,1-.125,3.053,3.939,3.939,0,0,1-2.141,2.086,3.622,3.622,0,0,1-2.9-.145,3.777,3.777,0,0,1-1.187-.926A3.955,3.955,0,0,1,634.229,954.719Z" transform="translate(-272.447 -380.286)" fill="#e06236"/>
    <path id="Path_2342" data-name="Path 2342" d="M1425.8,658.107c-1.7-1.2-5.568-3.851-5.786-3.26a2.6,2.6,0,0,0,.525,1.894c-2.341-.873-4.714-1.448-10.336-.368a4.226,4.226,0,0,0-1.571.627,4.27,4.27,0,0,0-1.193,1.193,1.857,1.857,0,0,0,.65,2.9c2.867,1.783,2.034.715,6.014,3.309s8.858,3.26,11.769,1.436l3.9-.649.49-6.432S1428.064,658.52,1425.8,658.107Z" transform="translate(-701.372 -216.827)" fill="#ffb27d"/>
    <path id="Path_2343" data-name="Path 2343" d="M1649.708,515.471s-9.214,10.937-20.947,6.362c0,0-2.524-6.11-2.559-10.61v-1.6c-.062-5.067-.231-7.913-.231-7.913.53-.219,17.934-7.371,17.92-6.775C1643.588,508.638,1649.708,515.471,1649.708,515.471Z" transform="translate(-822.874 -128.12)" fill="#ffb27d"/>
    <path id="Path_2344" data-name="Path 2344" d="M1613.957,468.787s19.572,4.6,22.251-7.636,7.006-19.888-5.377-23.342-15.842.678-17.729,4.55S1608.936,467.273,1613.957,468.787Z" transform="translate(-814.519 -95.726)" fill="#ffb27d"/>
    <path id="Path_2345" data-name="Path 2345" d="M1627.349,452.517c.263.17,4.478,1.464,12.454-14.428a13.876,13.876,0,0,0-.828-12.665c-2.933-4.769-13.265-8.517-21.864-10.151s-10.661,3.21-12.681,8.074c-2.128,5.1-8.27,9.307-8.27,9.307,7.411,4.136,16.345-1.783,19.429-.807s4.188,5.853,4.42,7.417.588,2.862,4.478,1.464,1.763,5.518,1.139,6.837C1625.645,447.566,1625.115,451.086,1627.349,452.517Z" transform="translate(-806.332 -83.759)" fill="#a9453d"/>
    <path id="Path_2346" data-name="Path 2346" d="M1779.029,1148.533h11.853c2.479,0,5.243-2.484,5.933-7.033s5.787-7.033,6.9-10.754-4.549-8.978-4.549-8.978l-.944-1.22-.984-1.269-9.392,2.208s-.231,2.239-.374,5.083a63.8,63.8,0,0,0-.04,6.525c.28,4.963-1.393,10.34-5.809,11.3S1779.029,1148.533,1779.029,1148.533Z" transform="translate(-907.598 -474.58)" fill="#2c3a64"/>
    <path id="Path_2347" data-name="Path 2347" d="M1594.15,1163.651h31.421a2.685,2.685,0,0,0,.668-.2c2.1-1.051,1.442-9.1,1.189-11.582-.049-.458-.08-.726-.08-.726s-11.048-8.84-12.57-2.07c-.049.209-.1.414-.16.623-1.918,6.334-10.487,9.214-15.441,10.015C1595.383,1160.34,1594.4,1162.548,1594.15,1163.651Z" transform="translate(-805.217 -489.698)" fill="#2c3a64"/>
    <path id="Path_2348" data-name="Path 2348" d="M1608.37,774.188s1.682,20.939,3.654,46.109c2.675,34.2,5.9,76.2,6.218,84.151.552,13.821,2.764,35.921,2.764,35.921s5.243,5.248,15.739,3.036c0,0,9.352-31.55,12.023-64.943l.125-1.651c2.479-33.983,6.352-105.543,6.352-105.543Z" transform="translate(-813.108 -281.474)" fill="#2b478b"/>
    <path id="Path_2349" data-name="Path 2349" d="M1608.37,774.207s1.682,20.938,3.654,46.109l36.745,58.177.125-1.651c2.479-33.982,6.352-105.542,6.352-105.542Z" transform="translate(-813.108 -281.491)" fill="#233862"/>
    <path id="Path_2350" data-name="Path 2350" d="M1625.59,766.368s30.237,75.837,50.12,111.477,26.1,45.589,26.1,45.589,11.386-4.553,12.423-7.669c0,0-7.6-68.807-20.916-85.576-7.527-9.481-16.367-37.923-16.777-47.867s-2.693-29.629-2.693-29.629Z" transform="translate(-822.662 -271.167)" fill="#2b478b"/>
    <path id="Path_2351" data-name="Path 2351" d="M1780.244,750.236l.32,4.877a10.51,10.51,0,0,0,5.787,13.108s3.855,1.556,4.01-1.448-.334-1.874-.027-6.1-1.344-8.228-4.131-9.576l-2.3-2.648Z" transform="translate(-908.346 -268.812)" fill="#ffb27d"/>
    <path id="Path_2352" data-name="Path 2352" d="M1718.073,640.254c-3.347,1.075-3.881.827-3.881.827s-16.291-29.671-17.943-32.388-34.6-33.269-34.6-33.269l8.466-31.578s37.461,48.532,41.507,55.5c6.686,11.507,10.6,38.237,10.6,38.237A9.767,9.767,0,0,1,1718.073,640.254Z" transform="translate(-842.672 -155.282)" fill="#1e3d70"/>
    <path id="Path_2353" data-name="Path 2353" d="M1593.963,578.975c.12,6.486.5,13.778,1,21.183.036.438.067.877.1,1.315.325,4.587.677,9.183,1.082,13.65q.24,2.7.512,5.324l.031.232a17.825,17.825,0,0,0,.165,2.01c1.651,16.794,3.378,30.06,3.721,30.262a1.879,1.879,0,0,0,1.286.331c4.4-.554,17.537.443,28.287-1.894,9.071-1.915,16.883-5.547,25.162-10.44,1.1-.649,3.6-2.37,3.4-3.657-.2-1.415-.57-3.458-1.041-6.027a325.969,325.969,0,0,1-5.4-42.278q-.287-5.026-.828-9.927a150.471,150.471,0,0,0-4.385-23.669c-3.685-13.282-9.094-23.45-15.9-27.429-.89-.5-5.667,2.544-10.055,5.377a19.388,19.388,0,0,1-12.468,2.958l-3.65,4.037c-4.425,5.146-9.134,12-10.42,21.728-.093.72-.178,1.481-.249,2.3A143.01,143.01,0,0,0,1593.963,578.975Z" transform="translate(-805.083 -146.437)" fill="#2a4e96"/>
    <path id="Path_2354" data-name="Path 2354" d="M1593.963,615.14c.12,6.486.5,13.779,1,21.183q.053.658.093,1.315c25.145-15.743,29.017-44.558,29.017-44.558-12.37.542-22.194,3.388-29.77,7.445A144.167,144.167,0,0,0,1593.963,615.14Z" transform="translate(-805.083 -182.601)" fill="#1e3d70"/>
    <path id="Path_2355" data-name="Path 2355" d="M1451.289,606.172c-.263-3.723,1.651-4.351,1.651-4.351s37.911-6.875,41.133-7.888,30.78-29.7,30.78-29.7,10.576-11.917,19.229-9.3c7.518,2.288,10.451,8.153,11.453,13.741a16.46,16.46,0,0,1-7.638,16.893c-12.939,7.942-38.836,23.578-44.934,25.373-13.576,3.979-50.049.319-50.049.319A11.737,11.737,0,0,1,1451.289,606.172Z" transform="translate(-725.932 -161.228)" fill="#2a4e96"/>
    <path id="Path_2356" data-name="Path 2356" d="M532.4,375.812a8.243,8.243,0,0,0-1.059-1.683,8.156,8.156,0,0,0-1.033-1.042l-1.553-1.58-.41.3c-7.963-3.895-24.4.236-41.035,11.092-20.088,13.118-33,31.189-29.289,40.791l-.565.423,2.226,2.226.329.329.067.062a9.2,9.2,0,0,0,1.932,1.335c7.861,4.117,24.481,0,41.294-10.959C523.82,403.774,536.83,385.284,532.4,375.812Z" transform="translate(-174.448 -59.025)" fill="#ffa412"/>
    <path id="Path_2357" data-name="Path 2357" d="M481.926,377.527c20.475-13.354,40.666-16.541,45.095-7.086S518.44,398.4,497.96,411.77s-40.666,16.541-45.095,7.082S461.451,390.894,481.926,377.527Z" transform="translate(-171.458 -56.043)" fill="#ffb93e"/>
    <path id="Path_2358" data-name="Path 2358" d="M473.115,424.545a16.086,16.086,0,0,1-4.509-.574,7.816,7.816,0,0,1-5.266-4.2c-1.847-4.028-.134-10.006,4.816-16.834,4.838-6.677,12.223-13.438,20.8-19.051,13.162-8.617,26.551-12.779,34.109-10.607a7.811,7.811,0,0,1,5.266,4.2c1.847,4.028.138,10.006-4.816,16.834-4.838,6.677-12.223,13.434-20.8,19.047C491.872,420.473,480.878,424.545,473.115,424.545Zm45.487-50.3c-7.425,0-18.33,4.055-28.826,10.928-8.422,5.515-15.668,12.147-20.4,18.673-4.553,6.281-6.232,11.862-4.665,15.325a6.382,6.382,0,0,0,4.318,3.383,14.611,14.611,0,0,0,4.042.507c7.425,0,18.33-4.055,28.83-10.928,8.422-5.515,15.664-12.147,20.4-18.673,4.554-6.281,6.232-11.867,4.665-15.325a6.41,6.41,0,0,0-4.318-3.383,14.6,14.6,0,0,0-4.042-.53Z" transform="translate(-177.349 -60.323)" fill="#ffa412"/>
    <path id="Path_2359" data-name="Path 2359" d="M502.1,419.542a10.9,10.9,0,0,0,1.687-.913,7.857,7.857,0,0,0,1.367-1.162,10.575,10.575,0,0,0,1.184-1.522,19.379,19.379,0,0,0,1.122-1.994q.988-1.963,2.03-3.663a22.3,22.3,0,0,1,2.328-3.156,19.023,19.023,0,0,1,2.938-2.671,20.466,20.466,0,0,1,3.864-2.19,14.238,14.238,0,0,1,3.459-1.082,5.959,5.959,0,0,1,2.626.089,3.171,3.171,0,0,1,1.709,1.188,4,4,0,0,1,.681,2.226l4.834-2.123-.254,2.6-4.9,2.15a11.169,11.169,0,0,1-1.335,3.022,15.913,15.913,0,0,1-2.355,2.884,21.952,21.952,0,0,1-3.267,2.613,27.93,27.93,0,0,1-4.117,2.226l.445-4.7a13.8,13.8,0,0,0,4.131-2.582,4.616,4.616,0,0,0,1.553-2.746,1.777,1.777,0,0,0-.183-1.126,1.158,1.158,0,0,0-.752-.5,2.9,2.9,0,0,0-1.206.049,8.267,8.267,0,0,0-1.54.521,9.919,9.919,0,0,0-1.527.828,7.569,7.569,0,0,0-1.309,1.108,10.721,10.721,0,0,0-1.184,1.536c-.383.588-.783,1.286-1.211,2.092q-1.032,1.963-2.083,3.663a22.078,22.078,0,0,1-2.35,3.156,18.9,18.9,0,0,1-2.947,2.671,20.182,20.182,0,0,1-3.841,2.177,14.1,14.1,0,0,1-3.525,1.1,5.76,5.76,0,0,1-2.6-.107,2.994,2.994,0,0,1-1.651-1.229,4.381,4.381,0,0,1-.645-2.261l-4.5,1.972.249-2.582,4.451-1.963a13.169,13.169,0,0,1,1.131-3,14.93,14.93,0,0,1,2.172-3.094,20.655,20.655,0,0,1,3.37-2.978,25.756,25.756,0,0,1,4.7-2.626l-.445,4.7a15.87,15.87,0,0,0-2.706,1.473,10.181,10.181,0,0,0-1.78,1.558,6.051,6.051,0,0,0-1.015,1.545,4.789,4.789,0,0,0-.383,1.42,2.193,2.193,0,0,0,.16,1.215,1.241,1.241,0,0,0,.721.61,2.421,2.421,0,0,0,1.175.045A6.725,6.725,0,0,0,502.1,419.542Z" transform="translate(-191.863 -76.066)" fill="#ffa412"/>
    <path id="Path_2360" data-name="Path 2360" d="M573.937,579.842a5.816,5.816,0,0,1,.77-1.22,6.036,6.036,0,0,1,.748-.757l1.131-1.148.3.223c5.786-2.831,17.716.169,29.792,8.052,14.6,9.526,23.961,22.648,21.259,29.618l.414.3-1.625,1.62c-.076.08-.156.16-.24.236l-.044.049a6.638,6.638,0,0,1-1.407.975c-5.706,2.991-17.769,0-29.979-7.954C580.169,600.143,570.715,586.71,573.937,579.842Z" transform="translate(-238.77 -173.065)" fill="#ffa412"/>
    <path id="Path_2361" data-name="Path 2361" d="M610.579,581.075c-14.867-9.708-29.525-12.018-32.738-5.146s6.232,20.3,21.094,30.005,29.525,12.018,32.743,5.146S625.446,590.779,610.579,581.075Z" transform="translate(-240.937 -170.889)" fill="#ffb93e"/>
    <path id="Path_2362" data-name="Path 2362" d="M604.035,607.082a58.608,58.608,0,0,1-15.1-13.83c-3.6-4.954-4.838-9.294-3.5-12.218a5.669,5.669,0,0,1,3.824-3.049c5.488-1.58,15.21,1.442,24.766,7.7a58.512,58.512,0,0,1,15.094,13.83c3.6,4.959,4.838,9.3,3.5,12.219a5.649,5.649,0,0,1-3.824,3.049,11.8,11.8,0,0,1-3.272.414C619.886,615.21,611.9,612.25,604.035,607.082ZM589.564,579.04a4.552,4.552,0,0,0-3.116,2.457c-1.153,2.51.085,6.565,3.387,11.128a57.368,57.368,0,0,0,14.814,13.558c7.62,4.994,15.539,7.937,20.921,7.937a10.613,10.613,0,0,0,2.933-.369,4.551,4.551,0,0,0,3.116-2.457c1.153-2.51-.08-6.565-3.387-11.128a57.416,57.416,0,0,0-14.809-13.558c-7.62-4.99-15.539-7.932-20.921-7.932A10.77,10.77,0,0,0,589.564,579.04Z" transform="translate(-245.209 -173.995)" fill="#ffa412"/>
    <path id="Path_2363" data-name="Path 2363" d="M626.655,611.879a1.719,1.719,0,0,0,.85-.031.887.887,0,0,0,.525-.445,1.575,1.575,0,0,0,.116-.89,3.481,3.481,0,0,0-.28-1.033,4.241,4.241,0,0,0-.734-1.122,7.2,7.2,0,0,0-1.3-1.131,11.33,11.33,0,0,0-1.963-1.073l-.329-3.41a18.634,18.634,0,0,1,3.419,1.905,15.4,15.4,0,0,1,2.444,2.159,11.008,11.008,0,0,1,1.576,2.226,9.55,9.55,0,0,1,.823,2.177l3.245,1.424.182,1.878-3.263-1.433a3.216,3.216,0,0,1-.445,1.638,2.188,2.188,0,0,1-1.2.89,4.218,4.218,0,0,1-1.892.076,10.273,10.273,0,0,1-2.555-.8,14.583,14.583,0,0,1-2.791-1.58,13.583,13.583,0,0,1-2.141-1.941,16.2,16.2,0,0,1-1.7-2.292c-.508-.819-1.015-1.709-1.513-2.671a15.771,15.771,0,0,0-.89-1.522,8,8,0,0,0-.859-1.113,5.333,5.333,0,0,0-.953-.806,7.269,7.269,0,0,0-1.108-.6,6.141,6.141,0,0,0-1.117-.378,2.138,2.138,0,0,0-.89-.036.821.821,0,0,0-.543.365,1.265,1.265,0,0,0-.133.819,3.352,3.352,0,0,0,1.126,1.994,10.071,10.071,0,0,0,3,1.874l.329,3.414a20.033,20.033,0,0,1-2.991-1.616,15.69,15.69,0,0,1-2.372-1.9,11.688,11.688,0,0,1-1.709-2.092,8.148,8.148,0,0,1-.979-2.194l-3.561-1.562-.182-1.887,3.508,1.54a2.882,2.882,0,0,1,.494-1.62,2.3,2.3,0,0,1,1.242-.864,4.4,4.4,0,0,1,1.91-.062,10.157,10.157,0,0,1,2.506.783,14.651,14.651,0,0,1,2.8,1.589,13.507,13.507,0,0,1,2.137,1.936,16.133,16.133,0,0,1,1.687,2.292c.5.824,1,1.709,1.473,2.671a15.985,15.985,0,0,0,.815,1.451,7.987,7.987,0,0,0,.864,1.1,5.567,5.567,0,0,0,.993.841,7.684,7.684,0,0,0,1.224.663A4.63,4.63,0,0,0,626.655,611.879Z" transform="translate(-255.736 -185.375)" fill="#ffa412"/>
  </g>
</svg>
