<svg xmlns="http://www.w3.org/2000/svg" xmlns:xlink="http://www.w3.org/1999/xlink" width="884.943" height="642.499" viewBox="0 0 884.943 642.499">
  <defs>
    <linearGradient id="linear-gradient" y1="1879.65" x2="0" y2="2010.68" gradientUnits="objectBoundingBox">
      <stop offset="0" stop-color="#09005d"/>
      <stop offset="1" stop-color="#1a0f91"/>
    </linearGradient>
    <linearGradient id="linear-gradient-2" y1="2208.54" y2="2382.71" xlink:href="#linear-gradient"/>
    <linearGradient id="linear-gradient-3" y1="964.32" y2="1241.57" xlink:href="#linear-gradient"/>
  </defs>
  <g id="Group_836" data-name="Group 836" transform="translate(-148 -301)">
    <g id="Group_720" data-name="Group 720" transform="translate(2065 954)">
      <path id="Vector" d="M844.306,642H54.482s-97.539-76.221-31.6-218.983c60.07-130.066,103.509-49.029,85.345-282.467C100.963,47.15,153.159.074,225.472,0,297-.07,371.718,35.684,440.513,19.234q26.268-6.282,50.515-9.879,2.861-.413,5.694-.826l1.554-.211c60.572-8.26,111.609-4.444,153.911,7.632C808.43,60.527,845.6,217.885,804.438,298.075,747.378,409.2,973.776,420.091,844.306,642Z" transform="translate(-1917 -653)" fill="#ebf3fa"/>
      <g id="Group_716" data-name="Group 716" transform="translate(-1820.618 -550.069)">
        <path id="Vector-2" data-name="Vector" d="M5.826,266.328a7.856,7.856,0,0,0,7.836,7.816H437.426a7.855,7.855,0,0,0,7.836-7.816L448.788,22.8c0-4.3-5.072-12.713-14.368-12.079L20.269.007A19.751,19.751,0,0,0,.005,20.2Z" transform="translate(112.624 245.028)" fill="#567ac4"/>
        <path id="Vector-3" data-name="Vector" d="M5.905,249.529a7.437,7.437,0,0,0,7.414,7.414H419.558a7.437,7.437,0,0,0,7.414-7.414L430.3,28.457c-.391-13.3-12.054-18.087-19.125-17.8L14.241,0A13.877,13.877,0,0,0,0,14.206Z" transform="translate(121.619 253.628)" fill="#d9e4ff"/>
        <path id="Vector-4" data-name="Vector" d="M1.577,0H498.021A1.577,1.577,0,0,1,499.6,1.577V19.82a1.577,1.577,0,0,1-1.577,1.577H1.577A1.577,1.577,0,0,1,0,19.82V1.577A1.577,1.577,0,0,1,1.577,0Z" transform="translate(583.669 539.399) rotate(-180)" fill="#567ac4"/>
        <path id="Vector-5" data-name="Vector" d="M166.851,181.4H10.443a11.838,11.838,0,0,1-7.385-2.466A7.69,7.69,0,0,1,0,172.986V8.417a7.039,7.039,0,0,1,.834-3.3A8.633,8.633,0,0,1,3.2,2.353,11.028,11.028,0,0,1,6.725.552,12.733,12.733,0,0,1,10.843.006L167.256,4.833A11.709,11.709,0,0,1,174.385,7.4a7.647,7.647,0,0,1,2.921,5.839V172.986a7.025,7.025,0,0,1-.8,3.224,8.555,8.555,0,0,1-2.267,2.732,10.891,10.891,0,0,1-3.392,1.824,12.655,12.655,0,0,1-4,.638Z" transform="translate(135.576 319.069)" fill="#becff2"/>
        <g id="Group_835" data-name="Group 835">
          <path id="Vector-6" data-name="Vector" d="M1.488,0h103.6a1.488,1.488,0,0,1,1.488,1.488V12.28a1.488,1.488,0,0,1-1.488,1.488H1.488A1.488,1.488,0,0,1,0,12.28V1.488A1.488,1.488,0,0,1,1.488,0Z" transform="translate(170.417 350.307)" fill="#fff"/>
          <path id="Vector-7" data-name="Vector" d="M1.488,0h103.6a1.488,1.488,0,0,1,1.488,1.488V12.28a1.488,1.488,0,0,1-1.488,1.488H1.488A1.488,1.488,0,0,1,0,12.28V1.488A1.488,1.488,0,0,1,1.488,0Z" transform="translate(170.626 372.293)" fill="#fff"/>
          <path id="Vector-8" data-name="Vector" d="M1.488,0h103.6a1.488,1.488,0,0,1,1.488,1.488V12.28a1.488,1.488,0,0,1-1.488,1.488H1.488A1.488,1.488,0,0,1,0,12.28V1.488A1.488,1.488,0,0,1,1.488,0Z" transform="translate(171.249 394.742)" fill="#fff"/>
          <path id="Vector-9" data-name="Vector" d="M1.488,0h103.6a1.488,1.488,0,0,1,1.488,1.488V12.28a1.488,1.488,0,0,1-1.488,1.488H1.488A1.488,1.488,0,0,1,0,12.28V1.488A1.488,1.488,0,0,1,1.488,0Z" transform="translate(171.249 438.715)" fill="#fff"/>
          <path id="Vector-10" data-name="Vector" d="M1.488,0h103.6a1.488,1.488,0,0,1,1.488,1.488V12.28a1.488,1.488,0,0,1-1.488,1.488H1.488A1.488,1.488,0,0,1,0,12.28V1.488A1.488,1.488,0,0,1,1.488,0Z" transform="translate(171.461 416.729)" fill="#fff"/>
          <path id="Vector-11" data-name="Vector" d="M1.488,0h103.6a1.488,1.488,0,0,1,1.488,1.488V12.28a1.488,1.488,0,0,1-1.488,1.488H1.488A1.488,1.488,0,0,1,0,12.28V1.488A1.488,1.488,0,0,1,1.488,0Z" transform="translate(171.461 460.701)" fill="#fff"/>
        </g>
        <path id="Vector-12" data-name="Vector" d="M1.488,0H151.743a1.488,1.488,0,0,1,1.488,1.488V12.28a1.488,1.488,0,0,1-1.488,1.488H1.488A1.488,1.488,0,0,1,0,12.28V1.488A1.488,1.488,0,0,1,1.488,0Z" transform="translate(346.782 336.539)" fill="#fff"/>
        <path id="Vector-13" data-name="Vector" d="M1.488,0H151.743a1.488,1.488,0,0,1,1.488,1.488V12.28a1.488,1.488,0,0,1-1.488,1.488H1.488A1.488,1.488,0,0,1,0,12.28V1.488A1.488,1.488,0,0,1,1.488,0Z" transform="translate(347.257 358.543)" fill="#fff"/>
        <path id="Vector-14" data-name="Vector" d="M1.488,0H89.309A1.488,1.488,0,0,1,90.8,1.488V12.28a1.488,1.488,0,0,1-1.488,1.488H1.488A1.488,1.488,0,0,1,0,12.28V1.488A1.488,1.488,0,0,1,1.488,0Z" transform="translate(347.257 380.992)" fill="#fff"/>
        <g id="Group" transform="translate(399.368 413.867)" opacity="0.51">
          <path id="Vector-15" data-name="Vector" d="M35.766,21.786H33.432a2.1,2.1,0,0,1-2.1-2.1V11.7a5.173,5.173,0,0,0-5.173-5.17H11.7A5.173,5.173,0,0,0,6.53,11.7v7.978a2.1,2.1,0,0,1-2.1,2.1H2.1a2.1,2.1,0,0,1-2.1-2.1V11.7A11.7,11.7,0,0,1,11.7,0h14.46a11.7,11.7,0,0,1,11.7,11.7v7.978a2.1,2.1,0,0,1-2.1,2.108Z" transform="translate(5.173)" fill="#fff"/>
          <path id="Vector-16" data-name="Vector" d="M43.834,0H4.377A4.38,4.38,0,0,0,0,4.38V34.652a4.377,4.377,0,0,0,4.377,4.377H43.834a4.377,4.377,0,0,0,4.377-4.377V4.38A4.38,4.38,0,0,0,43.834,0ZM29.75,29.267a1.622,1.622,0,0,1-1.577,2H20.049a1.622,1.622,0,0,1-1.577-2l1.9-7.9a7.314,7.314,0,1,1,7.493,0Z" transform="translate(0 23.667)" fill="#fff"/>
        </g>
        <g id="Group_621" data-name="Group 621" transform="translate(472.787 129.961)">
          <path id="Vector-17" data-name="Vector" d="M2.04,34.715A6.442,6.442,0,0,1,7.019,33C26.575,34.76,63.063,25.329,86.908.9c1.656-1.7,4.68-.737,6.572.682C120,21.429,163.964,25.538,179.223,26.378a6.446,6.446,0,0,1,6.046,5.774c13.88,134.186-73.4,182.81-91.5,191.394a6.45,6.45,0,0,1-6.167-.357C-2.615,166.936,1.249,93.776,0,39.576A6.466,6.466,0,0,1,2.04,34.715Z" transform="translate(0 0)" fill="#389b66"/>
          <path id="Vector-18" data-name="Vector" d="M62.5,37.966H58.417a3.663,3.663,0,0,1-3.667-3.659V20.4a9.025,9.025,0,0,0-9.035-9.015H20.446A9.025,9.025,0,0,0,11.411,20.4V34.307a3.664,3.664,0,0,1-3.666,3.659H3.667A3.661,3.661,0,0,1,0,34.307V20.4A20.423,20.423,0,0,1,20.446,0h25.27A20.409,20.409,0,0,1,66.161,20.4V34.307A3.664,3.664,0,0,1,62.5,37.966Z" transform="translate(60.299 47.458)" fill="#fff" opacity="0.61"/>
          <path id="Vector-19" data-name="Vector" d="M76.651,0h-69A7.647,7.647,0,0,0,0,7.639V60.476a7.647,7.647,0,0,0,7.655,7.639h69a7.647,7.647,0,0,0,7.655-7.639V7.639A7.647,7.647,0,0,0,76.651,0ZM52.025,51.068a2.833,2.833,0,0,1-2.758,3.49H35.039a2.829,2.829,0,0,1-2.758-3.492L35.6,37.278a12.795,12.795,0,1,1,13.1,0Z" transform="translate(51.365 88.773)" fill="#fff" opacity="0.61"/>
        </g>
        <g id="Group_620" data-name="Group 620" transform="translate(0 0)">
          <path id="Vector-20" data-name="Vector" d="M42.368,0s9.659.511,10.845,20.379c0,0-22.4,20.083-52.663,24.862-2.272.36,3.177-15.507,3.995-17.657C8.442,17.358,20.714,10.773,42.368,0Z" transform="matrix(0.994, -0.111, 0.111, 0.994, 39.77, 235.017)" fill="url(#linear-gradient)"/>
          <path id="Vector-21" data-name="Vector" d="M136.247,76.079H115.868S53.3,6.973,12.258,0c0,0-28.569,36.467,1.521,104.6,2.42,5.48,9.19,7.914,14.237,4.69a8.163,8.163,0,0,0,3.252-3.878L28.843,47.253S82.219,93.934,91.5,102.943,147.933,106.435,136.247,76.079Z" transform="matrix(0.994, -0.111, 0.111, 0.994, 43.539, 134.519)" fill="#263238"/>
          <path id="Vector-22" data-name="Vector" d="M.241,18.3A76.654,76.654,0,0,1,42.048,0L48.7,4.059A72.32,72.32,0,0,1,36.722,16.914c-7.113,4.132-18.1,9.729-27.21,10.943C.649,29.041-.658,23.689.241,18.3Z" transform="matrix(0.994, -0.111, 0.111, 0.994, 5.384, 342.927)" fill="url(#linear-gradient-2)"/>
          <path id="Vector-23" data-name="Vector" d="M8.647,10.242c5.262,1.7,7.579,9.159,20.937,4.229A118.213,118.213,0,0,0,57.051,0c.109.963.2,1.968.279,3.037,0,0-23.622,22.467-53.878,27.249A3.012,3.012,0,0,1,.2,26.227,75.853,75.853,0,0,1,8.647,10.242Z" transform="matrix(0.994, -0.111, 0.111, 0.994, 37.621, 252.707)" fill="#91b3fa"/>
          <path id="Vector-24" data-name="Vector" d="M1.117,7.769A70.376,70.376,0,0,1,7.538,1.376c-.9,5.393.408,10.745,9.263,9.567C25.909,9.729,36.9,4.132,44.01,0,35.094,7.6,21.524,15.678,4.4,15.2A4.49,4.49,0,0,1,1.117,7.769Z" transform="matrix(0.994, -0.111, 0.111, 0.994, 0, 360.555)" fill="#91b3fa"/>
          <path id="Vector-25" data-name="Vector" d="M159.985,0,64.513,1.033S9.993,46.139.1,114.93c0,0-1.641,5.061,8.216,5.927,0,0,32.96-21.529,54.456-59.592,26.369-46.678,78.572-25.672,78.572-25.672,25.082,5.536,45.045,3.476,59.656-19.005Z" transform="matrix(0.994, -0.111, 0.111, 0.994, 29.307, 227.508)" fill="#37474f"/>
          <path id="Vector-26" data-name="Vector" d="M82.774,0S72.495,51.508,22.137,71.884L4.226,69.773,0,76.512l42.016,1.34S77.93,63.615,96.96,24.865C97.589,23.583,108.068,1.946,82.774,0Z" transform="matrix(0.994, -0.111, 0.111, 0.994, 95.249, 142.742)" fill="#ffb27d"/>
          <path id="Vector-27" data-name="Vector" d="M1.6,125.5S13.283,93.732,15.8,62.862c0,0-8.551-7.347-13.894-10.519a3.866,3.866,0,0,1-1.51-5.025c3.931-8.14,27.69-40.1,29.471-40.542,9.673-2.415,49.35-21.28,77.294,16.942,12,16.4-2.378,66.9-56.787,119.2C32.863,145.781,16.485,140.737,1.6,125.5Z" transform="matrix(0.994, -0.111, 0.111, 0.994, 164.96, 85.199)" fill="#2a4e96"/>
          <path id="Vector-28" data-name="Vector" d="M111.6,0S79.128,38.449,37.622,44.068c0,0-10.728-9.771-18.7-6.289S0,56.686,0,56.686H53.319s50.4-1.775,75.585-32.338C126.853,13.654,120.784,7.264,111.6,0Z" transform="matrix(0.994, -0.111, 0.111, 0.994, 108.15, 161.813)" fill="#ffb27d"/>
          <path id="Vector-29" data-name="Vector" d="M22.69,0l7.1,23.7a2.6,2.6,0,0,1-1.011,2.9c-3.42,2.345-12.361,7-24.625,2.476a3.866,3.866,0,0,1-2.485-3.319L0,5.095Z" transform="matrix(0.994, -0.111, 0.111, 0.994, 205.325, 60.381)" fill="#ffb27d"/>
          <path id="Vector-30" data-name="Vector" d="M0,16.2S3.492,40.763,12.928,48.3s27.821,1.868,34.03-16.652L34.582,0Z" transform="matrix(0.994, -0.111, 0.111, 0.994, 182.597, 27.313)" fill="#ffb27d"/>
          <path id="Vector-31" data-name="Vector" d="M51.492,41.167a1.214,1.214,0,0,1-1.58-.974C49.571,37.926,48.72,33.437,47,30.38c0,0,.9-3.221-8.146,1.647s-22.629,12-30.629,7.761c-7.8-4.151-15.7-25.046,4.913-21.177a1.214,1.214,0,0,0,1.446-1.273C14.333,13.9,14.674,6,22.68,3.466c7.487-2.373,11.585,1.008,13.274,3.048a1.209,1.209,0,0,0,1.893-.031C40.08,3.556,46.18-2.678,55.155,1.275c7.384,3.255,8.534,7.816,8.411,10.639a1.212,1.212,0,0,0,1.728,1.156c2.261-1.041,5.9-1.583,9.385,2.792C79.5,21.9,72.61,27.134,70.545,28.507a1.22,1.22,0,0,0-.558,1c-.02,3.138-.508,16.833-7.373,24.566a1.225,1.225,0,0,1-2.038-.352L55.291,41.133a1.223,1.223,0,0,0-1.5-.69Z" transform="matrix(0.994, -0.111, 0.111, 0.994, 164.88, 8.49)" fill="url(#linear-gradient-3)"/>
          <path id="Vector-32" data-name="Vector" d="M68.4,87.837,44.466,8.02a8.163,8.163,0,0,0-7.258-5.8L4.9.011A4.584,4.584,0,0,0,.259,6.1L27.013,82.326a6.717,6.717,0,0,0,5.656,4.453L64.493,90.31Z" transform="matrix(0.994, -0.111, 0.111, 0.994, 39.699, 141.129)" fill="#f99746"/>
          <path id="Vector-33" data-name="Vector" d="M1.228,8.591C3.014,12.2,6.1,14.311,8.12,13.309s2.208-4.746.422-8.341S3.667-.752,1.649.247-.565,4.984,1.228,8.591Z" transform="matrix(0.994, -0.111, 0.111, 0.994, 65.539, 164.885)" fill="#fff"/>
          <path id="Vector-34" data-name="Vector" d="M3.06,9.49h.156l67.8-3.417A3.038,3.038,0,0,0,70.711,0L2.909,3.432A3.037,3.037,0,0,0,3.06,9.5Z" transform="matrix(0.994, -0.111, 0.111, 0.994, 109.732, 214.618)" fill="#f99746"/>
        </g>
      </g>
      <path id="Vector-35" data-name="Vector" d="M46.691,10.078c-5.5-5.343-12.612-11.915-21.039-9.6C17.743,2.668,14.715,11.324,13.289,18.52,11.508,27.8,10.047,37.168,8.569,46.5S5.683,65.4,4.329,74.855Q3.18,82.87,2.049,90.885c-.374,2.672-.73,5.343-1.1,8.015s-.8,5.236-.944,7.872a.746.746,0,0,0,1.461.16c1.015-4.453,1.443-9.083,2.084-13.59L5.522,79.7Q7.535,66.182,9.584,52.645t4.2-27.055C15,17.95,15.57,8.457,22.357,3.417A13.06,13.06,0,0,1,35.023,2.223a37.5,37.5,0,0,1,11.508,8.05C46.655,10.416,46.8,10.238,46.691,10.078Z" transform="translate(-1131.614 -182.56)" fill="#263238"/>
      <path id="Vector-36" data-name="Vector" d="M18.426,15.9s-11.241-4.043-16.8,4.168,1.087,29.1,52.32,40.965A144.459,144.459,0,0,0,41.62,14.725C30.735-9.319,11.14-.254,18.426,15.9Z" transform="translate(-1110.884 -193.833)" fill="#ffc727"/>
      <path id="Vector-37" data-name="Vector" d="M38.377,42.311a43.511,43.511,0,0,0-2.583-4.15c-.855-1.318-1.781-2.636-2.6-3.936-.659-1-1.318-1.959-2-2.939a2.106,2.106,0,0,1,.089-.73,9.79,9.79,0,0,0,.178-1.336c.125-.962.267-1.924.41-2.868s.3-1.924.481-2.868a14.246,14.246,0,0,1,.677-3.01c0-.16-.214-.232-.232,0a9.545,9.545,0,0,1-.463,1.781L32,23.556c-.249.962-.481,1.941-.695,2.921s-.374,1.781-.534,2.725a11.786,11.786,0,0,1-.2,1.318c-.909-1.318-1.781-2.6-2.815-3.865-2.708-3.562-5.594-7.035-8.569-10.4v-.089A92.794,92.794,0,0,1,20.527.135c0-.142-.178-.214-.214,0a54.99,54.99,0,0,0-1.924,15.317c-1.051-1.193-2.138-2.387-3.224-3.562-2.512-2.672-5.041-5.343-7.642-7.908a.113.113,0,1,0-.16.16c4.311,4.649,8.408,9.493,12.47,14.409a91.012,91.012,0,0,0-9.352.356c-3.563.249-6.93.695-10.386,1.175-.143,0-.107.249,0,.232a95.876,95.876,0,0,1,10.35-.926c3.349-.142,6.663,0,10.012,0q3.242,4.007,6.4,8.086H24.019c-1.55,0-3.117.125-4.667.267a70.45,70.45,0,0,0-9.459,1.407.125.125,0,0,0,0,.231c3.153-.356,6.306-.659,9.477-.766h6.894a2.779,2.779,0,0,0,1.283-.107c1.39,1.781,2.761,3.562,4.133,5.343q1.621,2.137,3.207,4.328c1.087,1.478,2.049,3.117,3.242,4.506a.225.225,0,1,0,.249-.374Z" transform="translate(-1098.253 -178.621)" fill="#263238"/>
      <path id="Vector-38" data-name="Vector" d="M11.145.268A35.281,35.281,0,0,0,5.658.019c-1.781,0-3.563,0-5.487.107a.125.125,0,1,0,0,.231C1.952.232,3.876.2,5.729.215s3.563.2,5.344.16Z" transform="translate(-1098.686 -166.571)" fill="#263238"/>
      <path id="Vector-39" data-name="Vector" d="M.837,5.36a52.4,52.4,0,0,1,.8-5.219c0-.16-.2-.214-.214,0C1.158,1.922.819,3.578.57,5.306.445,6.161.321,7.087.214,7.889A13.961,13.961,0,0,0,0,10.329a.16.16,0,0,0,.3,0A13.818,13.818,0,0,0,.57,7.889Z" transform="translate(-1072.31 -167.531)" fill="#263238"/>
      <path id="Vector-40" data-name="Vector" d="M1.8.079C1.356,1.771.91,3.5.59,5.244.429,6.117.3,7.025.18,7.88a10.684,10.684,0,0,0-.16,2.6H.144a14.246,14.246,0,0,0,.41-2.458C.661,7.167.8,6.241.946,5.475c.3-1.781.624-3.562,1.069-5.343C2.015.007,1.8-.064,1.8.079Z" transform="translate(-1076.606 -181.627)" fill="#263238"/>
      <path id="Vector-41" data-name="Vector" d="M25.167,62.181c-.285-3.224-.606-6.447-.944-9.671Q23.208,42.945,21.907,33.4c-.855-6.341-1.657-12.7-2.69-19.022a47.529,47.529,0,0,0-1.942-8.62A8.211,8.211,0,0,0,12.484.413C6.462-1.671,2.4,4.581.014,9a.112.112,0,0,0,.2.107C1.67,7.021,5.7,1.144,10.275,1.411c3.082.178,5.54,2.369,7.019,10.045,3.67,19.111,7,57.9,7.375,60.432.214,1.354,1.158,1.3,1.176-.143C25.809,68.5,25.435,65.3,25.167,62.181Z" transform="translate(-1166.722 -139.82)" fill="#263238"/>
      <path id="Vector-42" data-name="Vector" d="M26.454,11.916S31.8-6.7,20.077,2.6C.695,18.1,0,51.777,0,51.777S34.471,31.758,38.746,18.56C45.141-1.05,26.454,11.916,26.454,11.916Z" transform="translate(-1191.594 -145.216)" fill="#ffc727"/>
      <path id="Vector-43" data-name="Vector" d="M30.783,11.506c-2.69.552-5.344.908-8.177,1.3l-3.884.552c-.873.125-1.781.2-2.637.3,2.583-3.562,5.166-7.124,7.624-10.686,0-.142-.125-.285-.232-.178a78.888,78.888,0,0,0-5.843,6.661c-.5-1.443-1.015-2.868-1.532-4.31S14.893,1.817,14.465.107a.107.107,0,0,0-.214,0c.463,1.692.8,3.438,1.247,5.147s.944,3.277,1.532,4.88c-1.265,1.639-2.476,3.331-3.652,5.023-.588-1.674-1.336-3.313-1.781-5.023,0-.142-.267,0-.214,0,.623,1.888.944,3.847,1.532,5.753-.8,1.158-1.585,2.315-2.334,3.473-1.407,2.155-2.708,4.346-3.99,6.554a.463.463,0,0,0-.3.517C4.115,30.189,2.031,34.019,0,37.883c0,.125.125.232.2.107,2.049-3.812,4.329-7.516,6.68-11.167A4.472,4.472,0,0,1,8,26.609l1.194-.267c.891-.2,1.781-.41,2.654-.641,1.781-.427,3.474-.837,5.255-1.158.143,0,0-.232,0-.214-2.084.392-4.169.641-6.288.873-1,.125-1.977.249-2.975.41H7.624c1.247-1.888,2.494-3.758,3.777-5.593s2.53-3.562,3.83-5.343c1.194-.16,2.369-.481,3.563-.695L22.8,13.2c2.654-.534,5.344-1.122,8-1.567C30.908,11.7,30.783,11.488,30.783,11.506Z" transform="translate(-1189.314 -135.632)" fill="#263238"/>
      <path id="Vector-44" data-name="Vector" d="M1.482,4.658,1,3.18A30.665,30.665,0,0,1,.217.063c0-.142-.249,0-.214,0C.217,1.114.467,2.165.716,3.2a20.551,20.551,0,0,0,.891,3.1A.214.214,0,0,0,2,6.172C1.856,5.709,1.642,5.193,1.482,4.658Z" transform="translate(-1180.803 -126.949)" fill="#263238"/>
      <path id="Vector-45" data-name="Vector" d="M9.477,0C7.91.235,6.324.342,4.739.484S1.585.841,0,1.072v.143C1.585,1.108,3.153.983,4.739.769S7.892.342,9.477.235C9.6.217,9.6-.032,9.477,0Z" transform="translate(-1164.57 -128.421)" fill="#263238"/>
      <path id="Vector-46" data-name="Vector" d="M60.586,100.736c-.624-13.7-1.5-27.357-2.868-40.965-.677-6.8-1.443-13.59-2.4-20.358a147.376,147.376,0,0,0-3.919-19.681A38.111,38.111,0,0,0,44.821,5.84,14.84,14.84,0,0,0,31.585.07c-6,.73-10.831,4.506-15,8.62-4.685,4.6-8.907,9.618-13.307,14.551C2.173,24.488,1.087,25.735,0,27c0,.107,0,.267.178.16,4.24-4.88,8.64-9.6,13.254-14.142C17.69,8.85,22.09,4.273,27.986,2.545a14.878,14.878,0,0,1,8.462-.2A13.272,13.272,0,0,1,42.22,6a30.1,30.1,0,0,1,6.52,12.663c3.688,12.592,5.006,25.79,6.377,38.792s2.316,26.467,2.993,39.718,1.176,26.716,2.458,39.985c.16,1.639.374,3.277.588,4.916.143,1.1,1.781,1.1,1.781,0C61.833,128.289,61.192,114.539,60.586,100.736Z" transform="translate(-1176.773 -201.977)" fill="#263238"/>
      <path id="Vector-47" data-name="Vector" d="M50.646,19.527S58.466,5.047,49.221.416,9.032,30.285,0,80.778c0,0,49.969-22.1,66.928-44.117S64.666,9.784,50.646,19.527Z" transform="translate(-1211.582 -211.335)" fill="#ffc727"/>
      <path id="Vector-48" data-name="Vector" d="M50.147,14.4c-5.611,0-11.223-.427-16.834-.392l3.171-3.562a54.149,54.149,0,0,0,4.382-5.094c0-.107,0-.285-.2-.2a40.2,40.2,0,0,0-4.258,4.275c-1.407,1.478-2.8,2.992-4.2,4.488-2.138,2.333-4.24,4.684-6.342,7.124V11.7c0-3.847,0-7.73.3-11.595,0-.142-.232-.125-.232,0-.267,3.865-.677,7.73-.855,11.595-.107,1.906-.143,3.812-.178,5.717v4.613c-.338.374-.677.73-1,1.1-4.489,5.112-8.747,10.419-12.9,15.8a7.123,7.123,0,0,0,0-.891,15.123,15.123,0,0,0-.2-1.781c-.143-1.282-.321-2.565-.517-3.847s-.374-2.422-.57-3.562-.552-2.725-.659-4.079a.125.125,0,1,0-.232,0,39.284,39.284,0,0,1,.481,4.114c.107,1.229.232,2.458.338,3.7s.214,2.476.356,3.7a15.076,15.076,0,0,0,.178,1.781,7.586,7.586,0,0,0,.107.891,1.781,1.781,0,0,0,.232.712L8.391,42.454C5.558,46.212,2.779,50.006,0,53.782c0,.125,0,.285.16.16C2.8,50.5,5.5,47.138,8.266,43.79c2.049.089,4.151,0,6.2-.089s4.329,0,6.5,0a.125.125,0,0,0,0-.232H8.5c2.4-2.939,4.863-5.842,7.3-8.763.891-1.051,1.781-2.119,2.69-3.17a11.652,11.652,0,0,0,2.494,0h8.5c3.812,0,7.624-.2,11.455-.2a.116.116,0,0,0,0-.231c-3.812,0-7.642-.214-11.455-.3l-5.54-.142H19.2l6.413-7.605a.249.249,0,0,0,.107-.125c2.049-2.422,4.1-4.845,6.164-7.231l.855-.98c5.825.178,11.651-.2,17.458-.089a.125.125,0,0,0-.053-.232Z" transform="translate(-1203.745 -194.435)" fill="#263238"/>
      <path id="Vector-49" data-name="Vector" d="M1.465,0H.094c-.125,0-.125.214,0,.214H1.447A.125.125,0,0,0,1.465,0Z" transform="translate(-1157.93 -170.113)" fill="#263238"/>
      <path id="Vector-50" data-name="Vector" d="M10.586.181Q7.9.181,5.241.074H2.551A10.69,10.69,0,0,0,.04.074c-.089,0,0,.142,0,.16A9.835,9.835,0,0,0,2.551.412h8.034a.125.125,0,0,0,0-.232Z" transform="translate(-1170.079 -170.276)" fill="#263238"/>
      <path id="Vector-51" data-name="Vector" d="M11.045,1A74.016,74.016,0,0,0,0,0V.089c3.67.338,7.339.534,10.991,1.14C11.134,1.336,11.187,1.015,11.045,1Z" transform="translate(-1186.25 -154.226)" fill="#263238"/>
      <path id="Vector-52" data-name="Vector" d="M1.373,7.325l-.107-.98C1.159,5.633,1.052,4.9.927,4.19.714,2.819.482,1.448.215.094c0-.142-.232-.107-.214,0C.161,1.5.322,2.908.446,4.333c0,.695.125,1.389.178,2.084A5.663,5.663,0,0,0,.91,8.394a.29.29,0,0,0,.481,0A2.867,2.867,0,0,0,1.373,7.325Z" transform="translate(-1191.596 -176.621)" fill="#263238"/>
      <path id="Vector-53" data-name="Vector" d="M19.774,7.457C17.992,4.126,15.712-.256,11.241.012,7.553.243,5.9,4,5.113,7.136c-2.441,9.618-2.619,19.752-3.082,29.6C1.033,57.558.125,78.415,0,99.253V116.6c0,5.788,0,11.826.41,17.7a.445.445,0,0,0,.873,0c0-5.04-.16-10.1-.178-15.139s0-9.832.107-14.747q.249-14.961.8-29.886c.356-9.9.8-19.806,1.211-29.708l.641-14.836c.214-4.791.428-9.582.98-14.355.3-2.654.695-5.343,1.247-7.961A11.273,11.273,0,0,1,8.408,2.327a5.007,5.007,0,0,1,6.5-.463,13.7,13.7,0,0,1,4.632,5.753C19.649,7.706,19.845,7.6,19.774,7.457Z" transform="translate(-1136.46 -217.857)" fill="#263238"/>
      <path id="Vector-54" data-name="Vector" d="M9.491,8.3S5.821-4.668,13.927,1.815c13.521,10.793,14,34.25,14,34.25S3.915,22.12.922,12.911C-3.513-.767,9.491,8.3,9.491,8.3Z" transform="translate(-1127.388 -220.285)" fill="#ffc727"/>
      <path id="Vector-55" data-name="Vector" d="M16.738,17.134c-.214-.356-.463-.712-.677-1.069a7.622,7.622,0,0,0,0-1.1V13.287a28.95,28.95,0,0,1,.125-3.277.116.116,0,0,0-.232,0c0,1.069-.107,2.137-.125,3.206v2.315c-.944-1.46-1.906-2.921-2.922-4.346-.285-.41-.588-.8-.891-1.211a25.91,25.91,0,0,1,0-4.239c0-1.514,0-3.01.089-4.524,0-.142-.214-.142-.232,0,0,1.567-.107,3.117-.2,4.684a30.272,30.272,0,0,0,0,3.366C9.363,6.109,6.9,3.063,4.41.036c0-.089-.267,0-.178.143C5.782,2.137,7.243,4.132,8.7,6.163,5.871,5.5,3,5.13.135,4.7c-.143,0-.214.214,0,.232C3.163,5.4,6.156,6.163,9.149,6.822c1.158,1.621,2.3,3.259,3.42,4.88.463.659.909,1.336,1.372,2.013H13.8L12.6,13.572c-.659,0-1.336-.142-2-.2-1.39-.107-2.779-.178-4.151-.249a.116.116,0,1,0,0,.232,34.622,34.622,0,0,1,4.079.285l2.138.249.944.125h.285l2.262,3.473c1.354,1.995,2.565,4.15,4.008,6.073a.112.112,0,1,0,.2-.107A61.818,61.818,0,0,0,16.738,17.134Z" transform="translate(-1121.257 -210.991)" fill="#263238"/>
      <path id="Vector-56" data-name="Vector" d="M.3,4.818V3.3A23.594,23.594,0,0,1,.426.134c0-.16-.232-.2-.232,0,0,1.051-.107,2.084-.16,3.135v2.3a2.191,2.191,0,0,0,0,.766.107.107,0,0,0,.2,0,2.173,2.173,0,0,0,0-.677A3.469,3.469,0,0,0,.3,4.818Z" transform="translate(-1110.734 -213.296)" fill="#263238"/>
      <path id="Vector-57" data-name="Vector" d="M5.817.588A26.79,26.79,0,0,0,3.109.3C2.183.232,1.132.142.134,0c-.16,0-.2.231,0,.231C2.022.356,3.911.695,5.817.766,5.888.766,5.924.606,5.817.588Z" transform="translate(-1119.278 -203.688)" fill="#263238"/>
      <path id="Vector-58" data-name="Vector" d="M41.222,9.519C36.181,5.725,31.638.275,24.851.008,19.239-.206,15.32,4,13.076,8.7a47.727,47.727,0,0,0-2.761,7.748Q8.782,21.79,7.464,27.134,4.828,37.7,2.957,48.506c-.677,3.99-1.318,7.979-1.781,12A98.243,98.243,0,0,0,0,72.8a.641.641,0,0,0,1.247.142c.677-3.366.98-6.839,1.461-10.223S3.723,55.9,4.311,52.5q1.781-10.206,4.008-20.3C9.78,25.851,11.205,19.4,13.254,13.206c1.461-4.435,3.812-9.6,8.6-11.2C29.144-.42,35.771,5.743,41.1,9.75,41.186,9.768,41.347,9.608,41.222,9.519Z" transform="translate(-1157.356 -150.761)" fill="#263238"/>
      <path id="Vector-59" data-name="Vector" d="M17.551,16.233S12.9,2.875,19.564.346C29.646-3.573,56.047,26.171,50.881,71.731A260.091,260.091,0,0,1,15.413,47.847C.342,35.219-3.506,18.709,3.121,14.434S17.551,16.233,17.551,16.233Z" transform="translate(-1138.904 -161.11)" fill="#ffc727"/>
      <path id="Vector-60" data-name="Vector" d="M34.3,48a33.535,33.535,0,0,0-2.458-4.6c-.855-1.567-1.781-3.117-2.636-4.649-1.781-3.01-3.563-6-5.344-8.905L22.983,28.4l.107-.534a5.87,5.87,0,0,1,.3-1.318c.214-1,.392-1.995.57-2.992.374-1.941.713-3.918,1.229-5.824,0-.142-.2-.2-.214,0-.428,1.959-1.033,3.865-1.621,5.771-.285.944-.588,1.888-.819,2.832l-.267.98c-2.173-3.562-4.364-7.124-6.752-10.508a5.04,5.04,0,0,0,.232-1.478,19.571,19.571,0,0,1,.232-1.995c.178-1.5.356-2.992.57-4.488.445-2.939.873-5.842,1.6-8.727,0-.142-.2-.178-.232,0-.73,2.868-1.514,5.735-2.066,8.638-.267,1.425-.517,2.868-.695,4.31-.107.712-.178,1.443-.249,2.155v.659c-.73-1.033-1.461-2.066-2.227-3.081C10.353,9.738,7.93,6.746,5.561,3.772c-.107-.125-.285,0-.2.125a160.99,160.99,0,0,1,11.472,16.76c.677,1.069,1.318,2.137,2,3.224l-.659-.089c-.855-.107-1.781-.16-2.583-.249L10.442,23.1C7,22.829,3.566,22.616.128,22.259c-.143,0-.2.2,0,.214,3.563.41,6.93.962,10.386,1.46l5.113.677a20.2,20.2,0,0,0,3.937.41l4.062,6.572H11.155c-.16,0-.125.232,0,.232,2.245,0,4.489.142,6.716.267,1.069,0,2.138.107,3.189.2l1.6.107a3.047,3.047,0,0,0,1.39,0c1.14,1.87,2.316,3.722,3.456,5.593s2.12,3.438,3.207,5.147a44.65,44.65,0,0,0,3.456,5.2C34.171,48.21,34.349,48.138,34.3,48Z" transform="translate(-1125.293 -147.133)" fill="#263238"/>
      <path id="Vector-61" data-name="Vector" d="M2.2.1a32.2,32.2,0,0,1-.909,4.328C.917,5.9.49,7.365.009,8.825a.143.143,0,1,0,.267,0C.739,7.4,1.131,5.958,1.487,4.479s.588-2.957.944-4.417C2.467-.009,2.218-.045,2.2.1Z" transform="translate(-1102.924 -136.067)" fill="#263238"/>
      <path id="Vector-62" data-name="Vector" d="M14.2,1.959a1.675,1.675,0,0,0-1.122-.41l-1.924-.267L7.592.837C5.1.552,2.6.321.128,0a.116.116,0,1,0,0,.232C2.461.517,4.8.873,7.147,1.176c1.14.142,2.3.321,3.438.445l1.657.178a5.541,5.541,0,0,1,1.888.338.107.107,0,0,0,.071-.178Z" transform="translate(-1129.979 -129.026)" fill="#263238"/>
      <path id="Vector-63" data-name="Vector" d="M7.36.178C6.184.071,5.008.036,3.8,0H1.249A5.932,5.932,0,0,1,.127,0c-.16,0-.178.249,0,.232a4.97,4.97,0,0,1,1.033,0h.926L3.868.338c1.176,0,2.369.143,3.563.143C7.5.428,7.5.2,7.36.178Z" transform="translate(-1108.12 -107.207)" fill="#263238"/>
      <path id="Vector-64" data-name="Vector" d="M.7,6.069c.143-.677.267-1.336.392-2.013.232-1.318.481-2.618.713-3.936,0-.142-.2-.178-.232,0L.721,3.95.293,5.873a5.256,5.256,0,0,1-.178.891,2.457,2.457,0,0,0-.107.944c0,.107.178.2.249,0A4.487,4.487,0,0,0,.7,6.069Z" transform="translate(-1094.266 -118.19)" fill="#263238"/>
      <path id="Vector-65" data-name="Vector" d="M0,0,1.425,16.154,6.253,70.691H48.971l6.021-54.536L56.774,0Z" transform="translate(-1162.646 -81.192)" fill="#37474f"/>
      <path id="Vector-66" data-name="Vector" d="M0,0,1.425,16.154H54.993L56.774,0Z" transform="translate(-1162.646 -83.143)" fill="#263238"/>
      <path id="Vector-67" data-name="Vector" d="M0,0H65.236V13.109H0Z" transform="matrix(-1, 0, 0, -1, -1101.632, -74.435)" fill="#37474f"/>
      <g id="Group_627" data-name="Group 627" transform="translate(-1397.45 -477.377)">
        <path id="Vector-68" data-name="Vector" d="M55.131,16.645,0,26.007,36.061,0l2.078,7.976,13.523,2.078Z" transform="translate(0 13.869)" fill="#456aa3"/>
        <path id="Vector-69" data-name="Vector" d="M0,28.436,45.423,3.469,90.5,0Z" transform="translate(0 11.439)" fill="#adcbf9"/>
        <path id="Vector-70" data-name="Vector" d="M36.061,13.869,0,39.876,27.392,0Z" transform="translate(0 0)" fill="#adcbf9"/>
      </g>
      <g id="Group_626" data-name="Group 626" transform="translate(-1245.731 -511.527)">
        <path id="Vector-71" data-name="Vector" d="M0,20.1,52.179,0,21.992,32.637l-3.625-7.405L4.7,25.87Z" transform="matrix(-0.636, -0.772, 0.772, -0.636, 33.182, 69.394)" fill="#456aa3"/>
        <path id="Vector-72" data-name="Vector" d="M83.07,0,43.5,33.471,0,45.8Z" transform="matrix(-0.636, -0.772, 0.772, -0.636, 52.825, 93.234)" fill="#adcbf9"/>
        <path id="Vector-73" data-name="Vector" d="M0,32.637,30.188,0,11.24,44.511Z" transform="matrix(-0.636, -0.772, 0.772, -0.636, 19.197, 52.421)" fill="#adcbf9"/>
      </g>
    </g>
    <text id="TERM_INSURANCE" data-name="TERM INSURANCE" transform="translate(585 705)" fill="#567ac4" font-size="25" font-family="Lato-Bold, Lato" font-weight="700" letter-spacing="0.06em"><tspan x="-118.606" y="0">TERM INSURANCE</tspan></text>
  </g>
</svg>
