<svg xmlns="http://www.w3.org/2000/svg" width="266.939" height="160.316" viewBox="0 0 266.939 160.316">
  <g id="Group_709" data-name="Group 709" transform="translate(-372 -243)">
    <path id="Path_1769" data-name="Path 1769" d="M634.647,403.26l-252.279-.076s-21.959-44.638-1.963-78.917,50.72-16.687,53.159-41.452a24.619,24.619,0,0,0,.016-2.478q0-.289.013-.574c.748-14.22,10.106-23.414,22.456-28.7q.6-.256,1.206-.5c19.7-7.915,39.355-11.459,59.073-1.376,20.514,10.49,4.621,24.416,46.016,19.559,22.569-2.646,24.408,17.521,25.078,30.649C589.1,332.1,656.3,303.437,634.647,403.26Z" transform="translate(0 0)" fill="#ebf3fa"/>
    <path id="Path_1770" data-name="Path 1770" d="M1798.889,1281.883s-14.389,4.383-13.408,7.01,15.682-6.04,15.682-6.04,12.224,9.113,14.259,14.132c0,0-16.739-.863-15.143,1.441s18.975,4.012,18.975,4.012,8.839,11.275,2.489,17.147-11.742,4.569-13.171,2.961-7.479-13.556-8.86-12.444.344,10.418,4.068,14.162c0,0-14.756,1.432-17.522-5.361s.191-10.895-1.6-15.062-4.4-6.533-4.428-3.965,4.241,8.97,3.181,13.645-1.384,8.182-5.76,2.816-9.251-16.557-5.751-21.133q.228-.3.44-.571a2.81,2.81,0,0,0-.44.571c-1.227-.771-5.176-.82-8.149-.736-.489.046-1.183.077-2.14.086-.425.023-.771.044-1.012.059-6.409.653-14.976,6.563-14.976,6.563l-1.017-1.1a24.09,24.09,0,0,1,17.928-6.641,27.747,27.747,0,0,0,12.862-2.8s.429-14.944,12.034-14.143C1787.433,1276.489,1795.089,1277.984,1798.889,1281.883Z" transform="translate(-1221.453 -928.65)" fill="#d2e2f9"/>
    <path id="Path_1771" data-name="Path 1771" d="M1717.02,653.712l12.111,27.086,36.109-16.149h0l15.215-6.8-12.112-27.085-28.409,12.7Z" transform="translate(-1196.901 -348.281)" fill="#a8d29f"/>
    <path id="Path_1772" data-name="Path 1772" d="M1802.091,667.43l9.4,21.034-46.133,20.629-9.4-21.034Zm-34.435,39.865,40.946-18.311a2.155,2.155,0,0,0,1.088-2.847l-7.063-15.8a2.174,2.174,0,0,0-2.872-1.1l-40.92,18.3a2.133,2.133,0,0,0-1.077,2.82l7.091,15.858a2.122,2.122,0,0,0,2,1.257,2.145,2.145,0,0,0,.809-.184Z" transform="translate(-1231.553 -380.986)" fill="#82b378"/>
    <path id="Path_1773" data-name="Path 1773" d="M1959.248,812.437a6.2,6.2,0,1,0-7.276-4.887A6.2,6.2,0,0,0,1959.248,812.437Z" transform="translate(-1405.876 -499.32)" fill="#82b378"/>
    <path id="Path_1774" data-name="Path 1774" d="M1687.83,427.137l24.222,17.136,22.844-32.292h0l9.626-13.606L1720.3,381.24l-17.972,25.4Z" transform="translate(-1170.926 -123.017)" fill="#a8d29f"/>
    <path id="Path_1775" data-name="Path 1775" d="M1584.2,476.478l29.638,1.416,1.885-39.511h0l.8-16.648-29.637-1.414L1585.4,451.4Z" transform="translate(-1078.708 -157.793)" fill="#a8d29f"/>
    <path id="Path_1776" data-name="Path 1776" d="M1758.464,417l18.8,13.3-29.188,41.251-18.8-13.3Zm-9.32,51.845,25.9-36.615a2.178,2.178,0,0,0,.343-.768,2.165,2.165,0,0,0-.279-1.626,2.174,2.174,0,0,0-.58-.61l-14.125-9.993a2.173,2.173,0,0,0-3.029.52l-25.886,36.589a2.135,2.135,0,0,0,.51,2.973l14.182,10.032a2.124,2.124,0,0,0,2.961-.505Z" transform="translate(-1207.812 -154.839)" fill="#82b378"/>
    <path id="Path_1777" data-name="Path 1777" d="M1618.1,444.22l23.008,1.1-2.415,50.476-23-1.1Zm20.033,48.718,2.139-44.8a2.155,2.155,0,0,0-2.05-2.255l-17.282-.826a2.174,2.174,0,0,0-2.275,2.068l-2.139,44.769a2.134,2.134,0,0,0,2.03,2.232l17.352.828a2.125,2.125,0,0,0,2.224-2.019Z" transform="translate(-1106.731 -179.061)" fill="#82b378"/>
    <path id="Path_1778" data-name="Path 1778" d="M1902.153,618.2a6.2,6.2,0,1,0-4.013,2.528A6.2,6.2,0,0,0,1902.153,618.2Z" transform="translate(-1351.631 -327.492)" fill="#82b378"/>
    <path id="Path_1779" data-name="Path 1779" d="M1687.218,628.593a6.2,6.2,0,1,0-2.023,4.29A6.2,6.2,0,0,0,1687.218,628.593Z" transform="translate(-1159.359 -339.748)" fill="#82b378"/>
    <path id="Path_1780" data-name="Path 1780" d="M2091.35,1196.1c.156-.023.309-.05.459-.083A1.281,1.281,0,0,0,2091.35,1196.1Z" transform="translate(-1530.009 -853.651)" fill="#f2ccaa"/>
    <path id="Path_1781" data-name="Path 1781" d="M1016.675,1098.969s2.494,7.048,1.159,7.418-2.216-8.046-2.216-8.046-7.229-2.247-9.826-1.6c0,0,5.276,6.461,3.887,6.491s-7.187-6.439-7.187-6.439-7.093-.259-7.559,4,1.64,6.038,2.7,6.142,7.6-.948,7.562-.071-4.249,2.9-6.835,2.492c0,0,3.775,6.333,7.3,5.464s4.28-3.25,6.465-3.744,3.9-.139,2.883.62-4.819.913-6.369,2.7-2.849,2.938.576,3.129,9.315-1.115,10.106-3.848q.053-.179.1-.342a1.343,1.343,0,0,1-.1.342c.668.267,1.854,1.838,2.695,3.053.125.21.318.5.6.881.11.176.209.321.274.423,1.627,2.753,1.8,7.915,1.8,7.915l.739.086a12.046,12.046,0,0,0-2.637-9.122,13.8,13.8,0,0,1-2.675-5.972s5.823-4.523,2.085-8.942C1022.194,1101.992,1019.348,1099.36,1016.675,1098.969Z" transform="translate(-554.276 -765.665)" fill="#aec3ff" opacity="0.3"/>
    <path id="Path_1782" data-name="Path 1782" d="M941.78,1324.494s7.345,6.607,6.033,7.894-7.655-7.948-7.655-7.948-9.8,2.029-12.406,4.451c0,0,10.2,4.134,8.609,5.066s-12.4-2.88-12.4-2.88-8.389,4.255-6.24,9.512,5.717,5.977,7.015,5.418,8.213-5.99,8.725-4.944-3.1,6.1-6.352,7.3c0,0,8.381,4.949,11.914,1.674s2.91-6.536,5.131-8.52,4.429-2.666,3.735-1.13-5.013,4.161-5.68,7.237-1.447,5.253,2.643,3.275,10.1-7.286,9.287-10.978l-.1-.462a1.778,1.778,0,0,1,.1.462c.944-.118,3.311.949,5.054,1.823.279.163.682.374,1.25.647.247.129.44.239.585.315,3.634,2.167,7.09,8.062,7.09,8.062l.912-.375a15.793,15.793,0,0,0-8.824-8.928,18.225,18.225,0,0,1-6.876-5.237s3.893-9.011-3.234-11.755C950.093,1324.466,945.125,1323.231,941.78,1324.494Z" transform="translate(-485.306 -970.89)" fill="#d2e2f9"/>
    <path id="Path_1783" data-name="Path 1783" d="M851.533,830.966l-.013-.018A.048.048,0,0,1,851.533,830.966Z" transform="translate(-426.714 -526.644)" fill="#7f2722"/>
    <path id="Path_1784" data-name="Path 1784" d="M794.9,970.52s3.979,4.1,6.827,3.263c0,0,.379-.551-.9-.732S798.157,972.946,794.9,970.52Z" transform="translate(-376.329 -651.748)" fill="#94b0ed"/>
    <path id="Path_1785" data-name="Path 1785" d="M1135.944,392.719a2.053,2.053,0,0,0-.263-.416,1.916,1.916,0,0,0-.256-.258l-.384-.391-.1.075c-1.97-.964-6.037.058-10.152,2.744-4.97,3.245-8.164,7.716-7.246,10.092l-.14.1.55.551.082.082.016.015a2.3,2.3,0,0,0,.478.33c1.945,1.019,6.058,0,10.217-2.711C1133.82,399.637,1137.039,395.062,1135.944,392.719Z" transform="translate(-663.301 -132.034)" fill="#ffa412"/>
    <path id="Path_1786" data-name="Path 1786" d="M1119.4,389.1c5.066-3.3,10.061-4.092,11.156-1.753s-2.123,6.917-7.19,10.225-10.061,4.092-11.157,1.752S1114.335,392.406,1119.4,389.1Z" transform="translate(-658.506 -127.253)" fill="#ffb93e"/>
    <path id="Path_1787" data-name="Path 1787" d="M1125.21,406.536a3.979,3.979,0,0,1-1.116-.142,1.933,1.933,0,0,1-1.3-1.039c-.458-1-.033-2.476,1.191-4.165a19.934,19.934,0,0,1,5.145-4.713c3.256-2.132,6.568-3.162,8.439-2.624a1.932,1.932,0,0,1,1.3,1.04c.457,1,.034,2.476-1.192,4.165a19.931,19.931,0,0,1-5.145,4.712C1129.85,405.529,1127.13,406.536,1125.21,406.536Zm11.254-12.444c-1.837,0-4.535,1-7.131,2.7a19.616,19.616,0,0,0-5.048,4.62c-1.126,1.554-1.542,2.935-1.154,3.792a1.578,1.578,0,0,0,1.068.837,3.621,3.621,0,0,0,1,.126c1.837,0,4.535-1,7.132-2.7a19.588,19.588,0,0,0,5.047-4.62c1.127-1.554,1.542-2.936,1.155-3.792a1.587,1.587,0,0,0-1.068-.837,3.609,3.609,0,0,0-1-.131Z" transform="translate(-667.952 -134.116)" fill="#ffa412"/>
    <path id="Path_1788" data-name="Path 1788" d="M1152.068,426.651a2.715,2.715,0,0,0,.417-.226,1.916,1.916,0,0,0,.338-.287,2.585,2.585,0,0,0,.293-.377,4.726,4.726,0,0,0,.277-.493q.245-.486.5-.906a5.612,5.612,0,0,1,.576-.781,4.744,4.744,0,0,1,.727-.661,5.108,5.108,0,0,1,.956-.542,3.542,3.542,0,0,1,.856-.267,1.474,1.474,0,0,1,.65.022.779.779,0,0,1,.423.294.982.982,0,0,1,.169.551l1.2-.525-.063.644-1.211.532a2.737,2.737,0,0,1-.33.748,3.92,3.92,0,0,1-.582.714,5.381,5.381,0,0,1-.809.647,6.859,6.859,0,0,1-1.018.551l.11-1.163a3.4,3.4,0,0,0,1.022-.639,1.142,1.142,0,0,0,.384-.679.438.438,0,0,0-.045-.279.3.3,0,0,0-.081-.081.282.282,0,0,0-.106-.043.717.717,0,0,0-.3.012,2.059,2.059,0,0,0-.382.129,2.493,2.493,0,0,0-.377.2,1.879,1.879,0,0,0-.324.274,2.621,2.621,0,0,0-.293.38c-.095.145-.194.318-.3.518q-.255.486-.515.906a5.426,5.426,0,0,1-.581.781,4.666,4.666,0,0,1-.729.661,5.018,5.018,0,0,1-.95.539,3.491,3.491,0,0,1-.872.273,1.425,1.425,0,0,1-.644-.026.741.741,0,0,1-.408-.3,1.1,1.1,0,0,1-.16-.559l-1.113.488.062-.639,1.1-.486a3.3,3.3,0,0,1,.279-.741,3.745,3.745,0,0,1,.537-.766,5.141,5.141,0,0,1,.834-.737,6.372,6.372,0,0,1,1.164-.65l-.11,1.163a3.933,3.933,0,0,0-.67.364,2.572,2.572,0,0,0-.441.386,1.5,1.5,0,0,0-.251.382,1.171,1.171,0,0,0-.095.351.55.55,0,0,0,.04.3.305.305,0,0,0,.178.151.6.6,0,0,0,.291.011A1.651,1.651,0,0,0,1152.068,426.651Z" transform="translate(-691.23 -159.363)" fill="#ffa412"/>
    <path id="Path_1789" data-name="Path 1789" d="M1092.16,586.9a1.408,1.408,0,0,1,.191-.3,1.368,1.368,0,0,1,.185-.187l.279-.284.074.055c1.432-.7,4.383.042,7.37,1.992,3.611,2.357,5.928,5.6,5.259,7.328l.1.075-.4.4c-.019.02-.039.04-.06.059l-.011.012a1.667,1.667,0,0,1-.348.241c-1.412.74-4.4,0-7.417-1.968C1093.7,591.921,1091.363,588.6,1092.16,586.9Z" transform="translate(-640.715 -307.3)" fill="#ffa412"/>
    <path id="Path_1790" data-name="Path 1790" d="M968.041,755.448a1.458,1.458,0,0,1-.283-.218,1.493,1.493,0,0,1-.169-.2l-.257-.305.062-.068c-.563-1.491.453-4.36,2.674-7.151,2.686-3.374,6.135-5.376,7.79-4.549l.083-.1.361.438c.018.021.037.042.053.065l.011.012a1.629,1.629,0,0,1,.207.369c.6,1.475-.411,4.377-2.655,7.2C973.186,754.385,969.658,756.4,968.041,755.448Z" transform="translate(-529.692 -447.9)" fill="#ffa412"/>
    <path id="Path_1791" data-name="Path 1791" d="M1104.164,584.252c-3.678-2.4-7.3-2.973-8.1-1.273s1.542,5.022,5.218,7.424,7.3,2.973,8.1,1.273S1107.843,586.652,1104.164,584.252Z" transform="translate(-644.19 -303.785)" fill="#ffb93e"/>
    <path id="Path_1792" data-name="Path 1792" d="M966.531,743.243c-2.737,3.436-3.646,6.993-2.027,7.944s5.143-1.064,7.88-4.5,3.646-6.994,2.027-7.945S969.267,739.807,966.531,743.243Z" transform="translate(-526.542 -444.08)" fill="#ffb93e"/>
    <path id="Path_1793" data-name="Path 1793" d="M1108.34,594.9a14.512,14.512,0,0,1-3.735-3.422c-.89-1.226-1.2-2.3-.866-3.023a1.405,1.405,0,0,1,.947-.754c1.358-.391,3.763.357,6.128,1.905a14.477,14.477,0,0,1,3.734,3.422c.89,1.227,1.2,2.3.865,3.023a1.4,1.4,0,0,1-.946.754,2.912,2.912,0,0,1-.809.1A10.742,10.742,0,0,1,1108.34,594.9Zm-3.58-6.938a1.124,1.124,0,0,0-.771.608c-.285.621.02,1.625.838,2.753a14.18,14.18,0,0,0,3.664,3.354,10.665,10.665,0,0,0,5.176,1.964,2.638,2.638,0,0,0,.726-.092,1.125,1.125,0,0,0,.771-.608c.286-.621-.02-1.624-.838-2.753a14.2,14.2,0,0,0-3.664-3.354,10.668,10.668,0,0,0-5.176-1.962A2.657,2.657,0,0,0,1104.761,587.961Z" transform="translate(-651.042 -308.784)" fill="#ffa412"/>
    <path id="Path_1794" data-name="Path 1794" d="M977.306,752.912a14.5,14.5,0,0,1-3.756,3.4c-1.3.771-2.4.976-3.091.578a1.4,1.4,0,0,1-.662-1.012c-.261-1.389.708-3.713,2.472-5.922a14.482,14.482,0,0,1,3.758-3.4c1.3-.771,2.4-.976,3.09-.578a1.4,1.4,0,0,1,.663,1.012,2.945,2.945,0,0,1,.025.815A10.737,10.737,0,0,1,977.306,752.912Zm-7.242,2.914a1.124,1.124,0,0,0,.533.824c.591.342,1.619.132,2.819-.576a14.193,14.193,0,0,0,3.684-3.334,10.656,10.656,0,0,0,2.44-4.969,2.658,2.658,0,0,0-.022-.731,1.13,1.13,0,0,0-.533-.824c-.592-.342-1.62-.133-2.82.576a14.223,14.223,0,0,0-3.683,3.333,10.666,10.666,0,0,0-2.439,4.969A2.648,2.648,0,0,0,970.064,755.826Z" transform="translate(-531.927 -450.567)" fill="#ffa412"/>
    <path id="Path_1795" data-name="Path 1795" d="M1128.214,611.521a.427.427,0,0,0,.211-.008.236.236,0,0,0,.076-.042.222.222,0,0,0,.054-.068.4.4,0,0,0,.028-.22.89.89,0,0,0-.069-.255,1.08,1.08,0,0,0-.182-.278,1.824,1.824,0,0,0-.323-.28,2.849,2.849,0,0,0-.485-.266l-.082-.843a4.644,4.644,0,0,1,.845.471,3.921,3.921,0,0,1,.6.534,2.775,2.775,0,0,1,.39.551,2.419,2.419,0,0,1,.2.538l.8.352.045.465-.807-.355a.8.8,0,0,1-.11.405.547.547,0,0,1-.3.22,1.046,1.046,0,0,1-.468.019,2.517,2.517,0,0,1-.633-.2,3.583,3.583,0,0,1-.69-.391,3.29,3.29,0,0,1-.529-.48,3.89,3.89,0,0,1-.422-.567c-.125-.2-.251-.423-.375-.661a3.974,3.974,0,0,0-.22-.377,2.028,2.028,0,0,0-.212-.275,1.339,1.339,0,0,0-.236-.2,1.884,1.884,0,0,0-.274-.149,1.572,1.572,0,0,0-.276-.093.527.527,0,0,0-.22-.009.211.211,0,0,0-.078.031.193.193,0,0,0-.057.059.31.31,0,0,0-.033.2.827.827,0,0,0,.279.493,2.476,2.476,0,0,0,.742.464l.081.845a4.925,4.925,0,0,1-.74-.4,3.861,3.861,0,0,1-.587-.469,2.86,2.86,0,0,1-.423-.518,1.985,1.985,0,0,1-.242-.543l-.881-.386-.045-.467.868.381a.708.708,0,0,1,.122-.4.564.564,0,0,1,.307-.214,1.086,1.086,0,0,1,.472-.015,2.54,2.54,0,0,1,.62.194,3.677,3.677,0,0,1,.693.393,3.349,3.349,0,0,1,.529.479,4.06,4.06,0,0,1,.418.567c.124.2.247.423.365.661a3.826,3.826,0,0,0,.2.359,1.879,1.879,0,0,0,.214.273,1.319,1.319,0,0,0,.246.208,1.907,1.907,0,0,0,.3.164A1.11,1.11,0,0,0,1128.214,611.521Z" transform="translate(-667.924 -327.094)" fill="#ffa412"/>
    <path id="Path_1796" data-name="Path 1796" d="M995.572,765.538a.439.439,0,0,0,.013-.21.243.243,0,0,0-.035-.079.207.207,0,0,0-.063-.06.39.39,0,0,0-.216-.049.861.861,0,0,0-.261.045,1.057,1.057,0,0,0-.294.155,1.747,1.747,0,0,0-.308.295,2.814,2.814,0,0,0-.31.459l-.848,0a4.607,4.607,0,0,1,.548-.8,3.787,3.787,0,0,1,.59-.552,2.709,2.709,0,0,1,.584-.337,2.351,2.351,0,0,1,.555-.152l.427-.766h.467l-.429.77a.794.794,0,0,1,.393.147.542.542,0,0,1,.192.317,1.031,1.031,0,0,1-.025.468,2.526,2.526,0,0,1-.257.611,3.575,3.575,0,0,1-.454.651,3.351,3.351,0,0,1-.527.482,4.047,4.047,0,0,1-.6.367c-.214.106-.445.21-.693.311a3.852,3.852,0,0,0-.4.184,1.952,1.952,0,0,0-.294.186,1.289,1.289,0,0,0-.221.216,1.75,1.75,0,0,0-.173.259,1.556,1.556,0,0,0-.12.266.542.542,0,0,0-.029.218.194.194,0,0,0,.023.079.2.2,0,0,0,.054.063.313.313,0,0,0,.2.052.829.829,0,0,0,.517-.231,2.476,2.476,0,0,0,.531-.7l.85,0a4.894,4.894,0,0,1-.468.7,3.809,3.809,0,0,1-.522.54,2.86,2.86,0,0,1-.555.372,2.012,2.012,0,0,1-.563.19l-.468.841h-.469l.461-.828a.711.711,0,0,1-.387-.159.57.57,0,0,1-.184-.326,1.1,1.1,0,0,1,.029-.472,2.514,2.514,0,0,1,.252-.6,3.6,3.6,0,0,1,.457-.654,3.318,3.318,0,0,1,.526-.482,4.033,4.033,0,0,1,.6-.362c.215-.1.445-.206.693-.3a4.013,4.013,0,0,0,.375-.167,1.953,1.953,0,0,0,.292-.187,1.37,1.37,0,0,0,.231-.225,1.93,1.93,0,0,0,.192-.286A1.171,1.171,0,0,0,995.572,765.538Z" transform="translate(-551.534 -466.356)" fill="#ffa412"/>
    <path id="Path_1797" data-name="Path 1797" d="M1162.66,617.356l-88.34,15.291,18.953,109.5,88.34-15.291Z" transform="translate(-624.978 -342.131)" fill="#f8fcff"/>
    <path id="Path_1798" data-name="Path 1798" d="M1810.662,1236.852a4.8,4.8,0,0,0-.686-1.806,4.422,4.422,0,0,0-1.276-1.312,4.754,4.754,0,0,0-1.773-.7,6.07,6.07,0,0,0-2.164.012,5.928,5.928,0,0,0-2.028.715,4.72,4.72,0,0,0-1.415,1.255,4.463,4.463,0,0,0-.77,1.663,4.872,4.872,0,0,0-.028,1.929,4.722,4.722,0,0,0,.683,1.792,4.485,4.485,0,0,0,1.274,1.3,4.786,4.786,0,0,0,1.762.707,5.956,5.956,0,0,0,2.149-.009,6.039,6.039,0,0,0,2.042-.719,4.7,4.7,0,0,0,1.432-1.257,4.467,4.467,0,0,0,.771-1.652A4.76,4.76,0,0,0,1810.662,1236.852Zm-6.219-34.432-9.673,1.674,5.531,25.568,7.532-1.3Z" transform="translate(-1266.09 -862.765)" fill="#f78248"/>
    <path id="Path_1799" data-name="Path 1799" d="M1617.775,735.5l-24.758,4.285a.478.478,0,0,1-.551-.389.479.479,0,0,1,.39-.55l24.758-4.286a.477.477,0,0,1,.161.941Z" transform="translate(-1086.058 -440.389)" fill="#aec3ff"/>
    <path id="Path_1800" data-name="Path 1800" d="M1622.845,764.809l-24.758,4.285a.476.476,0,0,1-.16-.939l24.757-4.286a.477.477,0,0,1,.161.94Z" transform="translate(-1090.571 -466.649)" fill="#aec3ff"/>
    <path id="Path_1801" data-name="Path 1801" d="M1627.922,794.1l-24.758,4.285a.478.478,0,0,1-.551-.39.462.462,0,0,1,.005-.186.47.47,0,0,1,.21-.3.477.477,0,0,1,.174-.066l24.755-4.287a.477.477,0,0,1,.55.39.478.478,0,0,1-.386.553Z" transform="translate(-1095.088 -492.888)" fill="#aec3ff"/>
    <path id="Path_1802" data-name="Path 1802" d="M1561.3,902.756l-17.094,2.959a.689.689,0,0,1-.235-1.357l17.094-2.959a.689.689,0,0,1,.8.561.7.7,0,0,1-.007.269.692.692,0,0,1-.3.431A.694.694,0,0,1,1561.3,902.756Z" transform="translate(-1042.401 -589.84)" fill="#aec3ff"/>
    <path id="Path_1803" data-name="Path 1803" d="M1754.288,878.554l-10.513,1.819a.689.689,0,0,1-.8-.56.688.688,0,0,1,.561-.8l10.514-1.82a.689.689,0,0,1,.514.115.691.691,0,0,1,.185.195.7.7,0,0,1,.1.251.7.7,0,0,1-.116.514A.688.688,0,0,1,1754.288,878.554Z" transform="translate(-1219.994 -568.132)" fill="#aec3ff"/>
    <path id="Path_1804" data-name="Path 1804" d="M1220.882,940.155l-32.487,5.624a.688.688,0,0,1-.234-1.356l32.486-5.624a.681.681,0,0,1,.269.007.687.687,0,0,1,.432.305.689.689,0,0,1-.466,1.043Z" transform="translate(-725.774 -623.415)" fill="#aec3ff"/>
    <path id="Path_1805" data-name="Path 1805" d="M1221.986,992.534l-26.261,4.546a.689.689,0,0,1-.235-1.357l26.261-4.545a.692.692,0,0,1,.514.116.679.679,0,0,1,.28.445.689.689,0,0,1-.56.8Z" transform="translate(-732.297 -670.316)" fill="#aec3ff"/>
    <path id="Path_1806" data-name="Path 1806" d="M1499.938,944.415l-26.261,4.545a.688.688,0,0,1-.234-1.356l26.261-4.546a.688.688,0,0,1,.234,1.357Z" transform="translate(-979.639 -627.203)" fill="#aec3ff"/>
    <path id="Path_1807" data-name="Path 1807" d="M1580.28,1029.957l-17.094,2.958a.688.688,0,0,1-.8-.561.69.69,0,0,1,.561-.8l17.094-2.959a.689.689,0,0,1,.234,1.357Z" transform="translate(-1059.291 -703.797)" fill="#aec3ff"/>
    <path id="Path_1808" data-name="Path 1808" d="M1773.278,1005.726l-10.513,1.82a.7.7,0,0,1-.269-.007.683.683,0,0,1-.246-.109.7.7,0,0,1-.185-.194.723.723,0,0,1-.1-.251.688.688,0,0,1,.561-.8l10.513-1.82a.688.688,0,0,1,.8.56.683.683,0,0,1-.006.269.661.661,0,0,1-.11.246.671.671,0,0,1-.193.185A.7.7,0,0,1,1773.278,1005.726Z" transform="translate(-1236.893 -682.059)" fill="#aec3ff"/>
    <path id="Path_1809" data-name="Path 1809" d="M1239.863,1067.326l-32.486,5.624a.689.689,0,0,1-.8-.561.691.691,0,0,1,.562-.8l32.486-5.624a.693.693,0,0,1,.513.116.684.684,0,0,1,.282.445.687.687,0,0,1-.56.795Z" transform="translate(-742.664 -737.358)" fill="#aec3ff"/>
    <path id="Path_1810" data-name="Path 1810" d="M1240.976,1119.679l-26.261,4.544a.688.688,0,0,1-.269-.007.672.672,0,0,1-.246-.11.7.7,0,0,1-.185-.194.71.71,0,0,1-.1-.251.688.688,0,0,1,.561-.8l26.261-4.546a.694.694,0,0,1,.513.116.686.686,0,0,1,.282.445.684.684,0,0,1-.114.516.67.67,0,0,1-.195.186A.682.682,0,0,1,1240.976,1119.679Z" transform="translate(-749.196 -784.228)" fill="#aec3ff"/>
    <path id="Path_1811" data-name="Path 1811" d="M1533.731,1048.336l-41.056,7.106a.688.688,0,0,1-.234-1.355l41.055-7.107a.688.688,0,0,1,.681,1.074A.684.684,0,0,1,1533.731,1048.336Z" transform="translate(-996.546 -720.388)" fill="#aec3ff"/>
    <path id="Path_1812" data-name="Path 1812" d="M1595.951,1120.456l-17.094,2.959a.688.688,0,0,1-.235-1.357l17.094-2.959a.688.688,0,0,1,.68,1.075A.7.7,0,0,1,1595.951,1120.456Z" transform="translate(-1073.236 -784.875)" fill="#aec3ff"/>
    <path id="Path_1813" data-name="Path 1813" d="M1788.949,1096.256l-10.513,1.819a.691.691,0,0,1-.7-.309.716.716,0,0,1-.1-.251.688.688,0,0,1,.561-.8l10.514-1.82a.693.693,0,0,1,.513.116.686.686,0,0,1,.282.445.689.689,0,0,1-.561.8Z" transform="translate(-1250.837 -763.16)" fill="#aec3ff"/>
    <path id="Path_1814" data-name="Path 1814" d="M1255.533,1157.856l-32.487,5.624a.689.689,0,0,1-.8-.561.691.691,0,0,1,.561-.8l32.487-5.624a.688.688,0,0,1,.235,1.356Z" transform="translate(-756.609 -818.471)" fill="#aec3ff"/>
    <path id="Path_1815" data-name="Path 1815" d="M1256.646,1210.272l-26.261,4.546a.7.7,0,0,1-.268-.007.713.713,0,0,1-.245-.109.675.675,0,0,1-.185-.195.689.689,0,0,1,.464-1.046l26.262-4.541a.686.686,0,0,1,.234,1.352Z" transform="translate(-763.14 -865.4)" fill="#aec3ff"/>
    <path id="Path_1816" data-name="Path 1816" d="M1534.6,1162.117l-26.262,4.545a.688.688,0,0,1-.234-1.355l26.261-4.546a.689.689,0,0,1,.235,1.357Z" transform="translate(-1010.481 -822.251)" fill="#aec3ff"/>
    <path id="Path_1817" data-name="Path 1817" d="M1074.31,689.924l47.391-8.2-5.955,26.17L1082.1,715.21Z" transform="translate(-624.969 -393.609)" fill="#f8fcff"/>
    <path id="Path_1818" data-name="Path 1818" d="M1211.938,893.319l-33.848,5.859.084.487,33.848-5.859Z" transform="translate(-717.32 -582.659)" fill="#f78248"/>
    <path id="Path_1819" data-name="Path 1819" d="M1463.668,1744.732v1.852a.627.627,0,0,1-.145.4.9.9,0,0,1-.554.3,1.04,1.04,0,0,1-.15.011h-35.113a.823.823,0,0,1-.841-.607c0-.023-.007-.046-.008-.071a.261.261,0,0,1,0-.035V1744.7c0-.023,0-.046.008-.069a.822.822,0,0,1,.841-.607h35.113a1.04,1.04,0,0,1,.15.011.884.884,0,0,1,.156.038.827.827,0,0,1,.4.266A.625.625,0,0,1,1463.668,1744.732Z" transform="translate(-938.691 -1344.722)" fill="#ffb93e"/>
    <path id="Path_1820" data-name="Path 1820" d="M1446.426,1747.3h-18.811a.755.755,0,0,1-.73-.529.578.578,0,0,1-.021-.078c0-.023-.007-.046-.008-.07a.268.268,0,0,1,0-.035V1744.7c0-.023,0-.046.008-.069a.591.591,0,0,1,.021-.079.753.753,0,0,1,.73-.528h16.5A5.75,5.75,0,0,0,1446.426,1747.3Z" transform="translate(-938.691 -1344.722)" fill="#ffa412"/>
    <path id="Path_1821" data-name="Path 1821" d="M1719.119,1744.02h-.4v3.278h.4Z" transform="translate(-1198.415 -1344.722)" fill="#ffa412"/>
    <path id="Path_1822" data-name="Path 1822" d="M1706.849,1744.02h-.4v3.278h.4Z" transform="translate(-1187.496 -1344.722)" fill="#ffa412"/>
    <path id="Path_1823" data-name="Path 1823" d="M1692.139,1744.02h-.4v3.278h.4Z" transform="translate(-1174.406 -1344.722)" fill="#ffa412"/>
    <path id="Path_1824" data-name="Path 1824" d="M1669.589,1744.02h-.4v3.278h.4Z" transform="translate(-1154.339 -1344.722)" fill="#ffa412"/>
    <path id="Path_1825" data-name="Path 1825" d="M1645.748,1744.02h-.4v3.278h.4Z" transform="translate(-1133.124 -1344.722)" fill="#ffa412"/>
    <path id="Path_1826" data-name="Path 1826" d="M1609.2,1744.02h-.4v3.278h.4Z" transform="translate(-1100.599 -1344.722)" fill="#ffa412"/>
    <path id="Path_1827" data-name="Path 1827" d="M1574.969,1744.02h-.4v3.278h.4Z" transform="translate(-1070.139 -1344.722)" fill="#ffa412"/>
    <path id="Path_1828" data-name="Path 1828" d="M1544.409,1744.02h-.4v3.278h.4Z" transform="translate(-1042.944 -1344.722)" fill="#ffa412"/>
    <path id="Path_1829" data-name="Path 1829" d="M1730.789,1744.02h-.4v3.278h.4Z" transform="translate(-1208.799 -1344.722)" fill="#ffa412"/>
    <path id="Path_1830" data-name="Path 1830" d="M1738.508,1744.02h-.4v3.278h.4Z" transform="translate(-1215.669 -1344.722)" fill="#ffa412"/>
    <path id="Path_1831" data-name="Path 1831" d="M1745.959,1744.02h-.4v3.278h.4Z" transform="translate(-1222.299 -1344.722)" fill="#ffa412"/>
    <path id="Path_1832" data-name="Path 1832" d="M1751.56,1744.013v3.255a.9.9,0,0,1-.15.011h-.25V1744h.25A.854.854,0,0,1,1751.56,1744.013Z" transform="translate(-1227.282 -1344.705)" fill="#ffa412"/>
    <path id="Path_1833" data-name="Path 1833" d="M1756.6,1744.682v2.643a.841.841,0,0,1-.4.267v-3.183A.842.842,0,0,1,1756.6,1744.682Z" transform="translate(-1231.767 -1345.069)" fill="#ffa412"/>
    <path id="Path_1834" data-name="Path 1834" d="M1429.587,1714.95v1.85a.631.631,0,0,1-.145.4,1.032,1.032,0,0,1-.08.085.89.89,0,0,1-.319.182,1.007,1.007,0,0,1-.156.036.931.931,0,0,1-.149.012h-35.114a.822.822,0,0,1-.841-.608c0-.023-.006-.046-.007-.069s0-.024,0-.037v-1.888a.265.265,0,0,1,.007-.069.823.823,0,0,1,.841-.607h35.114a.325.325,0,0,1,.067,0h.028a.125.125,0,0,1,.032,0h.022a.918.918,0,0,1,.156.036c.03.01.058.021.085.033l.055.027.031.017a.283.283,0,0,1,.029.018.7.7,0,0,1,.1.076c.011.01.019.019.028.028l.018.017.009.01.007.008a.229.229,0,0,1,.032.035A.629.629,0,0,1,1429.587,1714.95Z" transform="translate(-908.364 -1318.218)" fill="#ffb93e"/>
    <path id="Path_1835" data-name="Path 1835" d="M1412.345,1717.509h-18.813a.755.755,0,0,1-.729-.53.5.5,0,0,1-.021-.078c0-.023-.006-.046-.007-.069s0-.024,0-.037v-1.888a.266.266,0,0,1,.007-.07c.006-.026.013-.052.021-.078a.752.752,0,0,1,.729-.529h16.5c.006.027.014.053.023.081A5.74,5.74,0,0,0,1412.345,1717.509Z" transform="translate(-908.364 -1318.213)" fill="#ffa412"/>
    <path id="Path_1836" data-name="Path 1836" d="M1685.028,1714.25h-.4v3.278h.4Z" transform="translate(-1168.079 -1318.23)" fill="#ffa412"/>
    <path id="Path_1837" data-name="Path 1837" d="M1672.759,1714.25h-.4v3.278h.4Z" transform="translate(-1157.16 -1318.23)" fill="#ffa412"/>
    <path id="Path_1838" data-name="Path 1838" d="M1658.049,1714.25h-.4v3.278h.4Z" transform="translate(-1144.069 -1318.23)" fill="#ffa412"/>
    <path id="Path_1839" data-name="Path 1839" d="M1635.5,1714.25h-.4v3.278h.4Z" transform="translate(-1124.003 -1318.23)" fill="#ffa412"/>
    <path id="Path_1840" data-name="Path 1840" d="M1611.659,1714.25h-.4v3.278h.4Z" transform="translate(-1102.788 -1318.23)" fill="#ffa412"/>
    <path id="Path_1841" data-name="Path 1841" d="M1575.108,1714.25h-.4v3.278h.4Z" transform="translate(-1070.263 -1318.23)" fill="#ffa412"/>
    <path id="Path_1842" data-name="Path 1842" d="M1540.879,1714.25h-.4v3.278h.4Z" transform="translate(-1039.803 -1318.23)" fill="#ffa412"/>
    <path id="Path_1843" data-name="Path 1843" d="M1510.319,1714.25h-.4v3.278h.4Z" transform="translate(-1012.608 -1318.23)" fill="#ffa412"/>
    <path id="Path_1844" data-name="Path 1844" d="M1696.7,1714.25h-.4v3.278h.4Z" transform="translate(-1178.464 -1318.23)" fill="#ffa412"/>
    <path id="Path_1845" data-name="Path 1845" d="M1704.419,1714.25h-.4v3.278h.4Z" transform="translate(-1185.333 -1318.23)" fill="#ffa412"/>
    <path id="Path_1846" data-name="Path 1846" d="M1711.869,1714.25h-.4v3.278h.4Z" transform="translate(-1191.963 -1318.23)" fill="#ffa412"/>
    <path id="Path_1847" data-name="Path 1847" d="M1717.47,1714.261v3.255a1,1,0,0,1-.151.011h-.249v-3.278h.249A1.012,1.012,0,0,1,1717.47,1714.261Z" transform="translate(-1196.946 -1318.23)" fill="#ffa412"/>
    <path id="Path_1848" data-name="Path 1848" d="M1722.509,1714.912v2.643a.848.848,0,0,1-.4.268v-3.183A.862.862,0,0,1,1722.509,1714.912Z" transform="translate(-1201.431 -1318.578)" fill="#ffa412"/>
    <path id="Path_1849" data-name="Path 1849" d="M1446.117,1685.932v1.852a.636.636,0,0,1-.145.4.829.829,0,0,1-.4.267.953.953,0,0,1-.155.037,1.117,1.117,0,0,1-.149.011h-35.109a.991.991,0,0,1-.391-.081.741.741,0,0,1-.448-.518.108.108,0,0,0-.007-.046.161.161,0,0,1,0-.031V1685.9c0-.023,0-.046.007-.07a.823.823,0,0,1,.841-.607h35.114a.924.924,0,0,1,.15.011.875.875,0,0,1,.156.037.846.846,0,0,1,.4.267A.629.629,0,0,1,1446.117,1685.932Z" transform="translate(-923.08 -1292.398)" fill="#ffb93e"/>
    <path id="Path_1850" data-name="Path 1850" d="M1428.836,1688.516h-18.817a.8.8,0,0,1-.349-.08.722.722,0,0,1-.262-.212.729.729,0,0,1-.138-.307.114.114,0,0,0-.006-.046.1.1,0,0,1,0-.031v-1.924a.512.512,0,0,1,.007-.069.265.265,0,0,1,.02-.077.751.751,0,0,1,.73-.531h16.5a5.751,5.751,0,0,0,2.2,3.193A1.1,1.1,0,0,0,1428.836,1688.516Z" transform="translate(-923.035 -1292.415)" fill="#ffa412"/>
    <path id="Path_1851" data-name="Path 1851" d="M1701.5,1685.22h-.4v3.278h.4Z" transform="translate(-1182.735 -1292.398)" fill="#ffa412"/>
    <path id="Path_1852" data-name="Path 1852" d="M1689.229,1685.22h-.4v3.278h.4Z" transform="translate(-1171.816 -1292.398)" fill="#ffa412"/>
    <path id="Path_1853" data-name="Path 1853" d="M1674.518,1685.22h-.4v3.278h.4Z" transform="translate(-1158.726 -1292.398)" fill="#ffa412"/>
    <path id="Path_1854" data-name="Path 1854" d="M1651.979,1685.22h-.4v3.278h.4Z" transform="translate(-1138.668 -1292.398)" fill="#ffa412"/>
    <path id="Path_1855" data-name="Path 1855" d="M1628.128,1685.22h-.4v3.278h.4Z" transform="translate(-1117.444 -1292.398)" fill="#ffa412"/>
    <path id="Path_1856" data-name="Path 1856" d="M1591.579,1685.22h-.4v3.278h.4Z" transform="translate(-1084.919 -1292.398)" fill="#ffa412"/>
    <path id="Path_1857" data-name="Path 1857" d="M1557.359,1685.22h-.4v3.278h.4Z" transform="translate(-1054.468 -1292.398)" fill="#ffa412"/>
    <path id="Path_1858" data-name="Path 1858" d="M1526.789,1685.22h-.4v3.278h.4Z" transform="translate(-1027.265 -1292.398)" fill="#ffa412"/>
    <path id="Path_1859" data-name="Path 1859" d="M1713.179,1685.22h-.4v3.278h.4Z" transform="translate(-1193.129 -1292.398)" fill="#ffa412"/>
    <path id="Path_1860" data-name="Path 1860" d="M1720.889,1685.22h-.4v3.278h.4Z" transform="translate(-1199.989 -1292.398)" fill="#ffa412"/>
    <path id="Path_1861" data-name="Path 1861" d="M1728.339,1685.22h-.4v3.278h.4Z" transform="translate(-1206.62 -1292.398)" fill="#ffa412"/>
    <path id="Path_1862" data-name="Path 1862" d="M1733.94,1685.231v3.255a.934.934,0,0,1-.15.011h-.25v-3.277h.25A.933.933,0,0,1,1733.94,1685.231Z" transform="translate(-1211.602 -1292.398)" fill="#ffa412"/>
    <path id="Path_1863" data-name="Path 1863" d="M1738.978,1685.882v2.643a.842.842,0,0,1-.4.268v-3.183A.841.841,0,0,1,1738.978,1685.882Z" transform="translate(-1216.087 -1292.745)" fill="#ffa412"/>
    <path id="Path_1864" data-name="Path 1864" d="M1453.692,1656.175v1.851a.634.634,0,0,1-.146.4c-.012.015-.025.03-.038.044a.793.793,0,0,1-.242.176.885.885,0,0,1-.118.047.908.908,0,0,1-.155.037l-.074.009h-35.19a.823.823,0,0,1-.842-.608c0-.023-.006-.046-.007-.069v-1.925a.783.783,0,0,1,.749-.671h35.29a.21.21,0,0,1,.074.009.969.969,0,0,1,.155.036.838.838,0,0,1,.4.267A.632.632,0,0,1,1453.692,1656.175Z" transform="translate(-929.814 -1265.917)" fill="#ffb93e"/>
    <path id="Path_1865" data-name="Path 1865" d="M1436.45,1658.759h-18.812a.756.756,0,0,1-.73-.528c-.008-.026-.015-.053-.021-.079s-.006-.047-.007-.069v-1.925a.715.715,0,0,1,.759-.671h16.5A5.745,5.745,0,0,0,1436.45,1658.759Z" transform="translate(-929.814 -1265.937)" fill="#ffa412"/>
    <path id="Path_1866" data-name="Path 1866" d="M1709.139,1655.45h-.4v3.279h.4Z" transform="translate(-1189.533 -1265.906)" fill="#ffa412"/>
    <path id="Path_1867" data-name="Path 1867" d="M1696.868,1655.45h-.4v3.279h.4Z" transform="translate(-1178.614 -1265.906)" fill="#ffa412"/>
    <path id="Path_1868" data-name="Path 1868" d="M1682.159,1655.45h-.4v3.279h.4Z" transform="translate(-1165.525 -1265.906)" fill="#ffa412"/>
    <path id="Path_1869" data-name="Path 1869" d="M1659.609,1655.45h-.4v3.279h.4Z" transform="translate(-1145.458 -1265.906)" fill="#ffa412"/>
    <path id="Path_1870" data-name="Path 1870" d="M1635.769,1655.45h-.4v3.279h.4Z" transform="translate(-1124.243 -1265.906)" fill="#ffa412"/>
    <path id="Path_1871" data-name="Path 1871" d="M1599.219,1655.45h-.4v3.279h.4Z" transform="translate(-1091.718 -1265.906)" fill="#ffa412"/>
    <path id="Path_1872" data-name="Path 1872" d="M1564.989,1655.45h-.4v3.279h.4Z" transform="translate(-1061.257 -1265.906)" fill="#ffa412"/>
    <path id="Path_1873" data-name="Path 1873" d="M1534.429,1655.45h-.4v3.279h.4Z" transform="translate(-1034.063 -1265.906)" fill="#ffa412"/>
    <path id="Path_1874" data-name="Path 1874" d="M1720.818,1655.45h-.4v3.279h.4Z" transform="translate(-1199.927 -1265.906)" fill="#ffa412"/>
    <path id="Path_1875" data-name="Path 1875" d="M1728.529,1655.45h-.4v3.279h.4Z" transform="translate(-1206.788 -1265.906)" fill="#ffa412"/>
    <path id="Path_1876" data-name="Path 1876" d="M1735.979,1655.45h-.4v3.279h.4Z" transform="translate(-1213.418 -1265.906)" fill="#ffa412"/>
    <path id="Path_1877" data-name="Path 1877" d="M1741.58,1655.461v3.255a.921.921,0,0,1-.149.011h-.25v-3.277h.25A.979.979,0,0,1,1741.58,1655.461Z" transform="translate(-1218.401 -1265.906)" fill="#ffa412"/>
    <path id="Path_1878" data-name="Path 1878" d="M1746.618,1656.112v2.643a.842.842,0,0,1-.4.268v-3.182A.849.849,0,0,1,1746.618,1656.112Z" transform="translate(-1222.886 -1266.253)" fill="#ffa412"/>
    <path id="Path_1879" data-name="Path 1879" d="M1430.26,1626.428v1.849a.632.632,0,0,1-.144.4.847.847,0,0,1-.4.267.967.967,0,0,1-.155.036l-.049.007H1394.3a.8.8,0,0,1-.849-.677v-1.955a.771.771,0,0,1,.637-.624h.025a1.032,1.032,0,0,1,.185-.017h35.261a.916.916,0,0,1,.154.036.848.848,0,0,1,.4.268A.629.629,0,0,1,1430.26,1626.428Z" transform="translate(-908.964 -1239.443)" fill="#ffb93e"/>
    <path id="Path_1880" data-name="Path 1880" d="M1413.018,1629.008h-18.81a.741.741,0,0,1-.758-.677v-1.955a.735.735,0,0,1,.59-.629.171.171,0,0,1,.03-.007.924.924,0,0,1,.135-.011h16.5l.007.023a5.747,5.747,0,0,0,2.295,3.25Z" transform="translate(-908.964 -1239.459)" fill="#ffa412"/>
    <path id="Path_1881" data-name="Path 1881" d="M1685.7,1625.73h-.4v3.279h.4Z" transform="translate(-1168.675 -1239.459)" fill="#ffa412"/>
    <path id="Path_1882" data-name="Path 1882" d="M1673.429,1625.73h-.4v3.279h.4Z" transform="translate(-1157.756 -1239.459)" fill="#ffa412"/>
    <path id="Path_1883" data-name="Path 1883" d="M1658.718,1625.73h-.4v3.279h.4Z" transform="translate(-1144.665 -1239.459)" fill="#ffa412"/>
    <path id="Path_1884" data-name="Path 1884" d="M1636.169,1625.73h-.4v3.279h.4Z" transform="translate(-1124.599 -1239.459)" fill="#ffa412"/>
    <path id="Path_1885" data-name="Path 1885" d="M1612.329,1625.73h-.4v3.279h.4Z" transform="translate(-1103.385 -1239.459)" fill="#ffa412"/>
    <path id="Path_1886" data-name="Path 1886" d="M1575.779,1625.73h-.4v3.279h.4Z" transform="translate(-1070.86 -1239.459)" fill="#ffa412"/>
    <path id="Path_1887" data-name="Path 1887" d="M1541.549,1625.73h-.4v3.279h.4Z" transform="translate(-1040.399 -1239.459)" fill="#ffa412"/>
    <path id="Path_1888" data-name="Path 1888" d="M1510.989,1625.73h-.4v3.279h.4Z" transform="translate(-1013.204 -1239.459)" fill="#ffa412"/>
    <path id="Path_1889" data-name="Path 1889" d="M1697.369,1625.73h-.4v3.279h.4Z" transform="translate(-1179.06 -1239.459)" fill="#ffa412"/>
    <path id="Path_1890" data-name="Path 1890" d="M1705.089,1625.73h-.4v3.279h.4Z" transform="translate(-1185.929 -1239.459)" fill="#ffa412"/>
    <path id="Path_1891" data-name="Path 1891" d="M1712.539,1625.73h-.4v3.279h.4Z" transform="translate(-1192.559 -1239.459)" fill="#ffa412"/>
    <path id="Path_1892" data-name="Path 1892" d="M1718.14,1625.741V1629a1.056,1.056,0,0,1-.151.012h-.249v-3.279h.249A1.056,1.056,0,0,1,1718.14,1625.741Z" transform="translate(-1197.542 -1239.459)" fill="#ffa412"/>
    <path id="Path_1893" data-name="Path 1893" d="M1723.178,1626.4v2.643a.848.848,0,0,1-.4.268v-3.181A.833.833,0,0,1,1723.178,1626.4Z" transform="translate(-1202.028 -1239.815)" fill="#ffa412"/>
    <path id="Path_1894" data-name="Path 1894" d="M1429.591,1596.842v1.85a.642.642,0,0,1-.145.4.985.985,0,0,1-.081.085.87.87,0,0,1-.319.183,1.1,1.1,0,0,1-.121.03.141.141,0,0,1-.032,0,.931.931,0,0,1-.149.012h-35.117a.919.919,0,0,1-.11-.006.223.223,0,0,1-.042-.006.787.787,0,0,1-.69-.6.531.531,0,0,1-.006-.062V1596.8a.241.241,0,0,1,.008-.069.822.822,0,0,1,.84-.608h35.263a.945.945,0,0,1,.156.037c.03.01.057.021.085.033a.825.825,0,0,1,.281.2l.032.036A.64.64,0,0,1,1429.591,1596.842Z" transform="translate(-908.368 -1213.112)" fill="#ffb93e"/>
    <path id="Path_1895" data-name="Path 1895" d="M1412.331,1599.492h-18.9a.74.74,0,0,1-.661-.609.587.587,0,0,1-.007-.062V1596.9a.246.246,0,0,1,.008-.069.443.443,0,0,1,.02-.078.756.756,0,0,1,.729-.53h16.5c.006.027.014.054.023.081a5.735,5.735,0,0,0,2.253,3.174Z" transform="translate(-908.35 -1213.198)" fill="#ffa412"/>
    <path id="Path_1896" data-name="Path 1896" d="M1685.028,1596.17h-.4v3.278h.4Z" transform="translate(-1168.079 -1213.154)" fill="#ffa412"/>
    <path id="Path_1897" data-name="Path 1897" d="M1672.759,1596.17h-.4v3.278h.4Z" transform="translate(-1157.16 -1213.154)" fill="#ffa412"/>
    <path id="Path_1898" data-name="Path 1898" d="M1658.049,1596.17h-.4v3.278h.4Z" transform="translate(-1144.069 -1213.154)" fill="#ffa412"/>
    <path id="Path_1899" data-name="Path 1899" d="M1635.5,1596.17h-.4v3.278h.4Z" transform="translate(-1124.003 -1213.154)" fill="#ffa412"/>
    <path id="Path_1900" data-name="Path 1900" d="M1611.659,1596.17h-.4v3.278h.4Z" transform="translate(-1102.788 -1213.154)" fill="#ffa412"/>
    <path id="Path_1901" data-name="Path 1901" d="M1575.108,1596.17h-.4v3.278h.4Z" transform="translate(-1070.263 -1213.154)" fill="#ffa412"/>
    <path id="Path_1902" data-name="Path 1902" d="M1540.879,1596.17h-.4v3.278h.4Z" transform="translate(-1039.803 -1213.154)" fill="#ffa412"/>
    <path id="Path_1903" data-name="Path 1903" d="M1510.319,1596.17h-.4v3.278h.4Z" transform="translate(-1012.608 -1213.154)" fill="#ffa412"/>
    <path id="Path_1904" data-name="Path 1904" d="M1696.7,1596.17h-.4v3.278h.4Z" transform="translate(-1178.464 -1213.154)" fill="#ffa412"/>
    <path id="Path_1905" data-name="Path 1905" d="M1704.419,1596.17h-.4v3.278h.4Z" transform="translate(-1185.333 -1213.154)" fill="#ffa412"/>
    <path id="Path_1906" data-name="Path 1906" d="M1711.869,1596.17h-.4v3.278h.4Z" transform="translate(-1191.963 -1213.154)" fill="#ffa412"/>
    <path id="Path_1907" data-name="Path 1907" d="M1717.47,1596.182v3.255a1.12,1.12,0,0,1-.151.011h-.249v-3.278h.249A.981.981,0,0,1,1717.47,1596.182Z" transform="translate(-1196.946 -1213.154)" fill="#ffa412"/>
    <path id="Path_1908" data-name="Path 1908" d="M1722.509,1596.8v2.644a.849.849,0,0,1-.4.266v-3.182A.845.845,0,0,1,1722.509,1596.8Z" transform="translate(-1201.431 -1213.475)" fill="#ffa412"/>
    <path id="Path_1909" data-name="Path 1909" d="M1446.123,1567.854v1.85a.635.635,0,0,1-.145.4.844.844,0,0,1-.4.267.982.982,0,0,1-.155.036,1.012,1.012,0,0,1-.15.012h-35.108a.978.978,0,0,1-.391-.081.741.741,0,0,1-.448-.517.119.119,0,0,0-.006-.047v-1.956a.432.432,0,0,1,.008-.069.823.823,0,0,1,.84-.608h35.114a1.011,1.011,0,0,1,.15.012.946.946,0,0,1,.155.037.822.822,0,0,1,.4.267A.625.625,0,0,1,1446.123,1567.854Z" transform="translate(-923.087 -1187.321)" fill="#ffb93e"/>
    <path id="Path_1910" data-name="Path 1910" d="M1428.842,1570.418h-18.817a.794.794,0,0,1-.349-.081.723.723,0,0,1-.4-.518.109.109,0,0,0-.007-.046v-1.957a.431.431,0,0,1,.008-.068.261.261,0,0,1,.02-.077.767.767,0,0,1,.276-.388.756.756,0,0,1,.454-.143h16.5a5.751,5.751,0,0,0,2.2,3.194A.706.706,0,0,0,1428.842,1570.418Z" transform="translate(-923.042 -1187.32)" fill="#ffa412"/>
    <path id="Path_1911" data-name="Path 1911" d="M1701.5,1567.14h-.4v3.278h.4Z" transform="translate(-1182.735 -1187.321)" fill="#ffa412"/>
    <path id="Path_1912" data-name="Path 1912" d="M1689.229,1567.14h-.4v3.278h.4Z" transform="translate(-1171.816 -1187.321)" fill="#ffa412"/>
    <path id="Path_1913" data-name="Path 1913" d="M1674.518,1567.14h-.4v3.278h.4Z" transform="translate(-1158.726 -1187.321)" fill="#ffa412"/>
    <path id="Path_1914" data-name="Path 1914" d="M1651.979,1567.14h-.4v3.278h.4Z" transform="translate(-1138.668 -1187.321)" fill="#ffa412"/>
    <path id="Path_1915" data-name="Path 1915" d="M1628.128,1567.14h-.4v3.278h.4Z" transform="translate(-1117.444 -1187.321)" fill="#ffa412"/>
    <path id="Path_1916" data-name="Path 1916" d="M1591.579,1567.14h-.4v3.278h.4Z" transform="translate(-1084.919 -1187.321)" fill="#ffa412"/>
    <path id="Path_1917" data-name="Path 1917" d="M1557.359,1567.14h-.4v3.278h.4Z" transform="translate(-1054.468 -1187.321)" fill="#ffa412"/>
    <path id="Path_1918" data-name="Path 1918" d="M1526.789,1567.14h-.4v3.278h.4Z" transform="translate(-1027.265 -1187.321)" fill="#ffa412"/>
    <path id="Path_1919" data-name="Path 1919" d="M1713.179,1567.14h-.4v3.278h.4Z" transform="translate(-1193.129 -1187.321)" fill="#ffa412"/>
    <path id="Path_1920" data-name="Path 1920" d="M1720.889,1567.14h-.4v3.278h.4Z" transform="translate(-1199.989 -1187.321)" fill="#ffa412"/>
    <path id="Path_1921" data-name="Path 1921" d="M1728.339,1567.14h-.4v3.278h.4Z" transform="translate(-1206.62 -1187.321)" fill="#ffa412"/>
    <path id="Path_1922" data-name="Path 1922" d="M1733.94,1567.152v3.254a1.01,1.01,0,0,1-.15.012h-.25v-3.278h.25A1.01,1.01,0,0,1,1733.94,1567.152Z" transform="translate(-1211.602 -1187.321)" fill="#ffa412"/>
    <path id="Path_1923" data-name="Path 1923" d="M1738.978,1567.8v2.643a.842.842,0,0,1-.4.266v-3.182A.843.843,0,0,1,1738.978,1567.8Z" transform="translate(-1216.087 -1187.668)" fill="#ffa412"/>
    <path id="Path_1924" data-name="Path 1924" d="M1472.112,1538.1v1.851a.631.631,0,0,1-.145.4c-.012.015-.024.03-.037.044a.865.865,0,0,1-.188.147,1.2,1.2,0,0,1-.11.054c-.019.007-.039.016-.059.022a.928.928,0,0,1-.156.036.974.974,0,0,1-.149.012h-35.118a.822.822,0,0,1-.84-.607.482.482,0,0,1-.008-.071v-1.924a.783.783,0,0,1,.748-.672.726.726,0,0,1,.1,0h35.114a1.1,1.1,0,0,1,.148.01,1.138,1.138,0,0,1,.157.037.88.88,0,0,1,.359.22.554.554,0,0,1,.037.044A.634.634,0,0,1,1472.112,1538.1Z" transform="translate(-946.206 -1160.843)" fill="#ffb93e"/>
    <path id="Path_1925" data-name="Path 1925" d="M1454.878,1540.68h-18.811a.754.754,0,0,1-.73-.531c-.007-.026-.014-.051-.02-.076a.577.577,0,0,1-.008-.071v-1.924a.736.736,0,0,1,.667-.672.786.786,0,0,1,.09,0h16.5A5.748,5.748,0,0,0,1454.878,1540.68Z" transform="translate(-946.215 -1160.861)" fill="#ffa412"/>
    <path id="Path_1926" data-name="Path 1926" d="M1727.559,1537.38h-.4v3.278h.4Z" transform="translate(-1205.925 -1160.838)" fill="#ffa412"/>
    <path id="Path_1927" data-name="Path 1927" d="M1715.289,1537.38h-.4v3.278h.4Z" transform="translate(-1195.006 -1160.838)" fill="#ffa412"/>
    <path id="Path_1928" data-name="Path 1928" d="M1700.578,1537.38h-.4v3.278h.4Z" transform="translate(-1181.916 -1160.838)" fill="#ffa412"/>
    <path id="Path_1929" data-name="Path 1929" d="M1678.029,1537.38h-.4v3.278h.4Z" transform="translate(-1161.849 -1160.838)" fill="#ffa412"/>
    <path id="Path_1930" data-name="Path 1930" d="M1654.189,1537.38h-.4v3.278h.4Z" transform="translate(-1140.635 -1160.838)" fill="#ffa412"/>
    <path id="Path_1931" data-name="Path 1931" d="M1617.639,1537.38h-.4v3.278h.4Z" transform="translate(-1108.109 -1160.838)" fill="#ffa412"/>
    <path id="Path_1932" data-name="Path 1932" d="M1583.409,1537.38h-.4v3.278h.4Z" transform="translate(-1077.65 -1160.838)" fill="#ffa412"/>
    <path id="Path_1933" data-name="Path 1933" d="M1552.849,1537.38h-.4v3.278h.4Z" transform="translate(-1050.455 -1160.838)" fill="#ffa412"/>
    <path id="Path_1934" data-name="Path 1934" d="M1739.239,1537.38h-.4v3.278h.4Z" transform="translate(-1216.319 -1160.838)" fill="#ffa412"/>
    <path id="Path_1935" data-name="Path 1935" d="M1746.949,1537.38h-.4v3.278h.4Z" transform="translate(-1223.18 -1160.838)" fill="#ffa412"/>
    <path id="Path_1936" data-name="Path 1936" d="M1754.4,1537.38h-.4v3.278h.4Z" transform="translate(-1229.809 -1160.838)" fill="#ffa412"/>
    <path id="Path_1937" data-name="Path 1937" d="M1760,1537.347v3.251a1.3,1.3,0,0,1-.151.01h-.249v-3.278h.249A.832.832,0,0,1,1760,1537.347Z" transform="translate(-1234.793 -1160.794)" fill="#ffa412"/>
    <path id="Path_1938" data-name="Path 1938" d="M1765.039,1538.042v2.643a.842.842,0,0,1-.4.267v-3.182A.844.844,0,0,1,1765.039,1538.042Z" transform="translate(-1239.278 -1161.186)" fill="#ffa412"/>
    <path id="Path_1939" data-name="Path 1939" d="M1430.26,1508.329v1.85a.63.63,0,0,1-.144.4.853.853,0,0,1-.4.268.786.786,0,0,1-.155.035l-.049.007H1394.3a.892.892,0,0,1-.724-.339.624.624,0,0,1-.126-.337v-1.925a.754.754,0,0,1,.6-.645.976.976,0,0,1,.248-.032h35.179a.674.674,0,0,1,.083.009.9.9,0,0,1,.155.037.461.461,0,0,1,.073.027.829.829,0,0,1,.245.154l.01.009a.764.764,0,0,1,.067.071A.633.633,0,0,1,1430.26,1508.329Z" transform="translate(-908.964 -1134.347)" fill="#ffb93e"/>
    <path id="Path_1940" data-name="Path 1940" d="M1413.018,1510.937h-18.81a.77.77,0,0,1-.634-.323.672.672,0,0,1-.124-.354v-1.925a.736.736,0,0,1,.6-.661.82.82,0,0,1,.155-.015h16.5c.006.025.014.05.022.076a5.732,5.732,0,0,0,2.279,3.193A.014.014,0,0,1,1413.018,1510.937Z" transform="translate(-908.964 -1134.391)" fill="#ffa412"/>
    <path id="Path_1941" data-name="Path 1941" d="M1685.7,1507.65h-.4v3.279h.4Z" transform="translate(-1168.675 -1134.382)" fill="#ffa412"/>
    <path id="Path_1942" data-name="Path 1942" d="M1673.429,1507.65h-.4v3.279h.4Z" transform="translate(-1157.756 -1134.382)" fill="#ffa412"/>
    <path id="Path_1943" data-name="Path 1943" d="M1658.718,1507.65h-.4v3.279h.4Z" transform="translate(-1144.665 -1134.382)" fill="#ffa412"/>
    <path id="Path_1944" data-name="Path 1944" d="M1636.169,1507.65h-.4v3.279h.4Z" transform="translate(-1124.599 -1134.382)" fill="#ffa412"/>
    <path id="Path_1945" data-name="Path 1945" d="M1612.329,1507.65h-.4v3.279h.4Z" transform="translate(-1103.385 -1134.382)" fill="#ffa412"/>
    <path id="Path_1946" data-name="Path 1946" d="M1575.779,1507.65h-.4v3.279h.4Z" transform="translate(-1070.86 -1134.382)" fill="#ffa412"/>
    <path id="Path_1947" data-name="Path 1947" d="M1541.549,1507.65h-.4v3.279h.4Z" transform="translate(-1040.399 -1134.382)" fill="#ffa412"/>
    <path id="Path_1948" data-name="Path 1948" d="M1510.989,1507.65h-.4v3.279h.4Z" transform="translate(-1013.204 -1134.382)" fill="#ffa412"/>
    <path id="Path_1949" data-name="Path 1949" d="M1697.369,1507.65h-.4v3.279h.4Z" transform="translate(-1179.06 -1134.382)" fill="#ffa412"/>
    <path id="Path_1950" data-name="Path 1950" d="M1705.089,1507.65h-.4v3.279h.4Z" transform="translate(-1185.929 -1134.382)" fill="#ffa412"/>
    <path id="Path_1951" data-name="Path 1951" d="M1712.539,1507.65h-.4v3.279h.4Z" transform="translate(-1192.559 -1134.382)" fill="#ffa412"/>
    <path id="Path_1952" data-name="Path 1952" d="M1718.14,1507.663v3.255a1.073,1.073,0,0,1-.151.011h-.249v-3.279h.249A.946.946,0,0,1,1718.14,1507.663Z" transform="translate(-1197.542 -1134.382)" fill="#ffa412"/>
    <path id="Path_1953" data-name="Path 1953" d="M1723.178,1508.322v2.643a.847.847,0,0,1-.4.266v-3.181A.846.846,0,0,1,1723.178,1508.322Z" transform="translate(-1202.028 -1134.739)" fill="#ffa412"/>
    <path id="Path_1954" data-name="Path 1954" d="M1453.713,1479.321v1.851a.641.641,0,0,1-.146.4.85.85,0,0,1-.4.267.839.839,0,0,1-.155.037,1.042,1.042,0,0,1-.15.011h-35.114a.972.972,0,0,1-.379-.076.728.728,0,0,1-.467-.572.159.159,0,0,1,0-.029v-1.925a.782.782,0,0,1,.748-.672h35.214a.963.963,0,0,1,.149.012.865.865,0,0,1,.155.036.841.841,0,0,1,.4.268A.631.631,0,0,1,1453.713,1479.321Z" transform="translate(-929.834 -1107.618)" fill="#ffb93e"/>
    <path id="Path_1955" data-name="Path 1955" d="M1709.139,1478.57h-.4v3.279h.4Z" transform="translate(-1189.533 -1107.58)" fill="#ffa412"/>
    <path id="Path_1956" data-name="Path 1956" d="M1696.868,1478.57h-.4v3.279h.4Z" transform="translate(-1178.614 -1107.58)" fill="#ffa412"/>
    <path id="Path_1957" data-name="Path 1957" d="M1682.159,1478.57h-.4v3.279h.4Z" transform="translate(-1165.525 -1107.58)" fill="#ffa412"/>
    <path id="Path_1958" data-name="Path 1958" d="M1659.609,1478.57h-.4v3.279h.4Z" transform="translate(-1145.458 -1107.58)" fill="#ffa412"/>
    <path id="Path_1959" data-name="Path 1959" d="M1635.769,1478.57h-.4v3.279h.4Z" transform="translate(-1124.243 -1107.58)" fill="#ffa412"/>
    <path id="Path_1960" data-name="Path 1960" d="M1599.219,1478.57h-.4v3.279h.4Z" transform="translate(-1091.718 -1107.58)" fill="#ffa412"/>
    <path id="Path_1961" data-name="Path 1961" d="M1564.989,1478.57h-.4v3.279h.4Z" transform="translate(-1061.257 -1107.58)" fill="#ffa412"/>
    <path id="Path_1962" data-name="Path 1962" d="M1534.429,1478.57h-.4v3.279h.4Z" transform="translate(-1034.063 -1107.58)" fill="#ffa412"/>
    <path id="Path_1963" data-name="Path 1963" d="M1720.818,1478.57h-.4v3.279h.4Z" transform="translate(-1199.927 -1107.58)" fill="#ffa412"/>
    <path id="Path_1964" data-name="Path 1964" d="M1728.529,1478.57h-.4v3.279h.4Z" transform="translate(-1206.788 -1107.58)" fill="#ffa412"/>
    <path id="Path_1965" data-name="Path 1965" d="M1735.979,1478.57h-.4v3.279h.4Z" transform="translate(-1213.418 -1107.58)" fill="#ffa412"/>
    <path id="Path_1966" data-name="Path 1966" d="M1741.58,1478.582v3.255a1.028,1.028,0,0,1-.149.011h-.25v-3.279h.25A.95.95,0,0,1,1741.58,1478.582Z" transform="translate(-1218.401 -1107.58)" fill="#ffa412"/>
    <path id="Path_1967" data-name="Path 1967" d="M1746.618,1479.269v2.643a.845.845,0,0,1-.4.267V1479A.843.843,0,0,1,1746.618,1479.269Z" transform="translate(-1222.886 -1107.962)" fill="#ffa412"/>
    <path id="Path_1968" data-name="Path 1968" d="M1463.681,1449.475v1.851a.632.632,0,0,1-.145.4.912.912,0,0,1-.554.3h-35.264a.8.8,0,0,1-.849-.676v-1.925a.8.8,0,0,1,.849-.677h35.114a.972.972,0,0,1,.15.012.932.932,0,0,1,.155.036.841.841,0,0,1,.4.268A.625.625,0,0,1,1463.681,1449.475Z" transform="translate(-938.704 -1080.166)" fill="#ffb93e"/>
    <path id="Path_1969" data-name="Path 1969" d="M1446.439,1452.127h-18.811a.745.745,0,0,1-.758-.677v-1.925a.741.741,0,0,1,.758-.677h16.5a5.746,5.746,0,0,0,2.3,3.273Z" transform="translate(-938.704 -1080.254)" fill="#ffa412"/>
    <path id="Path_1970" data-name="Path 1970" d="M1719.119,1448.85h-.4v3.278h.4Z" transform="translate(-1198.415 -1080.256)" fill="#ffa412"/>
    <path id="Path_1971" data-name="Path 1971" d="M1706.849,1448.85h-.4v3.278h.4Z" transform="translate(-1187.496 -1080.256)" fill="#ffa412"/>
    <path id="Path_1972" data-name="Path 1972" d="M1692.139,1448.85h-.4v3.278h.4Z" transform="translate(-1174.406 -1080.256)" fill="#ffa412"/>
    <path id="Path_1973" data-name="Path 1973" d="M1669.589,1448.85h-.4v3.278h.4Z" transform="translate(-1154.339 -1080.256)" fill="#ffa412"/>
    <path id="Path_1974" data-name="Path 1974" d="M1645.748,1448.85h-.4v3.278h.4Z" transform="translate(-1133.124 -1080.256)" fill="#ffa412"/>
    <path id="Path_1975" data-name="Path 1975" d="M1609.2,1448.85h-.4v3.278h.4Z" transform="translate(-1100.599 -1080.256)" fill="#ffa412"/>
    <path id="Path_1976" data-name="Path 1976" d="M1574.969,1448.85h-.4v3.278h.4Z" transform="translate(-1070.139 -1080.256)" fill="#ffa412"/>
    <path id="Path_1977" data-name="Path 1977" d="M1544.409,1448.85h-.4v3.278h.4Z" transform="translate(-1042.944 -1080.256)" fill="#ffa412"/>
    <path id="Path_1978" data-name="Path 1978" d="M1730.789,1448.85h-.4v3.278h.4Z" transform="translate(-1208.799 -1080.256)" fill="#ffa412"/>
    <path id="Path_1979" data-name="Path 1979" d="M1738.508,1448.85h-.4v3.278h.4Z" transform="translate(-1215.669 -1080.256)" fill="#ffa412"/>
    <path id="Path_1980" data-name="Path 1980" d="M1745.959,1448.85h-.4v3.278h.4Z" transform="translate(-1222.299 -1080.256)" fill="#ffa412"/>
    <path id="Path_1981" data-name="Path 1981" d="M1751.56,1448.9v3.255a1.132,1.132,0,0,1-.15.011h-.25v-3.278h.25A.973.973,0,0,1,1751.56,1448.9Z" transform="translate(-1227.282 -1080.292)" fill="#ffa412"/>
    <path id="Path_1982" data-name="Path 1982" d="M1756.6,1449.512v2.643a.841.841,0,0,1-.4.266v-3.181A.852.852,0,0,1,1756.6,1449.512Z" transform="translate(-1231.767 -1080.601)" fill="#ffa412"/>
    <path id="Path_1983" data-name="Path 1983" d="M1590.06,1250.817s-1.845,2.6-3.535,2.633a12.348,12.348,0,0,1-4.263-1.2s-1.553-3.46-.5-4.813a2.263,2.263,0,0,1,2.161.354,3.328,3.328,0,0,1,.571.551,1.8,1.8,0,0,0,.888.6c1.211.367,2.643-.5,3.174.337a5.649,5.649,0,0,0,.933,1.1A4.2,4.2,0,0,0,1590.06,1250.817Z" transform="translate(-1076.213 -899.805)" fill="#ffeddc"/>
    <path id="Path_1984" data-name="Path 1984" d="M1441.74,1319.226s6.518-15.8,18.252-16.1c0,0,10.83,1.2,11.433,16.1Z" transform="translate(-951.937 -950.242)" fill="#ffeddc"/>
    <path id="Path_1985" data-name="Path 1985" d="M1578.105,1290.989s4.7,1.045,6.154.431a1.453,1.453,0,0,0-1.762-1.69,4.136,4.136,0,0,1-2.753-.727C1579.005,1288.628,1577.91,1290.162,1578.105,1290.989Z" transform="translate(-1073.265 -936.982)" fill="#db6a1d"/>
    <path id="Path_1986" data-name="Path 1986" d="M1605.565,1254.89c-.3.225-1.225-3.18-1.225-3.18a3.255,3.255,0,0,1,.572.551,1.818,1.818,0,0,0,.887.6C1605.8,1252.959,1605.857,1254.67,1605.565,1254.89Z" transform="translate(-1096.63 -903.645)" fill="#e5c1a1"/>
    <path id="Path_1987" data-name="Path 1987" d="M1634.166,1266.313a19.435,19.435,0,0,1-2.532,1.343c-.292,0,1.6-2.446,1.6-2.446A5.627,5.627,0,0,0,1634.166,1266.313Z" transform="translate(-1120.891 -915.712)" fill="#e5c1a1"/>
    <path id="Path_1988" data-name="Path 1988" d="M1499.542,1352.48c-.12-.1,4.614-6.97,5.917-7.02s4.233,1.5,6.354,1.706,4.177-.4,4.578.852,1.5,5.7.827,6.409S1502.145,1354.7,1499.542,1352.48Z" transform="translate(-1003.371 -987.88)" fill="#f9ddbf"/>
    <path id="Path_1989" data-name="Path 1989" d="M1409.016,1487.141v.023a15.772,15.772,0,0,1-.526,3.25c-.042.153-.086.307-.134.459a16.248,16.248,0,0,1-3.36,6.007l-.071.08a16.914,16.914,0,0,1-3.854,3.193c-.312.19-.63.37-.958.543-.22.11-.44.22-.668.331a7.442,7.442,0,0,0-.653.36,9.122,9.122,0,0,1-2.231.918v-1.479c0-.023,0-.046.007-.069s.013-.053.021-.079a.751.751,0,0,1,.73-.527h-3.755a.754.754,0,0,1-.729-.53.452.452,0,0,1-.02-.078c0-.023-.007-.046-.008-.069s0-.025,0-.037v-1.888a.242.242,0,0,1,.008-.069c.006-.026.012-.053.02-.078a.752.752,0,0,1,.729-.529h1.461a.719.719,0,0,1-.4-.519.109.109,0,0,0-.007-.046.142.142,0,0,1,0-.031v-1.924a.514.514,0,0,1,.008-.069.283.283,0,0,1,.02-.077.754.754,0,0,1,.73-.531h.842a.753.753,0,0,1-.73-.529.665.665,0,0,1-.021-.079c0-.023-.006-.046-.007-.07v-1.925a.738.738,0,0,1,.668-.671h-2.491a.741.741,0,0,1-.758-.677V1487.8a.149.149,0,0,1,0-.03.721.721,0,0,1,.193-.41.731.731,0,0,1,.4-.219.738.738,0,0,1-.661-.608c0-.021,0-.041-.007-.062v-1.925a.247.247,0,0,1,.008-.07.476.476,0,0,1,.02-.078.754.754,0,0,1,.729-.529h1.468a.717.717,0,0,1-.4-.518.11.11,0,0,0-.007-.046.152.152,0,0,1,0-.032v-1.925a.47.47,0,0,1,.008-.068.287.287,0,0,1,.02-.077.756.756,0,0,1,.73-.531h2.863a.754.754,0,0,1-.729-.531c-.007-.025-.014-.05-.02-.076a.464.464,0,0,1-.007-.07v-1.924a.736.736,0,0,1,.667-.672h-4.515a.767.767,0,0,1-.635-.322v-.016l.476-2.907v-.017l.678-4.147a18.356,18.356,0,0,1,2.327.468l.134.036h.009c.44.125.881.264,1.315.423h.012a17.382,17.382,0,0,1,5.453,3.193c.028.024.057.049.085.077a16.278,16.278,0,0,1,2.285,2.462c.138.18.269.364.4.551.043.062.086.124.126.186.208.306.4.62.59.943a16.007,16.007,0,0,1,1.111,2.33,15.575,15.575,0,0,1,.851,3.194.513.513,0,0,0,.013.082A15.747,15.747,0,0,1,1409.016,1487.141Z" transform="translate(-908.386 -1100.87)" fill="#e2810e" opacity="0.5"/>
    <path id="Path_1990" data-name="Path 1990" d="M1225.236,1474.578a17.272,17.272,0,1,0-20.705,12.959A17.273,17.273,0,0,0,1225.236,1474.578Z" transform="translate(-728.923 -1086.133)" fill="#e2810e"/>
    <path id="Path_1991" data-name="Path 1991" d="M1205.507,1492.118c-.213.13-.429.255-.649.376l-.221.12c-.17.092-.341.179-.512.264a17.272,17.272,0,0,1-15.942-30.634c.221-.122.441-.239.669-.35s.44-.211.661-.309a17.271,17.271,0,0,1,16,30.534Z" transform="translate(-718.355 -1092.063)" fill="#ffb93e"/>
    <path id="Path_1992" data-name="Path 1992" d="M1211.95,1509.045a15.486,15.486,0,1,1,7.454-1.93A15.478,15.478,0,0,1,1211.95,1509.045Zm-.047-30.537a15.07,15.07,0,1,0,7.672,2.085A15.033,15.033,0,0,0,1211.9,1478.508Z" transform="translate(-733.664 -1108.078)" fill="#ffa412"/>
    <path id="Path_1993" data-name="Path 1993" d="M1286.066,1528.33c-.034-.085-.07-.168-.11-.248a4.553,4.553,0,0,0-1.048-1.5,4.636,4.636,0,0,0-1.652-.97,7.926,7.926,0,0,0-2.092-.394q-1.157-.07-2.517-.032a12.172,12.172,0,0,1-1.431-.029,3.646,3.646,0,0,1-1.011-.221,1.757,1.757,0,0,1-.675-.457,2.4,2.4,0,0,1-.429-.709,2.6,2.6,0,0,1-.195-.828,1.768,1.768,0,0,1,.123-.782,1.905,1.905,0,0,1,.482-.682,2.776,2.776,0,0,1,.881-.536,2.217,2.217,0,0,1,1.887.017,3.219,3.219,0,0,1,1.432,1.785l3.524-1.432a6.575,6.575,0,0,0-1.152-1.91,4.941,4.941,0,0,0-3.449-1.7,6.558,6.558,0,0,0-2.123.221l-1-2.454-1.949.791.983,2.424a7.268,7.268,0,0,0-1.787,1.271,5.441,5.441,0,0,0-1.128,1.571,4.388,4.388,0,0,0-.414,1.776,5.2,5.2,0,0,0,1.531,3.646,4.613,4.613,0,0,0,1.652.965,7.745,7.745,0,0,0,2.093.38,25.059,25.059,0,0,0,2.523,0,9.209,9.209,0,0,1,1.373.008,3.548,3.548,0,0,1,1.005.221,1.888,1.888,0,0,1,.7.477,2.622,2.622,0,0,1,.475.782,2.172,2.172,0,0,1,.167.835,1.777,1.777,0,0,1-.187.794,2.258,2.258,0,0,1-.559.7,3.4,3.4,0,0,1-.944.551,4.1,4.1,0,0,1-1.045.265,2.359,2.359,0,0,1-1.042-.1,2.416,2.416,0,0,1-.951-.616,3.736,3.736,0,0,1-.771-1.248l-3.524,1.432a6.069,6.069,0,0,0,1.384,2.151,5.008,5.008,0,0,0,1.823,1.137,5.582,5.582,0,0,0,2.071.3,8.783,8.783,0,0,0,2.133-.352l.908,2.239,1.936-.786-.914-2.25a7.865,7.865,0,0,0,1.807-1.261,5.359,5.359,0,0,0,1.091-1.422c.021-.042.042-.083.062-.125a4.322,4.322,0,0,0,.423-1.762A4.754,4.754,0,0,0,1286.066,1528.33Z" transform="translate(-800.192 -1141.341)" fill="#ffa412"/>
    <path id="Path_1994" data-name="Path 1994" d="M1173.772,1531.983q-.271.168-.551.322c-.064.037-.128.071-.191.1-.145.078-.291.153-.44.22a14.787,14.787,0,0,1-13.648-26.227c.189-.105.381-.205.573-.3s.374-.182.564-.266a14.787,14.787,0,0,1,13.7,26.142Z" transform="translate(-693.472 -1131.632)" fill="#2b478b"/>
    <path id="Path_1995" data-name="Path 1995" d="M1185.772,1542.17a13.262,13.262,0,1,0-18.371-3.775A13.262,13.262,0,0,0,1185.772,1542.17Z" transform="translate(-705.859 -1143.443)" fill="#dce4ff"/>
    <path id="Path_1996" data-name="Path 1996" d="M1369.672,1660.119a.641.641,0,0,1,.47.533.636.636,0,0,1-.312.637.627.627,0,0,1-.361.085.637.637,0,0,1-.467-1.024.621.621,0,0,1,.188-.166.628.628,0,0,1,.235-.08A.635.635,0,0,1,1369.672,1660.119Z" transform="translate(-887.09 -1270.042)" fill="#233862"/>
    <path id="Path_1997" data-name="Path 1997" d="M1256.144,1545.34a.644.644,0,0,1,.234-.672.64.64,0,1,1-.234.672Z" transform="translate(-786.761 -1167.209)" fill="#233862"/>
    <path id="Path_1998" data-name="Path 1998" d="M1302.374,1723.22a.64.64,0,0,1,.583-.8.642.642,0,0,1,.613.36.638.638,0,0,1-.1.7.628.628,0,0,1-.317.194.634.634,0,0,1-.484-.067A.646.646,0,0,1,1302.374,1723.22Z" transform="translate(-827.9 -1325.5)" fill="#233862"/>
    <path id="Path_1999" data-name="Path 1999" d="M1306.81,1546.248a.64.64,0,0,1,1.248.259.636.636,0,0,1-.146.342.65.65,0,0,1-.311.2.641.641,0,0,1-.791-.805Z" transform="translate(-831.84 -1168.329)" fill="#233862"/>
    <path id="Path_2000" data-name="Path 2000" d="M1213.46,1569.677a.64.64,0,0,1,.918-.37.641.641,0,0,1,.183.972.654.654,0,0,1-.311.2.641.641,0,0,1-.791-.806Z" transform="translate(-748.77 -1189.179)" fill="#233862"/>
    <path id="Path_2001" data-name="Path 2001" d="M1251.734,1721.6a.64.64,0,1,1,1.1.6.65.65,0,0,1-.311.2.641.641,0,0,1-.791-.806Z" transform="translate(-782.828 -1324.369)" fill="#233862"/>
    <path id="Path_2002" data-name="Path 2002" d="M1345.665,1569.954a.643.643,0,0,1,.7-.126.64.64,0,1,1-.9.574A.638.638,0,0,1,1345.665,1569.954Z" transform="translate(-866.267 -1189.666)" fill="#233862"/>
    <path id="Path_2003" data-name="Path 2003" d="M1193.624,1608.1a.639.639,0,0,1,.33-.167.634.634,0,0,1,.65.284.638.638,0,0,1-.674.968.626.626,0,0,1-.323-.181.646.646,0,0,1-.135-.21.619.619,0,0,1-.043-.246.63.63,0,0,1,.053-.244A.658.658,0,0,1,1193.624,1608.1Z" transform="translate(-730.969 -1223.615)" fill="#233862"/>
    <path id="Path_2004" data-name="Path 2004" d="M1213.205,1697.364a.64.64,0,0,1,.969.827.644.644,0,0,1-.291.23.644.644,0,0,1-.7-.153.644.644,0,0,1-.178-.456A.637.637,0,0,1,1213.205,1697.364Z" transform="translate(-748.394 -1303.045)" fill="#233862"/>
    <path id="Path_2005" data-name="Path 2005" d="M1368.665,1610.394a.638.638,0,0,1,.371.015.639.639,0,0,1,.067,1.179.641.641,0,0,1-.9-.414.644.644,0,0,1,.067-.484.647.647,0,0,1,.391-.3Z" transform="translate(-886.483 -1225.793)" fill="#233862"/>
    <path id="Path_2006" data-name="Path 2006" d="M1190.816,1656.615a.64.64,0,1,1-.459.78.65.65,0,0,1-.014-.25.642.642,0,0,1,.082-.235.658.658,0,0,1,.167-.187A.634.634,0,0,1,1190.816,1656.615Z" transform="translate(-728.219 -1266.924)" fill="#233862"/>
    <path id="Path_2007" data-name="Path 2007" d="M1343.283,1697.685a.638.638,0,0,1-.118.982.639.639,0,0,1-.94-.308.642.642,0,0,1,.155-.694.634.634,0,0,1,.21-.135.647.647,0,0,1,.491.011A.633.633,0,0,1,1343.283,1697.685Z" transform="translate(-863.341 -1303.315)" fill="#233862"/>
    <path id="Path_2008" data-name="Path 2008" d="M1226.605,1636.662c1.957-.635,5.752-1.872,5.752-1.872l.274,1.055-5.985.991a.069.069,0,0,1-.034,0,.078.078,0,0,1-.033-.012.084.084,0,0,1-.026-.025.077.077,0,0,1-.014-.031.079.079,0,0,1,0-.035.086.086,0,0,1,.012-.033.092.092,0,0,1,.024-.025A.094.094,0,0,1,1226.605,1636.662Z" transform="translate(-760.432 -1247.521)" fill="#f77d48"/>
    <path id="Path_2009" data-name="Path 2009" d="M1268.1,1574.17c.881,2.9,2.092,6.854,2.092,6.854l-1.054.274-1.363-7.048C1267.716,1573.926,1268,1573.859,1268.1,1574.17Z" transform="translate(-797.119 -1193.398)" fill="#233862"/>
    <path id="Path_2010" data-name="Path 2010" d="M1275.9,1631.372a1.011,1.011,0,1,1,1.98-.116,1.011,1.011,0,0,1-1.98.116Z" transform="translate(-804.332 -1243.353)" fill="#e06236"/>
    <path id="Path_2011" data-name="Path 2011" d="M1142.342,1165.809a27.615,27.615,0,0,0-4.141,2.024c-1.872,2.073-1.336,4.777-.267,4.8.685.016.551,1.158.551,1.158l7.638-3.232S1145.205,1165.2,1142.342,1165.809Z" transform="translate(-680.723 -826.813)" fill="#2c3a64"/>
    <path id="Path_2012" data-name="Path 2012" d="M1108.249,1145.973A2.735,2.735,0,0,0,1105.2,1143a3.927,3.927,0,0,1,1.528.82,3.932,3.932,0,0,0-4.428.668c-2.307,1.913-.875,6.71-1.576,7.621s-3.435,1.093-3.1,4.038,8.672,6.634,8.137,9.071c0,0,3.267-4.8.931-7a4.326,4.326,0,0,1,1.255,2.348s.309-2.49-1.276-3.286a5.849,5.849,0,0,1-2.429-3.744C1104.361,1153.077,1108.249,1145.973,1108.249,1145.973Z" transform="translate(-645.688 -806.953)" fill="#2c3a64"/>
    <path id="Path_2013" data-name="Path 2013" d="M1120.282,1277.947a2.953,2.953,0,0,0-5.229-1.218,2.678,2.678,0,0,0-.526,1.3c-.346,2.8,4.135,14.216,4.776,15.249,1.168,1.882,8.046,8.331,8.046,8.331l1.268-.771s-4.879-8.259-5.634-9.03C1122.109,1290.912,1121.254,1282.635,1120.282,1277.947Z" transform="translate(-660.74 -926.007)" fill="#ed985f"/>
    <path id="Path_2014" data-name="Path 2014" d="M1226.74,1495.8s1.851-1.211,2.551-1.136,2.728.66,2.753.959-2.258.484-2.413.648-1.7,1.2-2.265.873S1226.74,1495.8,1226.74,1495.8Z" transform="translate(-760.613 -1122.823)" fill="#ed985f"/>
    <path id="Path_2015" data-name="Path 2015" d="M957.425,1417.189l-1.652-.242a19.546,19.546,0,0,1-6.387-12.657,14.727,14.727,0,0,1-.04-2.548.433.433,0,0,0-.058-.281c-.179-.272-.621-.955-1.22-1.927s-1.6-2.766-2.714-4.8c-2-3.657-4.337-8.03-5.137-9.423-2.549-4.44-1.322-7.425-1.322-7.425s7.113-.7,9.062-2.408l.7,1.081s1.542,6.828,1.468,6.855c.076.231.153.468.231.708a120.129,120.129,0,0,1,3.378,12.268,20.039,20.039,0,0,1,.533,5.3,9.367,9.367,0,0,0,.125,1.941C955.086,1408.528,957.425,1417.189,957.425,1417.189Z" transform="translate(-504.203 -1016.767)" fill="#8c9df4"/>
    <path id="Path_2016" data-name="Path 2016" d="M1085,1742.217h-6.9a3.785,3.785,0,0,1,.195-1.848c.346-.771.837-.789.063-1.988a4.206,4.206,0,0,0,2.844.5,8.408,8.408,0,0,0,1.195,1.82C1082.853,1741.033,1084.862,1740.912,1085,1742.217Z" transform="translate(-628.312 -1339.704)" fill="#233862"/>
    <path id="Path_2017" data-name="Path 2017" d="M950.359,1384.095c-.6,3.323-2.025,8.852-5.006,10.611-2-3.657-4.337-8.03-5.137-9.423-2.549-4.44-1.322-7.424-1.322-7.424s7.113-.7,9.062-2.408l.7,1.082s1.542,6.827,1.468,6.855C950.2,1383.618,950.282,1383.855,950.359,1384.095Z" transform="translate(-504.203 -1015.549)" fill="#6980e2"/>
    <path id="Path_2018" data-name="Path 2018" d="M1129.771,1283.2a7.383,7.383,0,0,1,1.42,2.229s-1.555,4.467-5.19,5.027C1126,1290.456,1128.876,1283.2,1129.771,1283.2Z" transform="translate(-670.967 -932.011)" fill="#ed7d2b"/>
    <path id="Path_2019" data-name="Path 2019" d="M861.6,1366.74l.023-1.29c-2.569.33-8.859-3.071-8.859-3.071s-2.689,1.787-3.057,6.894c-.18,2.493-1.316,13.033-1.442,16.181-.046,1.141-.061,1.955-.066,2.281a.44.44,0,0,1-.11.265,14.6,14.6,0,0,0-1.391,2.141c-3.921,7.3-1.872,17.209-1.872,17.209l.911-.232s3.316-10.276,5.482-14.722a9.34,9.34,0,0,1,.981-1.68,20.324,20.324,0,0,0,2.522-4.693,123.069,123.069,0,0,0,4.263-12.775C859.065,1373.259,861.6,1366.74,861.6,1366.74Z" transform="translate(-420.282 -1005.11)" fill="#8c9df4"/>
    <path id="Path_2020" data-name="Path 2020" d="M1119.105,1243.81c-4.2-.964-1.517-6.867-1.274-6.763.582-.118,1.86-1.14,3-3.136l.154.134,2.58,2.262s-.6.881-1.1,1.741a3.959,3.959,0,0,0-.673,1.568C1122.007,1239.778,1120.225,1244.068,1119.105,1243.81Z" transform="translate(-662.747 -887.949)" fill="#ffb27d"/>
    <path id="Path_2021" data-name="Path 2021" d="M1157.309,1237.392s-.6.881-1.1,1.742c-1.6-.991-1.606-2.973-1.482-4Z" transform="translate(-696.487 -888.821)" fill="#ed985f"/>
    <path id="Path_2022" data-name="Path 2022" d="M1156.537,1201.259s-3.9-2.167-2.508-4.572,1.819-4.3,4.364-3.021,2.5,2.475,2.227,3.391S1157.586,1201.761,1156.537,1201.259Z" transform="translate(-695.644 -851.448)" fill="#ffb27d"/>
    <path id="Path_2023" data-name="Path 2023" d="M1157.958,1192.992c-.178-1.068-.72-1.17-1.1-1.1a3.115,3.115,0,0,0-3.788-1.451,5.293,5.293,0,0,1-3.069,1.844s.452.842,2.313,1.361a3.183,3.183,0,0,0,1.837-.146,10.391,10.391,0,0,1-2.643.991c2.456.22,4.79-2.02,5.032-2.26a3.539,3.539,0,0,1,.193,1.608c-.162.724-.8,2.033-.412,2.2C1156.322,1196.049,1158.225,1194.593,1157.958,1192.992Z" transform="translate(-692.324 -848.686)" fill="#2c3a64"/>
    <path id="Path_2024" data-name="Path 2024" d="M842.933,1741.816h-6.9a3.785,3.785,0,0,1,.195-1.848c.345-.771.881-1.113.755-2.039a2.486,2.486,0,0,0,2.15.822,7.512,7.512,0,0,0,1.2,1.552C840.785,1740.633,842.794,1740.511,842.933,1741.816Z" transform="translate(-412.902 -1339.303)" fill="#233862"/>
    <path id="Path_2025" data-name="Path 2025" d="M945.61,1264.63a16.738,16.738,0,0,1-3.406.618,22.777,22.777,0,0,0-4.666.725,1.053,1.053,0,0,0-.672.544,12.8,12.8,0,0,1-2.3,3.251c-12-.551-13.324-5.569-13.324-5.569,8.079-9.394,21.756-12.114,21.756-12.114s.977-.414,3.438,1.542c1.642,1.306,1.426,1.807,1.426,1.807S948.222,1263.719,945.61,1264.63Z" transform="translate(-488.758 -904.525)" fill="#f99746"/>
    <path id="Path_2026" data-name="Path 2026" d="M1073.561,1292.969a22.881,22.881,0,0,0-4.666.724,19.135,19.135,0,0,1,2.423-10.494S1073.164,1290.7,1073.561,1292.969Z" transform="translate(-620.116 -932.141)" fill="#ed7d2b"/>
    <path id="Path_2027" data-name="Path 2027" d="M1088.7,1272.68s-4.545.449-4.909,3.4,4.357,14.977,5.033,16.071c1.231,1.982,8.479,8.779,8.479,8.779l1.336-.811s-5.141-8.7-5.936-9.518C1091.449,1289.324,1090.236,1273.7,1088.7,1272.68Z" transform="translate(-633.386 -923.523)" fill="#ffb27d"/>
    <path id="Path_2028" data-name="Path 2028" d="M1077.4,1272.146c.012.067,4.194,1.366,6.886,0,0,0,.576-6.21-2.643-5.873s-5.117,1.349-5.2,2.887A5.424,5.424,0,0,0,1077.4,1272.146Z" transform="translate(-626.864 -916.804)" fill="#f99746"/>
    <path id="Path_2029" data-name="Path 2029" d="M1202.9,1508.966s1.631-1.5,2.334-1.533,2.8.214,2.871.5-2.152.841-2.276,1.027-1.489,1.457-2.092,1.226S1202.9,1508.966,1202.9,1508.966Z" transform="translate(-739.399 -1134.186)" fill="#ffb27d"/>
    <path id="Path_2030" data-name="Path 2030" d="M707.142,1774H458.288a.283.283,0,0,0-.288.278v.105a.283.283,0,0,0,.288.278H707.142a.283.283,0,0,0,.287-.278v-.105A.283.283,0,0,0,707.142,1774Z" transform="translate(-76.529 -1371.401)" fill="#2e3552"/>
    <path id="Path_2031" data-name="Path 2031" d="M2449.044,1158.458a21.222,21.222,0,0,1,.969,4.013,14.527,14.527,0,0,1-1.233,3.952c-.476.652-.71-2.661-1.087-3.158s-.077,1.247-.343,1.408-.816-1.283-1.056-1.8.582-2.39.582-3.7S2449.044,1158.458,2449.044,1158.458Z" transform="translate(-1845.827 -820.155)" fill="#ffb27d"/>
    <path id="Path_2032" data-name="Path 2032" d="M2245.749,883.807a4.626,4.626,0,0,1,6.968-4.362l.195.122c4.8,3.093,15.145,17.526,15.856,18.972s2.815,12.948,2.815,12.948-2.6.953-3.814-.036c0,0-4.212-10.908-4.834-11.453s-16.852-9.671-16.99-13.09C2245.908,886,2245.836,884.918,2245.749,883.807Z" transform="translate(-1667.391 -570.39)" fill="#f2ccaa"/>
    <path id="Path_2033" data-name="Path 2033" d="M2452.047,1684.054s1.924,1.768,1.549,3.031-2.113,2.1-2.348,3.631-1.174,2.375-2.02,2.375h-4.03s-.622-1.082.881-1.407,2.07-2.132,1.974-3.809a29.92,29.92,0,0,1,.142-3.912l3.193-.744Z" transform="translate(-1844.777 -1290.618)" fill="#263238"/>
    <path id="Path_2034" data-name="Path 2034" d="M2201.65,1719.007s.348,4.1-.5,4.521l-10.858-.022s0-1.279,1.744-1.563,4.809-1.326,5.328-3.646S2201.65,1719.007,2201.65,1719.007Z" transform="translate(-1618.053 -1321.054)" fill="#263238"/>
    <path id="Path_2035" data-name="Path 2035" d="M2210.34,1208.846s.572,7.041,1.246,15.506c.913,11.5,2.012,25.622,2.121,28.3.188,4.652.941,12.078.941,12.078s1.786,1.766,5.365,1.02a120.166,120.166,0,0,0,4.1-21.833l.042-.555c.848-11.428,2.165-35.491,2.165-35.491Z" transform="translate(-1635.896 -867.615)" fill="#f99746"/>
    <path id="Path_2036" data-name="Path 2036" d="M2210.34,1208.843s.572,7.029,1.246,15.479l12.526,19.528.042-.554c.848-11.407,2.165-35.426,2.165-35.426Z" transform="translate(-1635.896 -865.787)" fill="#ef7e29"/>
    <path id="Path_2037" data-name="Path 2037" d="M2233.94,1186.529s10.324,25.558,17.111,37.569,8.91,15.365,8.91,15.365,3.89-1.537,4.244-2.584c0,0-2.6-23.188-7.143-28.84-2.568-3.195-5.586-12.781-5.727-16.132s-.919-9.985-.919-9.985Z" transform="translate(-1656.896 -844.523)" fill="#f99746"/>
    <path id="Path_2038" data-name="Path 2038" d="M2225.971,808.194s-6.881,3.53-10.911,2.352a9.481,9.481,0,0,1,2.668-2.248c-.154-.811-.276-1.521-.347-2.112a19.944,19.944,0,0,1-.212-2.159l2.639-2.187,2.5-2.093A10.392,10.392,0,0,0,2225.971,808.194Z" transform="translate(-1640.096 -498.921)" fill="#ffb27d"/>
    <path id="Path_2039" data-name="Path 2039" d="M2204.54,894.308a28.344,28.344,0,0,1-8.529,3.687c-3.648.869-8.132.612-9.631.842a.625.625,0,0,1-.439-.117c-.117-.061-.779-4.528-1.443-10.164-.029-.234-.06-.456-.073-.686l-.009-.076c-.258-2.2-.483-4.518-.679-6.84-.16-1.805-.292-3.59-.385-5.268-.116-2.1-.161-4.026-.116-5.612.021-.724.065-1.376.127-1.942a13.831,13.831,0,0,1,3.435-7.4l1.222-1.4a6.683,6.683,0,0,0,4.231-1.083c1.494-.986,3.1-2.047,3.407-1.866,2.288,1.257,4.152,4.513,5.483,8.813a49.118,49.118,0,0,1,1.723,8.259c.116.923.222,1.866.3,2.814.018.175.026.349.043.52.179,2.578.473,4.994.8,7.151.438,2.915.929,5.349,1.288,7.066.175.873.311,1.549.39,2.033C2205.758,893.471,2204.915,894.073,2204.54,894.308Z" transform="translate(-1611.761 -550.613)" fill="#f9ddbf"/>
    <path id="Path_2040" data-name="Path 2040" d="M2239.265,818.725a9.4,9.4,0,0,1-5.11,4.313,19.844,19.844,0,0,1-.215-2.194l2.687-2.223Z" transform="translate(-1656.896 -515.691)" fill="#ed985f"/>
    <path id="Path_2041" data-name="Path 2041" d="M2211.742,749.354s6.685.961,7.23-3.161,1.774-6.773-2.471-7.561-5.284.679-5.8,2.011S2210.019,749,2211.742,749.354Z" transform="translate(-1635.898 -443.956)" fill="#ffb27d"/>
    <path id="Path_2042" data-name="Path 2042" d="M2202.366,718.147c.059-.069.2-.129.513-.152a1.284,1.284,0,0,0-.586-.15,1.558,1.558,0,0,0-1.074-1.356.932.932,0,0,1,.469.66c-.886-.864-2.759-1.469-7.9-.966-6.777.662-4.455,4.913-3.565,5.407s3.073-.952,4.713-.855,1.993,2.427,2.56,2.737.333-.254,1.076-.6.84.879.64,1.683.853,1.84.853,1.84l1.021-1.132c1.022-1.131,1.911-5.853,1.416-6.846C2202.455,718.326,2202.411,718.233,2202.366,718.147Z" transform="translate(-1617.003 -423.861)" fill="#2c3a64"/>
    <path id="Path_2043" data-name="Path 2043" d="M2194.908,981.758s-5.61,4.282-11.556,5.222c-.116-2.089-.161-4.007-.116-5.585Z" transform="translate(-1611.761 -661.55)" fill="#f2ccaa"/>
    <path id="Path_2044" data-name="Path 2044" d="M1925.232,903.727c-.09-.1-1.251-3.988-3.258-3.7-1.311.185-3.451.942-2.883,2.677.225.681,4.215,3.024,4.215,3.024Z" transform="translate(-1376.636 -588.636)" fill="#ffb27d"/>
    <path id="Path_2045" data-name="Path 2045" d="M1993.056,893.654a4.59,4.59,0,0,1-.485,8.159c-.071.031-.141.06-.212.089-5.295,2.113-23.034,2.211-24.621,1.956s-12.167-5.159-12.167-5.159.729-2.655,2.235-3.073c0,0,11.319,2.854,12.121,2.661s17.629-8.112,20.492-6.259C1991.175,892.521,1992.1,893.087,1993.056,893.654Z" transform="translate(-1409.182 -581.398)" fill="#f9ddbf"/>
    <path id="Path_2046" data-name="Path 2046" d="M869.576,1724.29a6.808,6.808,0,0,0,5.561.77s2.712-.618,3.307.736c0,0-4.16,2.112-5.213,2.7a12.629,12.629,0,0,0-2.206,1.656,1.091,1.091,0,0,1-.818.276,1.112,1.112,0,0,1-.423-.124,1.1,1.1,0,0,1-.339-.281c-.184-.225-.393-.492-.623-.8-.642-.869-2.136-3.677-2.136-3.677Z" transform="translate(-440.21 -1327.165)" fill="#204272"/>
    <path id="Path_2047" data-name="Path 2047" d="M691.643,1065.319a15.353,15.353,0,1,0-21.711,0A15.354,15.354,0,0,0,691.643,1065.319Z" transform="translate(-261.121 -714.132)" fill="#e2810e"/>
    <path id="Path_2048" data-name="Path 2048" d="M679.485,1065.321a15.352,15.352,0,1,0-21.711,0A15.351,15.351,0,0,0,679.485,1065.321Z" transform="translate(-250.302 -714.135)" fill="#ffc76c"/>
    <path id="Path_2049" data-name="Path 2049" d="M679.651,1081.138a13.9,13.9,0,1,1,5.355-1.058A13.989,13.989,0,0,1,679.651,1081.138Zm0-27.141a13.168,13.168,0,1,0,9.3,3.855A13.149,13.149,0,0,0,679.651,1054Z" transform="translate(-261.323 -726.627)" fill="#ffa412"/>
    <path id="Path_2050" data-name="Path 2050" d="M745.092,1100.716a2.315,2.315,0,0,0-.033-.813,1.676,1.676,0,0,0-.343-.674,3.209,3.209,0,0,0-.687-.607,8.272,8.272,0,0,0-1.064-.6,22.107,22.107,0,0,1-1.965-1.08,6.889,6.889,0,0,1-1.469-1.2,4.094,4.094,0,0,1-.868-1.456,4.628,4.628,0,0,1,.374-3.5,3.879,3.879,0,0,1,1.084-1.2,4.831,4.831,0,0,1,1.551-.739,6.481,6.481,0,0,1,1.938-.224l.274-2.311,1.856.22-.277,2.337a5.854,5.854,0,0,1,1.747.742,4.4,4.4,0,0,1,1.955,2.805,5.854,5.854,0,0,1,.077,1.982l-3.352-.4a2.859,2.859,0,0,0-.344-2,1.974,1.974,0,0,0-1.462-.824,2.539,2.539,0,0,0-.916.038,1.724,1.724,0,0,0-.668.325,1.589,1.589,0,0,0-.43.556,2.291,2.291,0,0,0-.2.73,2.138,2.138,0,0,0,.03.736,1.59,1.59,0,0,0,.33.642,3.171,3.171,0,0,0,.692.607,10.944,10.944,0,0,0,1.106.642q1.075.555,1.944,1.1a7.1,7.1,0,0,1,1.463,1.206,3.956,3.956,0,0,1,1.017,3.317,4.213,4.213,0,0,1-.532,1.662,3.84,3.84,0,0,1-1.089,1.194,4.71,4.71,0,0,1-1.559.711,7.031,7.031,0,0,1-1.948.2L743.06,1107l-1.844-.219.257-2.133a7.809,7.809,0,0,1-1.811-.642,4.963,4.963,0,0,1-1.485-1.121,4.472,4.472,0,0,1-.931-1.669,5.443,5.443,0,0,1-.154-2.27l3.352.4a3.337,3.337,0,0,0,.063,1.3,2.174,2.174,0,0,0,.477.887,2.07,2.07,0,0,0,.771.527,3.545,3.545,0,0,0,.92.236,2.955,2.955,0,0,0,.973-.028,2,2,0,0,0,.736-.3,1.589,1.589,0,0,0,.487-.539A1.945,1.945,0,0,0,745.092,1100.716Z" transform="translate(-324.838 -756.074)" fill="#ffa412"/>
    <path id="Path_2051" data-name="Path 2051" d="M631.084,1399.682s-1.337,3.083-4.423,2.515a86.459,86.459,0,0,1-10.617-10.6,23.95,23.95,0,0,1-3.3-5.156c-2.864-6.632-10.6-16.523-15.512-21.537l12.3-4.45s3.94,7.926,9.181,17.658C622.49,1385.122,626.943,1393.076,631.084,1399.682Z" transform="translate(-200.429 -1003.392)" fill="#f99746"/>
    <path id="Path_2052" data-name="Path 2052" d="M618.712,1378.108l-2.667,13.485a23.95,23.95,0,0,1-3.3-5.156c-2.864-6.632-10.6-16.523-15.512-21.537l12.3-4.45S613.47,1368.376,618.712,1378.108Z" transform="translate(-200.429 -1003.392)" fill="#ed7d2b"/>
    <path id="Path_2053" data-name="Path 2053" d="M665.236,1729.674s-.129,2.461,2.849,2.788c0,0,1.845.048,1.851,1.615h-8.981s-.08-.642-.141-1.992a15.535,15.535,0,0,1,1.007-3.755Z" transform="translate(-257.007 -1330.76)" fill="#204272"/>
    <path id="Path_2054" data-name="Path 2054" d="M575.73,1356.072s5.48,6.022,8.958,16.869c1.891,5.906-3.468,20.739-4.515,25.894a16.5,16.5,0,0,1-6.054-.642,119.211,119.211,0,0,1,1.251-18.854c.8-4.593-7.215-9.824-10.719-18.123-2.384-5.65.514-5.549,4.08-5.686Z" transform="translate(-170.662 -999.015)" fill="#f99746"/>
    <path id="Path_2055" data-name="Path 2055" d="M539.754,1056.447c-3.048,1.722-9.289.127-9.289.127a8.692,8.692,0,0,0,1.383-7.564l2.394,1.217,2.569,1.305a21.446,21.446,0,0,1,.281,2.311c.03.385.055.806.074,1.27A8.036,8.036,0,0,1,539.754,1056.447Z" transform="translate(-141.014 -722.209)" fill="#ffb07b"/>
    <path id="Path_2056" data-name="Path 2056" d="M532.4,1131.34c0,.536-.616.793-.747.818-1.23.225-4.663,1.56-7.756,1.868a25.049,25.049,0,0,1-7.679-.514c-.351-.071-1.177-.293-1.236-.63-.073-.368-10.246-20.737-2.337-29.486.185-.205,1.747.165,3.173.5a5.862,5.862,0,0,0,3.608-.3l1.338.706c1.644.915,4.752,4.169,5.119,6.724.185,1.3.927,2.261,1.142,3.4q.121.635.245,1.24.243,1.182.5,2.253c.464,1.927.955,3.6,1.437,5.03.513,1.527,1.017,2.8,1.467,3.854.583,1.376,1.075,2.4,1.383,3.191A3.912,3.912,0,0,1,532.4,1131.34Z" transform="translate(-122.479 -771.749)" fill="#86bf4a"/>
    <path id="Path_2057" data-name="Path 2057" d="M557.029,1185.805A39.961,39.961,0,0,1,537.7,1166.05s11.666,4.3,14.544,5.423q.243,1.183.5,2.254c.465,1.926.956,3.6,1.437,5.031.514,1.526,1.017,2.795,1.467,3.853C556.229,1183.989,556.721,1185.018,557.029,1185.805Z" transform="translate(-147.45 -827.517)" fill="#68a42a"/>
    <path id="Path_2058" data-name="Path 2058" d="M784.3,1309.2l1.242.455a2.653,2.653,0,0,1,4.031,1.1s.56,1.249-.326,1.52-.564.015-1.808.43a2.376,2.376,0,0,1-2.942-.77l-.844-.62Z" transform="translate(-366.318 -955.102)" fill="#ffb07b"/>
    <path id="Path_2059" data-name="Path 2059" d="M550.874,1152.269c.458-1.2.668-1.739.668-1.739s-9.375-7.643-10.331-8.3c-.651-.447-7.133-5.291-10.292-9.067a6.616,6.616,0,0,0-6.429-2.229l-1.969.414a2.927,2.927,0,0,0-1.306,5.086c5.192,4.451,13.95,9.615,15.582,10.689,4.054,2.664,13.02,6.4,13.02,6.4A2.289,2.289,0,0,0,550.874,1152.269Z" transform="translate(-131.872 -796.032)" fill="#86bf4a"/>
    <path id="Path_2060" data-name="Path 2060" d="M550.713,1063.695a6.415,6.415,0,0,1-4.947-2.311,23.768,23.768,0,0,0,2.095-1.3l2.569,1.305A21.519,21.519,0,0,1,550.713,1063.695Z" transform="translate(-154.63 -731.987)" fill="#ea8e50"/>
    <path id="Path_2061" data-name="Path 2061" d="M529.238,1003.155s-4.541,3.26-6.528.4-3.911-4.366-1.094-6.567,4.143-1.507,5.038-.714S530.37,1002.227,529.238,1003.155Z" transform="translate(-131.879 -674.298)" fill="#ffb07b"/>
    <path id="Path_2062" data-name="Path 2062" d="M494.032,963.872A7.3,7.3,0,0,0,493.5,962s-.285,1.18-2.44,1.018-5.579.212-6.718,2.67c-.073.157-.137.318-.195.483a5.721,5.721,0,0,1-.257-1.362,4.2,4.2,0,0,0,0,2.382c-.006.039-.012.077-.017.116a4.807,4.807,0,0,0-.876,1.654,1.493,1.493,0,0,1,.807-.717c-.01,1.914.771,3.784,2.128,4.341,1.992.815,1.975.193,3.981,1.521,0,0,.537-.666.171-1.113s-1.751-1.1-.977-1.752,1.058.083,1.343-.365-1.14-1.751.692-2.972S494.2,964.972,494.032,963.872Z" transform="translate(-98.776 -644.354)" fill="#233862"/>
    <rect id="Rectangle_981" data-name="Rectangle 981" width="34.313" height="12.003" transform="translate(458.227 303.363) rotate(-9.548)" fill="#f78248" opacity="0.6"/>
  </g>
</svg>
