<svg xmlns="http://www.w3.org/2000/svg" width="872.145" height="563.008" viewBox="0 0 872.145 563.008">
  <g id="Group_619" data-name="Group 619" transform="translate(-6989 23573)">
    <g id="Group_615" data-name="Group 615" transform="translate(7282.334 -23376.969)">
      <path id="Vector" d="M27.361,1.953C36.217.975,45.073.276,53.928.081A229.64,229.64,0,0,1,79.91.863c7.487.7,15.309,2.1,20.366,7.012a13.13,13.13,0,0,1,1.816,17.1C98.1,31.342,90.5,35.141,83.038,37.4a79.536,79.536,0,0,1-45.593-.726A82.5,82.5,0,0,1,15.32,26.649a54.533,54.533,0,0,1-8.856-7.264,33.524,33.524,0,0,1-5.448-7.459,3.213,3.213,0,0,1-.726-1.4,2.793,2.793,0,0,0-.2-.419A.95.95,0,0,1,.514,8.853a3.6,3.6,0,0,1,1.425-1.4C9.37,3.182,19.092,2.958,27.361,1.953Z" transform="translate(184.169 15.233)" fill="#ecbf4c"/>
      <path id="Vector-2" data-name="Vector" d="M562.191,184.837c-1.341,2.794-2.794,5.587-4.163,8.381a29.026,29.026,0,0,1-39.111,12.46l-77.859-40.452-.838-.447A29,29,0,0,1,428.4,124.829l3.66-6.481,5.587-10.057a24.361,24.361,0,0,0,3.017-8.968c1.481-11.761-.224-37.966-44.084-40.34H182c-41.374,2.235-45.229,25.674-44.307,38.217a28.663,28.663,0,0,0,3.688,11.873l5.587,9.89,3.352,5.867a29.026,29.026,0,0,1-11.845,40.033l-.363.2-78.222,40.7A29,29,0,0,1,20.779,193.3c-1.341-2.6-2.626-5.168-3.883-7.738C1.838,154.526-6.487,124.69,6.252,89.8A82.329,82.329,0,0,1,54.219,41.411,628.965,628.965,0,0,1,289.446.092a628.908,628.908,0,0,1,235.2,41.318A82.245,82.245,0,0,1,572.611,89.8C585.182,124.354,577.081,154.051,562.191,184.837Z" transform="translate(0 0)" fill="#f99746"/>
      <path id="Vector-3" data-name="Vector" d="M121.58,45.928l-78.586,40.9A29.026,29.026,0,0,1,3.883,74.367C2.542,71.769,1.257,69.2,0,66.6L130.157,0l3.352,5.895A29.054,29.054,0,0,1,121.58,45.928Z" transform="translate(19.496 120.125)" fill="#ed7d2b"/>
      <path id="Vector-4" data-name="Vector" d="M137.532,66.517c-1.341,2.794-2.794,5.587-4.163,8.381a29.054,29.054,0,0,1-39.111,12.46l-78.7-40.9A29,29,0,0,1,3.744,6.509L7.4,0Z" transform="translate(421.783 122.92)" fill="#ed7d2b"/>
      <path id="Vector-5" data-name="Vector" d="M341.523,67.917C338.9,80.209,330.8,90.517,325.6,101.971a40.759,40.759,0,0,0-3.464,25.143l-.838-.447A29,29,0,0,1,309.48,86.662l3.66-6.481,5.587-10.057a24.36,24.36,0,0,0,3.017-8.968c1.481-11.761-.223-37.966-44.084-40.34H63.079C21.705,23.05,17.85,46.489,18.772,59.033a28.663,28.663,0,0,0,3.688,11.873l5.587,9.89L31.4,86.662A29.026,29.026,0,0,1,19.554,126.7l-.363.2a20.254,20.254,0,0,0,2.039-6.37c1.425-9.191-3.3-18.1-7.655-26.344C3.77,75.571-4.974,53.445,3.295,34.113c6.537-15.253,22.349-24.668,38.5-28.8C56.989,1.4,72.857,1.26,88.557,1.148L235.839.031C260.06-.137,285.2.031,307.105,10.2S346.608,44.226,341.523,67.917Z" transform="translate(118.922 38.167)" fill="#ed7d2b" opacity="0.3"/>
      <path id="Vector-6" data-name="Vector" d="M439.973,262.045v66.433a10.42,10.42,0,0,1-10.448,10.448H10.476A10.448,10.448,0,0,1,0,328.478V262.045a10.42,10.42,0,0,1,4.945-8.828C93.811,198.1,113.9,45.76,117.473,8.381A9.247,9.247,0,0,1,126.665,0h21.483A19.7,19.7,0,0,1,167.7,19.556v19a10.448,10.448,0,0,0,10.42,10.476H261.71a10.476,10.476,0,0,0,10.448-10.476V19.639A19.555,19.555,0,0,1,291.854.084h21.483A9.219,9.219,0,0,1,322.5,8.465c3.632,37.379,23.662,189.717,112.529,244.836a10.421,10.421,0,0,1,4.945,8.744Z" transform="translate(68.663 27.609)" fill="#f99746"/>
      <path id="Vector-7" data-name="Vector" d="M187.063,93.532A93.532,93.532,0,1,1,93.532,0,93.532,93.532,0,0,1,187.063,93.532Z" transform="translate(192.757 108.793)" fill="#fff"/>
      <path id="Vector-8" data-name="Vector" d="M73.585,36.792A36.736,36.736,0,1,1,70.8,22.7a36.792,36.792,0,0,1,2.786,14.089Z" transform="translate(249.498 165.533)" fill="#e4e4e4"/>
      <path id="Vector-9" data-name="Vector" d="M35.256,17.628A17.656,17.656,0,1,1,30.085,5.171a17.628,17.628,0,0,1,5.171,12.457Z" transform="translate(205.02 183.917)" fill="#e4e4e4"/>
      <path id="Vector-10" data-name="Vector" d="M35.256,17.628A17.656,17.656,0,1,1,30.085,5.171a17.628,17.628,0,0,1,5.171,12.457Z" transform="translate(332.301 183.917)" fill="#e4e4e4"/>
      <path id="Vector-11" data-name="Vector" d="M17.628,0A17.656,17.656,0,1,1,5.171,5.171,17.656,17.656,0,0,1,17.628,0Z" transform="translate(268.661 247.554)" fill="#e4e4e4"/>
      <path id="Vector-12" data-name="Vector" d="M17.628,0A17.656,17.656,0,1,1,5.171,5.171,17.656,17.656,0,0,1,17.628,0Z" transform="translate(268.661 120.274)" fill="#e4e4e4"/>
      <path id="Vector-13" data-name="Vector" d="M5.172,5.154a17.629,17.629,0,1,1-3.828,5.722A17.628,17.628,0,0,1,5.172,5.154Z" transform="translate(313.635 228.937)" fill="#e4e4e4"/>
      <path id="Vector-14" data-name="Vector" d="M5.172,5.154a17.628,17.628,0,1,1-3.828,5.722A17.628,17.628,0,0,1,5.172,5.154Z" transform="translate(223.566 138.924)" fill="#e4e4e4"/>
      <path id="Vector-15" data-name="Vector" d="M5.154,30.084a17.684,17.684,0,1,1,12.474,5.149A17.628,17.628,0,0,1,5.154,30.084Z" transform="translate(313.654 138.94)" fill="#e4e4e4"/>
      <path id="Vector-16" data-name="Vector" d="M5.168,30.1a17.628,17.628,0,1,1,12.46,5.158A17.628,17.628,0,0,1,5.168,30.1Z" transform="translate(223.572 228.829)" fill="#e4e4e4"/>
      <path id="Vector-17" data-name="Vector" d="M439.973,0V30.954A10.421,10.421,0,0,1,429.525,41.4H10.476A10.448,10.448,0,0,1,0,30.954V0Z" transform="translate(68.663 324.998)" fill="#ed7d2b"/>
      <path id="Vector-18" data-name="Vector" d="M55.06,65.036A36.792,36.792,0,1,1,20.726,0Z" transform="translate(249.918 168.999)" fill="#fff" opacity="0.41"/>
    </g>
    <path id="Vector-19" data-name="Vector" d="M73.836,0C114.624,0,147.7,24.808,147.7,55.426c0,16.287-9.359,30.926-24.277,41.067-.307,4.61-.978,9.3-1.145,11.538a126.888,126.888,0,0,1-2.794,18.326,2.207,2.207,0,0,1-4.051.67A217.153,217.153,0,0,0,101.605,106.8a95.6,95.6,0,0,1-27.713,4.023C33.077,110.824,0,86.017,0,55.426S32.937,0,73.836,0Z" transform="translate(7058.869 -23573)" fill="#fff"/>
    <path id="Vector-20" data-name="Vector" d="M0,12.32A12.32,12.32,0,1,0,3.608,3.608,12.32,12.32,0,0,0,0,12.32Z" transform="translate(7156.061 -23530.818)" fill="#c3b7fc"/>
    <path id="Vector-21" data-name="Vector" d="M0,12.32a12.348,12.348,0,1,0,3.617-8.7A12.32,12.32,0,0,0,0,12.32Z" transform="translate(7117.146 -23530.818)" fill="#c3b7fc"/>
    <path id="Vector-22" data-name="Vector" d="M0,12.32a12.348,12.348,0,1,0,3.617-8.7A12.32,12.32,0,0,0,0,12.32Z" transform="translate(7078.258 -23530.818)" fill="#c3b7fc"/>
    <path id="Vector-23" data-name="Vector" d="M170.452,188.388a4.805,4.805,0,0,1-2.6,1.313,150.382,150.382,0,0,1-31.233,4.246c-3.827.168-7.683.251-11.538.307H36.8A194.075,194.075,0,0,1,.095,191.741c-.81,0,3.827-47.185,4.246-51.794a428.658,428.658,0,0,1,8.185-55.314A191,191,0,0,1,27.137,41.051c7.655-15,18.41-27.937,34.39-34.641l1.788-.754A78.53,78.53,0,0,1,103.907.822a60.762,60.762,0,0,1,11.845,3.157C141.622,13.9,153.942,40.548,159.864,67.7c8.381,38.5,9.973,78.222,11.314,117.334a4.917,4.917,0,0,1-.726,3.352Z" transform="translate(7176.863 -23317.756)" fill="#f0c9a1"/>
    <path id="Vector-24" data-name="Vector" d="M8.544,101.135C3.376,93.592,2.119,84.373.806,75.545c-4.163-28.356,7.711-59.7,37.8-70.568C55-.946,74.055-2.147,90.426,4.474c31.345,12.627,37.491,44.2,35.787,72.942a56.907,56.907,0,0,1-14.555,35.535,45.844,45.844,0,0,1-27.126,15.7C56.707,133.206,27.9,129.351,8.544,101.135Z" transform="translate(7199.06 -23451.982)" fill="#7f4e2b"/>
    <path id="Vector-25" data-name="Vector" d="M37.351,0V52.409A18.69,18.69,0,0,1,0,52.409V0Z" transform="translate(7247.217 -23360.316)" fill="#f0c9a1"/>
    <path id="Vector-26" data-name="Vector" d="M37.351.222V36.344a78.39,78.39,0,0,1-24.389,3.995A48.163,48.163,0,0,1,0,38.355V6.172A48.078,48.078,0,0,1,6.565,3.658,84.927,84.927,0,0,1,37.351.222Z" transform="translate(7247.217 -23350.594)" fill="#e9b588"/>
    <path id="Vector-27" data-name="Vector" d="M0,60.818c0,33.524,17.824,60.818,45.76,60.818s50.593-27.21,50.593-60.818S73.7,0,45.76,0,0,27.238,0,60.818Z" transform="translate(7215.595 -23438.598)" fill="#f0c9a1"/>
    <path id="Vector-28" data-name="Vector" d="M36.15,14.443c0,7.977-8.092,14.443-18.075,14.443S0,22.42,0,14.443,8.092,0,18.075,0,36.15,6.466,36.15,14.443Z" transform="matrix(0.232, -0.973, 0.973, 0.232, 7294.903, -23354.527)" fill="#f0c9a1"/>
    <path id="Vector-29" data-name="Vector" d="M.6,21.243C-1.686,11.521,2.728,2.163,10.494.319s15.924,4.5,18.243,14.192-2.1,19.081-9.862,20.952S2.924,30.937.6,21.243Z" transform="translate(7200.909 -23386.621)" fill="#f0c9a1"/>
    <path id="Vector-30" data-name="Vector" d="M10.784,56.052C30.731,51.582,44.5,32.864,51.376,13.616A101.27,101.27,0,0,0,94.091,52.56c3.743,1.816,9.107,3.017,11.426-.447a8.828,8.828,0,0,0,1.09-4.414A45.9,45.9,0,0,0,79.983,4.983,57.438,57.438,0,0,0,66.546,1.1,62.41,62.41,0,0,0,20,10.655,47.744,47.744,0,0,0,2.04,36.189C-.586,45.045-3.044,59.1,10.784,56.052Z" transform="translate(7209.53 -23445.174)" fill="#7f4e2b"/>
    <path id="Vector-31" data-name="Vector" d="M1.877,35.538A19.807,19.807,0,0,0,21.712,46.713c6.565-.838,12.432-5.224,19.053-5.2,6.062,0,11.454,3.716,17.349,5.14A23.662,23.662,0,1,0,60.236.254c-8.1,1.173-14.862,5.112-23.271,4.805-5.587-.223-10.979-2.291-16.511-1.4C6.151,6.037-4.465,21.793,1.877,35.538Z" transform="translate(7217.349 -23478.939)" fill="#7f4e2b"/>
    <path id="Vector-32" data-name="Vector" d="M93.951,0V161.837c-3.827.168-7.683.251-11.538.307H0V.112Z" transform="translate(7219.532 -23285.645)" fill="#fff"/>
    <path id="Vector-33" data-name="Vector" d="M78.222,76.77C53.694,86.659,26.484,86.687,0,86.38Q2.1,43.19,4.554,0c.7,1.117,1.425,2.458,2.235,4.079a137.336,137.336,0,0,0,25,35.312C45.76,53.582,62.019,65.2,78.222,76.77Z" transform="translate(7232.272 -23290.535)" fill="#e4e4e4" opacity="0.37"/>
    <path id="Vector-34" data-name="Vector" d="M61.527,0c.14,3.8-.866,8.521-1.034,11.761s-.363,6.118-.5,9.163q-2.57,43.218-4.554,86.3c-.447,9.163-.866,18.3-1.285,27.462q-1.229,26.54-2.291,53.08H36.8A196.394,196.394,0,0,1,.095,185.276c-.81-.168,3.827-47.213,4.246-51.822a428.967,428.967,0,0,1,8.185-55.287A190.528,190.528,0,0,1,27.137,34.586C34.792,19.667,45.548,6.789,61.527,0Z" transform="translate(7176.863 -23311.459)" fill="#514e92"/>
    <path id="Vector-35" data-name="Vector" d="M55.019,184.326a4.805,4.805,0,0,1-2.6,1.313A176.95,176.95,0,0,1,9.65,190.192q-1.034-26.6-2.263-53.08Q4.593,75.652,1.045,14.192C.822,10.2-.631,3.995.319,0,26.188,9.917,38.508,36.569,44.431,63.723c8.381,38.5,9.973,78.222,11.314,117.334A4.917,4.917,0,0,1,55.019,184.326Z" transform="translate(7292.295 -23313.691)" fill="#514e92"/>
    <path id="Vector-36" data-name="Vector" d="M92.724,104.93l-2.989-3.716a52.688,52.688,0,0,0,18.718-40.4V50.23A45.006,45.006,0,0,0,63.977,4.805H48.891A44.7,44.7,0,0,0,4.668,49.979V60.818H0V49.979A49.5,49.5,0,0,1,48.947,0H64.033a49.783,49.783,0,0,1,49.2,50.286V60.874A57.577,57.577,0,0,1,92.724,104.93Z" transform="translate(7206.344 -23439.799)" fill="#fff"/>
    <path id="Vector-37" data-name="Vector" d="M6.565,0h7.347a6.565,6.565,0,0,1,6.565,6.565V37.994a6.565,6.565,0,0,1-6.565,6.565H6.565A6.565,6.565,0,0,1,0,37.994V6.565A6.565,6.565,0,0,1,6.565,0Z" transform="translate(7199.084 -23395.238)" fill="#dfa331"/>
    <path id="Vector-38" data-name="Vector" d="M6.565,0h7.347a6.565,6.565,0,0,1,6.565,6.565V37.994a6.565,6.565,0,0,1-6.565,6.565H6.565A6.565,6.565,0,0,1,0,37.994V6.565A6.565,6.565,0,0,1,6.565,0Z" transform="translate(7308.678 -23395.238)" fill="#dfa331"/>
    <path id="Vector-39" data-name="Vector" d="M20.257,6.628a6.677,6.677,0,0,1-5.336,6.509l-7.1,1.4A6.677,6.677,0,0,1,.031,9.31a6.37,6.37,0,0,1,0-1.257A6.509,6.509,0,0,1,.757,5.035a6.649,6.649,0,0,1,4.61-3.52l7.1-1.4a6.649,6.649,0,0,1,7.012,3.213,6.23,6.23,0,0,1,.754,2.011,6.705,6.705,0,0,1,.028,1.285Z" transform="translate(7282.331 -23344.148)" fill="#dfa331"/>
    <path id="Vector-40" data-name="Vector" d="M18.75,3.331a6.537,6.537,0,0,1-4.582,3.492l-7.1,1.4a4.051,4.051,0,1,1-2.43-6.7l7.1-1.4A6.649,6.649,0,0,1,18.75,3.331Z" transform="translate(7282.942 -23344.148)" fill="#ecbf4c" opacity="0.41"/>
    <path id="Vector-41" data-name="Vector" d="M1.928,0H4.107A1.928,1.928,0,0,1,6.034,1.928V29.389a1.928,1.928,0,0,1-1.928,1.928H1.928A1.928,1.928,0,0,1,0,29.389V1.928A1.928,1.928,0,0,1,1.928,0Z" transform="translate(7195.453 -23389.207)" fill="#ecbf4c"/>
    <path id="Vector-42" data-name="Vector" d="M1.928,0H4.107A1.928,1.928,0,0,1,6.034,1.928V29.389a1.928,1.928,0,0,1-1.928,1.928H1.928A1.928,1.928,0,0,1,0,29.389V1.928A1.928,1.928,0,0,1,1.928,0Z" transform="translate(7325.551 -23389.207)" fill="#ecbf4c"/>
    <g id="Group_616" data-name="Group 616" transform="translate(6991.793 -23388.143)">
      <path id="Vector-43" data-name="Vector" d="M189.019,5.755V130.38a5.587,5.587,0,0,1-.782,2.794,5.727,5.727,0,0,1-4.973,2.794H5.587A5.727,5.727,0,0,1,0,130.24V5.755A5.727,5.727,0,0,1,5.587,0H183.264a5.755,5.755,0,0,1,5.755,5.755Z" transform="translate(0 0)" fill="#f99746"/>
      <path id="Vector-44" data-name="Vector" d="M188.237,133.146a5.727,5.727,0,0,1-4.973,2.794H5.587A5.727,5.727,0,0,1,0,130.212V5.755A5.727,5.727,0,0,1,5.587,0H16.594a65.762,65.762,0,0,0,2.375,7.459,148.064,148.064,0,0,0,33.1,47.688c18.494,18.326,40.62,32.6,63.3,45.369a379.574,379.574,0,0,0,72.859,32.63Z" transform="translate(0 0)" fill="#fff" opacity="0.06"/>
      <path id="Vector-45" data-name="Vector" d="M70.54,0H11.258L0,84.9H81.77Z" transform="translate(53.555 75.428)" fill="#ed7d2b"/>
      <path id="Vector-46" data-name="Vector" d="M31.233,15.617A15.617,15.617,0,1,1,26.659,4.574a15.616,15.616,0,0,1,4.574,11.043Z" transform="translate(78.809 94.148)" fill="#f99746"/>
    </g>
    <g id="Group_612" data-name="Group 612" transform="translate(6989 -23228.904)">
      <path id="Vector-47" data-name="Vector" d="M368.093,0l-1.425,14.415-.894,8.828L357.141,110.1l-1.481,14.778-1.844,18.829-2.933,29.557L348.844,193.8l-.7,6.956H19.947l-2.766-27.49-2.905-29.557L12.4,124.877,10.923,110.1l-8.6-86.855-.894-8.828L0,0Z" transform="translate(24.837 18.132)" fill="#a8d29f"/>
      <path id="Vector-48" data-name="Vector" d="M339.541,0l-2.905,29.529H2.933L0,0Z" transform="translate(39.111 161.836)" fill="#fff"/>
      <path id="Vector-49" data-name="Vector" d="M346.218,0l-1.481,14.778H1.481L0,0Z" transform="translate(35.788 128.229)" fill="#fff"/>
      <path id="Vector-50" data-name="Vector" d="M348.76,193.824l-.7,6.956H19.863l-2.794-27.518-2.794-29.557L12.4,124.9l-1.481-14.778-8.6-86.883-.894-8.828L0,0H51.32c.475.335.978.7,1.453,1.089,23.495,18.718,42.631,45.4,65.986,65.176A659.583,659.583,0,0,0,281.433,167.424q24.444,10.644,49.671,19.248C335.155,188.1,341.637,190.975,348.76,193.824Z" transform="translate(24.919 18.132)" fill="#5f5ea5" opacity="0.11"/>
      <path id="Vector-51" data-name="Vector" d="M10.42,0H407.371a10.42,10.42,0,0,1,10.42,10.42V22.1a10.42,10.42,0,0,1-10.42,10.42H10.42A10.42,10.42,0,0,1,0,22.1V10.42A10.42,10.42,0,0,1,10.42,0Z" fill="#fff"/>
    </g>
  </g>
</svg>
