<svg xmlns="http://www.w3.org/2000/svg" width="221.578" height="168.029" viewBox="0 0 221.578 168.029">
  <g id="Group_708" data-name="Group 708" transform="translate(-7177 22506.563)">
    <path id="Vector" d="M199.973.5H.237A.231.231,0,0,1,.069.424.254.254,0,0,1,0,.248H0A.254.254,0,0,1,.069.073.231.231,0,0,1,.237,0H199.973a.231.231,0,0,1,.167.073.254.254,0,0,1,.069.175h0a.254.254,0,0,1-.069.175.231.231,0,0,1-.167.073Z" transform="translate(7177 -22339.029)" fill="#202f4e"/>
    <path id="Vector-2" data-name="Vector" d="M0,0H23.846V1.133H0Z" transform="translate(7295.34 -22339.9)" fill="#f1a34f"/>
    <g id="Group_649" data-name="Group 649" transform="translate(7229.471 -22506.563)">
      <g id="Group_614" data-name="Group 614" transform="translate(103.546 43.627)">
        <path id="Vector-3" data-name="Vector" d="M27.32.027a16.432,16.432,0,0,0-3.281,2.6c-1.02.933-2.073,1.949-3.069,2.962-1.993,2.025-3.89,4.158-5.7,6.354A156.379,156.379,0,0,0,5.216,25.8C3.459,28.484,1.752,31.2.066,33.929a.479.479,0,1,0,.825.486C6.811,24.825,12.993,15.31,20.77,7.1q1.646-1.734,3.384-3.376A33.905,33.905,0,0,0,27.611.417.247.247,0,0,0,27.32.027Z" transform="translate(4.653 3.071)" fill="#f1b554"/>
        <path id="Vector-4" data-name="Vector" d="M13.081.623c-.574-.833-1.993-.65-2.858-.47A10.814,10.814,0,0,0,4.9,3.5,24.993,24.993,0,0,0,2,7.164,13.728,13.728,0,0,0,.01,11.381a.215.215,0,0,0,.255.275.45.45,0,0,0,.4.092,22.322,22.322,0,0,0,6.521-2.87A23.343,23.343,0,0,0,10.071,6.67,13.071,13.071,0,0,0,12.622,3.8C13.149,2.931,13.711,1.536,13.081.623Z" transform="translate(23.249 0)" fill="#f1b554"/>
        <path id="Vector-5" data-name="Vector" d="M4.65,11.64c.423-1.256.8-2.515,1.116-3.791a34.711,34.711,0,0,0,.717-3.783A4.912,4.912,0,0,0,6.141.917,1.862,1.862,0,0,0,3.773.164,5.205,5.205,0,0,0,1.381,2.555,12.871,12.871,0,0,0,.744,12.668a8.028,8.028,0,0,0,.749,1.491,4.668,4.668,0,0,0,.885,1,.4.4,0,0,0,.175.144l.052.044a.136.136,0,0,0,.191-.028.546.546,0,0,0,.243-.163A9.7,9.7,0,0,0,4.65,11.64Z" transform="translate(17.226 0.208)" fill="#f1b554"/>
        <path id="Vector-6" data-name="Vector" d="M5.971,10.76c0-1.284-.056-2.563-.171-3.831a34.368,34.368,0,0,0-.538-3.7A4.821,4.821,0,0,0,3.951.436,1.8,1.8,0,0,0,1.539.492,4.922,4.922,0,0,0,.116,3.441a12.469,12.469,0,0,0,2.615,9.483,7.4,7.4,0,0,0,1.16,1.132,4.385,4.385,0,0,0,1.128.638.4.4,0,0,0,.207.08l.06.02a.132.132,0,0,0,.167-.084.5.5,0,0,0,.171-.227A9.151,9.151,0,0,0,5.971,10.76Z" transform="translate(10.535 6.596)" fill="#f1b554"/>
        <path id="Vector-7" data-name="Vector" d="M6.592,10.368c-.14-1.276-.323-2.543-.566-3.791A34.245,34.245,0,0,0,5.109,2.95,4.741,4.741,0,0,0,3.515.319a1.81,1.81,0,0,0-2.392.3A4.934,4.934,0,0,0,.015,3.7a11.723,11.723,0,0,0,1.515,6.378,11.56,11.56,0,0,0,2.061,2.79A7.574,7.574,0,0,0,4.858,13.88a4.473,4.473,0,0,0,1.2.518.367.367,0,0,0,.211.056h.064a.128.128,0,0,0,.155-.1.534.534,0,0,0,.151-.247A9.68,9.68,0,0,0,6.592,10.368Z" transform="translate(5.095 13.47)" fill="#f1b554"/>
        <path id="Vector-8" data-name="Vector" d="M7.067,10.034c-.211-1.256-.466-2.5-.8-3.719A32.264,32.264,0,0,0,5.134,2.783,4.767,4.767,0,0,0,3.372.268,1.87,1.87,0,0,0,.957.691,4.771,4.771,0,0,0,0,3.792a11.4,11.4,0,0,0,1.9,6.226,11.739,11.739,0,0,0,2.28,2.639,7.574,7.574,0,0,0,1.347.929,4.624,4.624,0,0,0,1.236.45.4.4,0,0,0,.223.044h.06a.132.132,0,0,0,.155-.108.494.494,0,0,0,.14-.247A9.649,9.649,0,0,0,7.067,10.034Z" transform="translate(0 20.17)" fill="#f1b554"/>
        <path id="Vector-9" data-name="Vector" d="M3.922.316C5.2.164,6.481.057,7.76.017a31.949,31.949,0,0,1,3.763.1,4.754,4.754,0,0,1,2.97,1.02,1.993,1.993,0,0,1,.323,2.527A4.728,4.728,0,0,1,12.1,5.522,11.309,11.309,0,0,1,5.5,5.45,11.815,11.815,0,0,1,2.264,3.967,7.885,7.885,0,0,1,.956,2.9a4.827,4.827,0,0,1-.8-1.1.4.4,0,0,1-.112-.207.4.4,0,0,0-.032-.056.14.14,0,0,1,.06-.187.5.5,0,0,1,.2-.211A9.233,9.233,0,0,1,3.922.316Z" transform="translate(11.162 25.989)" fill="#f1b554"/>
        <path id="Vector-10" data-name="Vector" d="M15.783,3.284A2.814,2.814,0,0,0,14.34.7C12.543-.436,10.063.055,8.114.481A20.054,20.054,0,0,0,1.943,2.961c-.462.283-.921.554-1.4.8-.144.076-.3-.028-.427.128C-.747,4.97,3.538,6.2,4.283,6.413a14.181,14.181,0,0,0,6.753.454C12.933,6.472,15.588,5.584,15.783,3.284Z" transform="translate(19.916 11.127)" fill="#f1b554"/>
        <path id="Vector-11" data-name="Vector" d="M15.084,4.266a2.746,2.746,0,0,0-.845-2.746C12.768.072,10.332.008,8.407,0A19.133,19.133,0,0,0,2.089,1.033C1.6,1.2,1.112,1.36.61,1.5c-.155.04-.283-.092-.434.032-1.028.841,2.77,2.91,3.428,3.265A13.805,13.805,0,0,0,9.89,6.645C11.759,6.661,14.438,6.39,15.084,4.266Z" transform="translate(15.458 18.979)" fill="#f1b554"/>
      </g>
      <g id="Group_611" data-name="Group 611" transform="translate(0 63.627)">
        <path id="Vector-12" data-name="Vector" d="M.4.035A18.721,18.721,0,0,1,4.149,3.007c1.163,1.065,2.37,2.228,3.512,3.386,2.285,2.317,4.447,4.752,6.5,7.264a180.709,180.709,0,0,1,11.5,15.854c2.008,3.069,3.959,6.179,5.886,9.3a.549.549,0,0,1-.943.557C23.84,28.389,16.783,17.519,7.873,8.133,6.621,6.812,5.332,5.519,4.007,4.271A36.673,36.673,0,0,1,.056.491C-.1.247.1-.115.4.035Z" transform="translate(4.898 3.507)" fill="#afc434"/>
        <path id="Vector-13" data-name="Vector" d="M.324.713C.982-.242,2.592-.031,3.576.177A12.43,12.43,0,0,1,9.673,4a28.455,28.455,0,0,1,3.313,4.191,15.658,15.658,0,0,1,2.293,4.821.244.244,0,0,1-.293.313.5.5,0,0,1-.467.106,25.7,25.7,0,0,1-7.459-3.28,26.268,26.268,0,0,1-3.3-2.528A14.854,14.854,0,0,1,.844,4.347C.238,3.351-.4,1.766.324.713Z" transform="translate(0 0)" fill="#afc434"/>
        <path id="Vector-14" data-name="Vector" d="M2.2,13.31c-.484-1.435-.919-2.878-1.276-4.333A39.126,39.126,0,0,1,.108,4.651a5.53,5.53,0,0,1,.407-3.6A2.126,2.126,0,0,1,3.222.188a5.779,5.779,0,0,1,2.711,2.74A14.691,14.691,0,0,1,7.487,8.633a14.691,14.691,0,0,1-.822,5.856A8.829,8.829,0,0,1,5.807,16.2,5.284,5.284,0,0,1,4.783,17.33a.463.463,0,0,1-.2.167l-.057.049a.154.154,0,0,1-.22-.033.577.577,0,0,1-.28-.187A11.194,11.194,0,0,1,2.2,13.31Z" transform="translate(14.646 0.245)" fill="#afc434"/>
        <path id="Vector-15" data-name="Vector" d="M.022,12.288c0-1.467.065-2.931.2-4.378A38.154,38.154,0,0,1,.84,3.678,5.394,5.394,0,0,1,2.335.5,2.065,2.065,0,0,1,5.1.56,5.651,5.651,0,0,1,6.722,3.938a14.228,14.228,0,0,1-.379,5.729A14.228,14.228,0,0,1,3.73,14.779a8.622,8.622,0,0,1-1.321,1.293,5.085,5.085,0,0,1-1.293.732.484.484,0,0,1-.236.089l-.069.024a.15.15,0,0,1-.191-.1.589.589,0,0,1-.2-.26A11.046,11.046,0,0,1,.022,12.288Z" transform="translate(22.955 7.555)" fill="#afc434"/>
        <path id="Vector-16" data-name="Vector" d="M.253,11.86C.412,10.4.619,8.95.9,7.523A38.211,38.211,0,0,1,1.949,3.377,5.441,5.441,0,0,1,3.766.369a2.061,2.061,0,0,1,2.74.35A5.64,5.64,0,0,1,7.774,4.243,14.264,14.264,0,0,1,6.8,9.9a14.264,14.264,0,0,1-3.121,4.818,8.589,8.589,0,0,1-1.451,1.15,5.081,5.081,0,0,1-1.362.593.431.431,0,0,1-.244.065H.558a.15.15,0,0,1-.183-.114.626.626,0,0,1-.171-.28A10.958,10.958,0,0,1,.253,11.86Z" transform="translate(28.241 15.397)" fill="#afc434"/>
        <path id="Vector-17" data-name="Vector" d="M.415,11.471c.244-1.435.533-2.845.9-4.248a37.439,37.439,0,0,1,1.3-4.041A5.347,5.347,0,0,1,4.642.3,2.138,2.138,0,0,1,7.4.792,5.468,5.468,0,0,1,8.5,4.337a13.049,13.049,0,0,1-2.167,7.118,13.414,13.414,0,0,1-2.573,3.016,8.784,8.784,0,0,1-1.537,1.061A5.175,5.175,0,0,1,.8,16.048a.5.5,0,0,1-.252.053H.48A.154.154,0,0,1,.3,15.979a.581.581,0,0,1-.159-.285A10.317,10.317,0,0,1,.415,11.471Z" transform="translate(33.36 23.063)" fill="#afc434"/>
        <path id="Vector-18" data-name="Vector" d="M12.572.321C11.125.163,9.682.049,8.238.013A36.764,36.764,0,0,0,4,.147,5.367,5.367,0,0,0,.678,1.289a2.134,2.134,0,0,0-.3,2.776A5.5,5.5,0,0,0,3.486,6.1a13.032,13.032,0,0,0,7.439-.118,13.415,13.415,0,0,0,3.61-1.626,8.907,8.907,0,0,0,1.443-1.187,5.24,5.24,0,0,0,.89-1.22.512.512,0,0,0,.118-.228.528.528,0,0,1,.033-.069.154.154,0,0,0-.069-.2.569.569,0,0,0-.232-.228A10.568,10.568,0,0,0,12.572.321Z" transform="translate(17.097 37.131)" fill="#afc434"/>
        <path id="Vector-19" data-name="Vector" d="M12.816.361C11.353.186,9.889.06,8.43.02a36.992,36.992,0,0,0-4.3.11A5.5,5.5,0,0,0,.727,1.3,2.272,2.272,0,0,0,.361,4.191a5.393,5.393,0,0,0,3.1,2.122,12.931,12.931,0,0,0,7.549-.081,13.8,13.8,0,0,0,3.7-1.663,9.276,9.276,0,0,0,1.492-1.22,5.626,5.626,0,0,0,.927-1.256.476.476,0,0,0,.126-.24l.037-.065a.154.154,0,0,0-.065-.211A.561.561,0,0,0,17,1.333,10.24,10.24,0,0,0,12.816.361Z" transform="translate(11.792 29.717)" fill="#afc434"/>
        <path id="Vector-20" data-name="Vector" d="M0,3.758A3.228,3.228,0,0,1,1.654.795C3.711-.5,6.532.063,8.772.551A22.845,22.845,0,0,1,15.828,3.4c.528.321,1.053.63,1.6.915.167.089.35-.028.492.15.984,1.22-3.919,2.646-4.768,2.89a16.229,16.229,0,0,1-7.724.516C3.263,7.388.231,6.384,0,3.758Z" transform="translate(1.032 12.723)" fill="#afc434"/>
        <path id="Vector-21" data-name="Vector" d="M.1,4.878a3.146,3.146,0,0,1,.967-3.142C2.745.081,5.538.008,7.733,0a21.919,21.919,0,0,1,7.224,1.22c.565.191,1.118.374,1.7.524.175.045.321-.1.492.037,1.175.963-3.167,3.325-3.919,3.732A15.736,15.736,0,0,1,6.038,7.634C3.9,7.63.838,7.317.1,4.878Z" transform="translate(6.835 21.684)" fill="#afc434"/>
      </g>
      <g id="Group_613" data-name="Group 613" transform="translate(128.948 64.387)">
        <path id="Vector-22" data-name="Vector" d="M.381,37.964a17.962,17.962,0,0,0,3.6-2.851c1.115-1.022,2.274-2.137,3.37-3.249,2.192-2.223,4.267-4.559,6.24-6.97A173.383,173.383,0,0,0,24.621,9.684c1.927-2.945,3.8-5.928,5.648-8.92a.527.527,0,0,0-.9-.534C22.874,10.761,16.1,21.19,7.554,30.2,6.352,31.463,5.116,32.7,3.845,33.9A35.187,35.187,0,0,0,.054,37.528C-.1,37.762.093,38.109.381,37.964Z" transform="translate(35.46 41.363) rotate(180)" fill="#afc434"/>
        <path id="Vector-23" data-name="Vector" d="M.311,12.222c.632.917,2.176.714,3.12.515a11.926,11.926,0,0,0,5.85-3.67A27.3,27.3,0,0,0,12.46,5.046,15.024,15.024,0,0,0,14.66.42a.234.234,0,0,0-.281-.3.48.48,0,0,0-.449-.1A24.653,24.653,0,0,0,6.773,3.166,25.2,25.2,0,0,0,3.61,5.592,14.251,14.251,0,0,0,.81,8.735C.229,9.691-.387,11.212.311,12.222Z" transform="translate(40.159 12.906) rotate(180)" fill="#afc434"/>
        <path id="Vector-24" data-name="Vector" d="M2.108,4.095C1.644,5.471,1.227,6.856.884,8.252A37.539,37.539,0,0,0,.1,12.4a5.306,5.306,0,0,0,.39,3.456,2.04,2.04,0,0,0,2.6.827,5.545,5.545,0,0,0,2.6-2.629,14.1,14.1,0,0,0,1.49-5.474,14.1,14.1,0,0,0-.788-5.618,8.471,8.471,0,0,0-.823-1.638A5.07,5.07,0,0,0,4.589.237.445.445,0,0,0,4.4.077L4.343.031a.148.148,0,0,0-.211.031.554.554,0,0,0-.269.179A10.74,10.74,0,0,0,2.108,4.095Z" transform="translate(26.106 17.099) rotate(180)" fill="#afc434"/>
        <path id="Vector-25" data-name="Vector" d="M.022,4.45c0,1.408.062,2.812.191,4.2a36.607,36.607,0,0,0,.593,4.06,5.175,5.175,0,0,0,1.435,3.05A1.981,1.981,0,0,0,4.889,15.7a5.422,5.422,0,0,0,1.56-3.241,13.651,13.651,0,0,0-.364-5.5A13.651,13.651,0,0,0,3.579,2.059,8.272,8.272,0,0,0,2.311.819a4.879,4.879,0,0,0-1.24-.7A.464.464,0,0,0,.844.031L.778.007A.144.144,0,0,0,.595.1.566.566,0,0,0,.4.351,10.6,10.6,0,0,0,.022,4.45Z" transform="translate(18.134 23.488) rotate(180)" fill="#afc434"/>
        <path id="Vector-26" data-name="Vector" d="M.243,4.482c.152,1.4.351,2.793.62,4.162A36.662,36.662,0,0,0,1.87,12.621a5.22,5.22,0,0,0,1.743,2.886,1.977,1.977,0,0,0,2.629-.335,5.411,5.411,0,0,0,1.217-3.381,13.686,13.686,0,0,0-.93-5.428A13.686,13.686,0,0,0,3.535,1.74,8.241,8.241,0,0,0,2.143.636,4.875,4.875,0,0,0,.836.067.413.413,0,0,0,.6,0H.536A.144.144,0,0,0,.36.113.6.6,0,0,0,.2.383,10.514,10.514,0,0,0,.243,4.482Z" transform="translate(13.063 30.634) rotate(180)" fill="#afc434"/>
        <path id="Vector-27" data-name="Vector" d="M.4,4.445c.234,1.377.511,2.73.862,4.076A35.921,35.921,0,0,0,2.5,12.4a5.13,5.13,0,0,0,1.95,2.761A2.052,2.052,0,0,0,7.1,14.691a5.246,5.246,0,0,0,1.049-3.4A12.52,12.52,0,0,0,6.073,4.46,12.871,12.871,0,0,0,3.6,1.566,8.428,8.428,0,0,0,2.13.548,4.965,4.965,0,0,0,.772.053.484.484,0,0,0,.53,0H.46A.148.148,0,0,0,.289.119.558.558,0,0,0,.136.392,9.9,9.9,0,0,0,.4,4.445Z" transform="translate(8.151 37.579) rotate(180)" fill="#afc434"/>
        <path id="Vector-28" data-name="Vector" d="M12.062,6.007c-1.388.152-2.773.261-4.158.3a35.273,35.273,0,0,1-4.068-.129A5.15,5.15,0,0,1,.65,5.079,2.048,2.048,0,0,1,.365,2.415,5.273,5.273,0,0,1,3.345.465a12.5,12.5,0,0,1,7.137.113,12.871,12.871,0,0,1,3.463,1.56A8.545,8.545,0,0,1,15.33,3.277a5.027,5.027,0,0,1,.854,1.17.491.491,0,0,1,.113.218.507.507,0,0,0,.031.066.148.148,0,0,1-.066.2.546.546,0,0,1-.222.218A10.14,10.14,0,0,1,12.062,6.007Z" transform="translate(23.755 41.942) rotate(180)" fill="#afc434"/>
        <path id="Vector-29" data-name="Vector" d="M12.3,6.212c-1.4.168-2.808.289-4.208.328a35.492,35.492,0,0,1-4.13-.105A5.28,5.28,0,0,1,.7,5.315,2.18,2.18,0,0,1,.346,2.538,5.174,5.174,0,0,1,3.322.5,12.407,12.407,0,0,1,10.565.58a13.237,13.237,0,0,1,3.553,1.6,8.9,8.9,0,0,1,1.431,1.17,5.4,5.4,0,0,1,.889,1.205.456.456,0,0,1,.121.23l.035.062a.148.148,0,0,1-.062.2.538.538,0,0,1-.218.234A9.825,9.825,0,0,1,12.3,6.212Z" transform="translate(28.845 35.071) rotate(180)" fill="#afc434"/>
        <path id="Vector-30" data-name="Vector" d="M0,4.2A3.1,3.1,0,0,0,1.587,7.041c1.974,1.24,4.68.7,6.829.234a21.919,21.919,0,0,0,6.771-2.73c.507-.308,1.01-.6,1.537-.878.16-.086.335.027.472-.144C18.139,2.353,13.435.984,12.62.75a15.571,15.571,0,0,0-7.41-.5C3.131.715.222,1.678,0,4.2Z" transform="translate(39.169 20.011) rotate(180)" fill="#afc434"/>
        <path id="Vector-31" data-name="Vector" d="M.095,2.644a3.019,3.019,0,0,0,.928,3.015c1.611,1.587,4.29,1.658,6.4,1.665a21.03,21.03,0,0,0,6.931-1.17c.542-.183,1.073-.359,1.626-.5.168-.043.308.1.472-.035,1.127-.924-3.038-3.19-3.76-3.58A15.1,15.1,0,0,0,5.793,0C3.741,0,.8.3.095,2.644Z" transform="translate(33.601 28.13) rotate(180)" fill="#afc434"/>
      </g>
      <g id="Group_630" data-name="Group 630" transform="translate(75.578 0)">
        <path id="Vector-32" data-name="Vector" d="M.381,37.964a17.962,17.962,0,0,0,3.6-2.851c1.115-1.022,2.274-2.137,3.37-3.249,2.192-2.223,4.267-4.559,6.24-6.97A173.383,173.383,0,0,0,24.621,9.684c1.927-2.945,3.8-5.928,5.648-8.92a.527.527,0,0,0-.9-.534C22.874,10.761,16.1,21.19,7.554,30.2,6.352,31.463,5.116,32.7,3.845,33.9A35.187,35.187,0,0,0,.054,37.528C-.1,37.762.093,38.109.381,37.964Z" transform="translate(33.146 0) rotate(28.061)" fill="#afc434"/>
        <path id="Vector-33" data-name="Vector" d="M.311,12.222c.632.917,2.176.714,3.12.515a11.926,11.926,0,0,0,5.85-3.67A27.3,27.3,0,0,0,12.46,5.046,15.024,15.024,0,0,0,14.66.42a.234.234,0,0,0-.281-.3.48.48,0,0,0-.449-.1A24.653,24.653,0,0,0,6.773,3.166,25.2,25.2,0,0,0,3.61,5.592,14.251,14.251,0,0,0,.81,8.735C.229,9.691-.387,11.212.311,12.222Z" transform="translate(23.907 16.963) rotate(28.061)" fill="#afc434"/>
        <path id="Vector-34" data-name="Vector" d="M2.108,4.095C1.644,5.471,1.227,6.856.884,8.252A37.539,37.539,0,0,0,.1,12.4a5.306,5.306,0,0,0,.39,3.456,2.04,2.04,0,0,0,2.6.827,5.545,5.545,0,0,0,2.6-2.629,14.1,14.1,0,0,0,1.49-5.474,14.1,14.1,0,0,0-.788-5.618,8.471,8.471,0,0,0-.823-1.638A5.07,5.07,0,0,0,4.589.237.445.445,0,0,0,4.4.077L4.343.031a.148.148,0,0,0-.211.031.554.554,0,0,0-.269.179A10.74,10.74,0,0,0,2.108,4.095Z" transform="translate(13.479 20.287) rotate(28.061)" fill="#afc434"/>
        <path id="Vector-35" data-name="Vector" d="M.022,4.45c0,1.408.062,2.812.191,4.2a36.607,36.607,0,0,0,.593,4.06,5.175,5.175,0,0,0,1.435,3.05A1.981,1.981,0,0,0,4.889,15.7a5.422,5.422,0,0,0,1.56-3.241,13.651,13.651,0,0,0-.364-5.5A13.651,13.651,0,0,0,3.579,2.059,8.272,8.272,0,0,0,2.311.819a4.879,4.879,0,0,0-1.24-.7A.464.464,0,0,0,.844.031L.778.007A.144.144,0,0,0,.595.1.566.566,0,0,0,.4.351,10.6,10.6,0,0,0,.022,4.45Z" transform="translate(9.449 30.779) rotate(28.061)" fill="#afc434"/>
        <path id="Vector-36" data-name="Vector" d="M.243,4.482c.152,1.4.351,2.793.62,4.162A36.662,36.662,0,0,0,1.87,12.621a5.22,5.22,0,0,0,1.743,2.886,1.977,1.977,0,0,0,2.629-.335,5.411,5.411,0,0,0,1.217-3.381,13.686,13.686,0,0,0-.93-5.428A13.686,13.686,0,0,0,3.535,1.74,8.241,8.241,0,0,0,2.143.636,4.875,4.875,0,0,0,.836.067.413.413,0,0,0,.6,0H.536A.144.144,0,0,0,.36.113.6.6,0,0,0,.2.383,10.514,10.514,0,0,0,.243,4.482Z" transform="translate(8.336 40.138) rotate(28.061)" fill="#afc434"/>
        <path id="Vector-37" data-name="Vector" d="M.4,4.445c.234,1.377.511,2.73.862,4.076A35.921,35.921,0,0,0,2.5,12.4a5.13,5.13,0,0,0,1.95,2.761A2.052,2.052,0,0,0,7.1,14.691a5.246,5.246,0,0,0,1.049-3.4A12.52,12.52,0,0,0,6.073,4.46,12.871,12.871,0,0,0,3.6,1.566,8.428,8.428,0,0,0,2.13.548,4.965,4.965,0,0,0,.772.053.484.484,0,0,0,.53,0H.46A.148.148,0,0,0,.289.119.558.558,0,0,0,.136.392,9.9,9.9,0,0,0,.4,4.445Z" transform="translate(7.268 49.302) rotate(28.061)" fill="#afc434"/>
        <path id="Vector-38" data-name="Vector" d="M12.062,6.007c-1.388.152-2.773.261-4.158.3a35.273,35.273,0,0,1-4.068-.129A5.15,5.15,0,0,1,.65,5.079,2.048,2.048,0,0,1,.365,2.415,5.273,5.273,0,0,1,3.345.465a12.5,12.5,0,0,1,7.137.113,12.871,12.871,0,0,1,3.463,1.56A8.545,8.545,0,0,1,15.33,3.277a5.027,5.027,0,0,1,.854,1.17.491.491,0,0,1,.113.218.507.507,0,0,0,.031.066.148.148,0,0,1-.066.2.546.546,0,0,1-.222.218A10.14,10.14,0,0,1,12.062,6.007Z" transform="translate(23.09 61.933) rotate(28.061)" fill="#afc434"/>
        <path id="Vector-39" data-name="Vector" d="M12.3,6.212c-1.4.168-2.808.289-4.208.328a35.492,35.492,0,0,1-4.13-.105A5.28,5.28,0,0,1,.7,5.315,2.18,2.18,0,0,1,.346,2.538,5.174,5.174,0,0,1,3.322.5,12.407,12.407,0,0,1,10.565.58a13.237,13.237,0,0,1,3.553,1.6,8.9,8.9,0,0,1,1.431,1.17,5.4,5.4,0,0,1,.889,1.205.456.456,0,0,1,.121.23l.035.062a.148.148,0,0,1-.062.2.538.538,0,0,1-.218.234A9.825,9.825,0,0,1,12.3,6.212Z" transform="translate(24.35 53.048) rotate(28.061)" fill="#afc434"/>
        <path id="Vector-40" data-name="Vector" d="M0,4.2A3.1,3.1,0,0,0,1.587,7.041c1.974,1.24,4.68.7,6.829.234a21.919,21.919,0,0,0,6.771-2.73c.507-.308,1.01-.6,1.537-.878.16-.086.335.027.472-.144C18.139,2.353,13.435.984,12.62.75a15.571,15.571,0,0,0-7.41-.5C3.131.715.222,1.678,0,4.2Z" transform="translate(26.375 32.704) rotate(28.061)" fill="#afc434"/>
        <path id="Vector-41" data-name="Vector" d="M.095,2.644a3.019,3.019,0,0,0,.928,3.015c1.611,1.587,4.29,1.658,6.4,1.665a21.03,21.03,0,0,0,6.931-1.17c.542-.183,1.073-.359,1.626-.5.168-.043.308.1.472-.035,1.127-.924-3.038-3.19-3.76-3.58A15.1,15.1,0,0,0,5.793,0C3.741,0,.8.3.095,2.644Z" transform="translate(25.281 43.333) rotate(28.061)" fill="#afc434"/>
      </g>
      <g id="Group_617" data-name="Group 617" transform="translate(34.769 39.998)">
        <path id="Vector-42" data-name="Vector" d="M.4.076A15.909,15.909,0,0,1,2.763,3.423C3.459,4.58,4.17,5.831,4.828,7.06c1.316,2.457,2.5,4.983,3.591,7.547a154.064,154.064,0,0,1,5.6,15.806c.909,3.009,1.757,6.037,2.583,9.065a.469.469,0,0,1-.909.228c-2.9-10.651-6.067-21.3-11.1-31.17Q3.531,6.448,2.352,4.424A35.841,35.841,0,0,1,.02.361C-.075.122.191-.13.4.076Z" transform="translate(6.293 3.737)" fill="#f1b554"/>
        <path id="Vector-43" data-name="Vector" d="M.644.279C1.4-.345,2.69.214,3.459.629A10.547,10.547,0,0,1,7.533,5.251,24.449,24.449,0,0,1,9.241,9.489,13.432,13.432,0,0,1,9.952,14a.209.209,0,0,1-.316.186.43.43,0,0,1-.411-.027A21.828,21.828,0,0,1,3.9,9.66,22.356,22.356,0,0,1,1.8,6.784,12.766,12.766,0,0,1,.195,3.4C-.056,2.428-.2.964.644.279Z" transform="translate(2.645 0)" fill="#f1b554"/>
        <path id="Vector-44" data-name="Vector" d="M.04,10.977c-.049-1.293-.057-2.587,0-3.869A34.1,34.1,0,0,1,.42,3.354,4.786,4.786,0,0,1,1.615.493,1.822,1.822,0,0,1,4.049.44,4.981,4.981,0,0,1,5.617,3.35a12.6,12.6,0,0,1-.11,5.065,12.6,12.6,0,0,1-2.1,4.612A7.909,7.909,0,0,1,2.3,14.219a4.477,4.477,0,0,1-1.111.7A.43.43,0,0,1,.98,15l-.061.023a.133.133,0,0,1-.171-.076.552.552,0,0,1-.186-.221A9.559,9.559,0,0,1,.04,10.977Z" transform="translate(13.717 3.837)" fill="#f1b554"/>
        <path id="Vector-45" data-name="Vector" d="M.724,9.283C1.1,8.077,1.485,6.89,1.949,5.73A32.977,32.977,0,0,1,3.47,2.405a4.632,4.632,0,0,1,2-2.248A1.765,1.765,0,0,1,7.727.876a4.84,4.84,0,0,1,.514,3.169,12.23,12.23,0,0,1-1.7,4.612,12.23,12.23,0,0,1-3.379,3.57,7.277,7.277,0,0,1-1.4.742,4.333,4.333,0,0,1-1.225.285.38.38,0,0,1-.217.019H.26a.131.131,0,0,1-.133-.126.487.487,0,0,1-.1-.259A9.074,9.074,0,0,1,.724,9.283Z" transform="translate(16.548 12.212)" fill="#f1b554"/>
        <path id="Vector-46" data-name="Vector" d="M1.088,8.675c.483-1.16,1-2.3,1.582-3.4A32.894,32.894,0,0,1,4.538,2.117,4.662,4.662,0,0,1,6.76.089a1.773,1.773,0,0,1,2.168.947,4.835,4.835,0,0,1,.186,3.2A12.222,12.222,0,0,1,6.943,8.65a12.223,12.223,0,0,1-3.733,3.2,7.228,7.228,0,0,1-1.468.593,4.428,4.428,0,0,1-1.263.16.418.418,0,0,1-.217,0H.2a.129.129,0,0,1-.129-.152A.552.552,0,0,1,0,12.179,9.614,9.614,0,0,1,1.088,8.675Z" transform="translate(18.916 20.245)" fill="#f1b554"/>
        <path id="Vector-47" data-name="Vector" d="M1.261,8.208C1.809,7.09,2.4,5.994,3.03,4.937A32.361,32.361,0,0,1,5.076,1.931,4.623,4.623,0,0,1,7.431.06,1.826,1.826,0,0,1,9.58,1.125a4.653,4.653,0,0,1,.038,3.18A11.15,11.15,0,0,1,6.111,9.631a11.511,11.511,0,0,1-2.845,1.856,7.654,7.654,0,0,1-1.522.5,4.618,4.618,0,0,1-1.286.08.43.43,0,0,1-.221-.019H.177A.129.129,0,0,1,.059,11.9.483.483,0,0,1,0,11.632,9.09,9.09,0,0,1,1.261,8.208Z" transform="translate(21.314 27.969)" fill="#f1b554"/>
        <path id="Vector-48" data-name="Vector" d="M11.013,2.407C9.872,1.924,8.7,1.483,7.528,1.1A32.08,32.08,0,0,0,4.013.182,4.634,4.634,0,0,0,1.008.315,1.83,1.83,0,0,0,.1,2.533,4.646,4.646,0,0,0,2.153,4.956,11.161,11.161,0,0,0,8.289,6.649a11.412,11.412,0,0,0,3.363-.472,7.445,7.445,0,0,0,1.472-.624,4.527,4.527,0,0,0,1.027-.784.411.411,0,0,0,.152-.16l.042-.046a.129.129,0,0,0,0-.183.514.514,0,0,0-.133-.247A9.168,9.168,0,0,0,11.013,2.407Z" transform="translate(7.48 35.174)" fill="#f1b554"/>
        <path id="Vector-49" data-name="Vector" d="M11.237,2.488c-1.141-.5-2.328-.955-3.519-1.347A32,32,0,0,0,4.154.19,4.7,4.7,0,0,0,1.08.323a1.948,1.948,0,0,0-1,2.282,4.705,4.705,0,0,0,2.035,2.5A11.108,11.108,0,0,0,8.335,6.87a11.793,11.793,0,0,0,3.446-.464A8.084,8.084,0,0,0,13.3,5.763a4.831,4.831,0,0,0,1.065-.81.422.422,0,0,0,.164-.164l.042-.046a.133.133,0,0,0,0-.19.525.525,0,0,0-.129-.255A8.785,8.785,0,0,0,11.237,2.488Z" transform="translate(4.886 27.809)" fill="#f1b554"/>
        <path id="Vector-50" data-name="Vector" d="M.059,2.167A2.754,2.754,0,0,1,2.132.151c2-.567,4.184.582,5.908,1.522a19.644,19.644,0,0,1,5.109,4.044c.358.38.711.761,1.1,1.141.114.11.293.061.38.243.51,1.255-3.861,1.225-4.614,1.217A13.8,13.8,0,0,1,3.543,6.869C1.869,5.94-.394,4.381.059,2.167Z" transform="translate(0 11.24)" fill="#f1b554"/>
        <path id="Vector-51" data-name="Vector" d="M0,2.843A2.689,2.689,0,0,1,1.556.5c1.78-.951,4.086-.335,5.9.19A18.746,18.746,0,0,1,13.109,3.41c.415.3.829.578,1.263.845.133.08.293,0,.38.148.73,1.077-3.424,1.963-4.127,2.115a13.509,13.509,0,0,1-6.417,0C2.457,6.012.015,5.019,0,2.843Z" transform="translate(2.455 20.29)" fill="#f1b554"/>
      </g>
      <path id="Vector-52" data-name="Vector" d="M22.778.59l5.258,62.517s.55,3.789-2.268,3.8c-4.635.011-23.069,0-23.069,0s3.489-.789,3.446-2.564C6.1,62.248,0,0,0,0Z" transform="translate(63.771 100.889)" fill="#d86713"/>
      <path id="Vector-53" data-name="Vector" d="M25.768,66.905c-4.514.058-22.12,0-23.033,0,.343,0,2.992-.065,3.365-2.058a2.645,2.645,0,0,0,.045-.506c0-.39-.216-2.863-.564-6.632-.311-3.381-.729-7.8-1.2-12.695C2.567,26.049,0,0,0,0L22.779.591l3.736,44.423.729,8.67.656,7.8.137,1.625S28.679,66.868,25.768,66.905Z" transform="translate(62.238 99.753)" fill="#ee9849"/>
      <path id="Vector-54" data-name="Vector" d="M131.345,0,118.538,51.443l-1.754,7.046L110.82,82.45H0L21.986,0Z" transform="translate(10.522 67.46)" fill="#f1a34f"/>
      <path id="Vector-55" data-name="Vector" d="M20.526,0,22.3.592,2.36,84.24,0,82.451Z" transform="translate(121.341 67.46)" fill="#ee9849"/>
      <path id="Vector-56" data-name="Vector" d="M113.179,1.789H3.041L0,0H110.818Z" transform="translate(10.523 149.911)" fill="#d86713"/>
      <path id="Vector-57" data-name="Vector" d="M22.352,0,22.2,1.774l-.006.065S6.708,3.324.542,5.8C.387,4.1.2,2.147,0,0Z" transform="translate(67.278 151.662)" fill="#d86713"/>
      <path id="Vector-58" data-name="Vector" d="M23.033,5.42c-4.514.058-22.12,0-23.033,0,.343,0,2.992-.065,3.365-2.058A57.749,57.749,0,0,0,25.164,0L25.3,1.625S25.944,5.383,23.033,5.42Z" transform="translate(64.973 161.238)" fill="#d86713" opacity="0.4"/>
      <path id="Vector-59" data-name="Vector" d="M41.34,0,37.31,16.186H0C15.776,11.174,23.244,3.842,26.253,0Z" transform="translate(83.887 133.724)" fill="#d86713" opacity="0.4"/>
      <path id="Vector-60" data-name="Vector" d="M17.744,0,.048,66.265H0L17.589,0Z" transform="translate(14.765 67.459)" fill="#9ed9f0"/>
      <path id="Vector-61" data-name="Vector" d="M124.87,0l-15.8,65.174H0L17.711,0Z" transform="translate(16.162 68.55)" fill="#d2e8f0"/>
      <path id="Vector-62" data-name="Vector" d="M.226,0H1.575L1.3.993,0,.846Z" transform="translate(14.587 133.724)" fill="#f1a34f"/>
      <path id="Vector-63" data-name="Vector" d="M1.013,0V1.09H0L.264,0Z" transform="translate(141.032 67.459)" fill="#f1a34f"/>
      <path id="Vector-64" data-name="Vector" d="M0,54.639H40.646L54.269,0H13.623Z" transform="translate(34.775 74.263)" fill="#fff"/>
      <g id="Group" transform="translate(44.619 88.398)" opacity="0.5">
        <path id="Vector-65" data-name="Vector" d="M.475,1.441H27.4a.83.83,0,0,0,.76-.607l.057-.227A.458.458,0,0,0,27.762,0H.834a.83.83,0,0,0-.76.607L.018.834A.46.46,0,0,0,.475,1.441Z" transform="translate(4.024 9.608)" fill="#699dee" opacity="0.5"/>
        <path id="Vector-66" data-name="Vector" d="M.477,1.441H27.4a.831.831,0,0,0,.76-.607l.057-.227A.458.458,0,0,0,27.762,0H.833a.831.831,0,0,0-.76.607L.017.834A.464.464,0,0,0,.477,1.441Z" transform="translate(6.418)" fill="#699dee" opacity="0.5"/>
        <path id="Vector-67" data-name="Vector" d="M.474,1.441H27.4a.831.831,0,0,0,.76-.607l.057-.227A.458.458,0,0,0,27.762,0H.834a.831.831,0,0,0-.76.607L.018.834A.462.462,0,0,0,.474,1.441Z" transform="translate(5.588 3.338)" fill="#699dee" opacity="0.5"/>
        <path id="Vector-68" data-name="Vector" d="M.475,1.441H27.4a.831.831,0,0,0,.76-.607l.057-.227A.458.458,0,0,0,27.761,0H.834a.831.831,0,0,0-.76.607L.018.834A.461.461,0,0,0,.475,1.441Z" transform="translate(4.806 6.473)" fill="#699dee" opacity="0.5"/>
        <path id="Vector-69" data-name="Vector" d="M.475,1.441H27.4a.831.831,0,0,0,.76-.607l.057-.228A.458.458,0,0,0,27.762,0H.834a.833.833,0,0,0-.76.607L.018.835A.461.461,0,0,0,.475,1.441Z" transform="translate(2.431 15.997)" fill="#699dee" opacity="0.5"/>
        <path id="Vector-70" data-name="Vector" d="M.477,1.441H27.4a.833.833,0,0,0,.76-.607l.057-.228A.458.458,0,0,0,27.763,0H.833a.833.833,0,0,0-.76.607L.017.835A.465.465,0,0,0,.477,1.441Z" transform="translate(3.211 12.862)" fill="#699dee" opacity="0.5"/>
        <path id="Vector-71" data-name="Vector" d="M.563,1.441H7.1A.988.988,0,0,0,8,.721.546.546,0,0,0,7.463,0H.922a.987.987,0,0,0-.9.721A.546.546,0,0,0,.563,1.441Z" transform="translate(0 25.85)" fill="#699dee" opacity="0.5"/>
        <path id="Vector-72" data-name="Vector" d="M.563,1.441H7.1A.988.988,0,0,0,8,.721.546.546,0,0,0,7.462,0H.922a.987.987,0,0,0-.9.721A.546.546,0,0,0,.563,1.441Z" transform="translate(20.035 25.85)" fill="#699dee" opacity="0.5"/>
      </g>
      <path id="Vector-73" data-name="Vector" d="M10.3,4.673H.76A.746.746,0,0,1,.154,4.4a.79.79,0,0,1-.122-.692L.72.949A1.3,1.3,0,0,1,1.9,0h9.536a.744.744,0,0,1,.6.275.79.79,0,0,1,.123.692l-.688,2.757A1.293,1.293,0,0,1,10.3,4.673ZM1.906.077A1.216,1.216,0,0,0,.794.968L.106,3.725a.711.711,0,0,0,.109.626A.668.668,0,0,0,.76,4.6H10.3a1.217,1.217,0,0,0,1.111-.89L12.094.949a.716.716,0,0,0-.108-.627.675.675,0,0,0-.544-.245Z" transform="translate(40.513 118.771)" fill="#476ba7"/>
      <path id="Vector-74" data-name="Vector" d="M10.3,4.673H.759a.744.744,0,0,1-.6-.275.79.79,0,0,1-.123-.692L.72.949A1.3,1.3,0,0,1,1.9,0h9.536a.746.746,0,0,1,.612.278.79.79,0,0,1,.122.692l-.688,2.757A1.307,1.307,0,0,1,10.3,4.673ZM1.9.077A1.217,1.217,0,0,0,.793.968L.106,3.725a.714.714,0,0,0,.108.626A.67.67,0,0,0,.758,4.6h9.536a1.216,1.216,0,0,0,1.111-.89L12.094.949a.713.713,0,0,0-.109-.627.669.669,0,0,0-.544-.245Z" transform="translate(60.581 118.771)" fill="#476ba7"/>
      <path id="Vector-75" data-name="Vector" d="M.1,1.8A2.658,2.658,0,0,1,2.5,0a1.231,1.231,0,0,1,1.16.566l-.63.526A.846.846,0,0,0,2.267.7,1.559,1.559,0,0,0,.9,1.8c-.2.61.054,1.092.65,1.092A1.75,1.75,0,0,0,2.6,2.486l.316.522A2.416,2.416,0,0,1,1.294,3.6,1.239,1.239,0,0,1,.1,1.8Z" transform="translate(53.372 78.049)" fill="#476ba7"/>
      <path id="Vector-76" data-name="Vector" d="M.1,1.8A2.7,2.7,0,0,1,2.539,0,1.253,1.253,0,0,1,3.791,1.8a2.692,2.692,0,0,1-2.441,1.8A1.253,1.253,0,0,1,.1,1.8Zm2.894,0C3.188,1.2,2.914.7,2.3.7A1.569,1.569,0,0,0,.9,1.8c-.2.61.078,1.092.695,1.092A1.569,1.569,0,0,0,2.992,1.8Z" transform="translate(56.94 78.049)" fill="#476ba7"/>
      <path id="Vector-77" data-name="Vector" d="M1.14,0h.7l.928,2.139L3.475,0H4.23L3.088,3.472H2.437L1.479,1.263.754,3.472H0Z" transform="translate(60.842 78.108)" fill="#476ba7"/>
      <path id="Vector-78" data-name="Vector" d="M1.057.7H0L.231,0H3.111L2.879.7H1.822L.913,3.472H.149Z" transform="translate(65.424 78.108)" fill="#476ba7"/>
      <path id="Vector-79" data-name="Vector" d="M1.132,0H2.721a1.017,1.017,0,0,1,.9.352.911.911,0,0,1,.034.8,1.665,1.665,0,0,1-1.1,1.078L3,3.474H2.1l-.39-1.111H1.122L.76,3.472H0Zm.986,1.688a.748.748,0,0,0,.75-.5c.107-.328-.066-.5-.438-.5H1.67l-.327,1Z" transform="translate(67.989 78.108)" fill="#476ba7"/>
      <path id="Vector-80" data-name="Vector" d="M2.641,0h.7l.338,3.5h-.8l-.062-.779H1.353L.779,3.5H0Zm.133,2.046L2.682.919,1.851,2.046Z" transform="translate(71.269 78.083)" fill="#476ba7"/>
      <path id="Vector-81" data-name="Vector" d="M.1,1.8A2.658,2.658,0,0,1,2.5,0a1.231,1.231,0,0,1,1.16.566l-.63.526A.845.845,0,0,0,2.266.7,1.559,1.559,0,0,0,.9,1.8c-.2.61.054,1.092.65,1.092A1.75,1.75,0,0,0,2.6,2.486l.315.522A2.414,2.414,0,0,1,1.294,3.6,1.24,1.24,0,0,1,.1,1.8Z" transform="translate(75.583 78.049)" fill="#476ba7"/>
      <path id="Vector-82" data-name="Vector" d="M1.055.7H0L.231,0H3.111L2.879.7H1.822L.914,3.472H.149Z" transform="translate(79.592 78.108)" fill="#476ba7"/>
      <path id="Vector-83" data-name="Vector" d="M9.686.015q-2.174.9-4.314,1.962c.057-.159.108-.32.153-.479.035-.129-.138-.214-.245-.073-.048.063-.1.122-.151.18.035-.115-.1-.179-.217-.095l-.022.017c.057-.154-.184-.178-.273-.028l-.134.224a.943.943,0,0,1-.432.289.743.743,0,0,1-.063-.241.107.107,0,0,0-.111-.1c0-.078-.073-.125-.178-.078a.981.981,0,0,0-.328.242c-.072-.133-.3-.038-.422.09l.01-.022c.058-.123-.05-.265-.195-.14a1.758,1.758,0,0,0-.533.781,3.038,3.038,0,0,1-.273.269c-.047.041-.268.246-.32.228s-.023-.144,0-.234l.024-.033c.184-.253,1.07-1.46.446-1.449a.221.221,0,0,0-.169.105,4.135,4.135,0,0,0-.512,1.09c-.02.071-.049.162-.072.253L1.3,2.846A2.85,2.85,0,0,1,.306,3.8,4.452,4.452,0,0,1,.719,2.154c.084-.23.169-.46.262-.69a.2.2,0,0,0,.084-.045A1.1,1.1,0,0,0,1.48.147c-.057-.1-.23-.009-.279.1Q.752,1.254.388,2.269A3.881,3.881,0,0,0,.019,4.052a.1.1,0,0,0,.141.066A2.341,2.341,0,0,0,1.341,3.2a.189.189,0,0,0,.125.111c.214.063.506-.174.715-.372a.8.8,0,0,0,.037.2c.023.07.1.084.18.052a1.654,1.654,0,0,0,.54-.361A1.156,1.156,0,0,0,3.477,2.4a2.928,2.928,0,0,0,.267-.265.408.408,0,0,0,.073.135c.078.089.275.008.4-.049a1.322,1.322,0,0,0,.329-.216.669.669,0,0,0,.227-.062A.179.179,0,0,0,4.828,2a.234.234,0,0,0,.262-.024c-.02.058-.041.116-.064.175q-.311.157-.622.317c-.138.071-.169.28-.016.268l.571-.043a.229.229,0,0,0,.192-.144c.034-.076.066-.153.1-.229Q7.481,1.2,9.756.26C9.943.184,9.88-.064,9.686.015ZM3.049,2.21A.9.9,0,0,1,3,2.329c-.013.027-.027.054-.042.084a1.017,1.017,0,0,1,.089-.206Zm-.422.358a.354.354,0,0,0-.005.217,1.35,1.35,0,0,1-.143.095.822.822,0,0,1,.016-.267c.066-.078.128-.159.186-.241a1.4,1.4,0,0,0-.051.193Z" transform="translate(63.257 118.39)" fill="#365da2"/>
      <path id="Vector-84" data-name="Vector" d="M3.354.064c-.512.954-.8,1.932-1.217,2.9a7.77,7.77,0,0,1-.753,1.383C1.168,4.652.7,5.324.3,5.179.2,5.142.17,5.057.2,4.941c.007-.026.016-.052.025-.078a.22.22,0,0,0,.207-.024.743.743,0,0,0,.3-.328c.06-.129.05-.264-.055-.322a.294.294,0,0,0-.325.092,1.077,1.077,0,0,0-.208.369A1.148,1.148,0,0,0,0,5.111c.014.22.253.3.484.247a1.483,1.483,0,0,0,.722-.532A6.255,6.255,0,0,0,1.8,3.991,11.512,11.512,0,0,0,2.623,2.2,17.645,17.645,0,0,1,3.51.112C3.571,0,3.415-.048,3.354.064ZM.578,4.392c.018.067-.047.155-.1.218a.338.338,0,0,1-.061.06A.221.221,0,0,1,.373,4.7H.359a.059.059,0,0,0-.054-.03c.023-.051.046-.1.068-.148.034-.068.168-.267.2-.125Z" transform="translate(42.932 117.454)" fill="#365da2"/>
      <path id="Vector-85" data-name="Vector" d="M4.741.253a1.16,1.16,0,0,1-.326.135.306.306,0,0,1-.084,0A.506.506,0,0,0,4.492.135c.019-.138-.133-.169-.262-.1a.4.4,0,0,0-.2.3.207.207,0,0,0,.015.1A.7.7,0,0,1,3.626.6,1.519,1.519,0,0,0,4.013.219.084.084,0,0,0,4.019.134.256.256,0,0,0,3.693.109a.653.653,0,0,0-.279.338A.5.5,0,0,0,3.378.57a.968.968,0,0,1-.414.094h0c.043-.041.084-.084.127-.123.062-.062.025-.126-.033-.134a.267.267,0,0,0-.266.208,3.979,3.979,0,0,1-.655.474c-.058.033-.137.1-.176.058A2.017,2.017,0,0,0,2.229.912c.158-.169.314-.462.127-.565a.11.11,0,0,0-.132.032L1.978.7A1.4,1.4,0,0,0,1.789,1a.413.413,0,0,0-.027.1,1.842,1.842,0,0,1-.259.134l-.023.009.144-.116A.6.6,0,0,0,1.89.734.424.424,0,0,0,1.721.405C1.7.383,1.643.394,1.609.42a1.766,1.766,0,0,0-.583.748.294.294,0,0,0-.008.245Q.668,1.68.31,1.934C.285,1.951.225,2.008.2,2S.185,1.937.185,1.915a1.79,1.79,0,0,1,.012-.2,1.97,1.97,0,0,1,.109-.448A2.4,2.4,0,0,1,.487.88a.1.1,0,0,0,.1-.018A.61.61,0,0,0,.84.345C.834.281.734.291.687.345A2.508,2.508,0,0,0,0,2.019c.005.12.059.22.22.154A1.226,1.226,0,0,0,.43,2.039c.084-.062.174-.125.26-.188q.244-.179.485-.363a.832.832,0,0,0,.287-.064,1.954,1.954,0,0,0,.332-.159.164.164,0,0,0,.173.084.933.933,0,0,0,.29-.147c.1-.058.192-.12.285-.186S2.72.884,2.8.813c.019.027.053.035.111.036A1,1,0,0,0,3.162.823,1.332,1.332,0,0,0,3.426.73a.169.169,0,0,0,.043.03A.478.478,0,0,0,3.827.738,1.369,1.369,0,0,0,4.165.549a.338.338,0,0,0,.1.026A.977.977,0,0,0,4.785.414C4.9.345,4.858.191,4.741.253Zm-3.49.808A1.544,1.544,0,0,1,1.623.6a.208.208,0,0,1,.036.29,1.189,1.189,0,0,1-.192.169l-.222.175-.058.045C1.161,1.229,1.224,1.116,1.251,1.061Zm1-.47a.727.727,0,0,1-.192.274C2.05.877,2.038.889,2.025.9,2.092.8,2.174.692,2.253.591ZM3.812.238a1.209,1.209,0,0,1-.227.214c.046-.1.154-.219.227-.21ZM4.24.233C4.251.215,4.3.158,4.294.2a.332.332,0,0,1-.073.089A.13.13,0,0,1,4.24.233Z" transform="translate(44.98 120.242)" fill="#365da2"/>
      <path id="Vector-86" data-name="Vector" d="M0,26.162H19.462L25.984,0H6.522Z" transform="translate(91.792 74.263)" fill="#fff"/>
      <g id="Group-2" data-name="Group" transform="translate(96.503 76.377)" opacity="0.5">
        <path id="Vector-87" data-name="Vector" d="M.23.691H13.122A.4.4,0,0,0,13.485.4l.027-.109A.22.22,0,0,0,13.294,0H.4A.4.4,0,0,0,.039.291L.012.4A.22.22,0,0,0,.23.691Z" transform="translate(2.765 4.598)" fill="#699dee" opacity="0.5"/>
        <path id="Vector-88" data-name="Vector" d="M.233.691H13.125A.4.4,0,0,0,13.488.4l.027-.109A.22.22,0,0,0,13.3,0H.4A.4.4,0,0,0,.039.291L.012.4a.219.219,0,0,0,.221.29Z" transform="translate(3.912 0)" fill="#699dee" opacity="0.5"/>
        <path id="Vector-89" data-name="Vector" d="M.23.69H13.121A.4.4,0,0,0,13.483.4L13.51.29A.22.22,0,0,0,13.293,0H.4A.4.4,0,0,0,.039.29L.011.4A.221.221,0,0,0,.23.69Z" transform="translate(3.514 1.598)" fill="#699dee" opacity="0.5"/>
        <path id="Vector-90" data-name="Vector" d="M.229.69H13.121A.4.4,0,0,0,13.484.4l.028-.109A.22.22,0,0,0,13.294,0H.4a.4.4,0,0,0-.363.29L.011.4A.22.22,0,0,0,.229.69Z" transform="translate(3.14 3.1)" fill="#699dee" opacity="0.5"/>
        <path id="Vector-91" data-name="Vector" d="M.23.69H13.122A.4.4,0,0,0,13.485.4L13.512.29A.22.22,0,0,0,13.294,0H.4A.4.4,0,0,0,.039.29L.012.4A.219.219,0,0,0,.23.69Z" transform="translate(2.003 7.66)" fill="#699dee" opacity="0.5"/>
        <path id="Vector-92" data-name="Vector" d="M.23.691H13.122A.4.4,0,0,0,13.485.4l.027-.109A.22.22,0,0,0,13.294,0H.4a.4.4,0,0,0-.363.29L.012.4A.22.22,0,0,0,.23.691Z" transform="translate(2.377 6.159)" fill="#699dee" opacity="0.5"/>
        <path id="Vector-93" data-name="Vector" d="M.273.69H3.4A.473.473,0,0,0,3.835.345h0A.262.262,0,0,0,3.576,0H.444a.473.473,0,0,0-.43.345A.261.261,0,0,0,.273.69Z" transform="translate(0 17.032)" fill="#699dee" opacity="0.5"/>
        <path id="Vector-94" data-name="Vector" d="M.273.69H3.4A.473.473,0,0,0,3.835.345.262.262,0,0,0,3.576,0H.444a.473.473,0,0,0-.43.345h0A.261.261,0,0,0,.273.69Z" transform="translate(9.593 17.032)" fill="#699dee" opacity="0.5"/>
      </g>
      <path id="Vector-95" data-name="Vector" d="M4.929,2.238H.363a.36.36,0,0,1-.289-.132.379.379,0,0,1-.058-.332L.345.454A.622.622,0,0,1,.913,0H5.479a.359.359,0,0,1,.289.132.379.379,0,0,1,.058.332L5.5,1.784a.622.622,0,0,1-.568.454ZM.913.037A.581.581,0,0,0,.38.459L.051,1.78a.338.338,0,0,0,.052.3.319.319,0,0,0,.26.117H4.929a.581.581,0,0,0,.533-.422L5.791.454a.338.338,0,0,0-.052-.3.319.319,0,0,0-.26-.117Z" transform="translate(94.537 95.574)" fill="#476ba7"/>
      <path id="Vector-96" data-name="Vector" d="M4.93,2.238H.364a.357.357,0,0,1-.289-.132.379.379,0,0,1-.059-.332L.344.454A.622.622,0,0,1,.912,0H5.479a.359.359,0,0,1,.289.132.379.379,0,0,1,.059.332L5.5,1.788a.621.621,0,0,1-.567.451ZM.912.037A.582.582,0,0,0,.38.459L.051,1.78a.342.342,0,0,0,.052.3A.321.321,0,0,0,.364,2.2H4.93a.581.581,0,0,0,.532-.422L5.791.454a.342.342,0,0,0-.051-.3A.321.321,0,0,0,5.479.037Z" transform="translate(104.148 95.574)" fill="#476ba7"/>
      <path id="Vector-97" data-name="Vector" d="M4.636.007Q3.6.437,2.571.947C2.6.87,2.622.794,2.644.717c.018-.062-.066-.1-.116-.035a1,1,0,0,1-.073.084c.017-.055-.048-.084-.1-.046L2.341.73C2.368.656,2.252.645,2.209.716L2.145.823a.45.45,0,0,1-.207.138.365.365,0,0,1-.03-.115A.051.051,0,0,0,1.854.8c0-.038-.035-.06-.084-.038a.46.46,0,0,0-.157.116C1.579.812,1.469.858,1.41.92L1.415.909C1.443.85,1.391.782,1.322.842a.844.844,0,0,0-.253.374,1.454,1.454,0,0,1-.131.129c-.023.019-.128.117-.153.109s-.011-.068,0-.111L.8,1.326c.084-.122.512-.7.214-.694A.105.105,0,0,0,.926.683,2,2,0,0,0,.681,1.2c-.01.034-.024.078-.035.124l-.026.035a1.367,1.367,0,0,1-.475.457,2.111,2.111,0,0,1,.2-.787C.384.922.428.812.469.7A.09.09,0,0,0,.51.68a.525.525,0,0,0,.2-.608C.681.021.6.066.575.12Q.36.6.186,1.087a1.869,1.869,0,0,0-.177.854c.005.028.037.038.068.032a1.116,1.116,0,0,0,.565-.438.093.093,0,0,0,.06.053c.1.03.242-.084.343-.178a.372.372,0,0,0,.018.1c.011.033.046.041.084.024A.785.785,0,0,0,1.4,1.362a.547.547,0,0,0,.258-.207,1.3,1.3,0,0,0,.127-.127.2.2,0,0,0,.035.065c.038.043.132,0,.192-.024a.62.62,0,0,0,.158-.1.332.332,0,0,0,.109-.03.084.084,0,0,0,.026.026A.111.111,0,0,0,2.434.951c-.01.028-.019.056-.03.084l-.3.153c-.066.034-.084.134-.008.128L2.372,1.3a.108.108,0,0,0,.092-.068c.016-.037.031-.073.046-.11Q3.579.58,4.669.131C4.759.088,4.729-.031,4.636.007ZM1.462,1.056c-.007.019-.014.039-.023.057s-.014.025-.02.038A.455.455,0,0,1,1.462,1.056Zm-.2.169a.169.169,0,0,0,0,.1.6.6,0,0,1-.068.046A.415.415,0,0,1,1.2,1.246a1.446,1.446,0,0,0,.089-.115.63.63,0,0,0-.032.1Z" transform="translate(105.43 95.392)" fill="#365da2"/>
      <path id="Vector-98" data-name="Vector" d="M1.606.031c-.246.457-.384.928-.583,1.387a3.706,3.706,0,0,1-.36.662c-.1.148-.329.47-.521.4C.095,2.462.081,2.421.1,2.366a.132.132,0,0,1,.012-.038.1.1,0,0,0,.1-.011.358.358,0,0,0,.141-.158C.377,2.1.373,2.032.323,2.005a.141.141,0,0,0-.156.043.516.516,0,0,0-.1.177A.533.533,0,0,0,0,2.447c.007.105.121.143.232.118a.72.72,0,0,0,.345-.253,2.965,2.965,0,0,0,.284-.4,5.523,5.523,0,0,0,.395-.86,8.43,8.43,0,0,1,.422-1C1.71,0,1.635-.023,1.606.031ZM.276,2.1c.008.032-.023.074-.048.1A.185.185,0,0,1,.2,2.236a.108.108,0,0,1-.021.013H.171a.026.026,0,0,0-.025-.014l.033-.071c.016-.033.08-.128.1-.06Z" transform="translate(95.698 94.943)" fill="#365da2"/>
      <path id="Vector-99" data-name="Vector" d="M2.273.123a.555.555,0,0,1-.155.064.13.13,0,0,1-.041,0A.248.248,0,0,0,2.155.067C2.163,0,2.091-.018,2.029.018a.188.188,0,0,0-.095.143.1.1,0,0,0,.008.047.345.345,0,0,1-.2.084A.751.751,0,0,0,1.926.11a.037.037,0,0,0,0-.041A.122.122,0,0,0,1.77.056a.313.313,0,0,0-.133.161.221.221,0,0,0-.018.059.447.447,0,0,1-.2.045h0c.02-.019.041-.039.061-.059A.038.038,0,0,0,1.466.2.127.127,0,0,0,1.34.3a1.867,1.867,0,0,1-.314.227C1,.54.961.573.941.552A.941.941,0,0,0,1.068.44c.076-.079.15-.222.062-.271a.053.053,0,0,0-.064.015C1.027.236.988.289.948.34a.724.724,0,0,0-.09.141A.169.169,0,0,0,.845.53.832.832,0,0,1,.72.594L.71.6.779.543A.287.287,0,0,0,.906.354.208.208,0,0,0,.822.2C.811.186.784.191.768.2A.844.844,0,0,0,.489.562a.14.14,0,0,0,0,.117L.152.932C.14.942.11.969.1.964S.092.935.092.923A.736.736,0,0,1,.1.827.923.923,0,0,1,.15.613,1.152,1.152,0,0,1,.234.427.045.045,0,0,0,.281.418.292.292,0,0,0,.4.17C.4.141.351.145.329.17A1.215,1.215,0,0,0,0,.972c0,.057.029.106.105.074a.6.6,0,0,0,.1-.064L.33.892C.408.835.486.777.563.718A.393.393,0,0,0,.7.688.94.94,0,0,0,.859.612a.078.078,0,0,0,.084.04.441.441,0,0,0,.139-.07c.046-.029.092-.058.137-.089s.084-.063.125-.1c.01.014.026.017.054.018A.475.475,0,0,0,1.515.4.667.667,0,0,0,1.642.354a.084.084,0,0,0,.02.014.227.227,0,0,0,.169-.01A.652.652,0,0,0,1.992.267.145.145,0,0,0,2.039.28.468.468,0,0,0,2.293.2C2.348.167,2.33.093,2.273.123ZM.6.51A.739.739,0,0,1,.78.289.1.1,0,0,1,.8.428.533.533,0,0,1,.705.512C.671.541.635.569.6.6L.572.618C.559.59.59.536.6.51Zm.48-.225A.354.354,0,0,1,.99.416L.973.432c.031-.05.071-.1.109-.148ZM1.828.116a.543.543,0,0,1-.109.1c.023-.049.074-.1.109-.1Zm.205,0C2.038.107,2.063.08,2.059.1a.138.138,0,0,1-.035.042A.062.062,0,0,1,2.032.113Z" transform="translate(96.675 96.277)" fill="#365da2"/>
      <path id="Vector-100" data-name="Vector" d="M0,26.162H19.461L25.984,0H6.522Z" transform="translate(84.465 103.066)" fill="#fff"/>
      <g id="Group-3" data-name="Group" transform="translate(89.175 105.419)" opacity="0.5">
        <path id="Vector-101" data-name="Vector" d="M.23.69H13.122A.4.4,0,0,0,13.485.4L13.512.29A.22.22,0,0,0,13.3,0H.4A.4.4,0,0,0,.039.29L.012.4A.22.22,0,0,0,.23.69Z" transform="translate(3.154 4.6)" fill="#699dee" opacity="0.5"/>
        <path id="Vector-102" data-name="Vector" d="M.229.69H13.121A.4.4,0,0,0,13.484.4l.027-.109A.219.219,0,0,0,13.294,0H.4a.4.4,0,0,0-.363.29L.011.4A.22.22,0,0,0,.229.69Z" transform="translate(4.301 0)" fill="#699dee" opacity="0.5"/>
        <path id="Vector-103" data-name="Vector" d="M.228.69H13.12A.4.4,0,0,0,13.483.4L13.51.291A.22.22,0,0,0,13.292,0H.4A.4.4,0,0,0,.039.291L.012.4A.219.219,0,0,0,.228.69Z" transform="translate(3.902 1.598)" fill="#699dee" opacity="0.5"/>
        <path id="Vector-104" data-name="Vector" d="M.23.691H13.122A.4.4,0,0,0,13.485.4l.027-.109A.22.22,0,0,0,13.294,0H.4a.4.4,0,0,0-.363.29L.012.4A.22.22,0,0,0,.23.691Z" transform="translate(3.528 3.099)" fill="#699dee" opacity="0.5"/>
        <path id="Vector-105" data-name="Vector" d="M.23.691H13.122A.4.4,0,0,0,13.485.4l.027-.11A.219.219,0,0,0,13.294,0H.4a.4.4,0,0,0-.363.29L.012.4A.219.219,0,0,0,.23.691Z" transform="translate(2.391 7.659)" fill="#699dee" opacity="0.5"/>
        <path id="Vector-106" data-name="Vector" d="M.23.691H13.122A.4.4,0,0,0,13.485.4l.027-.109A.22.22,0,0,0,13.294,0H.4A.4.4,0,0,0,.039.291L.012.4A.22.22,0,0,0,.23.691Z" transform="translate(2.765 6.158)" fill="#699dee" opacity="0.5"/>
        <path id="Vector-107" data-name="Vector" d="M.273.691H3.4a.473.473,0,0,0,.43-.345h0A.262.262,0,0,0,3.576,0H.445A.473.473,0,0,0,.014.345h0A.262.262,0,0,0,.273.691Z" transform="translate(0 16.79)" fill="#699dee" opacity="0.5"/>
        <path id="Vector-108" data-name="Vector" d="M.276.691H3.408a.473.473,0,0,0,.43-.345A.262.262,0,0,0,3.579,0H.445A.473.473,0,0,0,.014.345h0A.262.262,0,0,0,.276.691Z" transform="translate(9.593 16.79)" fill="#699dee" opacity="0.5"/>
      </g>
      <path id="Vector-109" data-name="Vector" d="M4.93,2.237H.364a.355.355,0,0,1-.289-.132.377.377,0,0,1-.059-.331L.344.454A.621.621,0,0,1,.912,0H5.479a.354.354,0,0,1,.289.132.378.378,0,0,1,.059.332L5.5,1.783a.621.621,0,0,1-.568.454ZM.912.037A.582.582,0,0,0,.381.464l-.33,1.32a.345.345,0,0,0,.052.3A.321.321,0,0,0,.364,2.2H4.93a.584.584,0,0,0,.533-.422L5.792.459a.345.345,0,0,0-.052-.3A.321.321,0,0,0,5.479.041Z" transform="translate(87.212 124.376)" fill="#476ba7"/>
      <path id="Vector-110" data-name="Vector" d="M4.927,2.237H.364a.357.357,0,0,1-.289-.132.377.377,0,0,1-.059-.331L.345.454A.62.62,0,0,1,.912,0H5.479a.354.354,0,0,1,.289.132.378.378,0,0,1,.059.332L5.5,1.783a.621.621,0,0,1-.571.454ZM.909.037A.582.582,0,0,0,.377.464L.048,1.783a.342.342,0,0,0,.051.3A.322.322,0,0,0,.36,2.2H4.927a.584.584,0,0,0,.533-.422L5.788.459a.338.338,0,0,0-.052-.3A.321.321,0,0,0,5.475.041Z" transform="translate(96.824 124.376)" fill="#476ba7"/>
      <path id="Vector-111" data-name="Vector" d="M4.636.006Q3.6.437,2.571.946C2.6.87,2.623.793,2.644.716c.017-.062-.066-.1-.117-.035a.889.889,0,0,1-.073.084c.018-.055-.047-.084-.1-.046L2.34.729C2.367.654,2.256.644,2.209.715L2.145.822a.45.45,0,0,1-.207.138.344.344,0,0,1-.03-.116A.051.051,0,0,0,1.855.8c0-.037-.035-.06-.084-.037a.466.466,0,0,0-.157.116C1.58.81,1.47.857,1.411.918l.005-.01C1.444.848,1.392.781,1.322.841a.844.844,0,0,0-.253.374,1.444,1.444,0,0,1-.13.129c-.023.019-.129.117-.153.109s-.011-.069,0-.112L.8,1.325c.084-.123.513-.7.213-.695A.106.106,0,0,0,.927.681,1.982,1.982,0,0,0,.681,1.2c-.009.034-.023.078-.034.123L.62,1.362a1.355,1.355,0,0,1-.475.457,2.128,2.128,0,0,1,.2-.788C.384.92.428.81.469.7A.1.1,0,0,0,.51.679.526.526,0,0,0,.709.07C.682.02.6.07.575.118Q.361.6.186,1.086a1.854,1.854,0,0,0-.176.854c0,.028.037.038.068.031a1.115,1.115,0,0,0,.565-.438.084.084,0,0,0,.06.053c.1.03.241-.084.342-.178a.451.451,0,0,0,.018.1c.011.034.046.041.084.025A.808.808,0,0,0,1.4,1.361a.557.557,0,0,0,.258-.208,1.388,1.388,0,0,0,.127-.127.194.194,0,0,0,.035.065c.037.042.132,0,.192-.024a.63.63,0,0,0,.158-.1.3.3,0,0,0,.109-.03.084.084,0,0,0,.025.027A.112.112,0,0,0,2.434.95l-.03.084-.3.152c-.065.034-.084.134-.007.128l.273-.02a.109.109,0,0,0,.091-.069c.016-.036.031-.073.046-.11Q3.578.579,4.668.129C4.76.091,4.728-.028,4.636.006ZM1.458,1.056a.461.461,0,0,1-.022.057c-.007.014-.014.026-.021.039a.562.562,0,0,1,.043-.092Zm-.2.169a.169.169,0,0,0,0,.1.732.732,0,0,1-.068.045A.365.365,0,0,1,1.2,1.247a.951.951,0,0,0,.084-.115.783.783,0,0,0-.024.1Z" transform="translate(98.103 124.191)" fill="#365da2"/>
      <path id="Vector-112" data-name="Vector" d="M1.606.03c-.246.457-.383.928-.582,1.387a3.791,3.791,0,0,1-.36.662c-.1.148-.33.469-.521.4C.095,2.461.081,2.42.1,2.365a.132.132,0,0,1,.012-.038.107.107,0,0,0,.1-.012.355.355,0,0,0,.141-.157C.378,2.1.373,2.032.323,2a.14.14,0,0,0-.155.044.523.523,0,0,0-.1.176A.564.564,0,0,0,0,2.446c.008.105.121.143.232.118a.721.721,0,0,0,.346-.253,2.959,2.959,0,0,0,.283-.4,5.556,5.556,0,0,0,.4-.859,8.43,8.43,0,0,1,.422-1C1.71,0,1.635-.023,1.606.03ZM.277,2.1c.008.032-.023.075-.048.1a.159.159,0,0,1-.03.029.084.084,0,0,1-.02.012H.172a.028.028,0,0,0-.026-.014l.033-.071c.016-.031.08-.127.1-.059Z" transform="translate(88.371 123.745)" fill="#365da2"/>
      <path id="Vector-113" data-name="Vector" d="M2.275.122a.539.539,0,0,1-.156.065.155.155,0,0,1-.04,0A.243.243,0,0,0,2.156.066C2.165,0,2.093-.018,2.03.019a.189.189,0,0,0-.094.143.084.084,0,0,0,.008.047.346.346,0,0,1-.2.084A.706.706,0,0,0,1.927.11a.038.038,0,0,0,0-.041A.122.122,0,0,0,1.771.057a.312.312,0,0,0-.134.161A.242.242,0,0,0,1.62.277a.476.476,0,0,1-.2.045h0C1.443.3,1.463.283,1.483.264A.038.038,0,0,0,1.467.2.127.127,0,0,0,1.34.3a1.945,1.945,0,0,1-.313.227C1,.542.961.574.942.554A.954.954,0,0,0,1.07.441c.075-.079.15-.221.061-.27a.051.051,0,0,0-.063.015L.95.342a.686.686,0,0,0-.091.14A.262.262,0,0,0,.846.531.829.829,0,0,1,.722.6H.711L.78.54A.287.287,0,0,0,.908.352.212.212,0,0,0,.823.194C.812.183.785.189.769.2A.848.848,0,0,0,.49.559a.139.139,0,0,0,0,.117L.152.929C.141.938.111.965.1.961S.092.931.092.919A.915.915,0,0,1,.1.824.975.975,0,0,1,.15.609,1.22,1.22,0,0,1,.234.424.045.045,0,0,0,.282.415.29.29,0,0,0,.4.167C.4.137.352.142.329.167A1.212,1.212,0,0,0,0,.969c0,.057.029.105.105.073a.532.532,0,0,0,.1-.064L.33.889C.409.832.487.774.563.715A.369.369,0,0,0,.7.684.906.906,0,0,0,.859.609.084.084,0,0,0,.943.648a.451.451,0,0,0,.139-.07C1.128.55,1.174.52,1.218.488s.084-.063.126-.1c.009.013.025.017.053.018A.515.515,0,0,0,1.514.4.646.646,0,0,0,1.641.351a.1.1,0,0,0,.021.014A.231.231,0,0,0,1.831.355a.665.665,0,0,0,.161-.09.146.146,0,0,0,.046.013A.473.473,0,0,0,2.292.2C2.352.167,2.334.092,2.275.122ZM.6.509A.73.73,0,0,1,.782.288.1.1,0,0,1,.8.427.565.565,0,0,1,.707.512L.6.6.573.617C.564.589.594.535.607.509Zm.48-.225A.364.364,0,0,1,.992.416L.974.432A1.757,1.757,0,0,1,1.087.284ZM1.83.115a.6.6,0,0,1-.109.1c.025-.05.078-.106.112-.1Zm.205,0C2.04.106,2.065.079,2.06.1A.153.153,0,0,1,2.026.14.057.057,0,0,1,2.038.113Z" transform="translate(89.343 125.079)" fill="#365da2"/>
      <path id="Vector-114" data-name="Vector" d="M.017.19C.052.044.138-.037.214.016A.361.361,0,0,1,.279.374C.243.522.159.6.082.548A.357.357,0,0,1,.017.19ZM.223.335A.221.221,0,0,0,.187.12C.143.09.1.14.073.23A.221.221,0,0,0,.109.444C.153.478.2.427.223.338Z" transform="translate(3.049 91.348)" fill="#476ba7"/>
      <path id="Vector-115" data-name="Vector" d="M.131,0l.05.035.038.4L.3.116.35.154.224.667.177.635.138.224.054.551,0,.513Z" transform="translate(3.31 91.503)" fill="#476ba7"/>
      <path id="Vector-116" data-name="Vector" d="M.1.157.025.1.051,0,.257.143.23.247.155.195.054.6,0,.566Z" transform="translate(3.651 91.685)" fill="#476ba7"/>
      <path id="Vector-117" data-name="Vector" d="M.127,0,.24.078A.151.151,0,0,1,.3.181.338.338,0,0,1,.291.315C.27.4.236.435.2.437L.214.662.15.619.137.416.095.387.054.551,0,.513ZM.175.326C.2.344.224.326.235.281A.093.093,0,0,0,.21.177L.156.139.12.287Z" transform="translate(3.822 91.858)" fill="#476ba7"/>
      <path id="Vector-118" data-name="Vector" d="M.234,0,.284.035.262.626.206.586.212.455.107.382l-.051.1L0,.442ZM.217.343.225.153.151.3Z" transform="translate(4.056 92.092)" fill="#476ba7"/>
      <path id="Vector-119" data-name="Vector" d="M.016.192C.052.045.134-.037.21.016a.211.211,0,0,1,.075.15L.234.221a.147.147,0,0,0-.05-.1C.142.091.094.142.072.231S.062.413.1.442.156.451.185.428L.2.529A.084.084,0,0,1,.077.545C0,.5-.019.344.016.192Z" transform="translate(4.378 92.275)" fill="#476ba7"/>
      <path id="Vector-120" data-name="Vector" d="M.1.156.026.1.051,0,.257.143.23.247.155.194.054.6,0,.566Z" transform="translate(4.659 92.395)" fill="#476ba7"/>
      <path id="Vector-121" data-name="Vector" d="M.056,2.943A3.748,3.748,0,0,1,3.57,0,2.355,2.355,0,0,1,5.941,2.943,3.746,3.746,0,0,1,2.426,5.884,2.354,2.354,0,0,1,.056,2.943Z" transform="translate(62.938 139.158)" fill="#d86713"/>
    </g>
    <g id="Group_643" data-name="Group 643" transform="translate(7206.523 -22425.738)">
      <path id="Vector-122" data-name="Vector" d="M2.086,6.013a15.843,15.843,0,0,0,.724-3A10.838,10.838,0,0,0,1.889.063c-.355-.488-.53,1.987-.812,2.359S1.02,1.491.822,1.37s-.61.958-.789,1.34S.468,4.5.468,5.476,2.086,6.013,2.086,6.013Z" transform="translate(6.307 42.499) rotate(180)" fill="#ffb27d"/>
      <path id="Vector-123" data-name="Vector" d="M.011,20.986a3.455,3.455,0,0,0,5.2,3.258l.146-.091C8.945,21.842,16.675,11.061,17.207,9.981s2.1-9.672,2.1-9.672S17.369-.4,16.461.335c0,0-3.147,8.149-3.612,8.556S.261,16.115.158,18.669C.13,19.344.076,20.156.011,20.986Z" transform="translate(22.802 38.133) rotate(180)" fill="#68a42a"/>
      <path id="Vector-124" data-name="Vector" d="M0,16.139H3.209V0H0Z" transform="translate(37.766 15.645) rotate(-70.8)" fill="#f99746"/>
      <path id="Vector-125" data-name="Vector" d="M0,.279,4.075,0,3.019,3.008Z" transform="translate(57.054 20.958) rotate(180)" fill="#e78b37"/>
      <path id="Vector-126" data-name="Vector" d="M2.126,2.6l.335-.94A1.092,1.092,0,0,0,2.41.806,1.126,1.126,0,0,0,1.763.241L1.057,0,0,2.979l.768.262a1.085,1.085,0,0,0,.815-.047,1.065,1.065,0,0,0,.332-.247,1.042,1.042,0,0,0,.21-.352Z" transform="translate(38.812 15.622) rotate(180)" fill="#f9ddbf"/>
      <path id="Vector-127" data-name="Vector" d="M5.21,6.752S6.649,5.43,6.368,4.487,4.789,2.919,4.614,1.774,3.737,0,3.106,0H.1S-.369.808.753,1.051,2.3,2.644,2.229,3.9a22.236,22.236,0,0,0,.106,2.922l2.385.557Z" transform="translate(6.404 86.939) rotate(180)" fill="#263238"/>
      <path id="Vector-128" data-name="Vector" d="M8.486,3.377S8.746.318,8.111,0L0,.017S0,.971,1.3,1.184s3.592.99,3.979,2.723S8.486,3.377,8.486,3.377Z" transform="translate(27.363 86.939) rotate(180)" fill="#263238"/>
      <path id="Vector-129" data-name="Vector" d="M0,42.644s.427-5.26.929-11.583c.683-8.589,1.5-19.14,1.584-21.138.14-3.475.7-9.023.7-9.023A4.461,4.461,0,0,1,7.225.137a89.8,89.8,0,0,1,3.061,16.31l.031.414c.634,8.536,1.617,26.512,1.617,26.512Z" transform="translate(25.713 83.834) rotate(180)" fill="#f99746"/>
      <path id="Vector-130" data-name="Vector" d="M0,26.15S.427,20.9.929,14.587L10.287,0l.031.414c.633,8.521,1.617,26.464,1.617,26.464Z" transform="translate(25.713 67.339) rotate(180)" fill="#ef7e29"/>
      <path id="Vector-131" data-name="Vector" d="M0,39.541S7.712,20.449,12.783,11.477,19.438,0,19.438,0s2.906,1.148,3.17,1.93c0,0-1.94,17.321-5.335,21.544-1.919,2.387-4.173,9.547-4.279,12.051s-.687,7.46-.687,7.46Z" transform="translate(23.772 81.311) rotate(180)" fill="#f99746"/>
      <path id="Vector-132" data-name="Vector" d="M8.151,1.937S3.011-.7,0,.18A7.077,7.077,0,0,0,1.993,1.859C1.878,2.465,1.787,3,1.734,3.437A14.712,14.712,0,0,0,1.576,5.05L3.547,6.684l1.87,1.563A7.763,7.763,0,0,1,8.151,1.937Z" transform="translate(25.325 15.137) rotate(180)" fill="#ffb27d"/>
      <path id="Vector-133" data-name="Vector" d="M15.927,3.386A21.2,21.2,0,0,0,9.557.632C6.831-.017,3.481.174,2.361,0A.467.467,0,0,0,2.034.09C1.947.135,1.451,3.472.956,7.683c-.022.174-.045.341-.055.512l-.007.057C.7,9.9.533,11.627.386,13.361.267,14.709.169,16.043.1,17.3.013,18.864-.021,20.3.013,21.489c.016.541.048,1.028.1,1.45a10.334,10.334,0,0,0,2.566,5.527l.913,1.045a4.994,4.994,0,0,1,3.16.809c1.115.737,2.319,1.53,2.546,1.394,1.709-.939,3.1-3.371,4.1-6.583a36.806,36.806,0,0,0,1.287-6.169c.087-.69.167-1.394.225-2.1.012-.131.021-.261.031-.388.135-1.926.353-3.731.6-5.342.327-2.178.694-4,.962-5.278.132-.652.233-1.158.292-1.519C16.837,4.011,16.208,3.561,15.927,3.386Z" transform="translate(27.945 43.276) rotate(180)" fill="#86bf4a"/>
      <path id="Vector-134" data-name="Vector" d="M1.046.073s4.993-.718,5.4,2.361S7.771,7.493,4.6,8.082.653,7.575.264,6.58-.242.339,1.046.073Z" transform="translate(25.713 10.091) rotate(180)" fill="#ffb27d"/>
      <path id="Vector-135" data-name="Vector" d="M9.9,6.158c.045.052.149.1.383.113a.956.956,0,0,1-.438.112,1.164,1.164,0,0,1-.8,1.013.7.7,0,0,0,.232-.207A.688.688,0,0,0,9.4,6.9c-.662.646-2.061,1.1-5.9.722C-1.569,7.131.166,3.956.831,3.587s2.3.711,3.52.639S5.84,2.412,6.263,2.181s.249.189.8.451.628-.657.478-1.257S8.183,0,8.183,0l.763.845C9.708,1.69,10.372,5.218,10,5.959,9.968,6.025,9.936,6.094,9.9,6.158Z" transform="translate(27.46 7.762) rotate(180)" fill="#2c3a64"/>
      <path id="Vector-136" data-name="Vector" d="M8.733,3.9A22.483,22.483,0,0,0,.1,0C.013,1.56-.021,2.993.013,4.172Z" transform="translate(27.945 26.004) rotate(180)" fill="#68a42a"/>
      <path id="Vector-137" data-name="Vector" d="M4.657,1.491c-.068.072-.934,2.979-2.434,2.767-.979-.138-2.578-.7-2.153-2C.238,1.75,3.219,0,3.219,0Z" transform="translate(49.679 19.406) rotate(180)" fill="#ffb27d"/>
      <path id="Vector-138" data-name="Vector" d="M28,7.7A3.428,3.428,0,0,0,27.64,1.6c-.052-.023-.105-.045-.158-.067C23.527-.042,10.276-.116,9.089.074S0,3.928,0,3.928s.545,1.983,1.671,2.3c0,0,8.454-2.132,9.055-1.988S23.892,10.3,26.032,8.911C26.6,8.544,27.29,8.12,28,7.7Z" transform="translate(46.672 23.578) rotate(180)" fill="#80b747"/>
    </g>
  </g>
</svg>
