<svg xmlns="http://www.w3.org/2000/svg" xmlns:xlink="http://www.w3.org/1999/xlink" width="228.55" height="229.813" viewBox="0 0 228.55 229.813">
  <defs>
    <linearGradient id="linear-gradient" x1="1.082" y1="1.018" x2="0.336" y2="0.362" gradientUnits="objectBoundingBox">
      <stop offset="0" stop-color="#dae3fe"/>
      <stop offset="1" stop-color="#e9effd"/>
    </linearGradient>
    <linearGradient id="linear-gradient-2" x1="0.142" y1="1.149" x2="0.775" y2="0.008" gradientUnits="objectBoundingBox">
      <stop offset="0" stop-color="#f7b076"/>
      <stop offset="1" stop-color="#ffa65c"/>
    </linearGradient>
    <linearGradient id="linear-gradient-3" y1="0.5" x2="1" y2="0.5" gradientUnits="objectBoundingBox">
      <stop offset="0" stop-color="#ff928e"/>
      <stop offset="1" stop-color="#feb3b1"/>
    </linearGradient>
    <linearGradient id="linear-gradient-4" x1="1310.22" y1="2759.57" x2="1316.75" y2="2759.57" xlink:href="#linear-gradient-3"/>
    <linearGradient id="linear-gradient-5" y1="1.258" x2="1.063" gradientUnits="objectBoundingBox">
      <stop offset="0" stop-color="#fe7062"/>
      <stop offset="1" stop-color="#ff928e"/>
    </linearGradient>
    <linearGradient id="linear-gradient-6" x1="0.886" y1="0.076" x2="0" y2="1.297" gradientUnits="objectBoundingBox">
      <stop offset="0" stop-color="#fff"/>
      <stop offset="1" stop-color="#fff"/>
    </linearGradient>
    <linearGradient id="linear-gradient-7" x1="1.519" x2="0" y2="2.907" gradientUnits="objectBoundingBox">
      <stop offset="0" stop-color="#09005d"/>
      <stop offset="1" stop-color="#1a0f91"/>
    </linearGradient>
    <linearGradient id="linear-gradient-8" x1="2271.37" y1="872.1" x2="1723.1" y2="1593.34" xlink:href="#linear-gradient-7"/>
    <linearGradient id="linear-gradient-9" x1="2009.05" y1="692.33" x2="2009.05" y2="1627.59" gradientUnits="objectBoundingBox">
      <stop offset="0" stop-color="#f99746"/>
      <stop offset="1" stop-color="#f99746"/>
    </linearGradient>
    <linearGradient id="linear-gradient-10" x1="2673.58" y1="1999.26" x2="2671.91" y2="2096.68" gradientUnits="objectBoundingBox">
      <stop offset="0" stop-color="#4f52ff"/>
      <stop offset="1" stop-color="#4042e2"/>
    </linearGradient>
    <linearGradient id="linear-gradient-11" x1="2288.085" y1="3131.171" x2="2716.692" y2="2429.913" xlink:href="#linear-gradient-10"/>
    <linearGradient id="linear-gradient-12" x1="2677.627" y1="2377.814" x2="2651.547" y2="2595.902" xlink:href="#linear-gradient-10"/>
    <linearGradient id="linear-gradient-13" x1="2608.327" y1="4072.949" x2="2719.034" y2="3381.97" xlink:href="#linear-gradient-10"/>
    <linearGradient id="linear-gradient-14" x1="3092.57" y1="1668.47" x2="3557.2" y2="1037.19" xlink:href="#linear-gradient-10"/>
  </defs>
  <g id="Group_711" data-name="Group 711" transform="translate(4967.86 21859.828)">
    <g id="_20944749_Converted_2" data-name="20944749 [Converted] 2" transform="translate(-4967.859 -21859.828)">
      <g id="Illustration" transform="translate(0 0)">
        <path id="Vector" d="M218.919,153.577C196.75,205.024,137.7,233.845,86.486,226.072c-8.333-1.265-31.178-5.033-51.4-22.811C-3.856,169.036-12.183,101.269,19.226,53.512,42.087,18.753,83.067-.95,122,.035c8.387.212,40.532,1.521,68.781,24.479a105.008,105.008,0,0,1,21.548,24.1C231.7,78.461,233.367,120.049,218.919,153.577Z" transform="translate(0 0)" fill="url(#linear-gradient)"/>
        <path id="Vector-2" data-name="Vector" d="M196.58,106.095c0,58.595-44.006,106.095-98.29,106.095S0,164.689,0,106.095,44.006,0,98.29,0,196.58,47.5,196.58,106.095Z" transform="translate(7.955 199.427) rotate(-87.49)" fill="#7d97f4"/>
        <path id="Vector-3" data-name="Vector" d="M9.43,11.595C7.145,15.253,5.384,19.372,5.715,23.67,6.1,28.646,8.623,33.306,8.752,38.3,8.971,46.757,2.423,53.839.38,62.055-1.9,71.237,6.705,81.7,10.135,86.823s1.956-4.159,4.036-7.779,6.564,15.233,13.569,19.37c3.759,2.222,8.169,3.7,10.872,7.12,3.942,4.992,2.85,12.1,2.258,18.422s.295,14.038,6.007,16.851c3.364,1.656,7.639,1.1,10.675,3.291,5.331,3.861,2.785,12.278,4.9,18.5,2.3,6.769,6.852,6.858,13.9,8.293s-.888-14.008,2.413-19.406c1.735-2.836,4.384-5.094,5.753-8.124,1.9-4.2,1.364-9.816,5.045-12.6,2.76-2.087,6.6-1.522,10.064-1.553s7.676-1.53,8.069-4.962c.348-3.045-2.708-5.474-5.7-6.18s-6.176-.369-9.113-1.271c-8.4-2.58-12.319-14.306-21.092-14.854-7.5-.469-13.78,7.927-21.148,6.46-4.108-.817-6.919-4.443-9.969-7.31-3.917-3.681-8.778-6.442-11.888-10.822s-3.639-11.381.786-14.436c3.286-2.269,7.955-1.348,11.2.978s5.458,5.777,7.843,8.976a5.951,5.951,0,0,0,2.748,2.381c3.171.987,5.484-3.456,4.725-6.685s-3.045-6.064-3.151-9.376c-.188-5.837,6.112-9.54,11.641-11.463s12.043-4.216,13.669-9.827c.576-1.981.424-4.163,1.3-6.031,2.9-6.193,18.225-9.284,14.565-12.875s-15.286-4.372-17.55-11.6c-.811-2.589-1.646-6.007-4.352-6.261-4.41-.411-6.926,5.037-10.626,5.972-1.756.444-1.925,3.419-1.856,7.077a4.822,4.822,0,1,1-9.642.182,7.406,7.406,0,0,1,.56-2.975,13.477,13.477,0,0,1,3.428-4.433C59.76,14.451,76.738,8.5,73.183,6.191S52.563-2.476,50.019,1.035s1.665.538,2.691,4.7S40.088,9.347,33.778,11.151a4.526,4.526,0,0,1-3.173.117c-1.091-.527-1.55-1.792-2.139-2.847C25.3,2.772,14.754,6.439,14.754,6.439A17.12,17.12,0,0,0,9.43,11.595Z" transform="translate(30.692 32.661)" fill="#86bf4a"/>
        <path id="Vector-4" data-name="Vector" d="M.32,6.354C-1.243,9.265,3.4,9.218,3.865,12.49c4.182.455,5.9-6.137,10.034-6.906,2.334-.434,4.6,1.234,5.865,3.245s1.86,4.361,2.934,6.478A15.953,15.953,0,0,0,35.38,23.818a4.4,4.4,0,0,0,3.291-.741c2.52-2.222-1.085-6.393-.149-9.618,1.07-3.686,6.385-3.127,9.978-4.479.987-.373,8.611-2.406,8.734-3.456.217-1.865-3.318-3.051-7.273-4.068C43.261-.267,31.47-.2,25.706.326,18.04,1.02,5.265.459.319,6.36Z" transform="translate(86.507 8.223)" fill="#86bf4a"/>
        <path id="Vector-5" data-name="Vector" d="M41.706,95.342a96.633,96.633,0,0,0-.425-32.878c-.538-2.888-1.8-6.336-4.707-6.748-3.365-.481-7.483,3.384-9.589.717-.93-1.178-.559-2.892-.032-4.3A28.458,28.458,0,0,1,33.289,42.2c1.728-1.753,3.7-3.305,5.019-5.374,2.838-4.425.846-10.891-3.171-14.281s-9.2,2.689-13.423.276S17.36,14.556,16.565,9.757c-.588-3.555-3.209-13.185-6.1-8.494s3.859,23.36,11.458,32.309c.917,1.08,1.929,2.288,1.851,3.7-.184,3.374-5.1,3.226-8.415,3.918-4.1.856-10.378-1.339-6.912,5.8,1.828,3.766,10.56,8.921,8.213,11.438S7.1,68.251,3.718,74.155-1.306,87.409,1.245,93.717s10.227,10.664,16.491,8.007c2.932-1.243,6.128-3.83,8.853-2.181,2.469,1.492,2.1,5.074,1.981,7.955s1.539,6.707,4.342,6.03a4.665,4.665,0,0,0,2.271-1.638C39.136,107.359,40.758,101.275,41.706,95.342Z" transform="translate(172.988 44.454)" fill="#86bf4a"/>
        <path id="Vector-6" data-name="Vector" d="M166.5,78.646c0,43.435-37.273,78.646-83.251,78.646S0,122.08,0,78.646,37.273,0,83.251,0,166.5,35.211,166.5,78.646Z" transform="translate(29.269 20.151)" fill="#fff" opacity="0.2"/>
        <g id="Group" transform="translate(24.404 11.409)" opacity="0.68">
          <path id="Vector-7" data-name="Vector" d="M54.057,95.642a298,298,0,0,1-4.25,51.779c-.77,4.268-1.664,8.515-2.728,12.722a121.923,121.923,0,0,1-3.812,12.448c-.758,2.037-1.586,4.049-2.517,6.015a46.751,46.751,0,0,1-3.171,5.712,23.342,23.342,0,0,1-4.264,4.982,12.16,12.16,0,0,1-2.786,1.8,8.333,8.333,0,0,1-3.246.767,8.168,8.168,0,0,1-3.282-.6,11.42,11.42,0,0,1-2.85-1.7,22.355,22.355,0,0,1-4.361-4.9,43.574,43.574,0,0,1-3.222-5.684c-.948-1.958-1.784-3.968-2.551-6a119.406,119.406,0,0,1-3.853-12.435c-1.077-4.206-1.975-8.448-2.754-12.715-1.549-8.535-2.6-17.151-3.315-25.791S.04,104.719,0,96.049c-.019-4.335.091-8.669.242-13s.392-8.66.707-12.982c.632-8.64,1.582-17.27,3-25.825.71-4.279,1.539-8.535,2.536-12.754a122.085,122.085,0,0,1,3.606-12.5c.726-2.046,1.519-4.069,2.424-6.045a44.294,44.294,0,0,1,3.1-5.733,21.014,21.014,0,0,1,4.265-4.937A10.9,10.9,0,0,1,22.7.58,7.924,7.924,0,0,1,25.935,0a8.573,8.573,0,0,1,3.2.752A12.508,12.508,0,0,1,31.918,2.5a24.006,24.006,0,0,1,4.361,4.855,46.468,46.468,0,0,1,3.311,5.614c.983,1.938,1.858,3.927,2.666,5.941A118.434,118.434,0,0,1,46.35,31.256c1.156,4.179,2.127,8.41,2.971,12.663A272.561,272.561,0,0,1,54.057,95.642Zm-1.048,0c.012-8.64-.319-17.28-1.041-25.895a250.827,250.827,0,0,0-3.4-25.686c-.8-4.244-1.735-8.465-2.845-12.638A116.932,116.932,0,0,0,41.759,19.1c-.786-2.009-1.638-3.993-2.6-5.925a46,46,0,0,0-3.225-5.588A23.41,23.41,0,0,0,31.7,2.772,12.209,12.209,0,0,0,29,1.054,8.079,8.079,0,0,0,25.932.308a7.56,7.56,0,0,0-3.1.576,10.647,10.647,0,0,0-2.715,1.662,21,21,0,0,0-4.14,4.888,43.1,43.1,0,0,0-3.02,5.7c-.88,1.967-1.646,3.984-2.353,6.023a121.972,121.972,0,0,0-3.477,12.47c-.959,4.211-1.744,8.462-2.413,12.73C3.377,52.9,2.508,61.505,1.954,70.129S1.193,87.4,1.207,96.042q-.025,12.961.927,25.9c.653,8.615,1.651,17.209,3.141,25.719.746,4.253,1.618,8.485,2.662,12.672a118.9,118.9,0,0,0,3.75,12.38c.746,2.022,1.563,4.016,2.488,5.961a44.112,44.112,0,0,0,3.139,5.621,21.387,21.387,0,0,0,4.2,4.795,10.8,10.8,0,0,0,2.695,1.632,7.453,7.453,0,0,0,3.053.576,7.752,7.752,0,0,0,3.022-.741,11.554,11.554,0,0,0,2.639-1.728,22.693,22.693,0,0,0,4.114-4.877,58.279,58.279,0,0,0,5.543-11.625,117.181,117.181,0,0,0,3.7-12.393c1.031-4.19,1.893-8.426,2.633-12.681,1.481-8.511,2.464-17.106,3.118-25.721S53.01,104.285,53.009,95.642Z" transform="translate(69.412 0.524)" fill="#fff" opacity="0.68" style="mix-blend-mode: soft-light;isolation: isolate"/>
          <path id="Vector-8" data-name="Vector" d="M147.075,96.166a128.545,128.545,0,0,1-1.119,16.684,121.822,121.822,0,0,1-3.35,16.382,106.233,106.233,0,0,1-13.795,30.341,87.1,87.1,0,0,1-10.561,12.947,74.116,74.116,0,0,1-13.007,10.471,62.575,62.575,0,0,1-15.164,6.967,57.286,57.286,0,0,1-33.007.012A62.658,62.658,0,0,1,41.9,183.011a73.915,73.915,0,0,1-13.021-10.464A87.225,87.225,0,0,1,18.3,159.6a106.312,106.312,0,0,1-13.824-30.35,121.126,121.126,0,0,1-3.367-16.39,125.74,125.74,0,0,1,.008-33.391A120.852,120.852,0,0,1,4.491,63.084a106.282,106.282,0,0,1,13.84-30.333A87.08,87.08,0,0,1,28.909,19.82,73.821,73.821,0,0,1,41.928,9.369,62.85,62.85,0,0,1,57.092,2.432a56.947,56.947,0,0,1,32.964.012A62.94,62.94,0,0,1,105.211,9.39a73.7,73.7,0,0,1,13.006,10.456,87.059,87.059,0,0,1,10.561,12.935A106.193,106.193,0,0,1,142.589,63.1a121.925,121.925,0,0,1,3.358,16.375,128.688,128.688,0,0,1,1.128,16.686Zm-1.2,0a127.517,127.517,0,0,0-1.056-16.533,120.689,120.689,0,0,0-3.267-16.24,105.813,105.813,0,0,0-13.436-30.17A86.251,86.251,0,0,0,117.747,20.3,72.167,72.167,0,0,0,104.93,9.83a61.606,61.606,0,0,0-15-6.954,55.774,55.774,0,0,0-32.7.012,61.872,61.872,0,0,0-15,6.966,72.131,72.131,0,0,0-12.807,10.48A86.294,86.294,0,0,0,19.085,33.253,105.722,105.722,0,0,0,5.679,63.414a126.241,126.241,0,0,0,.017,65.5,105.681,105.681,0,0,0,13.422,30.144,86.256,86.256,0,0,0,10.348,12.906,72.315,72.315,0,0,0,12.8,10.465,61.77,61.77,0,0,0,14.987,6.946,55.456,55.456,0,0,0,32.654.012,62.121,62.121,0,0,0,15-6.936,71.829,71.829,0,0,0,12.814-10.459,86.141,86.141,0,0,0,10.368-12.9,105.783,105.783,0,0,0,13.451-30.153,120.9,120.9,0,0,0,3.275-16.237,127.494,127.494,0,0,0,1.062-16.532Z" transform="translate(20.109 0)" fill="#86bf4a" opacity="0.68" style="mix-blend-mode: soft-light;isolation: isolate"/>
          <path id="Vector-9" data-name="Vector" d="M.105.295,22.217.149,44.33.067,88.555,0l44.224.073,22.113.091L177,.321a.054.054,0,0,1,.053.053A.053.053,0,0,1,177,.427L154.892.585,132.779.676,88.555.749,44.33.682,22.217.6.105.454A.082.082,0,1,1,.105.3Z" transform="translate(7.661 57.787)" fill="#fff" opacity="0.68" style="mix-blend-mode: soft-light;isolation: isolate"/>
          <path id="Vector-10" data-name="Vector" d="M.058.295l15.7-.146,15.7-.082C36.688.031,41.922.035,47.154.025L62.856,0l31.4.073,15.7.091c5.233.053,10.467.082,15.7.158a.052.052,0,0,1,.052.053.053.053,0,0,1-.052.053c-5.233.072-10.466.1-15.7.157l-15.7.091-31.4.073L47.156.725C41.923.713,36.69.718,31.457.682L15.758.6.059.453A.082.082,0,0,1,.059.3Z" transform="translate(33.362 20.751)" fill="#fff" opacity="0.68" style="mix-blend-mode: soft-light;isolation: isolate"/>
          <path id="Vector-11" data-name="Vector" d="M.082.295,24.115.149,48.148.067,96.215,0l48.067.073,24.033.091,24.033.157a.054.054,0,0,1,.053.053.053.053,0,0,1-.053.053L168.315.584,144.282.675,96.215.749,48.148.682,24.115.6.082.454A.082.082,0,0,1,0,.372.082.082,0,0,1,.082.295Z" transform="translate(0 94.824)" fill="#fff" opacity="0.68" style="mix-blend-mode: soft-light;isolation: isolate"/>
          <path id="Vector-12" data-name="Vector" d="M.061.294,22.173.149,44.285.067,88.51,0l44.224.074,22.113.09,22.112.158a.053.053,0,0,1,0,.106L154.847.585,132.734.676,88.51.75,44.285.682,22.173.6.061.455A.082.082,0,0,1,.061.3Z" transform="translate(7.706 131.86)" fill="#fff" opacity="0.68" style="mix-blend-mode: soft-light;isolation: isolate"/>
          <path id="Vector-13" data-name="Vector" d="M125.87.555H.277A.277.277,0,0,1,.277,0H125.87a.277.277,0,0,1,0,.555Z" transform="translate(36.306 168.992)" fill="#fff" opacity="0.68" style="mix-blend-mode: soft-light;isolation: isolate"/>
        </g>
        <path id="Vector-14" data-name="Vector" d="M0,11.533A11.534,11.534,0,0,1,11.534,0H109.62a10.161,10.161,0,0,1,10.148,9.645l7.241,142.2a7.495,7.495,0,0,1-7.348,7.873L7.245,161.765A7.114,7.114,0,0,1,0,154.653Z" transform="translate(66.9 64)" fill="url(#linear-gradient-2)"/>
        <path id="Vector-15" data-name="Vector" d="M20.208,27.167,7.628,27A7.758,7.758,0,0,1,0,19.276V.284a.269.269,0,1,1,.537,0V19.276a7.217,7.217,0,0,0,7.1,7.189l12.578.165a.269.269,0,0,1,0,.537Z" transform="translate(70.365 196.18)" fill="url(#linear-gradient-3)"/>
        <path id="Vector-16" data-name="Vector" d="M.269,3.628A.268.268,0,0,1,0,3.36V.284a.269.269,0,1,1,.537,0V3.36a.268.268,0,0,1-.268.268Z" transform="translate(70.361 187.223)" fill="url(#linear-gradient-4)"/>
        <path id="Vector-17" data-name="Vector" d="M0,3.371A3.349,3.349,0,0,1,3.8.03c13.395,1.816,59.454,7.434,97.535,4.511a3.1,3.1,0,0,1,3.337,2.921L112.263,150.3a3.565,3.565,0,0,1-3.35,3.749C92.9,155,26.937,158.658,3.409,156.2a2.824,2.824,0,0,1-2.527-2.8Z" transform="translate(74.936 62.817)" fill="url(#linear-gradient-5)"/>
        <path id="Vector-18" data-name="Vector" d="M0,3.244A3.223,3.223,0,0,1,3.657.029C16.547,1.777,60.872,7.183,97.52,4.37a2.98,2.98,0,0,1,3.209,2.812l7.306,137.459a3.432,3.432,0,0,1-3.223,3.608c-15.414.912-78.89,4.438-101.531,2.066a2.715,2.715,0,0,1-2.432-2.69Z" transform="translate(76.515 66.521)" fill="url(#linear-gradient-6)"/>
        <g id="Group-2" data-name="Group" transform="translate(97.001 111.533)" opacity="0.6">
          <path id="Vector-19" data-name="Vector" d="M1.083,0A1,1,0,0,0,.013,1.19L.165,2.2A1.507,1.507,0,0,0,1.606,3.444H19.8a1.239,1.239,0,0,0,1.239-1.255v-.1A1.344,1.344,0,0,0,19.774.784Z" transform="translate(0 0)" fill="#eaf5df" opacity="0.6"/>
        </g>
        <g id="Group-3" data-name="Group" transform="translate(141.557 111.459)" opacity="0.6">
          <path id="Vector-20" data-name="Vector" d="M1.083,0A1,1,0,0,0,.013,1.189L.165,2.2A1.508,1.508,0,0,0,1.607,3.444H19.8a1.239,1.239,0,0,0,1.239-1.255v-.1A1.345,1.345,0,0,0,19.774.782Z" transform="translate(0 0)" fill="#eaf5df" opacity="0.6"/>
        </g>
        <path id="Vector-21" data-name="Vector" d="M.37,0H81.84a.37.37,0,0,1,.37.37V3.08a.37.37,0,0,1-.37.37H.37A.37.37,0,0,1,0,3.08V.37A.37.37,0,0,1,.37,0Z" transform="translate(88.428 148.481)" fill="#eaf5df" opacity="0.68"/>
        <path id="Vector-22" data-name="Vector" d="M.37,0h60.2a.37.37,0,0,1,.37.37V3.08a.37.37,0,0,1-.37.37H.37A.37.37,0,0,1,0,3.08V.37A.37.37,0,0,1,.37,0Z" transform="translate(88.428 155.681)" fill="#eaf5df" opacity="0.68"/>
        <path id="Vector-23" data-name="Vector" d="M.37,0H81.84a.37.37,0,0,1,.37.37V3.08a.37.37,0,0,1-.37.37H.37A.37.37,0,0,1,0,3.08V.37A.37.37,0,0,1,.37,0Z" transform="translate(88.577 141.429)" fill="#eaf5df" opacity="0.68"/>
        <path id="Vector-24" data-name="Vector" d="M.37,0H81.84a.37.37,0,0,1,.37.37V3.08a.37.37,0,0,1-.37.37H.37A.37.37,0,0,1,0,3.08V.37A.37.37,0,0,1,.37,0Z" transform="translate(88.058 170.276)" fill="#eaf5df" opacity="0.68"/>
        <path id="Vector-25" data-name="Vector" d="M.37,0H61.681a.37.37,0,0,1,.37.37V3.08a.37.37,0,0,1-.37.37H.37A.37.37,0,0,1,0,3.08V.37A.37.37,0,0,1,.37,0Z" transform="translate(88.058 177.477)" fill="#eaf5df" opacity="0.68"/>
        <path id="Vector-26" data-name="Vector" d="M.37,0H81.84a.37.37,0,0,1,.37.37V3.08a.37.37,0,0,1-.37.37H.37A.37.37,0,0,1,0,3.08V.37A.37.37,0,0,1,.37,0Z" transform="translate(88.208 163.225)" fill="#eaf5df" opacity="0.68"/>
        <path id="Vector-27" data-name="Vector" d="M.37,0H81.84a.37.37,0,0,1,.37.37V3.08a.37.37,0,0,1-.37.37H.37A.37.37,0,0,1,0,3.08V.37A.37.37,0,0,1,.37,0Z" transform="translate(88.208 185.112)" fill="#eaf5df" opacity="0.68"/>
        <path id="Vector-28" data-name="Vector" d="M.37,0H81.84a.37.37,0,0,1,.37.37V3.08a.37.37,0,0,1-.37.37H.37A.37.37,0,0,1,0,3.08V.37A.37.37,0,0,1,.37,0Z" transform="translate(87.828 100.174)" fill="#eaf5df" opacity="0.68"/>
        <path id="Vector-29" data-name="Vector" d="M.37,0H53.712a.37.37,0,0,1,.37.37V3.08a.37.37,0,0,1-.37.37H.37A.37.37,0,0,1,0,3.08V.37A.37.37,0,0,1,.37,0Z" transform="translate(101.554 85.697)" fill="#eaf5df" opacity="0.68"/>
        <path id="Vector-30" data-name="Vector" d="M.37,0H81.84a.37.37,0,0,1,.37.37V3.08a.37.37,0,0,1-.37.37H.37A.37.37,0,0,1,0,3.08V.37A.37.37,0,0,1,.37,0Z" transform="translate(87.978 93.123)" fill="#eaf5df" opacity="0.68"/>
        <path id="Vector-31" data-name="Vector" d="M.37,0H36.921a.37.37,0,0,1,.37.37V3.08a.37.37,0,0,1-.37.37H.37A.37.37,0,0,1,0,3.08V.37A.37.37,0,0,1,.37,0Z" transform="translate(88.569 125.677)" fill="#eaf5df" opacity="0.68"/>
        <path id="Vector-32" data-name="Vector" d="M.37,0H36.921a.37.37,0,0,1,.37.37V3.08a.37.37,0,0,1-.37.37H.37A.37.37,0,0,1,0,3.08V.37A.37.37,0,0,1,.37,0Z" transform="translate(88.569 132.278)" fill="#eaf5df" opacity="0.68"/>
        <path id="Vector-33" data-name="Vector" d="M.37,0H36.921a.37.37,0,0,1,.37.37V3.08a.37.37,0,0,1-.37.37H.37A.37.37,0,0,1,0,3.08V.37A.37.37,0,0,1,.37,0Z" transform="translate(88.425 119.076)" fill="#eaf5df" opacity="0.68"/>
        <path id="Vector-34" data-name="Vector" d="M.37,0H37.519a.37.37,0,0,1,.37.37V3.08a.37.37,0,0,1-.37.37H.37A.37.37,0,0,1,0,3.08V.37A.37.37,0,0,1,.37,0Z" transform="translate(132.827 125.828)" fill="#eaf5df" opacity="0.68"/>
        <path id="Vector-35" data-name="Vector" d="M.37,0H37.519a.37.37,0,0,1,.37.37V3.08a.37.37,0,0,1-.37.37H.37A.37.37,0,0,1,0,3.08V.37A.37.37,0,0,1,.37,0Z" transform="translate(132.827 132.428)" fill="#eaf5df" opacity="0.68"/>
        <path id="Vector-36" data-name="Vector" d="M.37,0H37.519a.37.37,0,0,1,.37.37V3.08a.37.37,0,0,1-.37.37H.37A.37.37,0,0,1,0,3.08V.37A.37.37,0,0,1,.37,0Z" transform="translate(132.681 119.227)" fill="#eaf5df" opacity="0.68"/>
        <path id="Vector-37" data-name="Vector" d="M11.884,2.148C8.34-.316,5.259-.268,3.091.372A4.326,4.326,0,0,0,.019,4.92L.954,15.128l11.128.987S18.832,6.982,11.884,2.148ZM6.989,10.383a2.775,2.775,0,1,1,1.062-.211,2.775,2.775,0,0,1-1.062.211Z" transform="translate(121.676 42.463)" fill="url(#linear-gradient-7)"/>
        <path id="Vector-38" data-name="Vector" d="M.69,9.34a.269.269,0,0,1-.267-.247L.273,7.467a.269.269,0,1,1,.535-.049L.957,9.044a.268.268,0,0,1-.247.292ZM.4,6.155a.268.268,0,0,1-.267-.247L.017,4.674A4.129,4.129,0,0,1,2.945.341,8.326,8.326,0,0,1,7.012.177.269.269,0,1,1,6.9.7,7.793,7.793,0,0,0,3.1.859,3.591,3.591,0,0,0,.552,4.628L.665,5.862a.267.267,0,0,1-.247.291Z" transform="translate(123.052 43.956)" fill="#bdd0fb"/>
        <path id="Vector-39" data-name="Vector" d="M0,8.261V3.129A3.133,3.133,0,0,1,3.24,0L38.623,1.214a3.045,3.045,0,0,1,2.936,2.862l.3,4.931Z" transform="translate(107.441 55.927)" fill="url(#linear-gradient-8)"/>
        <path id="Vector-40" data-name="Vector" d="M1.777.537H.254A.269.269,0,0,1,.254,0H1.777a.269.269,0,0,1,0,.537Z" transform="translate(118.859 57.322)" fill="#bdd0fb"/>
        <path id="Vector-41" data-name="Vector" d="M.268,5.254A.268.268,0,0,1,0,4.986V2.91A2.912,2.912,0,0,1,2.909,0H8.5a.269.269,0,0,1,0,.537h-5.6A2.376,2.376,0,0,0,.537,2.91V4.986a.268.268,0,0,1-.268.268Z" transform="translate(109.088 57.322)" fill="#bdd0fb"/>
        <path id="Vector-42" data-name="Vector" d="M.136,3.175A3.334,3.334,0,0,1,3.467,0h61.88a4.574,4.574,0,0,1,4.507,3.793l.052.3a3.927,3.927,0,0,1-3.867,4.6H2.554A2.551,2.551,0,0,1,0,6.018Z" transform="translate(92.887 62.311)" fill="url(#linear-gradient-9)"/>
        <path id="Vector-43" data-name="Vector" d="M0,16.483a20.68,20.68,0,0,1,3.078-9.2A21.382,21.382,0,0,1,6.131,3.421c.3-.282.591-.576.9-.849s.624-.54.946-.8.658-.5.995-.736L9.487.7l.258-.17L9.874.444c.047-.03.11-.067.165-.1a2.6,2.6,0,0,1,3.095.36,2.315,2.315,0,0,1,.475.719,2.716,2.716,0,0,1,.13.379,3.164,3.164,0,0,1,.082.372,5.233,5.233,0,0,1,.01,1.387c-.023.221-.059.436-.1.647l-.118.594c-.076.4-.165.792-.247,1.186-.174.789-.372,1.573-.576,2.353a54.6,54.6,0,0,1-3.342,9.084l-.529,1.089c-.185.359-.365.72-.555,1.076l-.286.533-.144.267-.157.278a8.083,8.083,0,0,1-.747,1.07,5,5,0,0,1-1.01.943,2.861,2.861,0,0,1-1.459.521,1.99,1.99,0,0,1-.411-.016,2.251,2.251,0,0,1-.4-.082,2.339,2.339,0,0,1-.733-.355,2.816,2.816,0,0,1-.956-1.215,3.805,3.805,0,0,1-.276-1.412,5.7,5.7,0,0,1,.165-1.336,11.466,11.466,0,0,1,.355-1.2L2.5,17l.224-.576A21.569,21.569,0,0,1,5.045,12.1a21.806,21.806,0,0,1,3.209-3.7L8.47,8.2,8.7,8l.468-.4c.16-.128.323-.247.485-.375s.321-.253.494-.366c.335-.235.666-.473,1.016-.685l.258-.165.13-.082c.023-.015.04-.026.067-.042l.082-.048a2.065,2.065,0,0,1,.741-.23,1.893,1.893,0,0,1,1.481.462,1.531,1.531,0,0,1,.45.715,1.975,1.975,0,0,1,.053.766,4.2,4.2,0,0,1-.129.654l-.165.581-.323,1.152c-.428,1.536-.872,3.067-1.308,4.6l-.673-.12a3.531,3.531,0,0,1,.474-1.505,2.458,2.458,0,0,1,.545-.626,2.133,2.133,0,0,1,.754-.39,1.982,1.982,0,0,1,.859-.056,1.608,1.608,0,0,1,.429.129,1.518,1.518,0,0,1,.2.108l.136.082a1.229,1.229,0,0,0,1.079.072,1.13,1.13,0,0,0,.239-.137.972.972,0,0,0,.1-.09l.051-.049.062-.066.494-.523.981-1.047.981-1.046.494-.523a.948.948,0,0,1,.486-.277.905.905,0,0,1,.561.063.946.946,0,0,1,.418.368.894.894,0,0,1,.122.558.607.607,0,0,1-.025.137c-.012.042-.027.1-.035.117l-.058.165-.112.329q-.216.667-.367,1.353t-.239,1.381c-.007.057-.016.119-.02.172l0,.142a.494.494,0,0,0,.009.139.686.686,0,0,0,.021.137,1.145,1.145,0,0,0,.253.483,1.168,1.168,0,0,0,.453.321,1.382,1.382,0,0,0,.268.082,1.36,1.36,0,0,0,.277.01,1.077,1.077,0,0,0,.52-.165l.061-.035.054-.045.111-.091.253-.247q1.012-.995,1.933-2.076a31.772,31.772,0,0,0,3.268-4.633l.347-.618.165-.313.082-.156.021-.039v.007c0,.026.01.031.007.029a.026.026,0,0,0,.016,0l.025,0-.03.03-.06.062c-.041.04-.082.082-.119.124-.082.082-.155.17-.23.256a8.532,8.532,0,0,0-.813,1.112q-.18.3-.337.6c-.052.1-.1.207-.15.311l-.071.157-.035.082-.023.071a1.452,1.452,0,0,0,.031,1.131,1.52,1.52,0,0,0,.833.778,1.481,1.481,0,0,0,.566.1,1.528,1.528,0,0,0,.561-.14l.135-.062.152-.089c.1-.059.2-.116.3-.179q.3-.183.595-.376a17.85,17.85,0,0,0,4.135-3.785h0a.343.343,0,1,1,.537.427,18.556,18.556,0,0,1-4.295,3.932c-.2.133-.411.264-.618.39-.1.065-.21.124-.314.186l-.158.092-.19.09a2.222,2.222,0,0,1-.823.2,2.154,2.154,0,0,1-.836-.146,2.206,2.206,0,0,1-1.21-1.131,2.14,2.14,0,0,1-.05-1.657l.034-.1.038-.082.076-.17c.052-.113.106-.224.165-.335q.169-.329.364-.649a9.229,9.229,0,0,1,.879-1.2c.082-.094.165-.187.247-.277.042-.045.082-.091.129-.134l.065-.067.033-.033c.021-.02.044-.039.067-.058a.636.636,0,0,1,.354-.133.673.673,0,0,1,.36.082.663.663,0,0,1,.34.621.639.639,0,0,1-.041.181c-.011.027-.024.058-.035.082l-.021.04-.082.16-.172.319-.355.632a32.52,32.52,0,0,1-3.338,4.733q-.939,1.106-1.975,2.122l-.259.253-.165.137-.082.067-.095.056a1.758,1.758,0,0,1-.83.264,2,2,0,0,1-.438-.018,2.045,2.045,0,0,1-.417-.124,1.854,1.854,0,0,1-.7-.5,1.834,1.834,0,0,1-.4-.775,1.278,1.278,0,0,1-.036-.216,1.026,1.026,0,0,1-.014-.218l.008-.216.021-.184q.091-.728.247-1.445a14.213,14.213,0,0,1,.384-1.415l.116-.348.062-.173a.3.3,0,0,0,.016-.055.082.082,0,0,0,.007-.038.2.2,0,0,0-.026-.13.258.258,0,0,0-.114-.1.219.219,0,0,0-.263.058l-.494.523L18.736,10.8l-.981,1.047-.494.523-.062.066-.077.076a1.846,1.846,0,0,1-.165.143,1.818,1.818,0,0,1-.382.22,1.917,1.917,0,0,1-1.685-.105l-.165-.105a.959.959,0,0,0-.115-.061.945.945,0,0,0-.255-.077,1.3,1.3,0,0,0-.56.038,1.563,1.563,0,0,0-.905.717,2.842,2.842,0,0,0-.375,1.21l-.672-.119v0c.386-1.547.763-3.1,1.157-4.641l.293-1.159.144-.576a3.407,3.407,0,0,0,.09-.519,1.074,1.074,0,0,0-.035-.419.6.6,0,0,0-.188-.276.936.936,0,0,0-.741-.2,1.078,1.078,0,0,0-.388.132l-.044.026-.058.039-.121.082-.242.165c-.329.21-.637.446-.95.676-.159.112-.306.239-.458.36s-.3.247-.451.369l-.435.388L9.2,9.006l-.21.2A20.62,20.62,0,0,0,6,12.763a20.312,20.312,0,0,0-2.125,4.121l-.2.543-.177.551a10.469,10.469,0,0,0-.305,1.094,3.162,3.162,0,0,0,.082,1.952,1.487,1.487,0,0,0,.51.635,1.006,1.006,0,0,0,.341.156,1.037,1.037,0,0,0,.366.039,1.508,1.508,0,0,0,.756-.291,3.662,3.662,0,0,0,.722-.694,6.725,6.725,0,0,0,.611-.894l.135-.247.137-.261.276-.523c.181-.349.354-.7.532-1.053l.506-1.07a55.565,55.565,0,0,0,3.209-8.863c.2-.76.39-1.524.558-2.292.082-.384.165-.769.24-1.152l.114-.576c.033-.182.062-.36.082-.536a3.8,3.8,0,0,0,0-1,1.225,1.225,0,0,0-.285-.672.767.767,0,0,0-.247-.175,1.152,1.152,0,0,0-.344-.087,1.359,1.359,0,0,0-.747.165c-.032.017-.055.03-.093.053l-.12.082-.242.156L9.8,2.242c-.318.216-.62.455-.934.676s-.6.485-.9.726-.569.519-.856.777A22.075,22.075,0,0,0,.692,16.573a.344.344,0,0,1-.681-.082Z" transform="translate(113.714 192.237)" fill="#eaf5df"/>
        <path id="Vector-44" data-name="Vector" d="M.342,2.834A.343.343,0,0,1,.16,2.2L3.588.052a.343.343,0,0,1,.365.582L.524,2.781a.34.34,0,0,1-.182.053Z" transform="translate(149.072 195.456)" fill="#fff"/>
        <path id="Vector-45" data-name="Vector" d="M8.789,1.316,0,1.209,0,0,8.782.1Z" transform="translate(205.876 190.57)" fill="#bdd0fb" style="mix-blend-mode: overlay;isolation: isolate"/>
        <path id="Vector-46" data-name="Vector" d="M.338,8.317.009,3.882A3.075,3.075,0,0,1,2.731.6C6.492.171,13.136-.37,18.292.355a3.456,3.456,0,0,1,2.962,3.429V8.317H16.668L16.822,6a3.461,3.461,0,0,0-3.134-3.68,32.326,32.326,0,0,0-7.449.165A3.08,3.08,0,0,0,3.681,6.275L4.192,8.32Z" transform="translate(171.819 126.599)" fill="url(#linear-gradient-10)"/>
        <path id="Vector-47" data-name="Vector" d="M52.8,79.656,3.507,78.612,0,3.25,55.39,0Z" transform="translate(155.454 142.527)" fill="url(#linear-gradient-11)"/>
        <path id="Vector-48" data-name="Vector" d="M55.36,8.119,0,10.474,6.077,2.863a6.65,6.65,0,0,1,5.1-2.347L44.6,0a4.435,4.435,0,0,1,3.045,1.1Z" transform="translate(155.529 132.919)" fill="url(#linear-gradient-12)"/>
        <path id="Vector-49" data-name="Vector" d="M0,0,49.29,1.044,40.347,7.783a3.95,3.95,0,0,1-2.366.8L9.6,8.674A3.964,3.964,0,0,1,6.65,7.357Z" transform="translate(158.961 221.139)" fill="url(#linear-gradient-13)"/>
        <path id="Vector-50" data-name="Vector" d="M.087,6.771,1.411,2.81a3.127,3.127,0,0,1,3.03-1.724L61.46,0c1.6-.03,3.028.756,3.374,1.86l1.545,4.963c.441,1.418-1.061,2.735-3.121,2.739L3.369,9.644C1.22,9.648-.4,8.229.087,6.771Z" transform="translate(149.856 139.157)" fill="url(#linear-gradient-14)"/>
        <path id="Vector-51" data-name="Vector" d="M.122,6.272,7.039,19l5.174-9.233A3.469,3.469,0,0,0,12.26,6.46L9.075.376A.7.7,0,0,0,7.829.389L5.621,4.832,1.013,4.793a1,1,0,0,0-.891,1.48Z" transform="translate(189.779 176.169)" fill="#fff"/>
        <path id="Vector-52" data-name="Vector" d="M19.16.756,18.1,1.485a6.107,6.107,0,0,1-3.5,1.07L4.972,2.473l.019-2.2a.27.27,0,0,0-.5-.136L0,7.97l4.4,7.846a.269.269,0,0,0,.5-.118l.136-2.607,4.475.038a4.855,4.855,0,0,0,4.3-2.534Z" transform="translate(181.813 186.998)" fill="#fff"/>
        <path id="Vector-53" data-name="Vector" d="M9.685,12.355,17.255,0,6.672.136A3.47,3.47,0,0,0,3.783,1.749L.107,7.55A.7.7,0,0,0,.742,8.62l4.95-.309,2.271,4.011a1,1,0,0,0,1.721.032Z" transform="translate(169.175 165.758)" fill="#fff"/>
        <path id="Vector-54" data-name="Vector" d="M14.482.376,0,0,5.409,9.1A3.47,3.47,0,0,0,8.25,10.793l6.862.284a.7.7,0,0,0,.612-1.086L12.981,5.857l2.339-3.972A1,1,0,0,0,14.482.376Z" transform="translate(165.91 189.244)" fill="#fff"/>
        <path id="Vector-55" data-name="Vector" d="M6.562,20.316l-.1-1.286a6.1,6.1,0,0,1,.823-3.565l4.882-8.293,1.9,1.117a.269.269,0,0,0,.369-.367L9.893.117.9,0a.269.269,0,0,0-.15.494L2.94,1.915.67,5.771a4.855,4.855,0,0,0,.043,4.993Z" transform="translate(163.692 176.237)" fill="#fff"/>
        <path id="Vector-56" data-name="Vector" d="M0,0,.064.065Z" transform="translate(203.597 166.716)" fill="#fff"/>
        <path id="Vector-57" data-name="Vector" d="M0,0C.021.043.043.086.063.13Z" transform="translate(203.597 166.716)" fill="#fff"/>
        <path id="Vector-58" data-name="Vector" d="M0,.29,1.164.847a6.11,6.11,0,0,1,2.675,2.5L8.579,11.72,6.663,12.806a.269.269,0,0,0,.134.5l9.029-.032,4.6-7.729a.269.269,0,0,0-.354-.378L17.741,6.355l-2.2-3.894A4.849,4.849,0,0,0,11.192,0Z" transform="translate(177.925 165.577)" fill="#fff"/>
      </g>
      <g id="Group_639" data-name="Group 639" transform="translate(25.826 87.457)">
        <path id="Vector-59" data-name="Vector" d="M3.378,9.737S4.66,5.788,4.55,4.883A17.551,17.551,0,0,0,3.059.1c-.575-.79-.859,3.218-1.314,3.82s-.093-1.509-.415-1.7S.344,3.77.053,4.389.758,7.282.758,8.868,3.378,9.737,3.378,9.737Z" transform="translate(10.213 68.82) rotate(180)" fill="#ffb27d"/>
        <path id="Vector-60" data-name="Vector" d="M.018,33.982a5.6,5.6,0,0,0,8.428,5.276l.236-.148c5.8-3.742,18.32-21.2,19.181-22.949S31.267.5,31.267.5,28.125-.652,26.655.543c0,0-5.1,13.2-5.848,13.855S.423,26.094.256,30.231C.211,31.324.124,32.639.018,33.982Z" transform="translate(36.924 61.749) rotate(180)" fill="#68a42a"/>
        <path id="Vector-61" data-name="Vector" d="M0,26.135H5.2V0H0Z" transform="translate(61.155 25.334) rotate(-70.8)" fill="#f99746"/>
        <path id="Vector-62" data-name="Vector" d="M0,.451,6.6,0,4.888,4.871Z" transform="translate(92.388 33.938) rotate(180)" fill="#f9ddbf"/>
        <path id="Vector-63" data-name="Vector" d="M3.442,4.2,3.984,2.68A1.768,1.768,0,0,0,3.9,1.306,1.823,1.823,0,0,0,2.855.39L1.711,0,0,4.824l1.244.425a1.757,1.757,0,0,0,1.32-.076,1.724,1.724,0,0,0,.537-.4A1.687,1.687,0,0,0,3.442,4.2Z" transform="translate(62.849 25.297) rotate(180)" fill="#f9ddbf"/>
        <path id="Vector-64" data-name="Vector" d="M8.437,10.933s2.329-2.139,1.874-3.667S7.755,4.727,7.471,2.873,6.051,0,5.029,0H.154S-.6,1.309,1.22,1.7s2.5,2.579,2.389,4.606A36.006,36.006,0,0,0,3.78,11.04l3.862.9Z" transform="translate(10.37 140.781) rotate(180)" fill="#263238"/>
        <path id="Vector-65" data-name="Vector" d="M13.741,5.468S14.163.515,13.134,0L0,.027s0,1.546,2.109,1.89,5.817,1.6,6.444,4.41S13.741,5.468,13.741,5.468Z" transform="translate(44.308 140.781) rotate(180)" fill="#263238"/>
        <path id="Vector-66" data-name="Vector" d="M0,69.053S.692,60.536,1.5,50.3C2.61,36.387,3.938,19.3,4.07,16.068,4.3,10.44,5.21,1.457,5.21,1.457S7.371-.679,11.7.222a145.422,145.422,0,0,1,4.957,26.41l.051.671c1.026,13.823,2.619,42.93,2.619,42.93Z" transform="translate(41.637 135.753) rotate(180)" fill="#f99746"/>
        <path id="Vector-67" data-name="Vector" d="M0,42.344s.692-8.5,1.5-18.723L16.657,0l.05.67c1.026,13.8,2.618,42.853,2.618,42.853Z" transform="translate(41.637 109.042) rotate(180)" fill="#ef7e29"/>
        <path id="Vector-68" data-name="Vector" d="M0,64.03S12.489,33.113,20.7,18.584,31.476,0,31.476,0s4.706,1.858,5.133,3.126c0,0-3.141,28.048-8.639,34.886-3.107,3.865-6.758,15.46-6.928,19.513S19.93,69.6,19.93,69.6Z" transform="translate(38.495 131.668) rotate(180)" fill="#f99746"/>
        <path id="Vector-69" data-name="Vector" d="M13.2,3.137S4.875-1.134,0,.291a11.46,11.46,0,0,0,3.228,2.72c-.187.981-.334,1.839-.42,2.555a23.822,23.822,0,0,0-.256,2.612l3.192,2.646,3.028,2.531A12.57,12.57,0,0,1,13.2,3.137Z" transform="translate(41.009 24.511) rotate(180)" fill="#ffb27d"/>
        <path id="Vector-70" data-name="Vector" d="M25.791,5.483a34.321,34.321,0,0,0-10.316-4.46C11.061-.028,5.638.283,3.823,0a.756.756,0,0,0-.53.141c-.141.073-.943,5.477-1.746,12.3-.035.282-.073.551-.089.829l-.011.092c-.312,2.666-.585,5.466-.822,8.274C.432,23.819.273,25.978.162,28.008c-.141,2.539-.2,4.87-.141,6.789.025.876.077,1.664.155,2.348a16.733,16.733,0,0,0,4.154,8.949l1.478,1.693a8.087,8.087,0,0,1,5.117,1.31c1.806,1.193,3.755,2.477,4.123,2.257,2.767-1.52,5.022-5.458,6.632-10.66a59.6,59.6,0,0,0,2.084-9.99c.141-1.117.27-2.257.364-3.4.02-.212.034-.423.051-.629.218-3.119.572-6.041.965-8.65.53-3.526,1.124-6.47,1.557-8.546.214-1.056.377-1.875.474-2.46C27.264,6.5,26.245,5.766,25.791,5.483Z" transform="translate(45.251 70.076) rotate(180)" fill="#86bf4a"/>
        <path id="Vector-71" data-name="Vector" d="M6.442,5.217A11.37,11.37,0,0,0,.261,0,24.149,24.149,0,0,0,0,2.654L3.25,5.342Z" transform="translate(38.495 19.012) rotate(180)" fill="#ed985f"/>
        <path id="Vector-72" data-name="Vector" d="M1.694.117S9.78-1.045,10.439,3.941s2.144,8.193-2.991,9.146S1.057,12.266.427,10.654-.392.549,1.694.117Z" transform="translate(41.637 16.341) rotate(180)" fill="#ffb27d"/>
        <path id="Vector-73" data-name="Vector" d="M16.035,9.972c.072.084.241.156.62.184a1.549,1.549,0,0,1-.709.182,1.885,1.885,0,0,1-1.3,1.641,1.13,1.13,0,0,0,.376-.335,1.114,1.114,0,0,0,.191-.464c-1.072,1.045-3.337,1.777-9.556,1.169-8.2-.8-5.389-5.942-4.312-6.541s3.717,1.152,5.7,1.034,2.411-2.936,3.1-3.311.4.307,1.3.73,1.017-1.064.774-2.036S13.25,0,13.25,0l1.235,1.369C15.72,2.737,16.8,8.449,16.2,9.65,16.142,9.757,16.089,9.869,16.035,9.972Z" transform="translate(44.466 12.57) rotate(180)" fill="#2c3a64"/>
        <path id="Vector-74" data-name="Vector" d="M14.141,6.317S7.355,1.138.161,0c-.14,2.527-.2,4.847-.14,6.756Z" transform="translate(45.251 42.109) rotate(180)" fill="#68a42a"/>
        <path id="Vector-75" data-name="Vector" d="M7.542,2.414C7.432,2.531,6.029,7.239,3.6,6.9,2.015,6.672-.574,5.756.114,3.658.385,2.835,5.213,0,5.213,0Z" transform="translate(80.446 31.424) rotate(180)" fill="#ffb27d"/>
        <path id="Vector-76" data-name="Vector" d="M45.344,12.464a5.551,5.551,0,0,0-.587-9.869c-.084-.038-.17-.073-.256-.108C38.1-.069,16.64-.188,14.718.12S0,6.361,0,6.361s.882,3.211,2.705,3.717c0,0,13.69-3.452,14.662-3.218s21.322,9.812,24.786,7.57C43.069,13.835,44.191,13.149,45.344,12.464Z" transform="translate(75.576 38.18) rotate(180)" fill="#80b747"/>
      </g>
    </g>
  </g>
</svg>
