<svg xmlns="http://www.w3.org/2000/svg" width="183.012" height="169.856" viewBox="0 0 183.012 169.856">
  <g id="Group_705" data-name="Group 705" transform="translate(4880.568 18436.221)">
    <g id="_4782296_2" data-name="4782296 2" transform="translate(-4880.568 -18436.221)">
      <path id="Vector" d="M148.714,96.717H9.6s-17.18-11.483-5.566-32.99c10.581-19.594,18.232-7.386,15.032-42.554C17.783,7.1,26.977.011,39.714,0c12.6-.011,25.759,5.376,37.877,2.9q4.627-.946,8.9-1.488l1-.124.274-.032C98.434.009,107.424.584,114.875,2.4c27.52,6.715,34.067,30.421,26.817,42.5C131.641,61.646,171.518,63.287,148.714,96.717Z" transform="translate(45.266 0) rotate(27.906)" fill="#ebf3fa"/>
      <path id="Vector-2" data-name="Vector" d="M.362,17.307c.226-2.13.522-4.247.922-6.329a56.8,56.8,0,0,1,1.5-6.051c.534-1.72,1.241-3.476,2.593-4.39A2.89,2.89,0,0,1,7.423.024,2.922,2.922,0,0,1,9.282,1.048a8.344,8.344,0,0,1,1.81,5.143,21.239,21.239,0,0,1-1.382,8.256,20.871,20.871,0,0,1-4.452,7.03,12.3,12.3,0,0,1-2.071,1.679,7.168,7.168,0,0,1-1.943.866.6.6,0,0,1-.348.095H.8a.21.21,0,0,1-.165-.027.217.217,0,0,1-.062-.06.222.222,0,0,1-.034-.08.917.917,0,0,1-.244-.409C-.294,21.59.147,19.295.362,17.307Z" transform="translate(47.363 108.203)" fill="#e08675"/>
      <path id="Vector-3" data-name="Vector" d="M.362,17.307c.226-2.13.522-4.247.922-6.329a56.8,56.8,0,0,1,1.5-6.05c.534-1.72,1.241-3.476,2.593-4.39A2.89,2.89,0,0,1,7.424.024,2.922,2.922,0,0,1,9.282,1.048a8.344,8.344,0,0,1,1.81,5.143A21.238,21.238,0,0,1,9.71,14.447a20.87,20.87,0,0,1-4.453,7.03,12.3,12.3,0,0,1-2.071,1.679,7.168,7.168,0,0,1-1.943.866.6.6,0,0,1-.348.095H.8a.21.21,0,0,1-.165-.027.217.217,0,0,1-.062-.06.222.222,0,0,1-.034-.08.917.917,0,0,1-.244-.409C-.294,21.59.147,19.294.362,17.307Z" transform="matrix(0.948, 0.318, -0.318, 0.948, 53.515, 54.335)" fill="#6c3bfb"/>
      <g id="Device" transform="translate(44.003 15.538)">
        <path id="Vector-4" data-name="Vector" d="M4.936,0H138.393a4.935,4.935,0,0,1,4.936,4.935V90.943a4.935,4.935,0,0,1-4.936,4.935H4.936A4.935,4.935,0,0,1,0,90.943V4.935A4.935,4.935,0,0,1,4.936,0Z" transform="matrix(0, 1, -1, 0, 95.878, 0)" fill="#ed7d2b"/>
        <path id="Vector-5" data-name="Vector" d="M0,0H.222" transform="translate(91.72 18.866)" fill="none"/>
        <path id="Vector-6" data-name="Vector" d="M0,0H87.677V123.352H0Z" transform="translate(4.157 10.032)" fill="#fff"/>
        <path id="Vector-7" data-name="Vector" d="M.479,0h.532A.479.479,0,0,1,1.49.479V20.387a.479.479,0,0,1-.479.479H.479A.479.479,0,0,1,0,20.387V.479A.479.479,0,0,1,.479,0Z" transform="matrix(0, 1, -1, 0, 58.37, 5.074)" fill="#37474f"/>
        <path id="Vector-8" data-name="Vector" d="M5.4,2.7A2.7,2.7,0,1,1,2.7,0,2.7,2.7,0,0,1,5.4,2.7Z" transform="translate(45.241 135.532)" fill="#37474f"/>
        <path id="Vector-9" data-name="Vector" d="M0,0H87.677V123.352H0Z" transform="translate(4.157 10.032)" fill="#fff"/>
        <path id="Vector-10" data-name="Vector" d="M0,0H87.677V3.014H0Z" transform="translate(4.157 10.032)" fill="#455a64"/>
        <path id="Vector-11" data-name="Vector" d="M1.531.766A.766.766,0,1,1,1.314.231.766.766,0,0,1,1.531.766Z" transform="translate(4.964 10.783)" fill="#c7c7c7"/>
        <path id="Vector-12" data-name="Vector" d="M1.531.766A.766.766,0,1,1,1.314.231.766.766,0,0,1,1.531.766Z" transform="translate(8.016 10.783)" fill="#fff"/>
        <path id="Vector-13" data-name="Vector" d="M1.531.766A.766.766,0,1,1,1.307.224.766.766,0,0,1,1.531.766Z" transform="translate(11.067 10.783)" fill="#ffc727"/>
        <g id="Group_658" data-name="Group 658" transform="translate(17.262 24.498)">
          <path id="Vector-14" data-name="Vector" d="M3.936.808H2.427V4.729H1.512V.808H0V0H3.936Z" transform="translate(0 0.028)" fill="#86bf4a"/>
          <path id="Vector-15" data-name="Vector" d="M3.285,3.925v.8H0V0H3.224V.793H.927V1.941H2.921v.766H.927V3.94Z" transform="translate(4.521 0.043)" fill="#86bf4a"/>
          <path id="Vector-16" data-name="Vector" d="M0,4.729V0H2.09a1.321,1.321,0,0,1,.6.138A1.531,1.531,0,0,1,3.17.5,1.635,1.635,0,0,1,3.48,1a1.5,1.5,0,0,1,.115.571,1.574,1.574,0,0,1-.23.835,1.306,1.306,0,0,1-.624.544l1.08,1.777H2.791L1.822,3.144h-.9V4.729ZM.919,2.34H2.067A.479.479,0,0,0,2.3,2.278a.59.59,0,0,0,.188-.165.766.766,0,0,0,.126-.241.938.938,0,0,0,.046-.3.793.793,0,0,0-.054-.306.735.735,0,0,0-.142-.245A.685.685,0,0,0,2.263.862.578.578,0,0,0,2.025.808H.915Z" transform="translate(8.526 0.043)" fill="#86bf4a"/>
          <path id="Vector-17" data-name="Vector" d="M3.859,4.729V1.6L2.638,3.929h-.5L.923,1.6V4.729H0V0H.988l1.4,2.68L3.8,0h.98V4.729Z" transform="translate(12.952 0.043)" fill="#86bf4a"/>
          <path id="Vector-18" data-name="Vector" d="M3.159,1.279a1.11,1.11,0,0,0-.172-.126A1.784,1.784,0,0,0,2.688,1,2.641,2.641,0,0,0,2.3.866,1.707,1.707,0,0,0,1.887.812a.915.915,0,0,0-.567.142.452.452,0,0,0-.188.383.414.414,0,0,0,.069.245.651.651,0,0,0,.2.168,1.811,1.811,0,0,0,.337.134l.471.126a6.1,6.1,0,0,1,.628.2,1.734,1.734,0,0,1,.479.268,1.011,1.011,0,0,1,.3.383,1.225,1.225,0,0,1,.107.548,1.375,1.375,0,0,1-.142.651A1.218,1.218,0,0,1,3.2,4.5a1.638,1.638,0,0,1-.559.241,2.879,2.879,0,0,1-.662.077A3.529,3.529,0,0,1,.93,4.653,3.231,3.231,0,0,1,0,4.2l.406-.793a1.149,1.149,0,0,0,.214.157A2.772,2.772,0,0,0,1,3.757a2.944,2.944,0,0,0,.471.165,2.067,2.067,0,0,0,.532.065c.509,0,.766-.161.766-.486a.383.383,0,0,0-.088-.257.7.7,0,0,0-.245-.188,2.22,2.22,0,0,0-.383-.146l-.505-.149a4.031,4.031,0,0,1-.59-.2A1.436,1.436,0,0,1,.544,2.3a.946.946,0,0,1-.249-.345,1.149,1.149,0,0,1-.084-.471A1.494,1.494,0,0,1,.345.843,1.283,1.283,0,0,1,.727.379,1.635,1.635,0,0,1,1.279.1a2.232,2.232,0,0,1,.67-.1,2.68,2.68,0,0,1,.923.153A3.625,3.625,0,0,1,3.6.536Z" transform="translate(18.373 0.005)" fill="#86bf4a"/>
          <path id="Vector-19" data-name="Vector" d="M2.3,4.79a2.151,2.151,0,0,1-.942-.2,2.328,2.328,0,0,1-.727-.54,2.481,2.481,0,0,1-.471-.766A2.432,2.432,0,0,1,0,2.4,2.367,2.367,0,0,1,.176,1.49,2.531,2.531,0,0,1,.662.724,2.3,2.3,0,0,1,1.4.2,2.2,2.2,0,0,1,2.324,0a2.09,2.09,0,0,1,.934.207,2.358,2.358,0,0,1,.724.551,2.516,2.516,0,0,1,.467.766,2.439,2.439,0,0,1-.486,2.539,2.328,2.328,0,0,1-.735.528,2.178,2.178,0,0,1-.923.2ZM.93,2.393a1.834,1.834,0,0,0,.1.594,1.6,1.6,0,0,0,.268.505,1.378,1.378,0,0,0,.433.352,1.263,1.263,0,0,0,.582.134,1.217,1.217,0,0,0,.59-.138,1.286,1.286,0,0,0,.433-.383A1.62,1.62,0,0,0,3.6,2.949,1.915,1.915,0,0,0,3.6,1.8a1.6,1.6,0,0,0-.272-.505A1.329,1.329,0,0,0,2.894.942a1.3,1.3,0,0,0-.578-.13,1.229,1.229,0,0,0-.59.138,1.283,1.283,0,0,0-.433.36,1.532,1.532,0,0,0-.264.505,1.88,1.88,0,0,0-.1.578Z" transform="translate(24.108 0.016)" fill="#86bf4a"/>
          <path id="Vector-20" data-name="Vector" d="M0,4.729V0H3.162V.793H.907V2.01H2.78v.766H.9V4.733Z" transform="translate(29.43 0.043)" fill="#86bf4a"/>
          <path id="Vector-21" data-name="Vector" d="M3.178,1.271a1.11,1.11,0,0,0-.172-.126,1.784,1.784,0,0,0-.3-.157,2.641,2.641,0,0,0-.383-.13A1.707,1.707,0,0,0,1.907.8.923.923,0,0,0,1.34.946a.452.452,0,0,0-.188.383.414.414,0,0,0,.069.245.7.7,0,0,0,.2.168,1.914,1.914,0,0,0,.337.134L2.232,2a6.1,6.1,0,0,1,.628.2,1.677,1.677,0,0,1,.479.268,1.061,1.061,0,0,1,.306.383,1.283,1.283,0,0,1,.1.548,1.375,1.375,0,0,1-.142.651,1.218,1.218,0,0,1-.383.437,1.638,1.638,0,0,1-.559.241A2.879,2.879,0,0,1,2,4.806,3.549,3.549,0,0,1,.93,4.653,3.281,3.281,0,0,1,0,4.2l.406-.793a1.149,1.149,0,0,0,.214.157A3.028,3.028,0,0,0,1,3.757a2.944,2.944,0,0,0,.471.165,2.1,2.1,0,0,0,.536.065c.505,0,.766-.161.766-.486a.383.383,0,0,0-.088-.257.7.7,0,0,0-.245-.188A2.22,2.22,0,0,0,2.06,2.91l-.505-.149a4.211,4.211,0,0,1-.59-.2A1.436,1.436,0,0,1,.547,2.3.946.946,0,0,1,.3,1.953a1.149,1.149,0,0,1-.084-.471A1.494,1.494,0,0,1,.348.843,1.283,1.283,0,0,1,.731.379,1.673,1.673,0,0,1,1.283.1,2.239,2.239,0,0,1,1.956,0a2.63,2.63,0,0,1,.919.153,3.625,3.625,0,0,1,.731.383Z" transform="translate(34.342 0.012)" fill="#86bf4a"/>
          <path id="Vector-22" data-name="Vector" d="M3.285,3.925v.8H0V0H3.224V.793H.926V1.941H2.917v.766H.926V3.94Z" transform="translate(38.783 0.043)" fill="#86bf4a"/>
          <path id="Vector-23" data-name="Vector" d="M0,4.729V0H2.09a1.321,1.321,0,0,1,.6.138A1.589,1.589,0,0,1,3.17.5,1.712,1.712,0,0,1,3.48,1a1.5,1.5,0,0,1,.107.555,1.574,1.574,0,0,1-.23.835,1.306,1.306,0,0,1-.624.544l1.08,1.777H2.78L1.815,3.128H.907V4.714Zm.907-2.4H2.056a.452.452,0,0,0,.234-.061A.563.563,0,0,0,2.481,2.1a.766.766,0,0,0,.126-.241.938.938,0,0,0,.046-.3A.793.793,0,0,0,2.6,1.252a.735.735,0,0,0-.142-.245A.685.685,0,0,0,2.251.846.578.578,0,0,0,2.014.793H.907Z" transform="translate(42.788 0.043)" fill="#86bf4a"/>
          <path id="Vector-24" data-name="Vector" d="M.957,0,2.236,3.576,3.5,0h.965L2.623,4.729H1.857L0,0Z" transform="translate(46.632 0.043)" fill="#86bf4a"/>
          <path id="Vector-25" data-name="Vector" d="M0,4.729V0H.919V4.729Z" transform="translate(51.605 0.043)" fill="#86bf4a"/>
          <path id="Vector-26" data-name="Vector" d="M0,2.367a2.459,2.459,0,0,1,.157-.854A2.317,2.317,0,0,1,.613.747a2.3,2.3,0,0,1,.735-.54A2.251,2.251,0,0,1,2.332,0,2.144,2.144,0,0,1,3.461.288a1.842,1.842,0,0,1,.708.766l-.7.486A1.294,1.294,0,0,0,3.239,1.2,1.24,1.24,0,0,0,2.952.985,1.4,1.4,0,0,0,2.63.87,1.6,1.6,0,0,0,2.3.832a1.244,1.244,0,0,0-.6.142,1.317,1.317,0,0,0-.429.383,1.658,1.658,0,0,0-.257.505,1.915,1.915,0,0,0-.084.563,1.754,1.754,0,0,0,.1.6,1.532,1.532,0,0,0,.283.509,1.42,1.42,0,0,0,.44.356,1.194,1.194,0,0,0,.563.13,1.508,1.508,0,0,0,.333-.038,1.328,1.328,0,0,0,.329-.126,1.313,1.313,0,0,0,.287-.222,1.087,1.087,0,0,0,.214-.329l.766.433a1.344,1.344,0,0,1-.322.467,2.1,2.1,0,0,1-.471.345,2.366,2.366,0,0,1-.563.211,2.461,2.461,0,0,1-.586.077,2.014,2.014,0,0,1-.927-.214,2.466,2.466,0,0,1-.724-.555A2.535,2.535,0,0,1,.188,3.3,2.4,2.4,0,0,1,0,2.367Z" transform="translate(53.221 0)" fill="#86bf4a"/>
          <path id="Vector-27" data-name="Vector" d="M3.285,3.925v.8H0V0H3.231V.793H.934V1.941H2.925v.766H.934V3.94Z" transform="translate(58.075 0.043)" fill="#86bf4a"/>
        </g>
        <path id="Vector-28" data-name="Vector" d="M1.164,2.229a.6.6,0,0,0,.31-.073.6.6,0,0,0,.2-.2.8.8,0,0,0,.111-.276,1.762,1.762,0,0,0,.031-.322V0h.513V1.356a2,2,0,0,1-.065.513,1.149,1.149,0,0,1-.211.429.98.98,0,0,1-.36.283,1.252,1.252,0,0,1-.528.107A1.229,1.229,0,0,1,.62,2.577a1.049,1.049,0,0,1-.36-.295,1.1,1.1,0,0,1-.2-.421A1.915,1.915,0,0,1,0,1.363V0H.521V1.356a1.49,1.49,0,0,0,.031.325.8.8,0,0,0,.107.276.609.609,0,0,0,.2.191.563.563,0,0,0,.3.08Z" transform="translate(12.196 37.97)" fill="#f99746"/>
        <path id="Vector-29" data-name="Vector" d="M1.792.7A.662.662,0,0,0,1.7.624L1.528.536C1.463.509,1.39.486,1.313.463A1.011,1.011,0,0,0,1.076.433a.517.517,0,0,0-.318.08.264.264,0,0,0-.1.222A.214.214,0,0,0,.693.869a.322.322,0,0,0,.115.1A.792.792,0,0,0,1,1.042l.264.073a3.273,3.273,0,0,1,.356.111.9.9,0,0,1,.268.149.609.609,0,0,1,.168.214.689.689,0,0,1,.061.31.766.766,0,0,1-.08.383.685.685,0,0,1-.218.249.926.926,0,0,1-.314.134,1.474,1.474,0,0,1-.383.042,1.971,1.971,0,0,1-.593-.088A1.857,1.857,0,0,1,0,2.363l.23-.444a.567.567,0,0,0,.123.088,1.7,1.7,0,0,0,.207.107,1.34,1.34,0,0,0,.264.092,1.148,1.148,0,0,0,.3.038c.283,0,.425-.092.425-.272a.211.211,0,0,0-.05-.146.383.383,0,0,0-.138-.107,1.053,1.053,0,0,0-.214-.08L.861,1.555A2.174,2.174,0,0,1,.532,1.44.812.812,0,0,1,.3,1.294a.5.5,0,0,1-.142-.2A.682.682,0,0,1,.111.835.839.839,0,0,1,.184.475.728.728,0,0,1,.391.214,1.037,1.037,0,0,1,.7.054,1.351,1.351,0,0,1,1.083,0,1.493,1.493,0,0,1,1.6.088a1.914,1.914,0,0,1,.413.207Z" transform="translate(14.838 37.977)" fill="#f99746"/>
        <path id="Vector-30" data-name="Vector" d="M1.845,2.213V2.68H0V0H1.811V.452H.517V1.1H1.635v.437H.517v.693Z" transform="translate(17.342 37.97)" fill="#f99746"/>
        <path id="Vector-31" data-name="Vector" d="M0,2.68V0H1.149a.766.766,0,0,1,.341.077.873.873,0,0,1,.268.2,1.149,1.149,0,0,1,.176.283.9.9,0,0,1-.069.793.724.724,0,0,1-.348.3l.6,1H1.543L1,1.769H.49V2.68ZM.517,1.333h.632A.325.325,0,0,0,1.283,1.3.352.352,0,0,0,1.39,1.21a.383.383,0,0,0,.069-.138A.486.486,0,0,0,1.485.9.429.429,0,0,0,1.455.731a.41.41,0,0,0-.08-.138A.318.318,0,0,0,1.26.505.291.291,0,0,0,1.126.471H.5Z" transform="translate(19.609 37.97)" fill="#f99746"/>
        <path id="Vector-32" data-name="Vector" d="M1.018,0h.456L2.485,2.661H1.953l-.245-.666H.777l-.245.666H0Zm.593,1.635L1.229.59.846,1.635Z" transform="translate(22.606 37.97)" fill="#f99746"/>
        <path id="Vector-33" data-name="Vector" d="M2,2.378a1.007,1.007,0,0,1-.739.322A1.191,1.191,0,0,1,.77,2.593a1.248,1.248,0,0,1-.4-.287A1.421,1.421,0,0,1,.1,1.873a1.4,1.4,0,0,1-.1-.54A1.291,1.291,0,0,1,.1.82,1.367,1.367,0,0,1,.372.395,1.413,1.413,0,0,1,.781.108,1.21,1.21,0,0,1,1.294,0a1.252,1.252,0,0,1,.643.157,1,1,0,0,1,.4.425L1.957.866a.766.766,0,0,0-.283-.3A.792.792,0,0,0,1.29.456.685.685,0,0,0,.98.529a.662.662,0,0,0-.241.2.957.957,0,0,0-.153.283,1.114,1.114,0,0,0-.054.341A1.061,1.061,0,0,0,.59,1.7a.911.911,0,0,0,.168.283.743.743,0,0,0,.559.257.9.9,0,0,0,.7-.364V1.689H1.478V1.306h.965V2.692H2.014Z" transform="translate(25.129 37.958)" fill="#f99746"/>
        <path id="Vector-34" data-name="Vector" d="M0,2.68V0H1.179a.766.766,0,0,1,.337.077.873.873,0,0,1,.268.2A.95.95,0,0,1,1.96.563a.877.877,0,0,1,.065.322.908.908,0,0,1-.13.471.731.731,0,0,1-.352.3l.609,1h-.59l-.544-.892H.509V2.68ZM.517,1.333h.662a.3.3,0,0,0,.13-.031.352.352,0,0,0,.107-.092.471.471,0,0,0,.073-.138A.6.6,0,0,0,1.516.9.509.509,0,0,0,1.485.731a.41.41,0,0,0-.08-.138A.333.333,0,0,0,1.286.505a.276.276,0,0,0-.13-.034H.528Z" transform="translate(28.001 37.97)" fill="#f99746"/>
        <path id="Vector-35" data-name="Vector" d="M1.845,2.213V2.68H0V0H1.815V.452H.517V1.1H1.635v.437H.517v.693Z" transform="translate(30.493 37.97)" fill="#f99746"/>
        <path id="Vector-36" data-name="Vector" d="M1.845,2.213V2.68H0V0H1.815V.452H.517V1.1H1.635v.437H.517v.693Z" transform="translate(32.744 37.97)" fill="#f99746"/>
        <path id="Vector-37" data-name="Vector" d="M2.167,2.68V.919l-.685,1.31H1.2L.517.919V2.68H0V0H.555L1.34,1.513,2.136,0h.547V2.68Z" transform="translate(34.995 37.97)" fill="#f99746"/>
        <path id="Vector-38" data-name="Vector" d="M1.849,2.213V2.68H0V0H1.815V.452H.517V1.1H1.639v.437H.517v.693Z" transform="translate(38.234 37.97)" fill="#f99746"/>
        <path id="Vector-39" data-name="Vector" d="M.517.961V2.68H0V0H.4L1.788,1.746V0H2.3V2.68H1.884Z" transform="translate(40.486 37.97)" fill="#f99746"/>
        <path id="Vector-40" data-name="Vector" d="M2.2.459H1.363V2.68H.85V.459H0V0H2.213Z" transform="translate(43.131 37.97)" fill="#f99746"/>
        <path id="Vector-41" data-name="Vector" d="M0,0H72.1V.823H0Z" transform="translate(11.959 44.299)" fill="#f1f8e9"/>
        <path id="Vector-42" data-name="Vector" d="M0,0H72.1V.823H0Z" transform="translate(11.959 46.405)" fill="#f1f8e9"/>
        <path id="Vector-43" data-name="Vector" d="M0,0H72.1V.823H0Z" transform="translate(11.959 48.515)" fill="#f1f8e9"/>
        <path id="Vector-44" data-name="Vector" d="M0,0H72.1V.823H0Z" transform="translate(11.959 50.621)" fill="#f1f8e9"/>
        <path id="Vector-45" data-name="Vector" d="M0,0H72.1V.823H0Z" transform="translate(11.959 52.727)" fill="#f1f8e9"/>
        <path id="Vector-46" data-name="Vector" d="M0,0H72.1V.823H0Z" transform="translate(11.959 54.837)" fill="#f1f8e9"/>
        <path id="Vector-47" data-name="Vector" d="M0,0H72.1V.823H0Z" transform="translate(11.959 56.943)" fill="#f1f8e9"/>
        <path id="Vector-48" data-name="Vector" d="M0,0H72.1V.823H0Z" transform="translate(11.959 59.053)" fill="#f1f8e9"/>
        <path id="Vector-49" data-name="Vector" d="M0,0H72.1V.823H0Z" transform="translate(11.959 61.159)" fill="#f1f8e9"/>
        <path id="Vector-50" data-name="Vector" d="M0,0H72.1V.823H0Z" transform="translate(11.959 63.269)" fill="#f1f8e9"/>
        <path id="Vector-51" data-name="Vector" d="M0,0H44.557V.823H0Z" transform="translate(11.959 65.375)" fill="#f1f8e9"/>
        <path id="Vector-52" data-name="Vector" d="M0,0H72.1V.823H0Z" transform="translate(11.959 69.591)" fill="#f1f8e9"/>
        <path id="Vector-53" data-name="Vector" d="M0,0H72.1V.823H0Z" transform="translate(11.959 71.701)" fill="#f1f8e9"/>
        <path id="Vector-54" data-name="Vector" d="M0,0H72.1V.823H0Z" transform="translate(11.959 73.807)" fill="#f1f8e9"/>
        <path id="Vector-55" data-name="Vector" d="M0,0H72.1V.823H0Z" transform="translate(11.959 75.916)" fill="#f1f8e9"/>
        <path id="Vector-56" data-name="Vector" d="M0,0H72.1V.823H0Z" transform="translate(11.959 78.022)" fill="#f1f8e9"/>
        <path id="Vector-57" data-name="Vector" d="M0,0H72.1V.823H0Z" transform="translate(11.959 80.128)" fill="#f1f8e9"/>
        <path id="Vector-58" data-name="Vector" d="M0,0H72.1V.823H0Z" transform="translate(11.959 82.238)" fill="#f1f8e9"/>
        <path id="Vector-59" data-name="Vector" d="M0,0H72.1V.823H0Z" transform="translate(11.959 84.344)" fill="#f1f8e9"/>
        <path id="Vector-60" data-name="Vector" d="M0,0H44.557V.823H0Z" transform="translate(11.959 86.454)" fill="#f1f8e9"/>
        <path id="Vector-61" data-name="Vector" d="M0,0H72.1V.823H0Z" transform="translate(11.959 90.67)" fill="#f1f8e9"/>
        <path id="Vector-62" data-name="Vector" d="M0,0H72.1V.823H0Z" transform="translate(11.959 92.776)" fill="#f1f8e9"/>
        <path id="Vector-63" data-name="Vector" d="M0,0H72.1V.823H0Z" transform="translate(11.959 94.886)" fill="#f1f8e9"/>
        <path id="Vector-64" data-name="Vector" d="M0,0H72.1V.823H0Z" transform="translate(11.959 96.992)" fill="#f1f8e9"/>
        <path id="Vector-65" data-name="Vector" d="M0,0H72.1V.823H0Z" transform="translate(11.959 99.102)" fill="#f1f8e9"/>
        <path id="Vector-66" data-name="Vector" d="M0,0H72.1V.823H0Z" transform="translate(11.959 101.208)" fill="#f1f8e9"/>
        <path id="Vector-67" data-name="Vector" d="M0,0H72.1V.823H0Z" transform="translate(11.959 103.318)" fill="#f1f8e9"/>
        <path id="Vector-68" data-name="Vector" d="M0,0H44.557V.823H0Z" transform="translate(11.959 105.424)" fill="#f1f8e9"/>
        <path id="Vector-69" data-name="Vector" d="M0,0H67.628V9.5H0Z" transform="translate(15.037 115.31)" fill="#86bf4a"/>
        <path id="Vector-70" data-name="Vector" d="M70.943,11.99H0V0H70.943ZM.772,11.607h69.4V.383H.772Z" transform="translate(13.38 114.095)" fill="#86bf4a"/>
        <path id="Vector-71" data-name="Vector" d="M0,0H2.722V120.342H0Z" transform="translate(89.109 13.046)"/>
        <path id="Vector-72" data-name="Vector" d="M.7,85.968a.7.7,0,0,1-.7-.7V.7A.7.7,0,1,1,1.409.7V85.26a.708.708,0,0,1-.7.708Z" transform="translate(89.764 13.593)" fill="#5a5a5a"/>
      </g>
      <g id="Speech_Bubble" data-name="Speech Bubble" transform="translate(130.702 112.56)">
        <path id="Vector-73" data-name="Vector" d="M18.071,9.187A8.319,8.319,0,0,1,4.165,14.452L0,15.061l2.083-3.6A8.323,8.323,0,1,1,18.071,9.187Z" transform="translate(0.279 0.068)" fill="#fff"/>
        <path id="Vector-74" data-name="Vector" d="M18.35,9.255a8.367,8.367,0,0,1-1.681,4.212,8.975,8.975,0,0,1-.766.865,9.6,9.6,0,0,1-.877.766,8.422,8.422,0,0,1-4.25,1.65,7.774,7.774,0,0,1-1.149.023,7.3,7.3,0,0,1-1.149-.119A8.422,8.422,0,0,1,4.365,14.62l.1.031L.3,15.286l-.3.046.153-.264,2.071-3.607V11.6a8.425,8.425,0,0,1,.513-7.421,8.569,8.569,0,0,1,2.6-2.791A8.423,8.423,0,0,1,18.35,9.251Zm0,0A8.26,8.26,0,0,0,5.463,1.6,8.634,8.634,0,0,0,2.971,4.316,8.268,8.268,0,0,0,1.914,7.838,8.383,8.383,0,0,0,2.5,11.465l.031.073-.038.069-2.1,3.6L.249,14.98l4.177-.571h.057l.042.038a8.219,8.219,0,0,0,4,2.037,7.457,7.457,0,0,0,1.149.138,8.016,8.016,0,0,0,3.361-.494,7.7,7.7,0,0,0,2.006-1.08,7.577,7.577,0,0,0,1.639-1.593,8.4,8.4,0,0,0,1.669-4.2Z" transform="translate(0 0)" fill="#263238"/>
        <path id="Vector-75" data-name="Vector" d="M3.557,9.443,0,5.843,1.195,4.664l2.075,2.1L7.584,0,9,.9Z" transform="translate(5.544 3.692)" fill="#86bf4a"/>
      </g>
      <g id="Group_654" data-name="Group 654" transform="translate(54.952 39.849)">
        <path id="Vector-76" data-name="Vector" d="M1.575,0A1.578,1.578,0,0,0,0,1.525v0a.457.457,0,0,1,.063,0h.17a1.344,1.344,0,0,1,2.685,0h.233A1.579,1.579,0,0,0,1.575,0Z" transform="translate(0.709 0)" fill="#ed7d2b"/>
        <path id="Vector-77" data-name="Vector" d="M3.5,3.374H.328A.328.328,0,0,1,0,3.023l.042-.6.02-.282L.191.3A.328.328,0,0,1,.518,0H3.282a.328.328,0,0,1,.327.3L3.828,3.02a.328.328,0,0,1-.326.354Z" transform="translate(0 1.525)" fill="#ed7d2b"/>
        <path id="Vector-78" data-name="Vector" d="M3.5,3.374H.328A.328.328,0,0,1,0,3.023L.191.3A.328.328,0,0,1,.518,0H3.282a.328.328,0,0,1,.327.3L3.828,3.02a.328.328,0,0,1-.327.354Z" transform="translate(0.689 1.525)" fill="#f99746"/>
        <path id="Vector-79" data-name="Vector" d="M.939,1.392A.469.469,0,1,1,.315.948V.12A.12.12,0,0,1,.4.006.119.119,0,0,1,.435,0H.5a.12.12,0,0,1,.12.12V.948a.47.47,0,0,1,.315.443Z" transform="translate(2.168 2.107)" fill="#db6a1d"/>
        <path id="Vector-80" data-name="Vector" d="M.792,1.385a.47.47,0,0,1-.4.464A.47.47,0,0,1,.315.942V.114a.086.086,0,1,1,.163,0V.942a.47.47,0,0,1,.315.443Z" transform="translate(2.168 2.113)" fill="#ea863b"/>
      </g>
      <path id="Vector-81" data-name="Vector" d="M.05.847A.159.159,0,0,1,.172.805,2.752,2.752,0,0,0,2.134.022C2.175-.019,2.249,0,2.3.039A4.324,4.324,0,0,0,4.4.644a.158.158,0,0,1,.148.141A4.335,4.335,0,0,1,2.3,5.455a.159.159,0,0,1-.151-.009C-.064,4.073.031,2.288,0,.966A.157.157,0,0,1,.05.847Z" transform="translate(91.915 52.114)" fill="#a8d29f"/>
      <path id="Vector-82" data-name="Vector" d="M1.514.995h-.1A.086.086,0,0,1,1.352.966.1.1,0,0,1,1.326.9V.534A.246.246,0,0,0,1.262.367.211.211,0,0,0,1.107.3H.5A.211.211,0,0,0,.34.367.246.246,0,0,0,.276.534V.9A.1.1,0,0,1,.27.935.1.1,0,0,1,.25.966.089.089,0,0,1,.222.987.083.083,0,0,1,.188.995h-.1A.083.083,0,0,1,.055.987.089.089,0,0,1,.026.966.1.1,0,0,1,.007.935.1.1,0,0,1,0,.9V.534A.557.557,0,0,1,.145.157.477.477,0,0,1,.5,0h.612A.464.464,0,0,1,1.3.041a.494.494,0,0,1,.161.116A.539.539,0,0,1,1.565.33a.571.571,0,0,1,.038.2V.9A.1.1,0,0,1,1.6.935a.1.1,0,0,1-.019.031.089.089,0,0,1-.029.021.083.083,0,0,1-.034.007Z" transform="translate(93.407 53.22)" fill="#fff" opacity="0.61"/>
      <path id="Vector-83" data-name="Vector" d="M1.859,0H.186A.186.186,0,0,0,0,.186V1.472a.186.186,0,0,0,.186.186H1.859a.186.186,0,0,0,.186-.186V.186A.186.186,0,0,0,1.859,0Zm-.6,1.243a.069.069,0,0,1-.067.085H.85a.069.069,0,0,1-.067-.085L.863.907a.31.31,0,1,1,.318,0Z" transform="translate(93.186 54.269)" fill="#fff" opacity="0.61"/>
      <g id="Group_667" data-name="Group 667" transform="translate(5.833 42.887)">
        <g id="Group_666" data-name="Group 666" transform="translate(0 0)">
          <path id="Vector-84" data-name="Vector" d="M6.963,3.244C6.332,3.69,4.9,4.671,4.819,4.452a.966.966,0,0,1,.194-.7,6.2,6.2,0,0,1-3.829.136A1.559,1.559,0,0,1,.162,3.212.687.687,0,0,1,.4,2.14c1.061-.66.753-.265,2.228-1.226S5.911-.294,6.989.382L8.436.623l.181,2.383S7.8,3.091,6.963,3.244Z" transform="translate(70.617 44.024) rotate(180)" fill="#ffb27d"/>
          <path id="Vector-85" data-name="Vector" d="M8.794,2.771S5.38-1.28,1.034.414a13.208,13.208,0,0,0-.948,3.93v.595C.063,6.816,0,7.87,0,7.87c.2.081,6.644,2.73,6.639,2.51C6.527,5.3,8.794,2.771,8.794,2.771Z" transform="translate(34.513 23.575) rotate(180)" fill="#ffb27d"/>
          <path id="Vector-86" data-name="Vector" d="M1.127.314s7.25-1.705,8.242,2.829,2.6,7.367-1.991,8.646S1.51,11.538.811,10.1-.732.875,1.127.314Z" transform="translate(36.996 15.824) rotate(180)" fill="#ffb27d"/>
          <path id="Vector-87" data-name="Vector" d="M11.553.035c.1-.063,1.659-.542,4.613,5.344a5.134,5.134,0,0,1-.306,4.692c-1.086,1.767-4.913,3.155-8.1,3.76s-3.95-1.189-4.7-2.991A9.722,9.722,0,0,0,0,7.393c2.746-1.532,6.054.66,7.2.3S8.749,5.523,8.835,4.944s.217-1.06,1.659-.542.652-2.044.421-2.533C10.922,1.869,10.726.565,11.553.035Z" transform="translate(39.428 13.951) rotate(180)" fill="#a9453d"/>
          <path id="Vector-88" data-name="Vector" d="M.137,0H4.528c.919,0,1.942.919,2.2,2.6s2.144,2.6,2.558,3.984S7.6,9.915,7.6,9.915l-.351.45-.365.47-3.478-.818s-.086-.829-.139-1.883a23.979,23.979,0,0,1-.014-2.416c.1-1.839-.516-3.831-2.152-4.185S.137,0,.137,0Z" transform="translate(9.337 126.968) rotate(180)" fill="#2c3a64"/>
          <path id="Vector-89" data-name="Vector" d="M0,0H11.639a1,1,0,0,1,.247.072c.776.389.535,3.371.441,4.29-.018.17-.031.27-.031.27S8.2,7.906,7.641,5.4c-.018-.078-.038-.153-.06-.231C6.87,2.821,3.7,1.754,1.861,1.457A2,2,0,0,1,0,0Z" transform="translate(39.759 126.968) rotate(180)" fill="#2c3a64"/>
          <path id="Vector-90" data-name="Vector" d="M0,62.884S.622,55.128,1.352,45.8c.992-12.667,2.185-28.225,2.3-31.172C3.861,9.513,4.68,1.326,4.68,1.326S6.622-.618,10.511.2a133.978,133.978,0,0,1,4.454,24.056l.046.613c.919,12.587,2.352,39.1,2.352,39.1Z" transform="translate(37.414 122.717) rotate(180)" fill="#2b478b"/>
          <path id="Vector-91" data-name="Vector" d="M0,38.631s.622-7.756,1.352-17.08L14.964,0l.046.613c.919,12.587,2.352,39.1,2.352,39.1Z" transform="translate(37.414 98.464) rotate(180)" fill="#233862"/>
          <path id="Vector-92" data-name="Vector" d="M0,58.181S11.2,30.089,18.566,16.887,28.233,0,28.233,0s4.219,1.685,4.6,2.841c0,0-2.816,25.487-7.748,31.7-2.787,3.512-6.062,14.048-6.215,17.731s-1,10.975-1,10.975Z" transform="translate(34.576 118.935) rotate(180)" fill="#2b478b"/>
          <path id="Vector-93" data-name="Vector" d="M.089,6.811.206,5A3.894,3.894,0,0,1,2.351.149S3.778-.427,3.836.685s-.124.694-.009,2.26A3.619,3.619,0,0,1,2.3,6.493l-.85.981Z" transform="translate(9.115 62.461) rotate(180)" fill="#ffb27d"/>
          <path id="Vector-94" data-name="Vector" d="M20.9.316c-1.239-.4-1.438-.306-1.438-.306s-6.034,10.991-6.645,12S0,24.33,0,24.33l3.136,11.7S17.012,18.05,18.511,15.469c2.476-4.263,3.927-14.164,3.927-14.164A3.626,3.626,0,0,0,20.9.316Z" transform="translate(28.63 57.28) rotate(180)" fill="#1e3d70"/>
          <path id="Vector-95" data-name="Vector" d="M.02,27.529c.044-2.4.184-5.1.371-7.847.012-.162.025-.325.035-.487.121-1.7.251-3.4.4-5.056q.09-1,.19-1.972l.011-.086a6.718,6.718,0,0,1,.061-.745C1.7,5.116,2.342.2,2.467.127A.7.7,0,0,1,2.945,0C4.574.209,9.44-.16,13.422.706a30.211,30.211,0,0,1,9.322,3.867c.406.241,1.334.878,1.259,1.354-.075.524-.211,1.281-.386,2.232a120.909,120.909,0,0,0-2,15.661q-.106,1.862-.306,3.677a55.841,55.841,0,0,1-1.623,8.767c-1.366,4.92-3.369,8.686-5.89,10.16-.329.185-2.1-.942-3.725-1.992a7.184,7.184,0,0,0-4.619-1.1L4.1,41.844A15.125,15.125,0,0,1,.24,33.795c-.035-.267-.066-.549-.092-.85A53.027,53.027,0,0,1,.02,27.529Z" transform="translate(39.799 65.071) rotate(180)" fill="#2a4e96"/>
          <path id="Vector-96" data-name="Vector" d="M.02,8.334C.065,5.931.2,3.23.391.487.4.325.415.162.426,0,9.739,5.832,11.174,16.505,11.174,16.505A25.517,25.517,0,0,1,.147,13.747,53.027,53.027,0,0,1,.02,8.334Z" transform="translate(39.799 45.876) rotate(180)" fill="#1e3d70"/>
          <path id="Vector-97" data-name="Vector" d="M.009,2.455c-.1,1.379.613,1.612.613,1.612S14.664,6.614,15.858,6.989s11.4,11,11.4,11,3.919,4.414,7.124,3.444a6.023,6.023,0,0,0,4.242-5.09,6.1,6.1,0,0,0-2.83-6.258C31,7.144,21.41,1.352,19.151.687,14.122-.787.611.569.611.569A4.359,4.359,0,0,0,.009,2.455Z" transform="translate(63.319 44.593) rotate(180)" fill="#2a4e96"/>
        </g>
      </g>
    </g>
  </g>
</svg>
