<svg xmlns="http://www.w3.org/2000/svg" xmlns:xlink="http://www.w3.org/1999/xlink" width="268" height="169.532" viewBox="0 0 268 169.532">
  <defs>
    <linearGradient id="linear-gradient" x1="6497.91" y1="1474.49" x2="6542.979" y2="1474.49" gradientUnits="objectBoundingBox">
      <stop offset="0" stop-color="#090056"/>
      <stop offset="1" stop-color="#020039"/>
    </linearGradient>
    <linearGradient id="linear-gradient-2" x1="6471.337" y1="1165.31" x2="6531.427" y2="1165.31" gradientUnits="objectBoundingBox">
      <stop offset="0" stop-color="#febbba"/>
      <stop offset="1" stop-color="#ff928e"/>
    </linearGradient>
    <linearGradient id="linear-gradient-3" x1="6286.958" y1="1423.19" x2="6278.347" y2="1498.31" xlink:href="#linear-gradient-2"/>
    <linearGradient id="linear-gradient-4" x1="6607.854" y1="1475.69" x2="6672.725" y2="1475.69" xlink:href="#linear-gradient"/>
    <linearGradient id="linear-gradient-5" x1="6350.968" y1="1431.22" x2="6342.358" y2="1506.35" xlink:href="#linear-gradient-2"/>
    <linearGradient id="linear-gradient-6" x1="6764.092" y1="1087.7" x2="6488.783" y2="1514.9" xlink:href="#linear-gradient"/>
    <linearGradient id="linear-gradient-7" x1="6675.275" y1="852.67" x2="6615.345" y2="937.22" xlink:href="#linear-gradient-2"/>
    <linearGradient id="linear-gradient-8" x1="6626.351" y1="834.69" x2="6566.421" y2="919.24" xlink:href="#linear-gradient-2"/>
    <linearGradient id="linear-gradient-9" x1="6512.894" y1="937.17" x2="6480.034" y2="1079.19" xlink:href="#linear-gradient-2"/>
    <linearGradient id="linear-gradient-10" x1="4973.2" y1="572.922" x2="4995.392" y2="664.162" xlink:href="#linear-gradient-2"/>
    <linearGradient id="linear-gradient-11" x1="5186.329" y1="741.843" x2="5234.069" y2="698.996" xlink:href="#linear-gradient"/>
    <linearGradient id="linear-gradient-12" x1="4413.21" y1="354.494" x2="4412.009" y2="285.821" xlink:href="#linear-gradient-2"/>
  </defs>
  <g id="Group_704" data-name="Group 704" transform="translate(-7135 16565)">
    <path id="Vector" d="M12.62,0S-7.009,24.145,2.694,70.781c6.1,29.335,31.737,43.866,66.1,42.479,11.812-.477,31.03,13.736,58.644,31.194C186.5,181.8,271.945,165.939,251.5,81.936c-9.9-40.65,31.129-41.3,10.739-81.936Z" transform="translate(7403 -16395.984) rotate(180)" fill="#ebf3fa"/>
    <g id="Group_698" data-name="Group 698" transform="translate(7170.584 -16492.012)">
      <g id="Group_697" data-name="Group 697" transform="translate(12.449)">
        <path id="Vector-2" data-name="Vector" d="M50.827,25.051a.394.394,0,0,0-.228-.4l-4.359-2a20.879,20.879,0,0,0-1.959-6.477L46.8,12.092a.394.394,0,0,0-.03-.456L43.128,7.19a.393.393,0,0,0-.442-.12L38.194,8.732a20.9,20.9,0,0,0-5.966-3.193L31.121.874a.394.394,0,0,0-.344-.3L25.055,0a.394.394,0,0,0-.4.228L22.652,4.588a20.868,20.868,0,0,0-6.477,1.959L12.095,4.033a.394.394,0,0,0-.456.03L7.19,7.708a.391.391,0,0,0-.12.441l1.662,4.494a20.882,20.882,0,0,0-3.193,5.965L.874,19.714a.394.394,0,0,0-.3.344L0,25.78a.394.394,0,0,0,.228.4l4.355,2a20.89,20.89,0,0,0,1.959,6.477L4.03,38.738a.394.394,0,0,0,.03.456L7.7,43.642a.391.391,0,0,0,.441.12L12.639,42.1A20.882,20.882,0,0,0,18.6,45.294l1.107,4.665a.394.394,0,0,0,.344.3l5.722.571a.394.394,0,0,0,.4-.228l2-4.355a20.866,20.866,0,0,0,6.477-1.959L38.735,46.8a.394.394,0,0,0,.456-.03l4.448-3.644a.393.393,0,0,0,.12-.442L42.1,38.193a20.882,20.882,0,0,0,3.193-5.965l4.665-1.107a.394.394,0,0,0,.3-.344Z" transform="translate(0 0)" fill="#66a51c"/>
        <path id="Vector-3" data-name="Vector" d="M10.07,1.733a5.9,5.9,0,1,1-.661-.571,5.9,5.9,0,0,1,.661.571ZM2.851,8.957a4.382,4.382,0,0,0,.482.415,4.328,4.328,0,0,0,5.15-6.958h0A4.326,4.326,0,0,0,2.852,8.957Z" transform="translate(19.51 19.521)" fill="#fff"/>
        <path id="Vector-4" data-name="Vector" d="M24.987,4.259a14.816,14.816,0,0,1,2.65,3.591l.061.119a.779.779,0,0,1-.14.9.77.77,0,0,1-.2.143.779.779,0,0,1-1.047-.337,13.182,13.182,0,0,0-1.53-2.332h0c-.033-.039-.065-.082-.1-.118a12.978,12.978,0,0,0-5.2-3.761,13.173,13.173,0,0,0-3.424-.843h-.029l-.088-.009a13.014,13.014,0,0,0-9.6,2.9,13.367,13.367,0,0,0-1,.906A13.1,13.1,0,1,0,26.978,19.085a.769.769,0,0,1,.18-.286.778.778,0,0,1,1.283.816A14.654,14.654,0,1,1,4.25,4.331,15.009,15.009,0,0,1,5.366,3.318,14.662,14.662,0,0,1,24.987,4.259Z" transform="translate(10.643 10.767)" fill="#fff"/>
      </g>
      <g id="Group_665" data-name="Group 665" transform="translate(0 13.204)">
        <path id="Vector-5" data-name="Vector" d="M1.056,0l.905.735S4.438-.154,5,2.791c0,0,.149,1.255-.647,1.256a15.667,15.667,0,0,0-1.591-.1A2.039,2.039,0,0,1,.538,2.47L0,1.7Z" transform="translate(31.23 33.965)" fill="#ea8e50"/>
        <path id="Vector-6" data-name="Vector" d="M26.918,18.947a1.834,1.834,0,0,0,.664-1.312s-8.363-6.85-9.211-7.408A103.312,103.312,0,0,1,8.754,1.054C7.327-.6,5.557.043,3.534.624l-1.667.484A2.789,2.789,0,0,0,.983,5.869c4.651,3.854,12.386,8.188,13.834,9.1a79.793,79.793,0,0,0,10.626,4.948,4.461,4.461,0,0,0,1.475-.97Z" transform="translate(5.267 16.596)" fill="#90b887"/>
        <path id="Vector-7" data-name="Vector" d="M2.671,0A6.3,6.3,0,0,0,7.81.718s2.507-.572,3.057.68c0,0-3.845,1.954-4.818,2.489a11.683,11.683,0,0,0-2.04,1.53A1.008,1.008,0,0,1,2.549,5.3c-.169-.208-.363-.456-.575-.744C1.381,3.757,0,1.16,0,1.16Z" transform="translate(39.057 77.63)" fill="#233862"/>
        <path id="Vector-8" data-name="Vector" d="M31.29,36.276S30.054,39.128,27.2,38.6A79.623,79.623,0,0,1,17.388,28.8a22.152,22.152,0,0,1-3.049-4.768C11.69,17.9,4.548,8.748,0,4.111L11.367,0s3.642,7.329,8.487,16.331C23.345,22.813,27.462,30.168,31.29,36.276Z" transform="translate(11.63 40.581)" fill="#2b478b"/>
        <path id="Vector-9" data-name="Vector" d="M19.854,16.327,17.388,28.8a22.152,22.152,0,0,1-3.049-4.768C11.69,17.9,4.548,8.748,0,4.111L11.367,0S15.009,7.326,19.854,16.327Z" transform="translate(11.63 40.581)" fill="#233862"/>
        <path id="Vector-10" data-name="Vector" d="M4.089,1.253S3.968,3.527,6.722,3.831c0,0,1.571.008,1.58,1.451L.29,5.307A6.254,6.254,0,0,1,0,3.473,14.332,14.332,0,0,1,.932,0Z" transform="translate(18.102 78.033)" fill="#233862"/>
        <path id="Vector-11" data-name="Vector" d="M11.046.507s5.064,5.563,8.279,15.6c1.75,5.459-3.205,19.18-4.171,23.943a15.177,15.177,0,0,1-5.6-.6,110.351,110.351,0,0,1,1.157-17.437C11.457,17.769,4.046,12.932.8,5.258-1.4.036,1.286.126,4.574,0Z" transform="translate(8.222 40.071)" fill="#2b478b"/>
        <path id="Vector-12" data-name="Vector" d="M8.581,6.875C5.764,8.466,0,7,0,7A8.046,8.046,0,0,0,1.279,0L3.491,1.125,5.867,2.334a19.834,19.834,0,0,1,.261,2.131c.027.352.051.746.068,1.177A7.379,7.379,0,0,1,8.581,6.875Z" transform="translate(4.841 8.863)" fill="#ffb07b"/>
        <path id="Vector-13" data-name="Vector" d="M21.041,25.907c0,.5-.57.733-.691.757-1.137.208-4.31,1.443-7.168,1.726a22.785,22.785,0,0,1-7.1-.484c-.325-.065-1.088-.271-1.142-.583C4.875,26.983-4.529,8.147,2.781.055c.172-.19,1.614.152,2.933.466A5.419,5.419,0,0,0,9.049.248L10.287.9c1.519.846,4.395,3.858,4.731,6.219.17,1.2.857,2.091,1.056,3.144.074.392.149.773.226,1.145q.225,1.088.463,2.085c.429,1.786.884,3.323,1.33,4.652.475,1.41.94,2.583,1.355,3.565.539,1.272.995,2.224,1.279,2.952A3.706,3.706,0,0,1,21.041,25.907Z" transform="translate(2.713 14.383)" fill="#a8d29f"/>
        <path id="Vector-14" data-name="Vector" d="M17.869,18.269A36.956,36.956,0,0,1,0,0S10.784,3.98,13.444,5.016q.225,1.088.463,2.085c.429,1.786.884,3.323,1.33,4.652.475,1.41.94,2.583,1.355,3.565C17.131,16.59,17.585,17.541,17.869,18.269Z" transform="translate(5.569 20.779)" fill="#86aa7e"/>
        <path id="Vector-15" data-name="Vector" d="M4.574,3.342A5.929,5.929,0,0,1,0,1.209,21.836,21.836,0,0,0,1.934,0L4.31,1.209A19.834,19.834,0,0,1,4.574,3.342Z" transform="translate(6.39 9.987)" fill="#ea8e50"/>
        <path id="Vector-16" data-name="Vector" d="M8.356,7.072s-4.2,3.015-6.035.37S-1.294,3.4,1.31,1.368,5.14-.025,5.967.709,9.4,6.215,8.356,7.072Z" transform="translate(3.788 3.415)" fill="#ffb07b"/>
        <path id="Vector-17" data-name="Vector" d="M10.2,1.732A6.745,6.745,0,0,0,9.715,0S9.452,1.088,7.456.941s-5.155.2-6.209,2.471a4.647,4.647,0,0,0-.18.446A5.26,5.26,0,0,1,.826,2.6a3.89,3.89,0,0,0,0,2.2.661.661,0,0,1-.016.108A4.449,4.449,0,0,0,0,6.438a1.39,1.39,0,0,1,.746-.664c-.008,1.77.708,3.5,1.968,4.015,1.841.753,1.826.179,3.677,1.408,0,0,.5-.617.158-1.031s-1.618-1.016-.9-1.618.978.075,1.241-.34-1.053-1.619.641-2.749S10.35,2.749,10.2,1.732Z" fill="#233862"/>
        <path id="Vector-18" data-name="Vector" d="M.089,2.218a14.01,14.01,0,0,0,3.54.726,8.48,8.48,0,0,0,3.549-1.49,3.284,3.284,0,0,0-2.485-.5C3.22,1.144,2.919.923,3.377.74c.516-.207.884-.515.758-.712-.07-.108-.81.121-1.062.21S2.189.092,1.662.472A6.243,6.243,0,0,1,0,.912Z" transform="translate(31.395 35.249)" fill="#ffc299"/>
        <path id="Vector-19" data-name="Vector" d="M28.774,19.269c.4-1.117.578-1.624.578-1.624s-8.841-6.849-9.739-7.43C19,9.817,12.9,5.491,9.891,2.073A6.111,6.111,0,0,0,3.9.164L2.086.592A2.708,2.708,0,0,0,1,5.325c4.9,3.991,13.114,8.563,14.648,9.517,3.807,2.37,12.18,5.615,12.18,5.615A2.125,2.125,0,0,0,28.774,19.269Z" transform="translate(3.596 17.468)" fill="#a8d29f"/>
      </g>
    </g>
    <g id="Group_699" data-name="Group 699" transform="translate(7273.1 -16565)">
      <path id="Vector-20" data-name="Vector" d="M2.295,44.814a.5.5,0,0,0,.463.341l6.045.081A26.356,26.356,0,0,0,14.371,51.7l-.812,5.987a.5.5,0,0,0,.269.51L20.3,61.465a.5.5,0,0,0,.57-.088l4.33-4.214a26.339,26.339,0,0,0,8.509.629L37.375,62.6a.5.5,0,0,0,.55.171L44.813,60.5a.5.5,0,0,0,.341-.463l.082-6.045A26.325,26.325,0,0,0,51.7,48.427l5.987.812a.5.5,0,0,0,.511-.269l3.264-6.476a.5.5,0,0,0-.088-.57l-4.214-4.33a26.338,26.338,0,0,0,.629-8.509L62.6,25.423a.5.5,0,0,0,.171-.551L60.5,17.985a.5.5,0,0,0-.463-.341l-6.045-.081A26.328,26.328,0,0,0,48.425,11.1l.813-5.987a.5.5,0,0,0-.269-.51L42.493,1.334a.5.5,0,0,0-.57.088l-4.33,4.214a26.338,26.338,0,0,0-8.509-.629L25.422.2a.5.5,0,0,0-.551-.171L17.985,2.294a.5.5,0,0,0-.341.463L17.562,8.8A26.328,26.328,0,0,0,11.1,14.37l-5.987-.812a.5.5,0,0,0-.51.269L1.335,20.3a.5.5,0,0,0,.087.57L5.636,25.2a26.337,26.337,0,0,0-.629,8.509L.2,37.374a.5.5,0,0,0-.171.551Z" transform="translate(0 0)" fill="#66a51c"/>
      <path id="Vector-21" data-name="Vector" d="M4.68,14.1a7.291,7.291,0,1,1,1.025.309A7.291,7.291,0,0,1,4.68,14.1ZM9.3,2.078a5.794,5.794,0,0,0-.794-.24,5.575,5.575,0,1,0,.794.24Z" transform="translate(24.106 24.105)" fill="#fff"/>
      <path id="Vector-22" data-name="Vector" d="M11.545,34.671a18.244,18.244,0,0,1-1.682-.746h0q-.261-.132-.517-.271a17.962,17.962,0,0,1-2.4-1.569l-.03-.024-.087-.066c-.057-.044-.112-.09-.169-.132a.426.426,0,0,1-.132-.483.431.431,0,0,1,.066-.115.425.425,0,0,1,.6-.066,17.1,17.1,0,0,0,19.488,1.381,16.964,16.964,0,0,0,6.5-6.974A17.356,17.356,0,0,0,33.883,24,17.074,17.074,0,1,0,.9,19.156a.425.425,0,1,1-.848.062,17.876,17.876,0,0,1,1.138-7.7,18.142,18.142,0,0,1,.736-1.665A17.925,17.925,0,0,1,34.68,24.3a18.223,18.223,0,0,1-.746,1.687,17.927,17.927,0,0,1-22.389,8.683Z" transform="translate(13.614 13.418)" fill="#fff"/>
    </g>
    <g id="Group_687" data-name="Group 687" transform="translate(7232.974 -16508.643)">
      <g id="Group_686" data-name="Group 686" transform="translate(0 0)">
        <g id="Group_685" data-name="Group 685" transform="translate(0)">
          <path id="Vector-23" data-name="Vector" d="M37.452,0a1.545,1.545,0,0,0-1.4.97L.047,111.107a.726.726,0,0,0,.771.982,1.542,1.542,0,0,0,1.4-.97L38.223.984A.735.735,0,0,0,37.452,0Z" transform="translate(67.28 112.26) rotate(180)" fill="#7d8ebe"/>
          <path id="Vector-24" data-name="Vector" d="M37.453,0a1.535,1.535,0,0,0-1.4.97L.046,111.108a.727.727,0,0,0,.771.982,1.535,1.535,0,0,0,1.4-.97L38.224.985A.732.732,0,0,0,37.453,0Z" transform="translate(38.267 112.09) rotate(180)" fill="#7d8ebe"/>
          <path id="Vector-25" data-name="Vector" d="M30.5.17,1.366,0A1.464,1.464,0,0,0,.043.914a.682.682,0,0,0,.72.925l29.138.17a1.46,1.46,0,0,0,1.323-.916h0A.683.683,0,0,0,30.5.17Z" transform="translate(62.563 16.501) rotate(180)" fill="#7d8ebe"/>
          <path id="Vector-26" data-name="Vector" d="M30.5.17,1.367,0A1.457,1.457,0,0,0,.044.914h0a.681.681,0,0,0,.72.925l29.138.17a1.457,1.457,0,0,0,1.323-.916h0A.681.681,0,0,0,30.5.17Z" transform="translate(56.276 35.73) rotate(180)" fill="#7d8ebe"/>
          <path id="Vector-27" data-name="Vector" d="M30.5.17,1.366,0A1.464,1.464,0,0,0,.043.914a.682.682,0,0,0,.72.925l29.138.17a1.46,1.46,0,0,0,1.323-.916A.683.683,0,0,0,30.5.17Z" transform="translate(50.221 54.25) rotate(180)" fill="#7d8ebe"/>
          <path id="Vector-28" data-name="Vector" d="M30.5.168,1.366,0A1.458,1.458,0,0,0,.043.914h0a.682.682,0,0,0,.722.925l29.138.17a1.461,1.461,0,0,0,1.323-.916A.686.686,0,0,0,30.5.168Z" transform="translate(43.406 75.1) rotate(180)" fill="#7d8ebe"/>
          <path id="Vector-29" data-name="Vector" d="M30.5.17,1.367,0A1.457,1.457,0,0,0,.044.916h0a.681.681,0,0,0,.72.925L29.9,2.01A1.457,1.457,0,0,0,31.224,1.1h0A.685.685,0,0,0,30.5.17Z" transform="translate(36.271 96.923) rotate(180)" fill="#7d8ebe"/>
        </g>
      </g>
    </g>
    <g id="Group_683" data-name="Group 683" transform="translate(7240.108 -16524.031)">
      <path id="Vector-30" data-name="Vector" d="M5.95,4.443a.52.52,0,0,0-.015-.132C5.267,1.655,1.942,0,1.942,0L.622.1A9.136,9.136,0,0,0,.083,4.519.343.343,0,0,0,.1,4.572,31.318,31.318,0,0,0,5.95,4.443Z" transform="translate(11.063 83.695)" fill="url(#linear-gradient)"/>
      <path id="Vector-31" data-name="Vector" d="M0,.127A.57.57,0,0,0,.15.4.57.57,0,0,0,.418.549,18.094,18.094,0,0,0,5.453.478.48.48,0,0,0,5.849,0,31.318,31.318,0,0,1,0,.127Z" transform="translate(11.162 88.137)" fill="#91b3fa"/>
      <path id="Vector-32" data-name="Vector" d="M2.855,0A12.261,12.261,0,0,1,0,2.087,23.746,23.746,0,0,0,5.218,6.728L5.864,8.18,7.931,5.7A11.246,11.246,0,0,1,2.855,0Z" transform="translate(3.09 41.121)" fill="url(#linear-gradient-2)"/>
      <path id="Vector-33" data-name="Vector" d="M0,0,.558,2.686a.438.438,0,0,0,.375.362A3.705,3.705,0,0,0,1.8,3.033a.553.553,0,0,0,.438-.648L1.848,0Z" transform="translate(11.157 81.834)" fill="url(#linear-gradient-3)"/>
      <path id="Vector-34" data-name="Vector" d="M2.6.371A7.842,7.842,0,0,1,0,0V.445A.286.286,0,0,0,.273.737L8.264.685A.364.364,0,0,0,8.557.157C7.514.24,4.847.434,2.6.371Z" transform="translate(20.122 87.866)" fill="#91b3fa"/>
      <path id="Vector-35" data-name="Vector" d="M8.561,3.914a.38.38,0,0,0-.032-.061A10.2,10.2,0,0,0,2.475.053L.773,0A8.179,8.179,0,0,0,0,3.76a7.857,7.857,0,0,0,2.6.371C4.848,4.193,7.516,4,8.561,3.914Z" transform="translate(20.121 84.106)" fill="url(#linear-gradient-4)"/>
      <path id="Vector-36" data-name="Vector" d="M0,.42c.02.132.253,2.056.343,2.8a.371.371,0,0,0,.313.335,3.908,3.908,0,0,0,1.171-.018.5.5,0,0,0,.381-.506V0Z" transform="translate(20.579 81.103)" fill="url(#linear-gradient-5)"/>
      <path id="Vector-37" data-name="Vector" d="M10.825,0A151.7,151.7,0,0,1,14.86,35.266a.762.762,0,0,1-.6.742,8.844,8.844,0,0,1-1.9.219.7.7,0,0,1-.672-.589C11.1,32.259,7.8,13.226,5.912,10.136c0,0-1.239,16.952-.843,25.747a.416.416,0,0,1-.367.434,7,7,0,0,1-1.53,0,.558.558,0,0,1-.5-.474C2.265,32.984-.1,15.963,0,3.7.01,3.011,1.832.007,1.832.007Z" transform="translate(8.387 46.302)" fill="url(#linear-gradient-6)"/>
      <path id="Vector-38" data-name="Vector" d="M32.648,0c-1.8,3.358-4.8,6.783-9.669,7.7-4.5.847-12.572,1.894-15.818,2.3a3.976,3.976,0,0,0-2.508,1.349C2.1,14.307-3.5,22.389,3.094,30.533a12.261,12.261,0,0,0,2.855-2.087,10.053,10.053,0,0,1,.739-7.9,7.145,7.145,0,0,0,.2.756A46.836,46.836,0,0,1,9.1,34.8a.425.425,0,0,0,.264.4c2.772,1.11,8.106.449,9.9.182a.6.6,0,0,0,.5-.684c-.878-6.366,3.632-16.84,4.823-19.464a1.74,1.74,0,0,1,.866-.866c6.812-3.082,9.768-7.826,10.974-12.1A6.539,6.539,0,0,0,32.648,0Z" transform="translate(0 12.676)" fill="#f99746"/>
      <path id="Vector-39" data-name="Vector" d="M3.771,9.669A20.737,20.737,0,0,0,4.094,0H2.542A25.112,25.112,0,0,1,0,7.4,6.53,6.53,0,0,1,3.771,9.669Z" transform="translate(32.648 5.273)" fill="url(#linear-gradient-7)"/>
      <path id="Vector-40" data-name="Vector" d="M1.748,6.1S-.615,3.037.154,1.443,3.552,0,3.552,0l.37,1.249a1.564,1.564,0,0,1-.037,1L2.433,6.1Z" transform="translate(33.989 0)" fill="url(#linear-gradient-8)"/>
      <path id="Vector-41" data-name="Vector" d="M.528.154,0,5.611s3.07.924,5.3-.652L3.733,0Z" transform="translate(11.424 16.402)" fill="url(#linear-gradient-9)"/>
      <path id="Vector-42" data-name="Vector" d="M4.059.23C4.133.3,7.176,6.276,7.176,6.276L3.727,7.942,0,2.706S2.822-.935,4.059.23Z" transform="translate(11.454 10.107)" fill="url(#linear-gradient-10)"/>
      <path id="Vector-43" data-name="Vector" d="M3.528,5.325a.55.55,0,0,0,.041.484L5.284,8.678a.5.5,0,0,0,.094.117A.908.908,0,0,0,6.83,8.785,4.86,4.86,0,0,1,8.19,7.316a.549.549,0,0,1,.742.244,20.45,20.45,0,0,1,1.177,2.793.546.546,0,0,1-.318.672,15.474,15.474,0,0,1-3.3.965.552.552,0,0,1-.52-.222c-.528-.722-2.013-2.74-2.52-3.246-.471-.469-1.341-.292-1.733-.18a.553.553,0,0,1-.44-.058A1.215,1.215,0,0,1,.822,6.437a.548.548,0,0,0-.17-.747A1.219,1.219,0,0,1,.186,3.962a1.727,1.727,0,0,1,1.858-.909.572.572,0,0,0,.6-.334.367.367,0,0,1,.284-.224.528.528,0,0,0,.433-.627A1.405,1.405,0,0,1,4.152.253C5.641-.565,6.945.768,7.276,1.894S5.943,3.815,4.9,3.947C4.119,4.042,3.7,4.882,3.528,5.325Z" transform="translate(9.454 7.636)" fill="url(#linear-gradient-11)"/>
      <path id="Vector-44" data-name="Vector" d="M2.512,1.867S1.852-.069,1,0-.511.917.538,1.866C1.845,3.046,2.512,1.867,2.512,1.867Z" transform="translate(11.035 15.34)" fill="url(#linear-gradient-12)"/>
      <path id="Vector-45" data-name="Vector" d="M.782,6.784A17.267,17.267,0,0,1,.075,0L.382.036a17.1,17.1,0,0,0,.692,6.643Z" transform="translate(5.622 25.937)" fill="#d17b34"/>
    </g>
    <g id="Group_696" data-name="Group 696" transform="translate(7291.18 -16488.746)">
      <path id="Vector-46" data-name="Vector" d="M1.866,50.2a1.036,1.036,0,0,1-1.108-.833c-.225-1.149-.4-2.324-.529-3.493a1.036,1.036,0,0,1,.918-1.142h.02a1.036,1.036,0,0,1,1.125.92c.12,1.111.29,2.228.5,3.319A1.041,1.041,0,0,1,1.869,50.2Zm-.736-9a.952.952,0,0,1-.123,0A1.036,1.036,0,0,1,0,40.14c.034-1.175.118-2.36.251-3.522a1.036,1.036,0,1,1,2.058.234c-.126,1.1-.206,2.23-.238,3.347a1.036,1.036,0,0,1-.944,1Zm1.263-8.932a1.037,1.037,0,0,1-1.1-1.292c.294-1.135.64-2.273,1.031-3.379a1.036,1.036,0,1,1,1.954.689c-.371,1.051-.7,2.13-.979,3.208a1.037,1.037,0,0,1-.911.773Zm3.23-8.429a1.026,1.026,0,0,1-.568-.112,1.036,1.036,0,0,1-.443-1.4c.541-1.041,1.133-2.072,1.761-3.064a1.036,1.036,0,0,1,1.751,1.108c-.6.942-1.159,1.919-1.672,2.911a1.033,1.033,0,0,1-.828.554Zm5.029-7.5a1.036,1.036,0,0,1-.883-1.7c.756-.893,1.561-1.767,2.394-2.6a1.036,1.036,0,0,1,1.463,1.468c-.794.788-1.557,1.618-2.275,2.467a1.035,1.035,0,0,1-.7.363Zm6.561-6.2a1.036,1.036,0,0,1-.716-1.86c.937-.705,1.919-1.38,2.911-2a1.036,1.036,0,0,1,1.1,1.755c-.944.6-1.874,1.233-2.764,1.9a1.029,1.029,0,0,1-.533.2Zm37.6-5.832a1.03,1.03,0,0,1-.435-.055c-1.051-.369-2.131-.7-3.212-.973a1.036,1.036,0,0,1,.515-2.007c1.138.292,2.276.637,3.382,1.025a1.036,1.036,0,0,1-.251,2.01ZM24.98,5.559a1.036,1.036,0,0,1-.516-1.978c1.071-.48,2.175-.918,3.282-1.3a1.036,1.036,0,1,1,.681,1.957c-1.052.366-2.1.783-3.117,1.238a1.051,1.051,0,0,1-.331.087ZM46.009,2.3a1.047,1.047,0,0,1-.208,0c-1.107-.124-2.234-.2-3.349-.232A1.036,1.036,0,0,1,42.507,0c1.174.032,2.359.114,3.525.244a1.036,1.036,0,0,1-.022,2.062Zm-12.434.518A1.036,1.036,0,0,1,33.284.771C34.433.544,35.608.363,36.775.235H36.8A1.036,1.036,0,0,1,37,2.3c-1.109.122-2.224.294-3.316.51a1.084,1.084,0,0,1-.111.016Z" transform="translate(0 0)" fill="#91b3fa"/>
      <path id="Vector-47" data-name="Vector" d="M19.916,46.769q-.712.066-1.432.1a1.036,1.036,0,0,1-.114-2.07c1.107-.061,2.209-.167,3.288-.317a1.036,1.036,0,0,1,.285,2.051C21.275,46.631,20.593,46.708,19.916,46.769Zm-6.9.032a1.048,1.048,0,0,1-.177,0c-1.153-.093-2.316-.235-3.451-.423a1.036,1.036,0,1,1,.339-2.044c1.08.179,2.183.314,3.278.4a1.036,1.036,0,0,1,.011,2.064Zm14.263-1.386a1.036,1.036,0,0,1-.371-2.032c1.053-.3,2.108-.643,3.136-1.03a1.036,1.036,0,0,1,.728,1.94c-1.082.407-2.193.771-3.3,1.085A1.012,1.012,0,0,1,27.278,45.415Zm-22.987-.3a1.034,1.034,0,0,1-.4-.044c-1.1-.343-2.2-.738-3.274-1.172A1.036,1.036,0,0,1,1.4,41.983c1.016.413,2.061.788,3.11,1.114a1.037,1.037,0,0,1-.216,2.022ZM35.5,42.074a1.036,1.036,0,0,1-.586-1.943c.961-.521,1.914-1.092,2.833-1.694a1.036,1.036,0,0,1,1.135,1.731c-.967.635-1.97,1.235-2.983,1.786a1.038,1.038,0,0,1-.4.119Zm7.291-5.066a1.035,1.035,0,0,1-.773-1.812c.826-.722,1.633-1.487,2.4-2.273A1.036,1.036,0,1,1,45.9,34.365c-.8.828-1.654,1.632-2.522,2.391a1.027,1.027,0,0,1-.588.25Zm6.014-6.535a1.036,1.036,0,0,1-.926-1.646c.651-.885,1.272-1.807,1.845-2.741a1.036,1.036,0,1,1,1.765,1.084c-.6.982-1.257,1.953-1.941,2.883a1.031,1.031,0,0,1-.742.417Zm4.444-7.69a1.036,1.036,0,0,1-1.04-1.448c.441-1.005.845-2.041,1.2-3.077a1.036,1.036,0,1,1,1.96.67c-.373,1.092-.794,2.183-1.262,3.242a1.036,1.036,0,0,1-.858.613ZM55.9,14.3a1.023,1.023,0,0,1-.29-.015,1.036,1.036,0,0,1-.82-1.214C55,12,55.16,10.9,55.277,9.807a1.036,1.036,0,1,1,2.06.222c-.123,1.149-.3,2.3-.516,3.436a1.038,1.038,0,0,1-.923.834Zm.721-8.85-.066,0a1.036,1.036,0,0,1-1.065-1.006c-.022-.807-.071-1.624-.142-2.426-.026-.291-.056-.581-.087-.869A1.036,1.036,0,0,1,56.172.008a1.025,1.025,0,0,1,1.145.915q.05.456.091.914c.075.845.126,1.7.15,2.553a1.035,1.035,0,0,1-.938,1.06Z" transform="translate(25.168 35.811)" fill="#91b3fa"/>
      <path id="Vector-48" data-name="Vector" d="M11.341,55.291a.484.484,0,0,0,.554.1l5.328-2.514a25.685,25.685,0,0,0,7.645,3.277l1.853,5.591a.484.484,0,0,0,.454.331l7.068.085a.484.484,0,0,0,.463-.321l1.985-5.545A25.679,25.679,0,0,0,44.412,53.2l5.267,2.647a.485.485,0,0,0,.556-.087l5.058-4.939a.485.485,0,0,0,.1-.553L52.875,44.94A25.672,25.672,0,0,0,56.152,37.3l5.591-1.853a.484.484,0,0,0,.331-.453l.085-7.069a.485.485,0,0,0-.321-.463l-5.545-1.985A25.65,25.65,0,0,0,53.2,17.751l2.647-5.267a.486.486,0,0,0-.087-.556L50.821,6.871a.484.484,0,0,0-.553-.1l-5.33,2.51a25.657,25.657,0,0,0-7.645-3.276L35.44.415a.484.484,0,0,0-.453-.331L27.918,0a.484.484,0,0,0-.463.321L25.47,5.866a25.651,25.651,0,0,0-7.721,3.094L12.481,6.313a.485.485,0,0,0-.556.086L6.868,11.337a.485.485,0,0,0-.1.554l2.514,5.328a25.685,25.685,0,0,0-3.277,7.645L.415,26.717a.484.484,0,0,0-.331.454L0,34.24a.484.484,0,0,0,.321.463l5.545,1.985a25.678,25.678,0,0,0,3.093,7.721L6.312,49.676a.485.485,0,0,0,.086.556Z" transform="translate(10.283 9.967)" fill="#66a51c"/>
      <path id="Vector-49" data-name="Vector" d="M7.742,14.192a7.11,7.11,0,1,1,1.03-.169A7.11,7.11,0,0,1,7.742,14.192ZM6.642,1.687a5.547,5.547,0,0,0-.8.132,5.426,5.426,0,1,0,.8-.132Z" transform="translate(34.248 33.932)" fill="#fff"/>
      <path id="Vector-50" data-name="Vector" d="M19.058,34.88a17.742,17.742,0,0,1-1.794.066h0q-.285,0-.57-.016a17.59,17.59,0,0,1-2.779-.345l-.037-.008-.106-.022-.205-.046a.414.414,0,0,1-.321-.367.432.432,0,0,1,.009-.132.415.415,0,0,1,.5-.312,16.664,16.664,0,0,0,17.656-7.138,16.541,16.541,0,0,0,2.7-8.89,16.9,16.9,0,0,0-.066-1.712A16.645,16.645,0,1,0,3.084,25.847a.414.414,0,0,1-.716.418,17.472,17.472,0,1,1,16.687,8.61Z" transform="translate(23.989 23.454)" fill="#fff"/>
    </g>
  </g>
</svg>
