<svg xmlns="http://www.w3.org/2000/svg" xmlns:xlink="http://www.w3.org/1999/xlink" width="978.067" height="666.358" viewBox="0 0 978.067 666.358">
  <defs>
    <linearGradient id="linear-gradient" x1="0.123" y1="1" x2="1.238" y2="-1.85" gradientUnits="objectBoundingBox">
      <stop offset="0" stop-color="#090056"/>
      <stop offset="1" stop-color="#020039"/>
    </linearGradient>
    <linearGradient id="linear-gradient-2" x1="0" x2="0" y2="1" xlink:href="#linear-gradient"/>
  </defs>
  <g id="Group_707" data-name="Group 707" transform="translate(-6879 18784.002)">
    <path id="Vector" d="M398.925,50.779c78.081-15.615,162.4-74.221,230.163-40.472,66.643,33.192,17.653,117.876,42.1,176.077C695.6,244.5,780.744,287.187,770.855,347.8,760.7,410.06,695.1,464.063,621.512,490.859c-68.842,25.069-147.934,3.889-222.587-7.626-60.119-9.273-109.778-33.653-166.1-52.327-77.9-25.826-196.372-16.817-226.663-77.889C-23.693,292.83,62.176,235.222,109.4,182.058c34.791-39.171,79.277-70.222,132.35-94.286C290.151,65.823,344.57,61.649,398.925,50.779Z" transform="translate(6886.643 -18606.801) rotate(-13.276)" fill="#fff4e8"/>
    <g id="Group_657" data-name="Group 657" transform="translate(7443.385 -18435.807)">
      <path id="Vector-2" data-name="Vector" d="M137.314,3.172V11.4a3.168,3.168,0,0,1-2.03,2.955,2.677,2.677,0,0,1-.583.163,2.824,2.824,0,0,1-.557.051H3.163A3.175,3.175,0,0,1,0,11.561q0-.081,0-.163V3.009A3.178,3.178,0,0,1,3.163,0h130.98a3.172,3.172,0,0,1,2.627,1.4,3.169,3.169,0,0,1,.543,1.771Z" transform="translate(13.941 189.961)" fill="#afcdfb"/>
      <path id="Vector-3" data-name="Vector" d="M64.379,0H2.823A3,3,0,0,0,0,3.009v8.552a3,3,0,0,0,2.823,3.005H73A26.071,26.071,0,0,1,64.379,0Z" transform="translate(13.941 189.961)" fill="#98b9ea"/>
      <path id="Vector-4" data-name="Vector" d="M0,0H1.487V14.567H0Z" transform="translate(133.829 189.961)" fill="#98b9ea"/>
      <path id="Vector-5" data-name="Vector" d="M0,0H1.487V14.567H0Z" transform="translate(128.787 189.961)" fill="#98b9ea"/>
      <path id="Vector-6" data-name="Vector" d="M0,0H1.487V14.567H0Z" transform="translate(122.743 189.961)" fill="#98b9ea"/>
      <path id="Vector-7" data-name="Vector" d="M0,0H1.487V14.567H0Z" transform="translate(113.482 189.961)" fill="#98b9ea"/>
      <path id="Vector-8" data-name="Vector" d="M0,0H1.487V14.567H0Z" transform="translate(103.689 189.961)" fill="#98b9ea"/>
      <path id="Vector-9" data-name="Vector" d="M0,0H1.487V14.567H0Z" transform="translate(88.674 189.961)" fill="#98b9ea"/>
      <path id="Vector-10" data-name="Vector" d="M0,0H1.488V14.567H0Z" transform="translate(138.624 189.961)" fill="#98b9ea"/>
      <path id="Vector-11" data-name="Vector" d="M0,0H1.487V14.567H0Z" transform="translate(141.79 189.961)" fill="#98b9ea"/>
      <path id="Vector-12" data-name="Vector" d="M0,0H1.487V14.567H0Z" transform="translate(144.852 189.961)" fill="#98b9ea"/>
      <path id="Vector-13" data-name="Vector" d="M0,.018V14.585H.93a2.826,2.826,0,0,0,.557-.051V.051A3.13,3.13,0,0,0,.93,0Z" transform="translate(147.143 189.943)" fill="#98b9ea"/>
      <path id="Vector-14" data-name="Vector" d="M0,0V14.121a3.174,3.174,0,0,0,1.488-1.184V1.17A3.2,3.2,0,0,0,0,0Z" transform="translate(149.224 190.175)" fill="#98b9ea"/>
      <path id="Vector-15" data-name="Vector" d="M137.313,3.172V11.4a3.14,3.14,0,0,1-.543,1.771,3.2,3.2,0,0,1-1.487,1.188,3.119,3.119,0,0,1-.579.163,3.2,3.2,0,0,1-.561.051H3.167A3.182,3.182,0,0,1,0,11.561V3.009A3.182,3.182,0,0,1,3.167,0H134.143a3.2,3.2,0,0,1,.561.051,3.119,3.119,0,0,1,.579.163A3.2,3.2,0,0,1,136.771,1.4a3.14,3.14,0,0,1,.543,1.771Z" transform="translate(7.973 175.39)" fill="#afcdfb"/>
      <path id="Vector-16" data-name="Vector" d="M64.379,0H2.826A3,3,0,0,0,0,3.009v8.552A3,3,0,0,0,2.826,14.57H73A26.079,26.079,0,0,1,64.379,0Z" transform="translate(7.973 175.39)" fill="#98b9ea"/>
      <path id="Vector-17" data-name="Vector" d="M0,0H1.487V14.567H0Z" transform="translate(127.861 175.394)" fill="#98b9ea"/>
      <path id="Vector-18" data-name="Vector" d="M0,0H1.487V14.567H0Z" transform="translate(122.819 175.394)" fill="#98b9ea"/>
      <path id="Vector-19" data-name="Vector" d="M0,0H1.487V14.567H0Z" transform="translate(116.779 175.394)" fill="#98b9ea"/>
      <path id="Vector-20" data-name="Vector" d="M0,0H1.487V14.567H0Z" transform="translate(107.514 175.394)" fill="#98b9ea"/>
      <path id="Vector-21" data-name="Vector" d="M0,0H1.487V14.567H0Z" transform="translate(97.721 175.394)" fill="#98b9ea"/>
      <path id="Vector-22" data-name="Vector" d="M0,0H1.488V14.567H0Z" transform="translate(82.706 175.394)" fill="#98b9ea"/>
      <path id="Vector-23" data-name="Vector" d="M0,0H1.487V14.567H0Z" transform="translate(132.656 175.394)" fill="#98b9ea"/>
      <path id="Vector-24" data-name="Vector" d="M0,0H1.488V14.567H0Z" transform="translate(135.826 175.394)" fill="#98b9ea"/>
      <path id="Vector-25" data-name="Vector" d="M0,0H1.488V14.567H0Z" transform="translate(138.884 175.394)" fill="#98b9ea"/>
      <path id="Vector-26" data-name="Vector" d="M0,.014v14.57H.93a3.2,3.2,0,0,0,.561-.051V.051A3.2,3.2,0,0,0,.93,0Z" transform="translate(141.186 175.376)" fill="#98b9ea"/>
      <path id="Vector-27" data-name="Vector" d="M0,0V14.143a3.2,3.2,0,0,0,1.487-1.188V1.188A3.2,3.2,0,0,0,0,0Z" transform="translate(143.256 175.604)" fill="#98b9ea"/>
      <path id="Vector-28" data-name="Vector" d="M137.314,3.172V11.4a3.14,3.14,0,0,1-.543,1.771,3.2,3.2,0,0,1-1.487,1.184,2.645,2.645,0,0,1-.579.163,2.894,2.894,0,0,1-.561.051H3.167A3.178,3.178,0,0,1,0,11.561q0-.081,0-.163V3.009A3.182,3.182,0,0,1,3.167,0H134.158a3.2,3.2,0,0,1,.561.051,3.118,3.118,0,0,1,.579.163A3.2,3.2,0,0,1,136.785,1.4a3.14,3.14,0,0,1,.528,1.771Z" transform="translate(14.795 160.754)" fill="#afcdfb"/>
      <path id="Vector-29" data-name="Vector" d="M64.379,0H2.826A3,3,0,0,0,0,3.009v8.553a3,3,0,0,0,2.826,3.005H73A26.125,26.125,0,0,1,64.379,0Z" transform="translate(14.795 160.754)" fill="#98b9ea"/>
      <path id="Vector-30" data-name="Vector" d="M0,0H1.487V14.567H0Z" transform="translate(134.683 160.754)" fill="#98b9ea"/>
      <path id="Vector-31" data-name="Vector" d="M0,0H1.487V14.567H0Z" transform="translate(129.641 160.754)" fill="#98b9ea"/>
      <path id="Vector-32" data-name="Vector" d="M0,0H1.487V14.567H0Z" transform="translate(123.601 160.754)" fill="#98b9ea"/>
      <path id="Vector-33" data-name="Vector" d="M0,0H1.487V14.567H0Z" transform="translate(114.336 160.754)" fill="#98b9ea"/>
      <path id="Vector-34" data-name="Vector" d="M0,0H1.487V14.567H0Z" transform="translate(104.543 160.754)" fill="#98b9ea"/>
      <path id="Vector-35" data-name="Vector" d="M0,0H1.487V14.567H0Z" transform="translate(89.528 160.754)" fill="#98b9ea"/>
      <path id="Vector-36" data-name="Vector" d="M0,0H1.487V14.567H0Z" transform="translate(139.478 160.754)" fill="#98b9ea"/>
      <path id="Vector-37" data-name="Vector" d="M0,0H1.487V14.567H0Z" transform="translate(142.648 160.754)" fill="#98b9ea"/>
      <path id="Vector-38" data-name="Vector" d="M0,0H1.487V14.567H0Z" transform="translate(145.706 160.754)" fill="#98b9ea"/>
      <path id="Vector-39" data-name="Vector" d="M0,.018V14.585H.945a2.894,2.894,0,0,0,.561-.051V.051A3.2,3.2,0,0,0,.945,0Z" transform="translate(148.008 160.737)" fill="#98b9ea"/>
      <path id="Vector-40" data-name="Vector" d="M0,0V14.121a3.2,3.2,0,0,0,1.487-1.184V1.17A3.2,3.2,0,0,0,0,0Z" transform="translate(150.078 160.968)" fill="#98b9ea"/>
      <path id="Vector-41" data-name="Vector" d="M137.313,3.172V11.4a3.14,3.14,0,0,1-.543,1.771,3.2,3.2,0,0,1-1.487,1.188,3.119,3.119,0,0,1-.579.163,3.2,3.2,0,0,1-.561.051H3.167A3.182,3.182,0,0,1,0,11.561q0-.081,0-.163V3.009A3.182,3.182,0,0,1,3.167,0H134.143a2.893,2.893,0,0,1,.561.054,2.645,2.645,0,0,1,.579.163A3.174,3.174,0,0,1,136.771,1.4,3.14,3.14,0,0,1,137.313,3.172Z" transform="translate(7.973 146.185)" fill="#afcdfb"/>
      <path id="Vector-42" data-name="Vector" d="M64.379,0H2.826A3,3,0,0,0,0,3.009v8.552A3,3,0,0,0,2.826,14.57H73A26.079,26.079,0,0,1,64.379,0Z" transform="translate(7.973 146.185)" fill="#98b9ea"/>
      <path id="Vector-43" data-name="Vector" d="M0,0H1.487V14.567H0Z" transform="translate(127.861 146.188)" fill="#98b9ea"/>
      <path id="Vector-44" data-name="Vector" d="M0,0H1.487V14.567H0Z" transform="translate(122.819 146.188)" fill="#98b9ea"/>
      <path id="Vector-45" data-name="Vector" d="M0,0H1.487V14.567H0Z" transform="translate(116.779 146.188)" fill="#98b9ea"/>
      <path id="Vector-46" data-name="Vector" d="M0,0H1.487V14.567H0Z" transform="translate(107.514 146.188)" fill="#98b9ea"/>
      <path id="Vector-47" data-name="Vector" d="M0,0H1.487V14.567H0Z" transform="translate(97.721 146.188)" fill="#98b9ea"/>
      <path id="Vector-48" data-name="Vector" d="M0,0H1.488V14.567H0Z" transform="translate(82.706 146.188)" fill="#98b9ea"/>
      <path id="Vector-49" data-name="Vector" d="M0,0H1.487V14.567H0Z" transform="translate(132.656 146.188)" fill="#98b9ea"/>
      <path id="Vector-50" data-name="Vector" d="M0,0H1.488V14.567H0Z" transform="translate(135.826 146.188)" fill="#98b9ea"/>
      <path id="Vector-51" data-name="Vector" d="M0,0H1.488V14.567H0Z" transform="translate(138.884 146.188)" fill="#98b9ea"/>
      <path id="Vector-52" data-name="Vector" d="M0,.018v14.57H.93a3.2,3.2,0,0,0,.561-.051V.054A2.893,2.893,0,0,0,.93,0Z" transform="translate(141.186 146.167)" fill="#98b9ea"/>
      <path id="Vector-53" data-name="Vector" d="M0,0V14.121a3.2,3.2,0,0,0,1.487-1.188V1.166A3.174,3.174,0,0,0,0,0Z" transform="translate(143.256 146.406)" fill="#98b9ea"/>
      <path id="Vector-54" data-name="Vector" d="M137.314,3.168V11.4a3.119,3.119,0,0,1-.543,1.767,3.182,3.182,0,0,1-1.487,1.188,2.645,2.645,0,0,1-.579.163,3.2,3.2,0,0,1-.561.051H3.167A3.182,3.182,0,0,1,0,11.561V3.005A3.182,3.182,0,0,1,3.167,0H134.143a3.2,3.2,0,0,1,.561.051,3.119,3.119,0,0,1,.579.163A3.182,3.182,0,0,1,136.771,1.4a3.119,3.119,0,0,1,.543,1.767Z" transform="translate(7.973 131.549)" fill="#afcdfb"/>
      <path id="Vector-55" data-name="Vector" d="M64.379,0H2.826A3,3,0,0,0,0,3.005v8.556a3,3,0,0,0,2.826,3.005H73A26.152,26.152,0,0,1,64.379,0Z" transform="translate(7.973 131.56)" fill="#98b9ea"/>
      <path id="Vector-56" data-name="Vector" d="M0,0H1.487V14.567H0Z" transform="translate(127.861 131.549)" fill="#98b9ea"/>
      <path id="Vector-57" data-name="Vector" d="M0,0H1.487V14.567H0Z" transform="translate(122.819 131.549)" fill="#98b9ea"/>
      <path id="Vector-58" data-name="Vector" d="M0,0H1.487V14.567H0Z" transform="translate(116.779 131.549)" fill="#98b9ea"/>
      <path id="Vector-59" data-name="Vector" d="M0,0H1.487V14.567H0Z" transform="translate(107.514 131.549)" fill="#98b9ea"/>
      <path id="Vector-60" data-name="Vector" d="M0,0H1.487V14.567H0Z" transform="translate(97.721 131.549)" fill="#98b9ea"/>
      <path id="Vector-61" data-name="Vector" d="M0,0H1.488V14.567H0Z" transform="translate(82.706 131.549)" fill="#98b9ea"/>
      <path id="Vector-62" data-name="Vector" d="M0,0H1.487V14.567H0Z" transform="translate(132.656 131.549)" fill="#98b9ea"/>
      <path id="Vector-63" data-name="Vector" d="M0,0H1.488V14.567H0Z" transform="translate(135.826 131.549)" fill="#98b9ea"/>
      <path id="Vector-64" data-name="Vector" d="M0,0H1.488V14.567H0Z" transform="translate(138.884 131.549)" fill="#98b9ea"/>
      <path id="Vector-65" data-name="Vector" d="M0,.018V14.585H.93a3.2,3.2,0,0,0,.561-.051V.051A3.2,3.2,0,0,0,.93,0Z" transform="translate(141.186 131.542)" fill="#98b9ea"/>
      <path id="Vector-66" data-name="Vector" d="M0,0V14.121a3.182,3.182,0,0,0,1.487-1.188V1.17A3.181,3.181,0,0,0,0,0Z" transform="translate(143.256 131.763)" fill="#98b9ea"/>
      <path id="Vector-67" data-name="Vector" d="M137.314,3.172v8.219a3.14,3.14,0,0,1-.543,1.771,3.2,3.2,0,0,1-1.487,1.188,3.119,3.119,0,0,1-.579.163,3.2,3.2,0,0,1-.561.051H3.167A3.182,3.182,0,0,1,0,11.554V3.009A3.182,3.182,0,0,1,3.167,0H134.143a3.2,3.2,0,0,1,.561.051,3.119,3.119,0,0,1,.579.163A3.2,3.2,0,0,1,136.771,1.4a3.14,3.14,0,0,1,.543,1.771Z" transform="translate(0 116.91)" fill="#afcdfb"/>
      <path id="Vector-68" data-name="Vector" d="M64.379,0H2.826A3,3,0,0,0,0,3.009v8.545a3,3,0,0,0,2.826,3.009H73A26.019,26.019,0,0,1,64.379,0Z" transform="translate(0 116.91)" fill="#98b9ea"/>
      <path id="Vector-69" data-name="Vector" d="M0,0H1.488V14.567H0Z" transform="translate(119.888 116.91)" fill="#98b9ea"/>
      <path id="Vector-70" data-name="Vector" d="M0,0H1.487V14.567H0Z" transform="translate(114.847 116.91)" fill="#98b9ea"/>
      <path id="Vector-71" data-name="Vector" d="M0,0H1.487V14.567H0Z" transform="translate(108.806 116.91)" fill="#98b9ea"/>
      <path id="Vector-72" data-name="Vector" d="M0,0H1.487V14.567H0Z" transform="translate(99.542 116.91)" fill="#98b9ea"/>
      <path id="Vector-73" data-name="Vector" d="M0,0H1.487V14.567H0Z" transform="translate(89.749 116.91)" fill="#98b9ea"/>
      <path id="Vector-74" data-name="Vector" d="M0,0H1.488V14.567H0Z" transform="translate(74.733 116.91)" fill="#98b9ea"/>
      <path id="Vector-75" data-name="Vector" d="M0,0H1.487V14.567H0Z" transform="translate(124.683 116.91)" fill="#98b9ea"/>
      <path id="Vector-76" data-name="Vector" d="M0,0H1.487V14.567H0Z" transform="translate(127.853 116.91)" fill="#98b9ea"/>
      <path id="Vector-77" data-name="Vector" d="M0,0H1.487V14.567H0Z" transform="translate(130.911 116.91)" fill="#98b9ea"/>
      <path id="Vector-78" data-name="Vector" d="M0,.014v14.57H.93a3.2,3.2,0,0,0,.561-.051V.051A3.2,3.2,0,0,0,.93,0Z" transform="translate(133.213 116.896)" fill="#98b9ea"/>
      <path id="Vector-79" data-name="Vector" d="M0,0V14.143a3.2,3.2,0,0,0,1.488-1.188V1.188A3.2,3.2,0,0,0,0,0Z" transform="translate(135.283 117.124)" fill="#98b9ea"/>
      <path id="Vector-80" data-name="Vector" d="M137.314,3.168v8.227a3.14,3.14,0,0,1-.543,1.771,3.172,3.172,0,0,1-2.624,1.4H3.167A3.182,3.182,0,0,1,0,11.558q0-.081,0-.163V3.005A3.178,3.178,0,0,1,3.167,0h130.98a3.129,3.129,0,0,1,.557.047,2.868,2.868,0,0,1,.579.167,3.168,3.168,0,0,1,2.03,2.955Z" transform="translate(4.339 102.275)" fill="#afcdfb"/>
      <path id="Vector-81" data-name="Vector" d="M64.379,0H2.826A3.005,3.005,0,0,0,0,3.005v8.552a3.009,3.009,0,0,0,2.826,3.009H73A26.024,26.024,0,0,1,64.379,0Z" transform="translate(4.339 102.275)" fill="#98b9ea"/>
      <path id="Vector-82" data-name="Vector" d="M0,0H1.488V14.567H0Z" transform="translate(124.227 102.275)" fill="#98b9ea"/>
      <path id="Vector-83" data-name="Vector" d="M0,0H1.487V14.567H0Z" transform="translate(119.19 102.275)" fill="#98b9ea"/>
      <path id="Vector-84" data-name="Vector" d="M0,0H1.487V14.567H0Z" transform="translate(113.146 102.275)" fill="#98b9ea"/>
      <path id="Vector-85" data-name="Vector" d="M0,0H1.488V14.567H0Z" transform="translate(103.884 102.275)" fill="#98b9ea"/>
      <path id="Vector-86" data-name="Vector" d="M0,0H1.487V14.567H0Z" transform="translate(94.088 102.275)" fill="#98b9ea"/>
      <path id="Vector-87" data-name="Vector" d="M0,0H1.487V14.567H0Z" transform="translate(79.073 102.275)" fill="#98b9ea"/>
      <path id="Vector-88" data-name="Vector" d="M0,0H1.488V14.567H0Z" transform="translate(129.026 102.275)" fill="#98b9ea"/>
      <path id="Vector-89" data-name="Vector" d="M0,0H1.487V14.567H0Z" transform="translate(132.193 102.275)" fill="#98b9ea"/>
      <path id="Vector-90" data-name="Vector" d="M0,0H1.488V14.567H0Z" transform="translate(135.254 102.275)" fill="#98b9ea"/>
      <path id="Vector-91" data-name="Vector" d="M0,.015V14.581H.93a3.129,3.129,0,0,0,.557-.051V.047A3.129,3.129,0,0,0,.93,0Z" transform="translate(137.556 102.26)" fill="#98b9ea"/>
      <path id="Vector-92" data-name="Vector" d="M0,0V14.121a3.185,3.185,0,0,0,1.488-1.188V1.191A3.156,3.156,0,0,0,0,0Z" transform="translate(139.623 102.488)" fill="#98b9ea"/>
      <path id="Vector-93" data-name="Vector" d="M137.314,3.172V11.4a3.168,3.168,0,0,1-2.03,2.955,2.677,2.677,0,0,1-.583.163,2.824,2.824,0,0,1-.557.054H3.163A3.178,3.178,0,0,1,0,11.561q0-.081,0-.163V3.009A3.178,3.178,0,0,1,3.163,0h130.98a3.172,3.172,0,0,1,2.627,1.4,3.169,3.169,0,0,1,.543,1.771Z" transform="translate(13.941 87.704)" fill="#afcdfb"/>
      <path id="Vector-94" data-name="Vector" d="M64.379,0H2.823A3,3,0,0,0,0,3.009v8.552A3,3,0,0,0,2.823,14.57H73A26.079,26.079,0,0,1,64.379,0Z" transform="translate(13.941 87.704)" fill="#98b9ea"/>
      <path id="Vector-95" data-name="Vector" d="M0,0H1.487V14.567H0Z" transform="translate(133.829 87.704)" fill="#98b9ea"/>
      <path id="Vector-96" data-name="Vector" d="M0,0H1.487V14.567H0Z" transform="translate(128.787 87.704)" fill="#98b9ea"/>
      <path id="Vector-97" data-name="Vector" d="M0,0H1.487V14.567H0Z" transform="translate(122.743 87.704)" fill="#98b9ea"/>
      <path id="Vector-98" data-name="Vector" d="M0,0H1.487V14.567H0Z" transform="translate(113.482 87.704)" fill="#98b9ea"/>
      <path id="Vector-99" data-name="Vector" d="M0,0H1.487V14.567H0Z" transform="translate(103.689 87.704)" fill="#98b9ea"/>
      <path id="Vector-100" data-name="Vector" d="M0,0H1.487V14.567H0Z" transform="translate(88.674 87.704)" fill="#98b9ea"/>
      <path id="Vector-101" data-name="Vector" d="M0,0H1.488V14.567H0Z" transform="translate(138.624 87.704)" fill="#98b9ea"/>
      <path id="Vector-102" data-name="Vector" d="M0,0H1.487V14.567H0Z" transform="translate(141.79 87.704)" fill="#98b9ea"/>
      <path id="Vector-103" data-name="Vector" d="M0,0H1.487V14.567H0Z" transform="translate(144.852 87.704)" fill="#98b9ea"/>
      <path id="Vector-104" data-name="Vector" d="M0,.018v14.57H.93a2.826,2.826,0,0,0,.557-.054V.051A3.13,3.13,0,0,0,.93,0Z" transform="translate(147.143 87.687)" fill="#98b9ea"/>
      <path id="Vector-105" data-name="Vector" d="M0,0V14.121a3.174,3.174,0,0,0,1.488-1.184V1.17A3.2,3.2,0,0,0,0,0Z" transform="translate(149.224 87.918)" fill="#98b9ea"/>
      <path id="Vector-106" data-name="Vector" d="M137.313,3.172V11.4a3.14,3.14,0,0,1-.543,1.771,3.2,3.2,0,0,1-1.487,1.188,3.119,3.119,0,0,1-.579.163,3.2,3.2,0,0,1-.561.051H3.167A3.182,3.182,0,0,1,0,11.561V3.009A3.182,3.182,0,0,1,3.167,0H134.143a2.893,2.893,0,0,1,.561.054,2.645,2.645,0,0,1,.579.163A3.174,3.174,0,0,1,136.771,1.4,3.14,3.14,0,0,1,137.313,3.172Z" transform="translate(7.973 73.134)" fill="#afcdfb"/>
      <path id="Vector-107" data-name="Vector" d="M64.379,0H2.826A3,3,0,0,0,0,3.009v8.552A3,3,0,0,0,2.826,14.57H73A26.079,26.079,0,0,1,64.379,0Z" transform="translate(7.973 73.134)" fill="#98b9ea"/>
      <path id="Vector-108" data-name="Vector" d="M0,0H1.487V14.567H0Z" transform="translate(127.861 73.138)" fill="#98b9ea"/>
      <path id="Vector-109" data-name="Vector" d="M0,0H1.487V14.567H0Z" transform="translate(122.819 73.138)" fill="#98b9ea"/>
      <path id="Vector-110" data-name="Vector" d="M0,0H1.487V14.567H0Z" transform="translate(116.779 73.138)" fill="#98b9ea"/>
      <path id="Vector-111" data-name="Vector" d="M0,0H1.487V14.567H0Z" transform="translate(107.514 73.138)" fill="#98b9ea"/>
      <path id="Vector-112" data-name="Vector" d="M0,0H1.487V14.567H0Z" transform="translate(97.721 73.138)" fill="#98b9ea"/>
      <path id="Vector-113" data-name="Vector" d="M0,0H1.488V14.567H0Z" transform="translate(82.706 73.138)" fill="#98b9ea"/>
      <path id="Vector-114" data-name="Vector" d="M0,0H1.487V14.567H0Z" transform="translate(132.656 73.138)" fill="#98b9ea"/>
      <path id="Vector-115" data-name="Vector" d="M0,0H1.488V14.567H0Z" transform="translate(135.826 73.138)" fill="#98b9ea"/>
      <path id="Vector-116" data-name="Vector" d="M0,0H1.488V14.567H0Z" transform="translate(138.884 73.138)" fill="#98b9ea"/>
      <path id="Vector-117" data-name="Vector" d="M0,.018v14.57H.93a3.2,3.2,0,0,0,.561-.051V.054A2.893,2.893,0,0,0,.93,0Z" transform="translate(141.186 73.116)" fill="#98b9ea"/>
      <path id="Vector-118" data-name="Vector" d="M0,0V14.121a3.2,3.2,0,0,0,1.487-1.188V1.166A3.174,3.174,0,0,0,0,0Z" transform="translate(143.256 73.352)" fill="#98b9ea"/>
      <path id="Vector-119" data-name="Vector" d="M137.314,3.172V11.4a3.14,3.14,0,0,1-.543,1.771,3.2,3.2,0,0,1-1.487,1.184,2.645,2.645,0,0,1-.579.163,2.894,2.894,0,0,1-.561.051H3.167A3.178,3.178,0,0,1,0,11.561q0-.081,0-.163V3.009A3.182,3.182,0,0,1,3.167,0H134.158a3.2,3.2,0,0,1,.561.051,3.118,3.118,0,0,1,.579.163A3.2,3.2,0,0,1,136.785,1.4a3.14,3.14,0,0,1,.528,1.771Z" transform="translate(14.795 58.506)" fill="#afcdfb"/>
      <path id="Vector-120" data-name="Vector" d="M64.379,0H2.826A3,3,0,0,0,0,3.009v8.552a3,3,0,0,0,2.826,3.005H73A26.113,26.113,0,0,1,64.379,0Z" transform="translate(14.795 58.498)" fill="#98b9ea"/>
      <path id="Vector-121" data-name="Vector" d="M0,0H1.487V14.567H0Z" transform="translate(134.683 58.498)" fill="#98b9ea"/>
      <path id="Vector-122" data-name="Vector" d="M0,0H1.487V14.567H0Z" transform="translate(129.641 58.498)" fill="#98b9ea"/>
      <path id="Vector-123" data-name="Vector" d="M0,0H1.487V14.567H0Z" transform="translate(123.601 58.498)" fill="#98b9ea"/>
      <path id="Vector-124" data-name="Vector" d="M0,0H1.487V14.567H0Z" transform="translate(114.336 58.498)" fill="#98b9ea"/>
      <path id="Vector-125" data-name="Vector" d="M0,0H1.487V14.567H0Z" transform="translate(104.543 58.498)" fill="#98b9ea"/>
      <path id="Vector-126" data-name="Vector" d="M0,0H1.487V14.567H0Z" transform="translate(89.528 58.498)" fill="#98b9ea"/>
      <path id="Vector-127" data-name="Vector" d="M0,0H1.487V14.567H0Z" transform="translate(139.478 58.498)" fill="#98b9ea"/>
      <path id="Vector-128" data-name="Vector" d="M0,0H1.487V14.567H0Z" transform="translate(142.648 58.498)" fill="#98b9ea"/>
      <path id="Vector-129" data-name="Vector" d="M0,0H1.487V14.567H0Z" transform="translate(145.706 58.498)" fill="#98b9ea"/>
      <path id="Vector-130" data-name="Vector" d="M0,.018V14.585H.945a2.894,2.894,0,0,0,.561-.051V.051A3.2,3.2,0,0,0,.945,0Z" transform="translate(148.008 58.48)" fill="#98b9ea"/>
      <path id="Vector-131" data-name="Vector" d="M0,0V14.121a3.2,3.2,0,0,0,1.487-1.184V1.17A3.2,3.2,0,0,0,0,0Z" transform="translate(150.078 58.712)" fill="#98b9ea"/>
      <path id="Vector-132" data-name="Vector" d="M137.313,3.168v8.227a3.14,3.14,0,0,1-.543,1.771,3.2,3.2,0,0,1-1.487,1.188,3.119,3.119,0,0,1-.579.163,3.2,3.2,0,0,1-.561.051H3.167A3.182,3.182,0,0,1,0,11.558q0-.081,0-.163V3.005A3.178,3.178,0,0,1,3.167,0H134.143a2.893,2.893,0,0,1,.561.051,2.645,2.645,0,0,1,.579.163A3.174,3.174,0,0,1,136.771,1.4,3.14,3.14,0,0,1,137.313,3.168Z" transform="translate(7.973 43.932)" fill="#afcdfb"/>
      <path id="Vector-133" data-name="Vector" d="M64.379,0H2.826A3,3,0,0,0,0,3.005v8.552a3,3,0,0,0,2.826,3.009H73A26.106,26.106,0,0,1,64.379,0Z" transform="translate(7.973 43.936)" fill="#98b9ea"/>
      <path id="Vector-134" data-name="Vector" d="M0,0H1.487V14.567H0Z" transform="translate(127.861 43.932)" fill="#98b9ea"/>
      <path id="Vector-135" data-name="Vector" d="M0,0H1.487V14.567H0Z" transform="translate(122.819 43.932)" fill="#98b9ea"/>
      <path id="Vector-136" data-name="Vector" d="M0,0H1.487V14.567H0Z" transform="translate(116.779 43.932)" fill="#98b9ea"/>
      <path id="Vector-137" data-name="Vector" d="M0,0H1.487V14.567H0Z" transform="translate(107.514 43.932)" fill="#98b9ea"/>
      <path id="Vector-138" data-name="Vector" d="M0,0H1.487V14.567H0Z" transform="translate(97.721 43.932)" fill="#98b9ea"/>
      <path id="Vector-139" data-name="Vector" d="M0,0H1.488V14.567H0Z" transform="translate(82.706 43.932)" fill="#98b9ea"/>
      <path id="Vector-140" data-name="Vector" d="M0,0H1.487V14.567H0Z" transform="translate(132.656 43.932)" fill="#98b9ea"/>
      <path id="Vector-141" data-name="Vector" d="M0,0H1.488V14.567H0Z" transform="translate(135.826 43.932)" fill="#98b9ea"/>
      <path id="Vector-142" data-name="Vector" d="M0,0H1.488V14.567H0Z" transform="translate(138.884 43.932)" fill="#98b9ea"/>
      <path id="Vector-143" data-name="Vector" d="M0,0V14.567H.93a3.2,3.2,0,0,0,.561-.051V.051A2.893,2.893,0,0,0,.93,0Z" transform="translate(141.186 43.936)" fill="#98b9ea"/>
      <path id="Vector-144" data-name="Vector" d="M0,0V14.139a3.2,3.2,0,0,0,1.487-1.188V1.184A3.174,3.174,0,0,0,0,0Z" transform="translate(143.256 44.146)" fill="#98b9ea"/>
      <path id="Vector-145" data-name="Vector" d="M137.314,3.186V11.4a3.14,3.14,0,0,1-.543,1.771,3.2,3.2,0,0,1-1.487,1.184,2.645,2.645,0,0,1-.579.163,2.893,2.893,0,0,1-.561.051H3.167A3.178,3.178,0,0,1,0,11.561q0-.081,0-.163V3.009A3.182,3.182,0,0,1,3.167,0H134.143a3.2,3.2,0,0,1,.561.051,3.119,3.119,0,0,1,.579.163A3.2,3.2,0,0,1,136.771,1.4a3.133,3.133,0,0,1,.543,1.785Z" transform="translate(7.973 29.278)" fill="#afcdfb"/>
      <path id="Vector-146" data-name="Vector" d="M64.379,0H2.826A3,3,0,0,0,0,3.009v8.538a3,3,0,0,0,2.826,3.005H73A26.005,26.005,0,0,1,64.379,0Z" transform="translate(7.973 29.293)" fill="#98b9ea"/>
      <path id="Vector-147" data-name="Vector" d="M0,0H1.487V14.567H0Z" transform="translate(127.861 29.293)" fill="#98b9ea"/>
      <path id="Vector-148" data-name="Vector" d="M0,0H1.487V14.567H0Z" transform="translate(122.819 29.293)" fill="#98b9ea"/>
      <path id="Vector-149" data-name="Vector" d="M0,0H1.487V14.567H0Z" transform="translate(116.779 29.293)" fill="#98b9ea"/>
      <path id="Vector-150" data-name="Vector" d="M0,0H1.487V14.567H0Z" transform="translate(107.514 29.293)" fill="#98b9ea"/>
      <path id="Vector-151" data-name="Vector" d="M0,0H1.487V14.567H0Z" transform="translate(97.721 29.293)" fill="#98b9ea"/>
      <path id="Vector-152" data-name="Vector" d="M0,0H1.488V14.567H0Z" transform="translate(82.706 29.293)" fill="#98b9ea"/>
      <path id="Vector-153" data-name="Vector" d="M0,0H1.487V14.567H0Z" transform="translate(132.656 29.293)" fill="#98b9ea"/>
      <path id="Vector-154" data-name="Vector" d="M0,0H1.488V14.567H0Z" transform="translate(135.826 29.293)" fill="#98b9ea"/>
      <path id="Vector-155" data-name="Vector" d="M0,0H1.488V14.567H0Z" transform="translate(138.884 29.293)" fill="#98b9ea"/>
      <path id="Vector-156" data-name="Vector" d="M0,.018V14.585H.93a2.893,2.893,0,0,0,.561-.051V.051A3.2,3.2,0,0,0,.93,0Z" transform="translate(141.186 29.275)" fill="#98b9ea"/>
      <path id="Vector-157" data-name="Vector" d="M0,0V14.121a3.2,3.2,0,0,0,1.487-1.184V1.17A3.2,3.2,0,0,0,0,0Z" transform="translate(143.256 29.507)" fill="#98b9ea"/>
      <path id="Vector-158" data-name="Vector" d="M137.314,3.172V11.4a3.14,3.14,0,0,1-.543,1.771,3.2,3.2,0,0,1-1.487,1.188,3.119,3.119,0,0,1-.579.163,3.2,3.2,0,0,1-.561.051H3.167A3.182,3.182,0,0,1,0,11.561V3.009A3.182,3.182,0,0,1,3.167,0H134.143a3.2,3.2,0,0,1,.561.051,3.119,3.119,0,0,1,.579.163A3.2,3.2,0,0,1,136.771,1.4a3.14,3.14,0,0,1,.543,1.771Z" transform="translate(0 14.653)" fill="#afcdfb"/>
      <path id="Vector-159" data-name="Vector" d="M64.379,0H2.826A3,3,0,0,0,0,3.009v8.552A3,3,0,0,0,2.826,14.57H73A26.035,26.035,0,0,1,64.379,0Z" transform="translate(0 14.653)" fill="#98b9ea"/>
      <path id="Vector-160" data-name="Vector" d="M0,0H1.488V14.567H0Z" transform="translate(119.888 14.653)" fill="#98b9ea"/>
      <path id="Vector-161" data-name="Vector" d="M0,0H1.487V14.567H0Z" transform="translate(114.847 14.653)" fill="#98b9ea"/>
      <path id="Vector-162" data-name="Vector" d="M0,0H1.487V14.567H0Z" transform="translate(108.806 14.653)" fill="#98b9ea"/>
      <path id="Vector-163" data-name="Vector" d="M0,0H1.487V14.567H0Z" transform="translate(99.542 14.653)" fill="#98b9ea"/>
      <path id="Vector-164" data-name="Vector" d="M0,0H1.487V14.567H0Z" transform="translate(89.749 14.653)" fill="#98b9ea"/>
      <path id="Vector-165" data-name="Vector" d="M0,0H1.488V14.567H0Z" transform="translate(74.733 14.653)" fill="#98b9ea"/>
      <path id="Vector-166" data-name="Vector" d="M0,0H1.487V14.567H0Z" transform="translate(124.683 14.653)" fill="#98b9ea"/>
      <path id="Vector-167" data-name="Vector" d="M0,0H1.487V14.567H0Z" transform="translate(127.853 14.653)" fill="#98b9ea"/>
      <path id="Vector-168" data-name="Vector" d="M0,0H1.487V14.567H0Z" transform="translate(130.911 14.653)" fill="#98b9ea"/>
      <path id="Vector-169" data-name="Vector" d="M0,.014v14.57H.93a3.2,3.2,0,0,0,.561-.051V.051A3.2,3.2,0,0,0,.93,0Z" transform="translate(133.213 14.64)" fill="#98b9ea"/>
      <path id="Vector-170" data-name="Vector" d="M0,0V14.143a3.2,3.2,0,0,0,1.488-1.188V1.188A3.2,3.2,0,0,0,0,0Z" transform="translate(135.283 14.867)" fill="#98b9ea"/>
      <path id="Vector-171" data-name="Vector" d="M137.314,3.168v8.227a3.14,3.14,0,0,1-.543,1.771,3.172,3.172,0,0,1-2.624,1.4H3.167A3.182,3.182,0,0,1,0,11.558q0-.081,0-.163V3.005A3.178,3.178,0,0,1,3.167,0h130.98a2.825,2.825,0,0,1,.557.051,2.644,2.644,0,0,1,.579.163A3.178,3.178,0,0,1,136.771,1.4,3.14,3.14,0,0,1,137.314,3.168Z" transform="translate(4.339 0.018)" fill="#afcdfb"/>
      <path id="Vector-172" data-name="Vector" d="M64.379,0H2.826A3.005,3.005,0,0,0,0,3.005v8.552a3.009,3.009,0,0,0,2.826,3.009H73A26.07,26.07,0,0,1,64.379,0Z" transform="translate(4.339 0.018)" fill="#98b9ea"/>
      <path id="Vector-173" data-name="Vector" d="M0,0H1.488V14.567H0Z" transform="translate(124.227 0.018)" fill="#98b9ea"/>
      <path id="Vector-174" data-name="Vector" d="M0,0H1.487V14.567H0Z" transform="translate(119.19 0.018)" fill="#98b9ea"/>
      <path id="Vector-175" data-name="Vector" d="M0,0H1.487V14.567H0Z" transform="translate(113.146 0.018)" fill="#98b9ea"/>
      <path id="Vector-176" data-name="Vector" d="M0,0H1.488V14.567H0Z" transform="translate(103.884 0.018)" fill="#98b9ea"/>
      <path id="Vector-177" data-name="Vector" d="M0,0H1.487V14.567H0Z" transform="translate(94.088 0.018)" fill="#98b9ea"/>
      <path id="Vector-178" data-name="Vector" d="M0,0H1.487V14.567H0Z" transform="translate(79.073 0.018)" fill="#98b9ea"/>
      <path id="Vector-179" data-name="Vector" d="M0,0H1.488V14.567H0Z" transform="translate(129.026 0.018)" fill="#98b9ea"/>
      <path id="Vector-180" data-name="Vector" d="M0,0H1.487V14.567H0Z" transform="translate(132.193 0.018)" fill="#98b9ea"/>
      <path id="Vector-181" data-name="Vector" d="M0,0H1.488V14.567H0Z" transform="translate(135.254 0.018)" fill="#98b9ea"/>
      <path id="Vector-182" data-name="Vector" d="M0,.018V14.585H.93a3.129,3.129,0,0,0,.557-.051V.051A2.825,2.825,0,0,0,.93,0Z" transform="translate(137.556 0)" fill="#98b9ea"/>
      <path id="Vector-183" data-name="Vector" d="M0,0V14.121a3.185,3.185,0,0,0,1.488-1.188V1.166A3.156,3.156,0,0,0,0,0Z" transform="translate(139.623 0.232)" fill="#98b9ea"/>
    </g>
    <g id="Group_655" data-name="Group 655" transform="translate(6941.102 -18540.668)">
      <path id="Vector-184" data-name="Vector" d="M21.213,34.333c.029.731.646,8.632,13.776,9.047,0,0-6.454-.7-7.573-3.306,0,0,4.4,3.215,7.976,2.179s5.685-6.785,5.705-8.67-1.966-7.988-4.241-8.5a7.583,7.583,0,0,0-2.752,0A28.032,28.032,0,0,0,35.869,22.2c5.241-9.857-.165-19.489-4.6-18.426C28.424,4.452,27.622,0,27.622,0L0,20.521S10.136,39.769,21.213,34.333Z" transform="translate(86.431 43.38) rotate(180)" fill="#2c3a64"/>
      <path id="Vector-185" data-name="Vector" d="M7.668,7.961,7.03,4.241A35.987,35.987,0,0,1,5.327,0H0C4.34,4.867,7.668,7.961,7.668,7.961Z" transform="translate(204.945 168.808) rotate(180)" fill="#afcdfb"/>
      <path id="Vector-186" data-name="Vector" d="M0,2,5.874,0s25.5,32.418,28.634,60.916a40.142,40.142,0,0,1-.823,14.577s.251,1.3.687,3.611c.2,1.078.448,2.371.732,3.856.823,4.354,1.97,10.31,3.291,17.087,3,15.606,6.886,35.554,9.905,50.218l-1.58.467L29.6,155.792l-3.538,10.295-12.752,3.072s-2.847-5.1-5.389-29.21c-.473-3.163-.9-6.649-1.234-10.43A189.159,189.159,0,0,1,7.9,87.3c.588-4.192,1.325-8.515,2.238-12.96a52.909,52.909,0,0,0,.489-12.816C9.338,38.223,0,2,0,2Z" transform="translate(74.844 301.379) rotate(180)" fill="#2b478b"/>
      <path id="Vector-187" data-name="Vector" d="M0,50.414,27.671,0c.2,1.078.448,2.371.732,3.856.823,4.354,1.97,10.31,3.291,17.087,3,15.606,6.886,35.554,9.905,50.218l-1.58.467L22.9,76.688,19.366,86.982,6.614,90.055s-2.847-5.1-5.389-29.21C.745,57.682.321,54.195,0,50.414Z" transform="translate(68.16 222.275) rotate(180)" fill="#233862"/>
      <path id="Vector-188" data-name="Vector" d="M0,166.916l.642,5.036c10.732-2.616,39.407,7.3,39.407,7.3s10.395-8.376,9.05-28.453c-.666-9.8-1.884-51.435-3.155-63.758-.461-4.463-.864-7.641-1.028-8.911a1.667,1.667,0,0,1,.313-1.093,55.777,55.777,0,0,0,4.694-9.047C62.4,37.522,48,0,48,0L44.265,1.38s-8.194,41.759-14.854,60.2a35.036,35.036,0,0,1-3.2,7.057c-2.879,4.282-5.582,11.278-8.021,19.6-4.607,15.73-8.317,36.188-10.786,51.986C7.042,140.2,0,166.916,0,166.916Z" transform="translate(55.992 305.605) rotate(180)" fill="#2b478b"/>
      <path id="Vector-189" data-name="Vector" d="M0,4.923.823,0S1.176,0,1.8.038c1.958.124,6.709.377,12.085.9,8.083.731,17.688,2.036,21.5,4.192C41.2,8.383,50.756,18.358,56.976,28.332a6.992,6.992,0,0,1,.444.754c3.241,5.277,5.508,10.555,5.685,14.735a19.344,19.344,0,0,1-.757,6.676,16.507,16.507,0,0,1-3.291,6.031,3.121,3.121,0,0,1-.621.69,15.089,15.089,0,0,1-4.22,3.3c-1.065.407-2.221-.083-3.422-1.263v-.041a18.8,18.8,0,0,1-3.065-4.146c-.045-.041-.086-.083-.086-.124-.222-.377-.444-.773-.712-1.221a.893.893,0,0,1-.177-.283q-.732-1.41-1.469-2.933C39.823,39.6,34,23.066,29.161,18.143c-2.09-2.118-11.641-6.273-19.235-9.364C4.443,6.551,0,4.923,0,4.923Z" transform="translate(133.033 126.883) rotate(180)" fill="#ffb27d"/>
      <path id="Vector-190" data-name="Vector" d="M0,2.68A36.007,36.007,0,0,1,12.34.041C30.794-.886,34.965,13.936,35.746,23.79a16.773,16.773,0,0,1-6.335.731c-1.308-.064-2.674-.188-3.8-.317-2.258,1.082-6.314,6.329-8.659,15.108l-.794-.335L2.847,33.24s1.415-3.969,2.468-7.769c.823-2.974,1.4-5.847.909-6.649-1.049-.377-1.674-.637-1.674-.637A77.979,77.979,0,0,1,0,2.68Z" transform="translate(76.49 80.31) rotate(180)" fill="#ffb27d"/>
      <path id="Vector-191" data-name="Vector" d="M1.571,51.031c.14-.335.292-.667.461-1C6.7,40.8,15.356,2.6,15.356,2.6c-1.234-6.868,56.33,1.346,56.478,7.6,2.028,6.631-7.195,17.283-12.394,22.617A15.4,15.4,0,0,0,57.7,34.973a14.213,14.213,0,0,0-2.357,6.306c-1.02,8.866-.633,17.174-.72,22.24-1.016.69-2,1.327-2.912,1.93a25.393,25.393,0,0,0-3.546,2.7,4.707,4.707,0,0,0-1.7,3.068,15.027,15.027,0,0,0,.07,2.575c.045.407.1.818.169,1.225A32.8,32.8,0,0,0,49.37,83.2c-4.936,1.84-13.755.754-13.755.754v-1.18c.029-2.948,0-10.513-1.028-11.946-1.292-1.783-24.874-9.6-26.121-7.162S10.6,77.2,10.724,77.61C2.826,74.768,0,72.386,0,72.386,4.759,69.547-2.131,59.98,1.571,51.031Z" transform="translate(82.655 139.755) rotate(180)" fill="#f99746"/>
      <path id="Vector-192" data-name="Vector" d="M0,7.769S1.415,3.8,2.468,0c7.783,1.99,10.144,9.488,10.855,13.506Z" transform="translate(73.626 54.889) rotate(180)" fill="#ed985f"/>
      <path id="Vector-193" data-name="Vector" d="M11.843.024S30.46,3.974,27.6,14.559s-2.386,18.23-14.4,16.156S-.016,24.081,0,20.334,6.927-.73,11.843.024Z" transform="translate(87.107 51.324) rotate(180)" fill="#ffb27d"/>
      <path id="Vector-194" data-name="Vector" d="M.829,13.337c2,3.837,4.356,3.634,5.829,2.952a14.282,14.282,0,0,0,17.33,1.361,21.694,21.694,0,0,1,10.461-10.3S31.59,4.663,23.3,4.708a14.309,14.309,0,0,0-7.4,2.552A44.486,44.486,0,0,1,25.6.626c-10.378,1.817-17.338,12.816-18.05,14-.88-1.187-2.563-3.721-2.7-5.858C4.655,5.858,5.745.215,3.931,0,3.943.015-2.173,7.581.829,13.337Z" transform="translate(88.976 38.318) rotate(180)" fill="#2c3a64"/>
      <path id="Vector-195" data-name="Vector" d="M5.154,12.9S.671,5.741,0,3.894c0,0,5.812.2,8.161-3.894C8.161-.011,8.725,11.938,5.154,12.9Z" transform="translate(87.809 80.28) rotate(180)" fill="#f99746"/>
      <path id="Vector-196" data-name="Vector" d="M5.111,0C16.464.11,26.09,10.932,31.956,19.549A14.213,14.213,0,0,0,29.6,25.856c-1.02,8.866-.633,17.174-.72,22.24-1.016.69-2,1.327-2.912,1.93a25.4,25.4,0,0,0-3.546,2.7C13.12,38.31-10.281-.147,5.111,0Z" transform="translate(56.936 124.319) rotate(180)" fill="#ed7d2b"/>
      <path id="Vector-197" data-name="Vector" d="M0,0H29.568s.708,4.147-.823,7.264c-1.481,3.016-3.8,4.373-3.245,8.01a11.1,11.1,0,0,0-9.214-3.23c-.522-.78-3.381-4.942-5.129-6.1C9.21,4.678.6,5.13,0,0Z" transform="translate(29.731 308.409) rotate(180)" fill="#233862"/>
      <path id="Vector-198" data-name="Vector" d="M0,0H29.568s1.107,4.324-.823,7.264c-1.719,2.6-1.061,4.082.214,6.235a12.473,12.473,0,0,0-4.981-.859,11.127,11.127,0,0,0-4.4,1.417c-1.271-1.327-6.722-6.989-8.425-8.108C9.214,4.678.613,5.13,0,0Z" transform="translate(93.214 308.41) rotate(180)" fill="#233862"/>
      <path id="Vector-199" data-name="Vector" d="M12.826,8.863s-5.479.98-6.73,0S-1.094,2.357.177.54,7.544,2.048,8.815,2.357,13.628,3.94,13.628,3.94Z" transform="translate(146.76 130.714) rotate(180)" fill="#ffb27d"/>
      <path id="Vector-200" data-name="Vector" d="M109.786,72.207a10.685,10.685,0,0,1-1.551,2.262h0a11.29,11.29,0,0,1-1.506,1.4l-2.279,2.115-.6-.407C92.2,82.807,68.138,77.266,43.794,62.7,14.374,45.1-4.515,20.862.936,7.985L.113,7.424,3.4,4.434c.156-.151.317-.3.485-.441L3.98,3.91h.029A13.546,13.546,0,0,1,6.839,2.1h0c11.518-5.522,35.824-.026,60.431,14.7C97.224,34.708,116.265,59.523,109.786,72.207Z" transform="translate(203.877 187.4) rotate(180)" fill="#ffa412"/>
      <path id="Vector-201" data-name="Vector" d="M43.81,62.726c29.971,17.928,59.522,22.184,66,9.5S97.248,34.73,67.281,16.817,7.76-5.394,1.268,7.295,13.839,44.794,43.81,62.726Z" transform="translate(207.402 184.215) rotate(180)" fill="#ffb93e"/>
      <path id="Vector-202" data-name="Vector" d="M15.347,0A25.919,25.919,0,0,0,8.765.756c-3.735.984-6.331,2.88-7.7,5.632-2.7,5.4-.2,13.42,7.046,22.576C15.187,37.913,26,46.986,38.547,54.514,57.814,66.075,77.411,71.662,88.468,68.74c3.739-.988,6.331-2.884,7.709-5.654,2.7-5.4.2-13.416-7.046-22.572-7.083-8.949-17.894-18.022-30.44-25.55C42.8,5.472,26.708.006,15.347,0ZM81.94,67.5c-10.868,0-26.828-5.436-42.192-14.656-12.34-7.4-22.933-16.292-29.86-25.049C3.225,19.378.736,11.884,3.056,7.244,4.154,5.05,6.281,3.523,9.374,2.72a23.417,23.417,0,0,1,5.919-.679c10.868,0,26.828,5.436,42.192,14.656,12.34,7.4,22.933,16.292,29.86,25.045C94.009,50.164,96.5,57.654,94.173,62.3c-1.1,2.194-3.221,3.721-6.318,4.523A23.385,23.385,0,0,1,81.94,67.5Z" transform="translate(200.457 178.823) rotate(180)" fill="#ffa412"/>
      <path id="Vector-203" data-name="Vector" d="M19.51,7.9a16.515,16.515,0,0,1,2.468,1.225,11.6,11.6,0,0,1,2,1.553,14.809,14.809,0,0,1,1.736,2.047A27.088,27.088,0,0,1,27.359,15.4q1.448,2.639,2.97,4.9a30.057,30.057,0,0,0,3.406,4.229,26.769,26.769,0,0,0,4.3,3.581,30.373,30.373,0,0,0,5.656,2.933,21.991,21.991,0,0,0,5.055,1.451,9.49,9.49,0,0,0,3.846-.121A4.673,4.673,0,0,0,55.1,30.783a5.084,5.084,0,0,0,1-2.993l7.071,2.85L62.8,27.15l-7.17-2.887a14.365,14.365,0,0,0-1.979-4.052A22.036,22.036,0,0,0,50.2,16.339a31.75,31.75,0,0,0-4.784-3.5,41.621,41.621,0,0,0-6.026-2.978l.666,6.3a20.5,20.5,0,0,1,6.047,3.464,6.063,6.063,0,0,1,2.271,3.683,2.182,2.182,0,0,1-.267,1.508,1.579,1.579,0,0,1-.472.443,1.733,1.733,0,0,1-.626.232,4.591,4.591,0,0,1-1.765-.06,13.055,13.055,0,0,1-2.254-.7,15.257,15.257,0,0,1-2.238-1.108,10.783,10.783,0,0,1-1.913-1.508,14.6,14.6,0,0,1-1.736-2.054q-.823-1.18-1.769-2.808-1.51-2.639-3.048-4.9a30.981,30.981,0,0,0-3.439-4.233,27.633,27.633,0,0,0-4.315-3.585A30.264,30.264,0,0,0,18.91,1.611,22.026,22.026,0,0,0,13.76.133,9.265,9.265,0,0,0,9.946.277,4.387,4.387,0,0,0,7.523,1.924a5.543,5.543,0,0,0-.942,3.016L0,2.3.366,5.769,6.911,8.407a16.588,16.588,0,0,0,1.645,4.018,20.152,20.152,0,0,0,3.176,4.147,29.418,29.418,0,0,0,4.936,3.988,38.811,38.811,0,0,0,6.89,3.525l-.666-6.3a23.856,23.856,0,0,1-3.957-1.979,14.4,14.4,0,0,1-2.624-2.092,7.634,7.634,0,0,1-1.485-2.069,6.192,6.192,0,0,1-.568-1.907A2.656,2.656,0,0,1,14.5,8.113a1.659,1.659,0,0,1,.434-.506,1.829,1.829,0,0,1,.614-.312,3.827,3.827,0,0,1,1.719-.06A10.085,10.085,0,0,1,19.51,7.9Z" transform="translate(183.443 158.887) rotate(180)" fill="#ffa412"/>
      <path id="Vector-204" data-name="Vector" d="M0,4.572,1.366,0S3.32.324,6.429.852c.934.162,1.464.286,1.464.286,2.489.449,5.467,1.059,8.708,1.708h.045C22.2,4.067,28.42,5.534,33.661,7.162a47.894,47.894,0,0,1,9.05,3.705,5.306,5.306,0,0,1,.621.407c5.2,3.46,11.374,13.638,16.17,24.547.666,1.508,1.292,3.016,1.913,4.478a104.392,104.392,0,0,1,5.064,15.455,40.477,40.477,0,0,1,1.2,7.369A16.963,16.963,0,0,1,67.72,65.2c-.086,11.8-6.483,13.431-6.483,13.431-.136.041-.267.083-.444.124-1.111.162-2.267-.532-3.468-1.885a36.262,36.262,0,0,1-4.751-7.694c-2.534-5.251-5.2-12.063-7.688-18.81-1.374-3.7-2.711-7.407-4.039-10.826-.757-2.077-1.514-4.03-2.221-5.824A52.377,52.377,0,0,0,34.891,25.8c-.708-1.131-2.752-2.729-5.463-4.523-4.71-3.136-11.6-6.921-17.593-10.016C9.366,9.959,7.507,8.4,5.549,7.426,2.41,5.85,0,4.572,0,4.572Z" transform="translate(94.547 135.186) rotate(180)" fill="#ffb27d"/>
      <path id="Vector-205" data-name="Vector" d="M0,3.958C8.556,6.122,15.15,0,15.15,0c-.107,11.787-6.507,13.4-6.507,13.4C6.067,14.377,3.081,10.291,0,3.958Z" transform="translate(41.948 69.96) rotate(180)" fill="#f99746"/>
      <path id="Vector-206" data-name="Vector" d="M14.492,11.414S9.811,4.629,7.663,3.332,2.394-.521,1.3.094,5.442,7.071,5.372,8.319s-.218,2.232-.218,2.232S1.863,8.768,0,9.763c0,0,1.431.656,2.579,1.312s2.1,2.888,4.665,3.084a20.134,20.134,0,0,1,5.882,1.828Z" transform="translate(107.674 146.602) rotate(180)" fill="#ffb27d"/>
    </g>
    <g id="Group_640" data-name="Group 640" transform="translate(7533.763 -18513.238)">
      <g id="man_2" data-name="man 2" transform="translate(0 0)">
        <path id="Vector-207" data-name="Vector" d="M33.172,5.325s.915,15.119-1.84,15.337c-.366.029-13.969.029-13.969.029L0,20.581a5.952,5.952,0,0,1,5.188-5.458c5.076-.963,13.992-4.434,15.5-12.2S33.172,5.325,33.172,5.325Z" transform="translate(33.063 262.783)" fill="#634a3c"/>
        <path id="Vector-208" data-name="Vector" d="M33.172,5.325s.915,15.119-1.84,15.337c-.366.029-13.969.029-13.969.029L0,20.581a5.952,5.952,0,0,1,5.188-5.458c5.076-.963,13.992-4.434,15.5-12.2S33.172,5.325,33.172,5.325Z" transform="translate(0 262.783)" fill="#634a3c"/>
        <path id="Vector-209" data-name="Vector" d="M0,100.416l15.215,5.246S24.9,85.952,27.258,83.274c2.691-3.053,4.623-26.555,5.84-47.81C34.161,16.875,34.681,0,34.681,0S29.5,1.178,26.118,9.924c-5.779,14.99-5.753,44.262-8.99,59.355C15.283,77.97,3.134,99.18,0,100.416Z" transform="translate(105.714 58.112)" fill="#a8d29f"/>
        <path id="Vector-210" data-name="Vector" d="M0,53.65s1.422,1.265,4.793,1.265c3.821,0,4.793-1.265,4.793-1.265V0H0Z" transform="translate(164.866 223.126)" fill="#345315"/>
        <path id="Vector-211" data-name="Vector" d="M.465,77.206a.328.328,0,0,0,.016.122,50.365,50.365,0,0,0,1.374,6.646A39.51,39.51,0,0,0,5.73,93.4c5.195,8.759,15.042,18.506,38.656,21.688,1.143.151,2.324.3,3.532.417q3.3.337,6.951.5h.466a4.415,4.415,0,0,1,.466.016,114.144,114.144,0,0,0,23.117-3.464c17.594-4.174,29.056-12.765,36.306-23.219q.918-1.332,1.759-2.7a58.039,58.039,0,0,0,3.769-7.34,76.866,76.866,0,0,0,5.712-28.941,95.526,95.526,0,0,0-3.06-22.7,41.222,41.222,0,0,0-5.593-12.451,33.389,33.389,0,0,0-2.138-2.845A31.593,31.593,0,0,0,107,5.053C98.6.263,70.957-4.508,47.542,7.85,4.446,30.591-2.036,58.684.465,77.206Z" transform="translate(111.644 124.12)" fill="#68a42a"/>
        <path id="Vector-212" data-name="Vector" d="M64.824,24.683q-.321-1.358-.7-2.674C60.747,10.072,55.247,1.419,46.6,0c-1.082,2.954-11.661,7.86-20.92,7.384-1.021-.051-2.527-1.438-2.546-1.445C15.827,4.909,12.35.992,12.693.462c-.321.026-7.677,2.09-7.677,2.09-6.4,27.965-7.16,43.5.536,83.387,2.809,14.567-1.487,22.474-.536,23.438,1.666,1.67,20.089,2.148,34.9,2.723,1.775.064,3.532.128,5.24.183,10.829.356,19.745.482,19.745.482.735-.918,2.09-9.369,3.012-21.27C69.393,72.48,69.781,44.682,64.824,24.683Z" transform="translate(135.378 55.57)" fill="#a8d29f"/>
        <path id="Vector-213" data-name="Vector" d="M22.214,20.3l-8.8,7.295L0,25.528c.125-1.284.793-6.89,1.368-11.664.472-3.9.883-7.25.883-7.25L18.269.193,18.75,0V.241q-.067.963-.087,1.881C18.378,13.083,22.214,20.3,22.214,20.3Z" transform="translate(154.682 36.611)" fill="#ed975d"/>
        <path id="Vector-214" data-name="Vector" d="M9.856,7.226S9.429,3.719,8.865,0C1.876,1.256.984,8.119,0,11.9Z" transform="translate(164.595 53.888) rotate(-165.345)" fill="#ed975d"/>
        <path id="Vector-215" data-name="Vector" d="M126.056,43.142c-44.827,3.211-58.78,2.636-60.36,4.79-9.9,13.562-10.9,15.9-30.97,43.074-3.83,5.185-8.348,11.269-13.767,18.513H0S22.613,66.374,40.692,37.144c7.134-11.539,13.565-20.908,17.62-24.6C72.32-.224,128.133.071,128.133.071S176.594-1.1,180.409,6.078C181.243,7.638,159.806,40.711,126.056,43.142Z" transform="translate(13.873 164.41)" fill="#1c468a"/>
        <path id="Vector-216" data-name="Vector" d="M91.33,43.142c-44.827,3.211-58.78,2.636-60.36,4.79-9.9,13.562-10.9,15.9-30.97,43.074L5.965,37.144c7.134-11.539,13.565-20.908,17.62-24.6C37.593-.224,93.407.071,93.407.071S141.868-1.1,145.682,6.078C146.517,7.638,125.08,40.711,91.33,43.142Z" transform="translate(48.599 164.41)" fill="#163560"/>
        <path id="Vector-217" data-name="Vector" d="M9.742.938.92,0A1.31,1.31,0,0,0,.027,1.634c.212,1.39,3.121,5.137,4.219,5.339S12.131,3.493,9.742.938Z" transform="translate(155.583 62.636)" fill="#fff"/>
        <path id="Vector-218" data-name="Vector" d="M152.136,14.065s-1.493,27.146-35.246,29.57c-44.827,3.211-54.073,2.158-57,4.9C45.472,62.019,55,64.86,21.216,110.06H0S25.9,24.294,37.629,14.02C51.871,1.556,110.057.616,110.057.616s38.781-2.986,42.6,4.193C153.478,6.366,152.136,14.065,152.136,14.065Z" transform="translate(46.294 163.868)" fill="#1c468a"/>
        <path id="Vector-219" data-name="Vector" d="M0,102.015a47.65,47.65,0,0,0,7.189.915c.642.032,1.284.048,1.926.055h1.1A114.6,114.6,0,0,0,33.33,99.52c22.982-5.458,35.5-18.448,41.835-33.265a76.866,76.866,0,0,0,5.712-28.941,95.542,95.542,0,0,0-3.057-22.7A41.257,41.257,0,0,0,72.226,2.161C71.729,1.422,71.2.7,70.637,0,54.205,17.254,7.519,68.945,0,102.015Z" transform="translate(157.228 137.197)" fill="#68a42a"/>
        <path id="Vector-220" data-name="Vector" d="M7.654,0s1.117,6.171,4.989,9.343L6.906,16.406S.61,9.089,0,2.806C0,2.8,5.737.228,7.654,0Z" transform="translate(147.716 53.676)" fill="#8db186"/>
        <path id="Vector-221" data-name="Vector" d="M14.448,0S5.969,8.99,0,9.69l3.307,9.4s17.915-10.085,17.98-16.4C21.27,2.687,16.374.058,14.448,0Z" transform="translate(160.363 53.328)" fill="#8db186"/>
        <path id="Vector-222" data-name="Vector" d="M32.97,52.722c-.921,11.9-.674,18.121-4.347,21.62,0,0-7.436,2.8-18.41-.832-3.747-1.926-6.672-4.546-8.12-8.149-7.23-17.957,6.53-32.883,7.23-44.779S20.927,0,20.927,0,34.45,33.705,32.97,52.722Z" transform="translate(170.321 94.345)" fill="#8db186"/>
        <path id="Vector-223" data-name="Vector" d="M9.933.408S11.605,16.189,11.9,21.47c.838,14.852,1.143,59.49,1.143,59.49a10.141,10.141,0,0,1-2.161,7.006A40.162,40.162,0,0,1,5.566,93.2,19.68,19.68,0,0,1,.233,83.589c-1-4.174,1.413-39.227,3.853-62.575A209.169,209.169,0,0,1,7.339.09S9.329-.256,9.933.408Z" transform="translate(151.613 67.714)" fill="#fff"/>
        <path id="Vector-224" data-name="Vector" d="M104.863,19.126H0C4.993,8.21,26.571,0,52.436,0S99.883,8.21,104.863,19.126Z" transform="translate(119.044 264.294)" fill="#345315"/>
        <path id="Vector-225" data-name="Vector" d="M15.559,0S8.448,1.865,6.113,3.146-.9,10.582.151,11.545c5.269,4.816,6.081-.527,12.55-2.276,1.175-.321,6.588-6.354,6.588-6.354Z" transform="translate(154.409 149.432)" fill="#e49963"/>
        <path id="Vector-226" data-name="Vector" d="M71.706,36.925,61.028,0H0L11.019,38.422H91.131v-1.5Z" transform="translate(92.476 127.394)" fill="#f1a34f"/>
        <path id="Vector-227" data-name="Vector" d="M.1,2.447A1.781,1.781,0,0,1,1.842,0a3.511,3.511,0,0,1,3.15,2.447A1.778,1.778,0,0,1,3.245,4.89,3.5,3.5,0,0,1,.1,2.447Z" transform="translate(122.805 143.535)" fill="#fff"/>
        <path id="Vector-228" data-name="Vector" d="M13.546,0S25.663,1.971,31.727,8.271,48.054,66.11,45.488,73.337,22.4,95.263,7.706,101.324c0,0-7.23-3.265-7.706-8.861,0,0,24.956-20.991,26.122-26.587S13.546,0,13.546,0Z" transform="translate(168.44 55.563)" fill="#a8d29f"/>
        <path id="Vector-229" data-name="Vector" d="M5.775,32.244s19.212.877,19.585-11.093S28.449,1.245,16.2.163,1.428,3.592.333,7.548.789,31.708,5.775,32.244Z" transform="translate(149.485 12.272)" fill="#ffb27d"/>
        <path id="Vector-230" data-name="Vector" d="M28.42,33.41S26.985,17.434,9.872,18s-9.709-15.613,5-18c0,0-1.535,5.7,7.706,6.6C42,8.518,30.147,30.886,28.42,33.41Z" transform="translate(146.412)" fill="#634a3c"/>
      </g>
    </g>
    <g id="Group_661" data-name="Group 661" transform="translate(7172.147 -18579)">
      <path id="Vector-231" data-name="Vector" d="M244.944,288.346,92.85,337.372,27.526,134.5v0L0,49.023,152.09,0l51.394,159.6Z" transform="matrix(0.959, 0.285, -0.285, 0.959, 96.112, 0)" fill="#a8d29f"/>
      <path id="Vector-232" data-name="Vector" d="M217.417,153.843,65.324,202.869,0,0S78.634,50.855,175.958,25.1Z" transform="matrix(0.959, 0.285, -0.285, 0.959, 84.18, 136.773)" fill="#9dc993"/>
      <path id="Vector-233" data-name="Vector" d="M201.533,259.162,83.459,297.221,0,38.062,118.078,0ZM96.784,288.955l89.05-28.706a11.506,11.506,0,0,0,7.419-14.483L119.229,15.906A11.71,11.71,0,0,0,104.5,8.35L15.8,36.954A11.614,11.614,0,0,0,8.317,51.568L82.387,281.593a11.439,11.439,0,0,0,14.4,7.372Z" transform="matrix(0.959, 0.285, -0.285, 0.959, 111.157, 23.427)" fill="#82b378"/>
      <path id="Vector-234" data-name="Vector" d="M1.608,43.63A33.387,33.387,0,1,1,7.942,55.014,33.407,33.407,0,0,1,1.608,43.63Z" transform="matrix(0.959, 0.285, -0.285, 0.959, 142.926, 153.085)" fill="#82b378"/>
    </g>
    <g id="Group_666" data-name="Group 666" transform="translate(7210.491 -18544.73)">
      <path id="Vector-235" data-name="Vector" d="M2.792,5.15c.1.035,55.182,96.5,62.626,105.578a5.793,5.793,0,0,0,5.15,2.068l15.376-1.831L104.008,71.89,73.917,89.415c2.978-20.59-35.681-51.2-48.936-62.36a3.053,3.053,0,0,1-.243-4.438l5.3-5.538A60.661,60.661,0,0,0,0,0Z" transform="translate(174.274 240.034) rotate(180)" fill="#ecab7e"/>
      <path id="Vector-236" data-name="Vector" d="M30.375,27.475s3.383-1.089,4.525-4.1a3.476,3.476,0,0,0-1.292-3.968C28.04,15.425,9.7,2.558,1.228.038A.962.962,0,0,0,.029,1.2c.435,1.97,1.842,5.9,6.373,11.645L6,12.018a1.159,1.159,0,0,1,1.628-1.553C13.284,13.635,24.819,20.633,30.375,27.475Z" transform="translate(177.681 247.44) rotate(180)" fill="url(#linear-gradient)"/>
      <path id="Vector-237" data-name="Vector" d="M1.7,5.608c.093.058,8.354,19.97,8.447,20.028,7.578,46.132,26.07,85.643,31.516,96.042a5.793,5.793,0,0,0,4.635,3.071l15.416,1.315,25.6-34.609L54.29,102.525c7.085-19.564-24.575-57.354-35.3-70.974a3.041,3.041,0,0,1,.66-4.391l6.3-4.357A60.725,60.725,0,0,0,0,0Z" transform="translate(151.732 264.168) rotate(180)" fill="#ffb27d"/>
      <path id="Vector-238" data-name="Vector" d="M24.413,32.845a7.793,7.793,0,0,0,5.26-3.1A3.476,3.476,0,0,0,29.21,25.6C24.575,20.569,9.206,4.261,1.4.107A.962.962,0,0,0,0,.97C0,2.986.614,7.117,3.882,13.663l-.232-.886a1.159,1.159,0,0,1,1.912-1.193C10.469,15.83,20.358,24.995,24.413,32.845Z" transform="translate(153.783 271.899) rotate(180)" fill="url(#linear-gradient-2)"/>
      <path id="Vector-239" data-name="Vector" d="M98.174,44.807s13.956-20.758,15.1-30.23S109.413,1.832,94.808.627c-43.45-3.592-64.886,9.432-64.886,9.432C26.951,29.02,24.83,33.846,0,44.152c0,0,31.412-2.491,37.732-.041S98.174,44.807,98.174,44.807Z" transform="translate(115.97 175.618) rotate(180)" fill="#2b478b"/>
      <path id="Vector-240" data-name="Vector" d="M9.768,76.365S16.72,73.59,18.2,69.934c1.205-2.926,8.632-2.781,9.791-8.632a6.778,6.778,0,0,1,6.095-5.544c7.641-.62,19.576-3.708,22.386-16.7,2.138-9.918-2.694-14.084-7.96-15.781a7.624,7.624,0,0,1-5.127-9.188c1.037-3.754.22-8.244-6.135-12.2C23.005-6.984,6.332,18.263,6.332,18.263L0,63.984Z" transform="translate(70.492 86.17) rotate(180)" fill="#b5453c"/>
      <path id="Vector-241" data-name="Vector" d="M28.841,0S12.62,15.474,4.59,25.723A21.754,21.754,0,0,0,.905,45.3C4.561,57.6,11.049,70.343,11.64,72.33c.91,3.042,19.118,2.9,19.118,2.9s35.861-23.272,49.95-62.7L64.881,7.607S55.519,23.312,46.267,33.3c0,0,16.007-21.146,16.575-29.8Z" transform="translate(84.38 128.065) rotate(180)" fill="#2b478b"/>
      <path id="Vector-242" data-name="Vector" d="M0,1.326,12.212,14.611l14.1-3.795s16.442-2.549,25.856,0l9.408,2.543,21.267,6.622,3.337-9.437a5.689,5.689,0,0,0-2.074-6.529A37.739,37.739,0,0,0,78.737.666C75.933-.556,14.223.278,14.223.278Z" transform="translate(86.505 135.499) rotate(180)" fill="#ffb27d"/>
      <path id="Vector-243" data-name="Vector" d="M10.866,28.03,19.683,4.109C18.878-.861,6.358-1,4.423,1.971a2.937,2.937,0,0,0-.388,1L.073,21.675a3.412,3.412,0,0,0,1.738,3.714l4.866,2.59C8.543,28.974,10.205,30.058,10.866,28.03Z" transform="translate(73.571 57.8) rotate(180)" fill="#ffb27d"/>
      <path id="Vector-244" data-name="Vector" d="M8.4,7.531s-.579,2.317-1.448,6.083C2.294,12.22.656,4.2,0,0Z" transform="translate(64.194 33.601)" fill="#ed975d"/>
      <path id="Vector-245" data-name="Vector" d="M2.893,29.875S-1.353,23.312.443,11.957,7.974-1.328,12.14.712s9.8,5.979,12.027,15.642S8.611,38.119,2.893,29.875Z" transform="translate(85.215 42.416) rotate(180)" fill="#ffb27d"/>
      <path id="Vector-246" data-name="Vector" d="M22.345,5.177S18.29,20.819,7.016,13.386L5.637,9.765s-8.841,4.2-4.38,12.1,14.2,10.5,23.214,3.378S38.1,12.4,36.284,4.835,29.17.844,29.17.844s-.162,5.793-2.694,7.271S23.29,5.293,23.29,5.293Z" transform="translate(90.56 29.408) rotate(180)" fill="#b5453c"/>
      <g id="Group_668" data-name="Group 668" transform="translate(43.741 88.432)">
        <path id="Vector-247" data-name="Vector" d="M58.808,0h-.127L2.514.058a2.514,2.514,0,1,0,0,5.029l56.167-.064A2.514,2.514,0,0,0,58.8,0Z" transform="translate(61.152 51) rotate(180)" fill="#f99746"/>
        <path id="Vector-248" data-name="Vector" d="M3.766,50.97H50.542a8.916,8.916,0,0,0,8.064-5.116L80.233,0H22.1a5.423,5.423,0,0,0-5.04,3.43L.261,45.86a3.737,3.737,0,0,0,3.505,5.11Z" transform="translate(112.899 50.97) rotate(180)" fill="#f99746"/>
      </g>
    </g>
    <g id="Group_659" data-name="Group 659" transform="translate(7030.319 -18391.195)">
      <path id="Vector-249" data-name="Vector" d="M143.622,2.784v7.224a2.474,2.474,0,0,1-.568,1.557,3.319,3.319,0,0,1-1.556,1.043,3.715,3.715,0,0,1-.608.141,3.839,3.839,0,0,1-.583.043h-137A3.124,3.124,0,0,1,0,10.153V2.64A3.138,3.138,0,0,1,3.311,0h137a3.839,3.839,0,0,1,.583.043,3.715,3.715,0,0,1,.608.141,3.319,3.319,0,0,1,1.556,1.043,2.474,2.474,0,0,1,.568,1.557Z" transform="translate(105.71 144.441)" fill="#ffb93e"/>
      <path id="Vector-250" data-name="Vector" d="M76.347,12.793H2.953A2.9,2.9,0,0,1,0,10.154c0-.047,0-.094,0-.145V2.64A2.9,2.9,0,0,1,2.953,0H67.336a22.42,22.42,0,0,0,9.011,12.792Z" transform="translate(105.71 144.44)" fill="#ffa412"/>
      <path id="Vector-251" data-name="Vector" d="M0,0H1.556V12.8H0Z" transform="translate(231.102 144.441)" fill="#ffa412"/>
      <path id="Vector-252" data-name="Vector" d="M0,0H1.556V12.8H0Z" transform="translate(225.832 144.441)" fill="#ffa412"/>
      <path id="Vector-253" data-name="Vector" d="M0,0H1.556V12.8H0Z" transform="translate(219.514 144.441)" fill="#ffa412"/>
      <path id="Vector-254" data-name="Vector" d="M0,0H1.556V12.8H0Z" transform="translate(209.826 144.441)" fill="#ffa412"/>
      <path id="Vector-255" data-name="Vector" d="M0,0H1.556V12.8H0Z" transform="translate(199.58 144.441)" fill="#ffa412"/>
      <path id="Vector-256" data-name="Vector" d="M0,0H1.556V12.8H0Z" transform="translate(183.873 144.441)" fill="#ffa412"/>
      <path id="Vector-257" data-name="Vector" d="M0,0H1.556V12.8H0Z" transform="translate(169.169 144.441)" fill="#ffa412"/>
      <path id="Vector-258" data-name="Vector" d="M0,0H1.556V12.8H0Z" transform="translate(156.039 144.441)" fill="#ffa412"/>
      <path id="Vector-259" data-name="Vector" d="M0,0H1.556V12.8H0Z" transform="translate(236.121 144.441)" fill="#ffa412"/>
      <path id="Vector-260" data-name="Vector" d="M0,0H1.556V12.8H0Z" transform="translate(239.433 144.441)" fill="#ffa412"/>
      <path id="Vector-261" data-name="Vector" d="M0,0H1.556V12.8H0Z" transform="translate(242.635 144.441)" fill="#ffa412"/>
      <path id="Vector-262" data-name="Vector" d="M1.556.043V12.749a3.84,3.84,0,0,1-.583.043H0V0H.974a3.839,3.839,0,0,1,.583.043Z" transform="translate(245.042 144.441)" fill="#ffa412"/>
      <path id="Vector-263" data-name="Vector" d="M1.556,1.043V11.38A3.318,3.318,0,0,1,0,12.423V0A3.318,3.318,0,0,1,1.556,1.043Z" transform="translate(247.207 144.626)" fill="#ffa412"/>
      <path id="Vector-264" data-name="Vector" d="M143.621,2.784v7.242a2.452,2.452,0,0,1-.568,1.557,3.308,3.308,0,0,1-1.553,1.043,3.375,3.375,0,0,1-.608.141,3.875,3.875,0,0,1-.583.047h-137A3.132,3.132,0,0,1,0,10.171V2.64A3.129,3.129,0,0,1,3.311,0H140.893a3.382,3.382,0,0,1,.608.145l.083.029.087.029.166.069.094.043a.6.6,0,0,1,.083.043,1.283,1.283,0,0,1,.156.083c.062.033.116.069.174.105l.127.087.083.062a2.726,2.726,0,0,1,.243.21l.065.065.065.065c.04.047.083.094.119.141a2.452,2.452,0,0,1,.575,1.608Z" transform="translate(91.06 131.645)" fill="#ffb93e"/>
      <path id="Vector-265" data-name="Vector" d="M76.351,12.815H2.957A2.9,2.9,0,0,1,0,10.172V2.64A2.9,2.9,0,0,1,2.957,0H67.336c.029.1.058.206.09.315a22.394,22.394,0,0,0,8.925,12.5Z" transform="translate(91.052 131.626)" fill="#ffa412"/>
      <path id="Vector-266" data-name="Vector" d="M0,0H1.556V12.8H0Z" transform="translate(216.455 131.645)" fill="#ffa412"/>
      <path id="Vector-267" data-name="Vector" d="M0,0H1.556V12.8H0Z" transform="translate(211.186 131.645)" fill="#ffa412"/>
      <path id="Vector-268" data-name="Vector" d="M0,0H1.556V12.8H0Z" transform="translate(204.864 131.645)" fill="#ffa412"/>
      <path id="Vector-269" data-name="Vector" d="M0,0H1.556V12.8H0Z" transform="translate(195.175 131.645)" fill="#ffa412"/>
      <path id="Vector-270" data-name="Vector" d="M0,0H1.556V12.8H0Z" transform="translate(184.934 131.645)" fill="#ffa412"/>
      <path id="Vector-271" data-name="Vector" d="M0,0H1.556V12.8H0Z" transform="translate(169.227 131.645)" fill="#ffa412"/>
      <path id="Vector-272" data-name="Vector" d="M0,0H1.556V12.8H0Z" transform="translate(154.523 131.645)" fill="#ffa412"/>
      <path id="Vector-273" data-name="Vector" d="M0,0H1.556V12.8H0Z" transform="translate(141.393 131.645)" fill="#ffa412"/>
      <path id="Vector-274" data-name="Vector" d="M0,0H1.556V12.8H0Z" transform="translate(221.471 131.645)" fill="#ffa412"/>
      <path id="Vector-275" data-name="Vector" d="M0,0H1.556V12.8H0Z" transform="translate(224.787 131.645)" fill="#ffa412"/>
      <path id="Vector-276" data-name="Vector" d="M0,0H1.556V12.8H0Z" transform="translate(227.986 131.645)" fill="#ffa412"/>
      <path id="Vector-277" data-name="Vector" d="M1.556.043V12.749a3.874,3.874,0,0,1-.583.043H0V0H.973a3.874,3.874,0,0,1,.583.043Z" transform="translate(230.396 131.656)" fill="#ffa412"/>
      <path id="Vector-278" data-name="Vector" d="M1.553,1.043V11.38A3.308,3.308,0,0,1,0,12.423V0A3.308,3.308,0,0,1,1.553,1.043Z" transform="translate(232.56 131.829)" fill="#ffa412"/>
      <path id="Vector-279" data-name="Vector" d="M143.611,2.784v7.242a2.463,2.463,0,0,1-.568,1.553,3.488,3.488,0,0,1-2.171,1.184,3.881,3.881,0,0,1-.586.047H3.3A3.824,3.824,0,0,1,1.773,12.5,2.849,2.849,0,0,1,0,10.294V2.64A3.143,3.143,0,0,1,3.311,0H140.3a3.884,3.884,0,0,1,.586.043,3.593,3.593,0,0,1,.6.145,3.257,3.257,0,0,1,1.556,1.043A2.455,2.455,0,0,1,143.611,2.784Z" transform="translate(98.149 119.164)" fill="#ffb93e"/>
      <path id="Vector-280" data-name="Vector" d="M76.34,12.812H2.946A3.111,3.111,0,0,1,1.582,12.5,2.8,2.8,0,0,1,0,10.3V2.641A2.9,2.9,0,0,1,2.957,0H67.336A22.482,22.482,0,0,0,75.9,12.482Z" transform="translate(98.149 119.149)" fill="#ffa412"/>
      <path id="Vector-281" data-name="Vector" d="M0,0H1.556V12.8H0Z" transform="translate(223.534 119.164)" fill="#ffa412"/>
      <path id="Vector-282" data-name="Vector" d="M0,0H1.556V12.8H0Z" transform="translate(218.265 119.164)" fill="#ffa412"/>
      <path id="Vector-283" data-name="Vector" d="M0,0H1.556V12.8H0Z" transform="translate(211.943 119.164)" fill="#ffa412"/>
      <path id="Vector-284" data-name="Vector" d="M0,0H1.556V12.8H0Z" transform="translate(202.255 119.164)" fill="#ffa412"/>
      <path id="Vector-285" data-name="Vector" d="M0,0H1.556V12.8H0Z" transform="translate(192.012 119.164)" fill="#ffa412"/>
      <path id="Vector-286" data-name="Vector" d="M0,0H1.556V12.8H0Z" transform="translate(176.306 119.164)" fill="#ffa412"/>
      <path id="Vector-287" data-name="Vector" d="M0,0H1.556V12.8H0Z" transform="translate(161.602 119.164)" fill="#ffa412"/>
      <path id="Vector-288" data-name="Vector" d="M0,0H1.556V12.8H0Z" transform="translate(148.472 119.164)" fill="#ffa412"/>
      <path id="Vector-289" data-name="Vector" d="M0,0H1.556V12.8H0Z" transform="translate(228.55 119.164)" fill="#ffa412"/>
      <path id="Vector-290" data-name="Vector" d="M0,0H1.556V12.8H0Z" transform="translate(231.866 119.164)" fill="#ffa412"/>
      <path id="Vector-291" data-name="Vector" d="M0,0H1.556V12.8H0Z" transform="translate(235.064 119.164)" fill="#ffa412"/>
      <path id="Vector-292" data-name="Vector" d="M1.556.043V12.749A3.88,3.88,0,0,1,.97,12.8H0V0H.97a3.884,3.884,0,0,1,.586.043Z" transform="translate(237.474 119.164)" fill="#ffa412"/>
      <path id="Vector-293" data-name="Vector" d="M1.553,1.039V11.377A3.308,3.308,0,0,1,0,12.42V0A3.3,3.3,0,0,1,1.553,1.039Z" transform="translate(239.639 119.352)" fill="#ffa412"/>
      <path id="Vector-294" data-name="Vector" d="M143.621,2.774v7.242a2.463,2.463,0,0,1-.554,1.546,3.3,3.3,0,0,1-1.556,1.043,3.412,3.412,0,0,1-.6.141,3.5,3.5,0,0,1-.586.047H3.311A3.132,3.132,0,0,1,0,10.149V2.622A3.059,3.059,0,0,1,2.917,0H140.306a3.92,3.92,0,0,1,.586.043,3.769,3.769,0,0,1,.6.145,3.257,3.257,0,0,1,1.556,1.043,2.463,2.463,0,0,1,.568,1.542Z" transform="translate(101.421 106.378)" fill="#ffb93e"/>
      <path id="Vector-295" data-name="Vector" d="M76.351,12.792H2.957A2.9,2.9,0,0,1,0,10.149V2.621A2.874,2.874,0,0,1,2.606,0H67.347a22.427,22.427,0,0,0,9,12.792Z" transform="translate(101.421 106.371)" fill="#ffa412"/>
      <path id="Vector-296" data-name="Vector" d="M0,0H1.556V12.8H0Z" transform="translate(226.817 106.368)" fill="#ffa412"/>
      <path id="Vector-297" data-name="Vector" d="M0,0H1.556V12.8H0Z" transform="translate(221.544 106.368)" fill="#ffa412"/>
      <path id="Vector-298" data-name="Vector" d="M0,0H1.556V12.8H0Z" transform="translate(215.225 106.368)" fill="#ffa412"/>
      <path id="Vector-299" data-name="Vector" d="M0,0H1.556V12.8H0Z" transform="translate(205.536 106.368)" fill="#ffa412"/>
      <path id="Vector-300" data-name="Vector" d="M0,0H1.556V12.8H0Z" transform="translate(195.292 106.368)" fill="#ffa412"/>
      <path id="Vector-301" data-name="Vector" d="M0,0H1.556V12.8H0Z" transform="translate(179.588 106.368)" fill="#ffa412"/>
      <path id="Vector-302" data-name="Vector" d="M0,0H1.556V12.8H0Z" transform="translate(164.881 106.368)" fill="#ffa412"/>
      <path id="Vector-303" data-name="Vector" d="M0,0H1.556V12.8H0Z" transform="translate(151.751 106.368)" fill="#ffa412"/>
      <path id="Vector-304" data-name="Vector" d="M0,0H1.556V12.8H0Z" transform="translate(231.833 106.368)" fill="#ffa412"/>
      <path id="Vector-305" data-name="Vector" d="M0,0H1.556V12.8H0Z" transform="translate(235.148 106.368)" fill="#ffa412"/>
      <path id="Vector-306" data-name="Vector" d="M0,0H1.556V12.8H0Z" transform="translate(238.347 106.368)" fill="#ffa412"/>
      <path id="Vector-307" data-name="Vector" d="M1.56.058V12.763a3.922,3.922,0,0,1-.586.047H0V0H.974A3.922,3.922,0,0,1,1.56.058Z" transform="translate(240.757 106.353)" fill="#ffa412"/>
      <path id="Vector-308" data-name="Vector" d="M1.556,1.032V11.377A3.3,3.3,0,0,1,0,12.42V0A3.293,3.293,0,0,1,1.556,1.032Z" transform="translate(242.932 106.564)" fill="#ffa412"/>
      <path id="Vector-309" data-name="Vector" d="M143.621,2.788V10.03a2.474,2.474,0,0,1-.568,1.557,3.3,3.3,0,0,1-1.556,1.043,3.763,3.763,0,0,1-.6.141l-.2.025H3.311A3.129,3.129,0,0,1,0,10.156V2.509A2.985,2.985,0,0,1,2.486.069h.1A3.878,3.878,0,0,1,3.311,0H140.733l.156.022a3.763,3.763,0,0,1,.6.141,3.3,3.3,0,0,1,1.556,1.043,2.474,2.474,0,0,1,.572,1.582Z" transform="translate(91.349 93.59)" fill="#ffb93e"/>
      <path id="Vector-310" data-name="Vector" d="M76.354,12.814H2.957A2.9,2.9,0,0,1,0,10.175V2.527A2.86,2.86,0,0,1,2.3.072L2.425.047A3.107,3.107,0,0,1,2.949,0H67.329a.454.454,0,0,0,.025.094,22.42,22.42,0,0,0,8.957,12.673Z" transform="translate(91.342 93.572)" fill="#ffa412"/>
      <path id="Vector-311" data-name="Vector" d="M0,0H1.556V12.8H0Z" transform="translate(216.742 93.59)" fill="#ffa412"/>
      <path id="Vector-312" data-name="Vector" d="M0,0H1.556V12.8H0Z" transform="translate(211.472 93.59)" fill="#ffa412"/>
      <path id="Vector-313" data-name="Vector" d="M0,0H1.556V12.8H0Z" transform="translate(205.153 93.59)" fill="#ffa412"/>
      <path id="Vector-314" data-name="Vector" d="M0,0H1.556V12.8H0Z" transform="translate(195.465 93.59)" fill="#ffa412"/>
      <path id="Vector-315" data-name="Vector" d="M0,0H1.556V12.8H0Z" transform="translate(185.22 93.59)" fill="#ffa412"/>
      <path id="Vector-316" data-name="Vector" d="M0,0H1.556V12.8H0Z" transform="translate(169.517 93.59)" fill="#ffa412"/>
      <path id="Vector-317" data-name="Vector" d="M0,0H1.556V12.8H0Z" transform="translate(154.809 93.59)" fill="#ffa412"/>
      <path id="Vector-318" data-name="Vector" d="M0,0H1.556V12.8H0Z" transform="translate(141.679 93.59)" fill="#ffa412"/>
      <path id="Vector-319" data-name="Vector" d="M0,0H1.556V12.8H0Z" transform="translate(221.761 93.59)" fill="#ffa412"/>
      <path id="Vector-320" data-name="Vector" d="M0,0H1.556V12.8H0Z" transform="translate(225.076 93.59)" fill="#ffa412"/>
      <path id="Vector-321" data-name="Vector" d="M0,0H1.556V12.8H0Z" transform="translate(228.275 93.59)" fill="#ffa412"/>
      <path id="Vector-322" data-name="Vector" d="M1.56.037V12.753a3.92,3.92,0,0,1-.586.043H0V0H.973A3.92,3.92,0,0,1,1.56.037Z" transform="translate(230.682 93.6)" fill="#ffa412"/>
      <path id="Vector-323" data-name="Vector" d="M1.556,1.043V11.38A3.293,3.293,0,0,1,0,12.42V0A3.3,3.3,0,0,1,1.556,1.043Z" transform="translate(232.847 93.778)" fill="#ffa412"/>
      <path id="Vector-324" data-name="Vector" d="M143.621,2.784v7.242a2.445,2.445,0,0,1-.568,1.557,3.308,3.308,0,0,1-1.553,1.043,3.365,3.365,0,0,1-.474.119h0l-.13.022a3.875,3.875,0,0,1-.583.047h-137a4.1,4.1,0,0,1-.427-.025l-.163-.022A3.02,3.02,0,0,1,0,10.171V2.64A3.143,3.143,0,0,1,3.311,0H140.893a3.722,3.722,0,0,1,.608.145l.083.029.087.029.166.069c.058.029.119.054.177.087a1.283,1.283,0,0,1,.156.083c.062.033.116.069.174.105l.127.087.083.062a2.727,2.727,0,0,1,.243.21l.065.065.065.065c.04.047.083.094.119.141A2.452,2.452,0,0,1,143.621,2.784Z" transform="translate(91.06 80.887)" fill="#ffb93e"/>
      <path id="Vector-325" data-name="Vector" d="M76.351,12.793H2.595A2.874,2.874,0,0,1,0,10.172c0-.047,0-.094,0-.145V2.64A2.9,2.9,0,0,1,2.957,0H67.336c.029.105.058.21.09.315A22.366,22.366,0,0,0,76.22,12.7Z" transform="translate(91.052 80.887)" fill="#ffa412"/>
      <path id="Vector-326" data-name="Vector" d="M0,0H1.556V12.8H0Z" transform="translate(216.455 80.887)" fill="#ffa412"/>
      <path id="Vector-327" data-name="Vector" d="M0,0H1.556V12.8H0Z" transform="translate(211.186 80.887)" fill="#ffa412"/>
      <path id="Vector-328" data-name="Vector" d="M0,0H1.556V12.8H0Z" transform="translate(204.864 80.887)" fill="#ffa412"/>
      <path id="Vector-329" data-name="Vector" d="M0,0H1.556V12.8H0Z" transform="translate(195.175 80.887)" fill="#ffa412"/>
      <path id="Vector-330" data-name="Vector" d="M0,0H1.556V12.8H0Z" transform="translate(184.934 80.887)" fill="#ffa412"/>
      <path id="Vector-331" data-name="Vector" d="M0,0H1.556V12.8H0Z" transform="translate(169.227 80.887)" fill="#ffa412"/>
      <path id="Vector-332" data-name="Vector" d="M0,0H1.556V12.8H0Z" transform="translate(154.523 80.887)" fill="#ffa412"/>
      <path id="Vector-333" data-name="Vector" d="M0,0H1.556V12.8H0Z" transform="translate(141.393 80.887)" fill="#ffa412"/>
      <path id="Vector-334" data-name="Vector" d="M0,0H1.556V12.8H0Z" transform="translate(221.471 80.887)" fill="#ffa412"/>
      <path id="Vector-335" data-name="Vector" d="M0,0H1.556V12.8H0Z" transform="translate(224.787 80.887)" fill="#ffa412"/>
      <path id="Vector-336" data-name="Vector" d="M0,0H1.556V12.8H0Z" transform="translate(227.986 80.887)" fill="#ffa412"/>
      <path id="Vector-337" data-name="Vector" d="M1.556.043V12.749a3.874,3.874,0,0,1-.583.047H0V0H.973a3.874,3.874,0,0,1,.583.043Z" transform="translate(230.396 80.887)" fill="#ffa412"/>
      <path id="Vector-338" data-name="Vector" d="M1.553,1.039V11.377A3.308,3.308,0,0,1,0,12.42V0A3.3,3.3,0,0,1,1.553,1.039Z" transform="translate(232.56 81.076)" fill="#ffa412"/>
      <path id="Vector-339" data-name="Vector" d="M143.611,2.784v7.242a2.463,2.463,0,0,1-.568,1.553,3.3,3.3,0,0,1-1.556,1.043,3.593,3.593,0,0,1-.6.145,3.884,3.884,0,0,1-.586.043H3.3A3.824,3.824,0,0,1,1.773,12.5,2.849,2.849,0,0,1,0,10.294V2.643A3.146,3.146,0,0,1,3.311,0H140.3a3.884,3.884,0,0,1,.586.043,3.593,3.593,0,0,1,.6.145,3.257,3.257,0,0,1,1.556,1.043A2.456,2.456,0,0,1,143.611,2.784Z" transform="translate(98.149 68.407)" fill="#ffb93e"/>
      <path id="Vector-340" data-name="Vector" d="M76.34,12.811H2.946A3.111,3.111,0,0,1,1.582,12.5,2.8,2.8,0,0,1,0,10.295V2.644A2.9,2.9,0,0,1,2.957,0H67.336A22.482,22.482,0,0,0,75.9,12.482Z" transform="translate(98.149 68.391)" fill="#ffa412"/>
      <path id="Vector-341" data-name="Vector" d="M0,0H1.556V12.8H0Z" transform="translate(223.534 68.407)" fill="#ffa412"/>
      <path id="Vector-342" data-name="Vector" d="M0,0H1.556V12.8H0Z" transform="translate(218.265 68.407)" fill="#ffa412"/>
      <path id="Vector-343" data-name="Vector" d="M0,0H1.556V12.8H0Z" transform="translate(211.943 68.407)" fill="#ffa412"/>
      <path id="Vector-344" data-name="Vector" d="M0,0H1.556V12.8H0Z" transform="translate(202.255 68.407)" fill="#ffa412"/>
      <path id="Vector-345" data-name="Vector" d="M0,0H1.556V12.8H0Z" transform="translate(192.012 68.407)" fill="#ffa412"/>
      <path id="Vector-346" data-name="Vector" d="M0,0H1.556V12.8H0Z" transform="translate(176.306 68.407)" fill="#ffa412"/>
      <path id="Vector-347" data-name="Vector" d="M0,0H1.556V12.8H0Z" transform="translate(161.602 68.407)" fill="#ffa412"/>
      <path id="Vector-348" data-name="Vector" d="M0,0H1.556V12.8H0Z" transform="translate(148.472 68.407)" fill="#ffa412"/>
      <path id="Vector-349" data-name="Vector" d="M0,0H1.556V12.8H0Z" transform="translate(228.55 68.407)" fill="#ffa412"/>
      <path id="Vector-350" data-name="Vector" d="M0,0H1.556V12.8H0Z" transform="translate(231.866 68.407)" fill="#ffa412"/>
      <path id="Vector-351" data-name="Vector" d="M0,0H1.556V12.8H0Z" transform="translate(235.064 68.407)" fill="#ffa412"/>
      <path id="Vector-352" data-name="Vector" d="M1.556.043V12.753A3.884,3.884,0,0,1,.97,12.8H0V0H.97a3.884,3.884,0,0,1,.586.043Z" transform="translate(237.474 68.407)" fill="#ffa412"/>
      <path id="Vector-353" data-name="Vector" d="M1.553,1.043V11.377A3.308,3.308,0,0,1,0,12.42V0A3.282,3.282,0,0,1,1.553,1.043Z" transform="translate(239.639 68.595)" fill="#ffa412"/>
      <path id="Vector-354" data-name="Vector" d="M143.622,2.784v7.242a2.463,2.463,0,0,1-.568,1.553,3.319,3.319,0,0,1-1.556,1.043,3.722,3.722,0,0,1-.608.145,3.839,3.839,0,0,1-.583.043h-137A3.127,3.127,0,0,1,0,10.167V2.643A3.047,3.047,0,0,1,2.917.022,3.551,3.551,0,0,1,3.311,0h137a3.839,3.839,0,0,1,.583.043,3.722,3.722,0,0,1,.608.145,3.293,3.293,0,0,1,1.556,1.043,2.463,2.463,0,0,1,.568,1.553Z" transform="translate(109.336 55.611)" fill="#ffb93e"/>
      <path id="Vector-355" data-name="Vector" d="M76.347,12.811H2.953A2.9,2.9,0,0,1,0,10.167q0-.071,0-.141V2.643A2.867,2.867,0,0,1,2.606.022,2.713,2.713,0,0,1,2.968,0H67.35V.022a22.449,22.449,0,0,0,9,12.789Z" transform="translate(109.336 55.596)" fill="#ffa412"/>
      <path id="Vector-356" data-name="Vector" d="M0,0H1.556V12.8H0Z" transform="translate(234.728 55.611)" fill="#ffa412"/>
      <path id="Vector-357" data-name="Vector" d="M0,0H1.556V12.8H0Z" transform="translate(229.459 55.611)" fill="#ffa412"/>
      <path id="Vector-358" data-name="Vector" d="M0,0H1.556V12.8H0Z" transform="translate(223.14 55.611)" fill="#ffa412"/>
      <path id="Vector-359" data-name="Vector" d="M0,0H1.556V12.8H0Z" transform="translate(213.451 55.611)" fill="#ffa412"/>
      <path id="Vector-360" data-name="Vector" d="M0,0H1.556V12.8H0Z" transform="translate(203.207 55.611)" fill="#ffa412"/>
      <path id="Vector-361" data-name="Vector" d="M0,0H1.556V12.8H0Z" transform="translate(187.5 55.611)" fill="#ffa412"/>
      <path id="Vector-362" data-name="Vector" d="M0,0H1.556V12.8H0Z" transform="translate(172.796 55.611)" fill="#ffa412"/>
      <path id="Vector-363" data-name="Vector" d="M0,0H1.556V12.8H0Z" transform="translate(159.666 55.611)" fill="#ffa412"/>
      <path id="Vector-364" data-name="Vector" d="M0,0H1.556V12.8H0Z" transform="translate(239.748 55.611)" fill="#ffa412"/>
      <path id="Vector-365" data-name="Vector" d="M0,0H1.556V12.8H0Z" transform="translate(243.06 55.611)" fill="#ffa412"/>
      <path id="Vector-366" data-name="Vector" d="M0,0H1.556V12.8H0Z" transform="translate(246.262 55.611)" fill="#ffa412"/>
      <path id="Vector-367" data-name="Vector" d="M1.556.043V12.753a3.838,3.838,0,0,1-.583.043H0V0H.973A3.838,3.838,0,0,1,1.556.043Z" transform="translate(248.669 55.619)" fill="#ffa412"/>
      <path id="Vector-368" data-name="Vector" d="M1.556,1.043V11.377A3.3,3.3,0,0,1,0,12.42V0A3.257,3.257,0,0,1,1.556,1.043Z" transform="translate(250.833 55.798)" fill="#ffa412"/>
      <path id="Vector-369" data-name="Vector" d="M143.621,2.806v7.242a2.474,2.474,0,0,1-.568,1.557,3.3,3.3,0,0,1-1.556,1.043,3.411,3.411,0,0,1-.6.141l-.2.025H3.311A3.132,3.132,0,0,1,0,10.171V2.64A3.143,3.143,0,0,1,3.311,0H140.473a3.812,3.812,0,0,1,.409.04,3.762,3.762,0,0,1,.6.141c.1.033.2.069.29.109l.17.076h.018l.166.087a.065.065,0,0,1,.025.018,1.013,1.013,0,0,1,.148.091,2.776,2.776,0,0,1,.333.239l.09.083a.413.413,0,0,1,.058.054h0l.1.1.13.148a2.474,2.474,0,0,1,.608,1.619Z" transform="translate(91.349 42.814)" fill="#ffb93e"/>
      <path id="Vector-370" data-name="Vector" d="M76.354,12.815H2.957A2.9,2.9,0,0,1,0,10.172V2.64A2.9,2.9,0,0,1,2.957,0H67.336c.025.094.054.2.083.293a22.413,22.413,0,0,0,8.9,12.481Z" transform="translate(91.342 42.818)" fill="#ffa412"/>
      <path id="Vector-371" data-name="Vector" d="M0,0H1.556V12.8H0Z" transform="translate(216.742 42.837)" fill="#ffa412"/>
      <path id="Vector-372" data-name="Vector" d="M0,0H1.556V12.8H0Z" transform="translate(211.472 42.837)" fill="#ffa412"/>
      <path id="Vector-373" data-name="Vector" d="M0,0H1.556V12.8H0Z" transform="translate(205.153 42.837)" fill="#ffa412"/>
      <path id="Vector-374" data-name="Vector" d="M0,0H1.556V12.8H0Z" transform="translate(195.465 42.837)" fill="#ffa412"/>
      <path id="Vector-375" data-name="Vector" d="M0,0H1.556V12.8H0Z" transform="translate(185.22 42.837)" fill="#ffa412"/>
      <path id="Vector-376" data-name="Vector" d="M0,0H1.556V12.8H0Z" transform="translate(169.517 42.837)" fill="#ffa412"/>
      <path id="Vector-377" data-name="Vector" d="M0,0H1.556V12.8H0Z" transform="translate(154.809 42.837)" fill="#ffa412"/>
      <path id="Vector-378" data-name="Vector" d="M0,0H1.556V12.8H0Z" transform="translate(141.679 42.837)" fill="#ffa412"/>
      <path id="Vector-379" data-name="Vector" d="M0,0H1.556V12.8H0Z" transform="translate(221.761 42.837)" fill="#ffa412"/>
      <path id="Vector-380" data-name="Vector" d="M0,0H1.556V12.8H0Z" transform="translate(225.076 42.837)" fill="#ffa412"/>
      <path id="Vector-381" data-name="Vector" d="M0,0H1.556V12.8H0Z" transform="translate(228.275 42.837)" fill="#ffa412"/>
      <path id="Vector-382" data-name="Vector" d="M1.56.043V12.749a3.92,3.92,0,0,1-.586.047H0V0H.973A3.92,3.92,0,0,1,1.56.043Z" transform="translate(230.682 42.837)" fill="#ffa412"/>
      <path id="Vector-383" data-name="Vector" d="M1.556,1.043V11.38A3.3,3.3,0,0,1,0,12.423V0A3.3,3.3,0,0,1,1.556,1.043Z" transform="translate(232.847 43.032)" fill="#ffa412"/>
      <path id="Vector-384" data-name="Vector" d="M143.6,2.784v7.242a2.474,2.474,0,0,1-.568,1.557,3.293,3.293,0,0,1-1.556,1.039,3.769,3.769,0,0,1-.6.145,3.92,3.92,0,0,1-.586.043H3.29a3.8,3.8,0,0,1-1.48-.293A2.842,2.842,0,0,1,0,10.283c0-.036,0-.076,0-.112V2.643A3.056,3.056,0,0,1,2.917.022,3.551,3.551,0,0,1,3.311,0h137a3.921,3.921,0,0,1,.586.047,3.411,3.411,0,0,1,.6.141,3.3,3.3,0,0,1,1.556,1.043A2.463,2.463,0,0,1,143.6,2.784Z" transform="translate(101.443 30.334)" fill="#ffb93e"/>
      <path id="Vector-385" data-name="Vector" d="M76.34,12.811H2.946a3.072,3.072,0,0,1-1.321-.293A2.792,2.792,0,0,1,0,10.283c0-.036,0-.076,0-.112V2.643A2.874,2.874,0,0,1,2.606.022,2.771,2.771,0,0,1,2.968,0H67.347V.022A22.449,22.449,0,0,0,75.931,12.5Z" transform="translate(101.432 30.319)" fill="#ffa412"/>
      <path id="Vector-386" data-name="Vector" d="M0,0H1.556V12.8H0Z" transform="translate(226.817 30.334)" fill="#ffa412"/>
      <path id="Vector-387" data-name="Vector" d="M0,0H1.556V12.8H0Z" transform="translate(221.544 30.334)" fill="#ffa412"/>
      <path id="Vector-388" data-name="Vector" d="M0,0H1.556V12.8H0Z" transform="translate(215.225 30.334)" fill="#ffa412"/>
      <path id="Vector-389" data-name="Vector" d="M0,0H1.556V12.8H0Z" transform="translate(205.536 30.334)" fill="#ffa412"/>
      <path id="Vector-390" data-name="Vector" d="M0,0H1.556V12.8H0Z" transform="translate(195.292 30.334)" fill="#ffa412"/>
      <path id="Vector-391" data-name="Vector" d="M0,0H1.556V12.8H0Z" transform="translate(179.588 30.334)" fill="#ffa412"/>
      <path id="Vector-392" data-name="Vector" d="M0,0H1.556V12.8H0Z" transform="translate(164.881 30.334)" fill="#ffa412"/>
      <path id="Vector-393" data-name="Vector" d="M0,0H1.556V12.8H0Z" transform="translate(151.751 30.334)" fill="#ffa412"/>
      <path id="Vector-394" data-name="Vector" d="M0,0H1.556V12.8H0Z" transform="translate(231.833 30.334)" fill="#ffa412"/>
      <path id="Vector-395" data-name="Vector" d="M0,0H1.556V12.8H0Z" transform="translate(235.148 30.334)" fill="#ffa412"/>
      <path id="Vector-396" data-name="Vector" d="M0,0H1.556V12.8H0Z" transform="translate(238.347 30.334)" fill="#ffa412"/>
      <path id="Vector-397" data-name="Vector" d="M1.56.043V12.753a3.922,3.922,0,0,1-.586.043H0V0H.974A3.922,3.922,0,0,1,1.56.043Z" transform="translate(240.757 30.334)" fill="#ffa412"/>
      <path id="Vector-398" data-name="Vector" d="M1.556,1.039V11.377A3.257,3.257,0,0,1,0,12.42V0A3.3,3.3,0,0,1,1.556,1.039Z" transform="translate(242.932 30.526)" fill="#ffa412"/>
      <path id="Vector-399" data-name="Vector" d="M143.614,2.806v7.242a2.463,2.463,0,0,1-.568,1.553,3.319,3.319,0,0,1-1.556,1.043,3.375,3.375,0,0,1-.608.141,1.633,1.633,0,0,1-.192.025H3.311A3.127,3.127,0,0,1,0,10.167V2.64A3.138,3.138,0,0,1,3.311,0h137a3.839,3.839,0,0,1,.583.043,3.722,3.722,0,0,1,.608.145,3.293,3.293,0,0,1,1.556,1.043,2.456,2.456,0,0,1,.561,1.575Z" transform="translate(105.717 17.537)" fill="#ffb93e"/>
      <path id="Vector-400" data-name="Vector" d="M76.347,12.811H2.953A2.9,2.9,0,0,1,0,10.168q0-.071,0-.141V2.64A2.9,2.9,0,0,1,2.953,0H67.336a22.416,22.416,0,0,0,8.982,12.774Z" transform="translate(105.71 17.544)" fill="#ffa412"/>
      <path id="Vector-401" data-name="Vector" d="M0,0H1.556V12.8H0Z" transform="translate(231.102 17.56)" fill="#ffa412"/>
      <path id="Vector-402" data-name="Vector" d="M0,0H1.556V12.8H0Z" transform="translate(225.832 17.56)" fill="#ffa412"/>
      <path id="Vector-403" data-name="Vector" d="M0,0H1.556V12.8H0Z" transform="translate(219.514 17.56)" fill="#ffa412"/>
      <path id="Vector-404" data-name="Vector" d="M0,0H1.556V12.8H0Z" transform="translate(209.826 17.56)" fill="#ffa412"/>
      <path id="Vector-405" data-name="Vector" d="M0,0H1.556V12.8H0Z" transform="translate(199.58 17.56)" fill="#ffa412"/>
      <path id="Vector-406" data-name="Vector" d="M0,0H1.556V12.8H0Z" transform="translate(183.873 17.56)" fill="#ffa412"/>
      <path id="Vector-407" data-name="Vector" d="M0,0H1.556V12.8H0Z" transform="translate(169.169 17.56)" fill="#ffa412"/>
      <path id="Vector-408" data-name="Vector" d="M0,0H1.556V12.8H0Z" transform="translate(156.039 17.56)" fill="#ffa412"/>
      <path id="Vector-409" data-name="Vector" d="M0,0H1.556V12.8H0Z" transform="translate(236.121 17.56)" fill="#ffa412"/>
      <path id="Vector-410" data-name="Vector" d="M0,0H1.556V12.8H0Z" transform="translate(239.433 17.56)" fill="#ffa412"/>
      <path id="Vector-411" data-name="Vector" d="M0,0H1.556V12.8H0Z" transform="translate(242.635 17.56)" fill="#ffa412"/>
      <path id="Vector-412" data-name="Vector" d="M1.556.037V12.749a3.836,3.836,0,0,1-.583.047H0V0H.974a3.839,3.839,0,0,1,.583.036Z" transform="translate(245.042 17.567)" fill="#ffa412"/>
      <path id="Vector-413" data-name="Vector" d="M1.556,1.043V11.377A3.3,3.3,0,0,1,0,12.419V0A3.257,3.257,0,0,1,1.556,1.043Z" transform="translate(247.207 17.748)" fill="#ffa412"/>
      <path id="Vector-414" data-name="Vector" d="M130.22,65.143A65.11,65.11,0,1,1,65.11,0,65.126,65.126,0,0,1,130.22,65.143Z" transform="matrix(1, -0.018, 0.018, 1, 31.48, 28.189)" fill="#e2810e"/>
      <path id="Vector-415" data-name="Vector" d="M130.253,65.126A65.126,65.126,0,1,1,65.126,0,65.126,65.126,0,0,1,130.253,65.126Z" transform="matrix(0.707, -0.707, 0.707, 0.707, 0, 92.126)" fill="#ffb93e"/>
      <path id="Vector-416" data-name="Vector" d="M59.319,118.706a58.914,58.914,0,1,1,22.714-4.486,59.305,59.305,0,0,1-22.714,4.486Zm0-115.143a55.8,55.8,0,1,0,0-.018Z" transform="translate(32.761 33.542)" fill="#ffa412"/>
      <path id="Vector-417" data-name="Vector" d="M34.138,61.051A9.759,9.759,0,0,0,34,57.6a7.167,7.167,0,0,0-1.448-2.86,13.548,13.548,0,0,0-2.913-2.574,36.029,36.029,0,0,0-4.513-2.535,94.225,94.225,0,0,1-8.324-4.58,29.509,29.509,0,0,1-6.232-5.069A17.331,17.331,0,0,1,6.887,33.8a17.835,17.835,0,0,1-.633-7.912A17.9,17.9,0,0,1,8.468,18.97a16.436,16.436,0,0,1,4.6-5.109,20.591,20.591,0,0,1,6.579-3.139,27.412,27.412,0,0,1,8.219-.945L29.028,0,36.9.934l-1.176,9.918a24.632,24.632,0,0,1,7.408,3.154,18.625,18.625,0,0,1,8.288,11.9,24.721,24.721,0,0,1,.326,8.4L37.525,32.624q.651-5.486-1.448-8.495a8.345,8.345,0,0,0-6.2-3.494A10.667,10.667,0,0,0,26,20.8a7.182,7.182,0,0,0-2.83,1.376,6.789,6.789,0,0,0-1.828,2.357,9.986,9.986,0,0,0-.865,3.1,9.057,9.057,0,0,0,.13,3.121A6.74,6.74,0,0,0,22,33.493a13.664,13.664,0,0,0,2.939,2.571,46.154,46.154,0,0,0,4.7,2.716q4.56,2.346,8.248,4.685a29.987,29.987,0,0,1,6.2,5.116,16.9,16.9,0,0,1,4.278,14.067A17.836,17.836,0,0,1,46.11,69.7,16.262,16.262,0,0,1,41.5,74.77a19.9,19.9,0,0,1-6.616,3.016,29.612,29.612,0,0,1-8.259.873l-1.086,9.1-7.824-.931L18.8,77.776a33.034,33.034,0,0,1-7.683-2.719A21.068,21.068,0,0,1,4.82,70.3,18.874,18.874,0,0,1,.872,63.227,22.949,22.949,0,0,1,.217,53.6l14.216,1.687a14.086,14.086,0,0,0,.268,5.525,9.13,9.13,0,0,0,2.023,3.762,8.848,8.848,0,0,0,3.257,2.241,15.194,15.194,0,0,0,3.9,1A12.744,12.744,0,0,0,28,67.7a8.43,8.43,0,0,0,3.123-1.3,6.737,6.737,0,0,0,2.066-2.281,8.248,8.248,0,0,0,.945-3.067Z" transform="translate(66.11 49.072)" fill="#ffa412"/>
    </g>
    <g id="Group_664" data-name="Group 664" transform="translate(7462.505 -18520.98)">
      <path id="Vector-418" data-name="Vector" d="M32.861,13.332s-7,9.852-13.408,9.99-16.17-4.559-16.17-4.559S-2.605,5.634,1.39.5A8.561,8.561,0,0,1,9.58,1.843a12.517,12.517,0,0,1,2.171,2.078A6.876,6.876,0,0,0,15.117,6.2C19.691,7.6,25.124,4.32,27.154,7.481a21.378,21.378,0,0,0,3.539,4.193,16.117,16.117,0,0,0,2.168,1.658Z" transform="translate(58.331 0)" fill="#f9ddbf"/>
      <path id="Vector-419" data-name="Vector" d="M0,61.08S24.722,1.141,69.225,0c0,0,41.08,4.566,43.363,61.08Z" transform="translate(0 23.326)" fill="#f9ddbf"/>
      <path id="Vector-420" data-name="Vector" d="M.087,7.758s17.838,3.983,23.343,1.637c0,0,.832-7.463-6.681-6.416C11.606,3.7,8.258,1.222,6.289.219,3.5-1.2-.652,4.626.087,7.758Z" transform="translate(56.946 17.397)" fill="#db6a1d"/>
      <path id="Vector-421" data-name="Vector" d="M4.647,12.068C3.507,12.923,0,0,0,0A12.517,12.517,0,0,1,2.171,2.078,6.876,6.876,0,0,0,5.537,4.359C5.548,4.736,5.754,11.232,4.647,12.068Z" transform="translate(67.912 1.84)" fill="#e5c1a1"/>
      <path id="Vector-422" data-name="Vector" d="M9.737,4.193c-.253.148-8.5,5.091-9.619,5.091S6.2,0,6.2,0A21.378,21.378,0,0,0,9.737,4.193Z" transform="translate(79.287 7.478)" fill="#e5c1a1"/>
      <path id="Vector-423" data-name="Vector" d="M.009,26.644C-.451,26.253,17.5.212,22.447.005s16.054,5.71,24.1,6.47S62.383,4.951,63.914,9.709s5.7,21.624,3.138,24.321S9.881,35.1.009,26.644Z" transform="translate(24.145 41.002)" fill="#e5c1a1"/>
    </g>
    <g id="Group_663" data-name="Group 663" transform="translate(7324.915 -18443.455)">
      <path id="Vector-424" data-name="Vector" d="M147.618,3.523l44.514,76.635a7.135,7.135,0,0,1-2.573,9.722l-134.375,78.1a7.131,7.131,0,0,1-9.717-2.578L.953,88.776a7.139,7.139,0,0,1,2.577-9.722L137.9.956a7.131,7.131,0,0,1,9.717,2.567Z" transform="translate(0 165.974) rotate(-59.27)" fill="#699ff0"/>
      <path id="Vector-425" data-name="Vector" d="M40.773,6.282,4.963,27.1A3.195,3.195,0,0,1,.62,25.944l-.2-.362a3.2,3.2,0,0,1,1.154-4.345L37.4.424a3.191,3.191,0,0,1,4.343,1.155l.2.344a3.19,3.19,0,0,1-1.173,4.36Z" transform="translate(127.412 187.254) rotate(-59.27)" fill="#afcdfb"/>
      <path id="Vector-426" data-name="Vector" d="M40.794,6.287,4.966,27.1A3.195,3.195,0,0,1,.623,25.945l-.2-.362a3.194,3.194,0,0,1,1.154-4.345L37.389.421a3.2,3.2,0,0,1,4.343,1.155l.2.344a3.2,3.2,0,0,1-1.136,4.367Z" transform="translate(127.938 132.685) rotate(-59.27)" fill="#afcdfb"/>
      <path id="Vector-427" data-name="Vector" d="M7.862,3.3a7.73,7.73,0,0,1,1.18,3.621,3.488,3.488,0,0,1-5.306,3.081A9.162,9.162,0,0,1,0,3.6,3.517,3.517,0,0,1,5.332.5a7.769,7.769,0,0,1,2.53,2.8Zm-1.647.949a7.734,7.734,0,0,0-1.477-1.9,1.75,1.75,0,0,0-2.132-.442,1.773,1.773,0,0,0-.695,2.064,7.407,7.407,0,0,0,.916,2.249q1.943,3.342,3.648,2.35a1.736,1.736,0,0,0,.666-2.082,7.646,7.646,0,0,0-.926-2.238Z" transform="translate(104.973 196.948) rotate(-59.27)" fill="#afcdfb"/>
      <path id="Vector-428" data-name="Vector" d="M7.858,3.3A7.7,7.7,0,0,1,9.041,6.92a3.492,3.492,0,0,1-5.306,3.085A9.162,9.162,0,0,1,0,3.6,3.517,3.517,0,0,1,5.332.5,7.733,7.733,0,0,1,7.858,3.3Zm-1.643.949a7.759,7.759,0,0,0-1.477-1.9,1.752,1.752,0,0,0-2.132-.438,1.773,1.773,0,0,0-.695,2.064,7.356,7.356,0,0,0,.916,2.245Q4.771,9.56,6.476,8.568a1.747,1.747,0,0,0,.666-2.082,7.646,7.646,0,0,0-.916-2.238Z" transform="translate(105.061 188.445) rotate(-59.27)" fill="#afcdfb"/>
      <path id="Vector-429" data-name="Vector" d="M7.858,3.3A7.672,7.672,0,0,1,9.042,6.923a3.492,3.492,0,0,1-5.305,3.085A9.18,9.18,0,0,1,0,3.606,3.514,3.514,0,0,1,5.332.507,7.7,7.7,0,0,1,7.858,3.3Zm-1.647.945a7.563,7.563,0,0,0-1.477-1.9,1.746,1.746,0,0,0-2.128-.438,1.767,1.767,0,0,0-.695,2.064,7.392,7.392,0,0,0,.916,2.245q1.94,3.346,3.648,2.354a1.747,1.747,0,0,0,.666-2.082,7.548,7.548,0,0,0-.93-2.241Z" transform="translate(105.144 179.94) rotate(-59.27)" fill="#afcdfb"/>
      <path id="Vector-430" data-name="Vector" d="M7.858,3.3A7.7,7.7,0,0,1,9.041,6.924a3.492,3.492,0,0,1-5.309,3.081A9.173,9.173,0,0,1,0,3.6,3.517,3.517,0,0,1,5.332.5,7.733,7.733,0,0,1,7.858,3.3Zm-1.647.949a7.563,7.563,0,0,0-1.477-1.9,1.751,1.751,0,0,0-2.128-.442,1.764,1.764,0,0,0-.695,2.064,7.407,7.407,0,0,0,.916,2.249q1.94,3.338,3.644,2.35c.659-.362.879-1.086.67-2.082a7.667,7.667,0,0,0-.93-2.238Z" transform="translate(105.225 171.433) rotate(-59.27)" fill="#afcdfb"/>
      <path id="Vector-431" data-name="Vector" d="M7.858,3.3A7.7,7.7,0,0,1,9.042,6.923a3.492,3.492,0,0,1-5.306,3.085A9.18,9.18,0,0,1,0,3.6,3.514,3.514,0,0,1,5.332.507,7.718,7.718,0,0,1,7.858,3.3Zm-1.643.949a7.654,7.654,0,0,0-1.48-1.9,1.74,1.74,0,0,0-2.128-.438,1.76,1.76,0,0,0-.695,2.064,7.392,7.392,0,0,0,.916,2.245q1.943,3.342,3.648,2.35a1.733,1.733,0,0,0,.666-2.078,7.606,7.606,0,0,0-.926-2.238Z" transform="translate(105.349 158.543) rotate(-59.27)" fill="#afcdfb"/>
      <path id="Vector-432" data-name="Vector" d="M7.858,3.3A7.7,7.7,0,0,1,9.041,6.92a3.488,3.488,0,0,1-5.305,3.085A9.162,9.162,0,0,1,0,3.6,3.517,3.517,0,0,1,5.332.5,7.733,7.733,0,0,1,7.858,3.3Zm-1.647.949a7.658,7.658,0,0,0-1.477-1.9,1.75,1.75,0,0,0-2.128-.438,1.758,1.758,0,0,0-.695,2.064,7.356,7.356,0,0,0,.916,2.245Q4.767,9.56,6.475,8.568a1.736,1.736,0,0,0,.666-2.082,7.57,7.57,0,0,0-.93-2.238Z" transform="translate(105.439 150.042) rotate(-59.27)" fill="#afcdfb"/>
      <path id="Vector-433" data-name="Vector" d="M7.858,3.3A7.686,7.686,0,0,1,9.041,6.923a3.492,3.492,0,0,1-5.309,3.085A9.173,9.173,0,0,1,0,3.606,3.514,3.514,0,0,1,5.332.507,7.7,7.7,0,0,1,7.858,3.3ZM6.2,4.24a7.524,7.524,0,0,0-1.477-1.9A1.747,1.747,0,0,0,2.6,1.9,1.773,1.773,0,0,0,1.9,3.961a7.356,7.356,0,0,0,.916,2.245Q4.753,9.552,6.461,8.56a1.748,1.748,0,0,0,.67-2.082A7.628,7.628,0,0,0,6.2,4.24Z" transform="translate(105.522 141.536) rotate(-59.27)" fill="#afcdfb"/>
      <path id="Vector-434" data-name="Vector" d="M7.858,3.3A7.74,7.74,0,0,1,9.041,6.923,3.492,3.492,0,0,1,3.732,10,9.173,9.173,0,0,1,0,3.6,3.514,3.514,0,0,1,5.332.507,7.751,7.751,0,0,1,7.858,3.3Zm-1.647.949a7.563,7.563,0,0,0-1.477-1.9A1.744,1.744,0,0,0,2.6,1.912a1.76,1.76,0,0,0-.695,2.064,7.487,7.487,0,0,0,.916,2.245q1.943,3.338,3.648,2.35a1.743,1.743,0,0,0,.67-2.078,7.646,7.646,0,0,0-.93-2.241Z" transform="translate(105.604 133.029) rotate(-59.27)" fill="#afcdfb"/>
      <path id="Vector-435" data-name="Vector" d="M7.858,3.3A7.672,7.672,0,0,1,9.042,6.923a3.492,3.492,0,0,1-5.309,3.085A9.194,9.194,0,0,1,0,3.606,3.514,3.514,0,0,1,5.332.507,7.7,7.7,0,0,1,7.858,3.3Zm-1.647.945a7.563,7.563,0,0,0-1.477-1.9,1.746,1.746,0,0,0-2.128-.438,1.767,1.767,0,0,0-.695,2.064,7.356,7.356,0,0,0,.916,2.245q1.94,3.346,3.644,2.354a1.748,1.748,0,0,0,.67-2.082,7.682,7.682,0,0,0-.93-2.241Z" transform="translate(105.733 120.142) rotate(-59.27)" fill="#afcdfb"/>
      <path id="Vector-436" data-name="Vector" d="M7.858,3.3A7.7,7.7,0,0,1,9.041,6.924a3.492,3.492,0,0,1-5.309,3.081A9.173,9.173,0,0,1,0,3.6,3.517,3.517,0,0,1,5.332.5,7.765,7.765,0,0,1,7.858,3.3Zm-1.647.949a7.563,7.563,0,0,0-1.477-1.9A1.756,1.756,0,0,0,2.6,1.909a1.76,1.76,0,0,0-.691,2.064,7.28,7.28,0,0,0,.916,2.249q1.94,3.338,3.644,2.35c.659-.362.879-1.086.67-2.082a7.667,7.667,0,0,0-.926-2.238Z" transform="translate(105.812 111.639) rotate(-59.27)" fill="#afcdfb"/>
      <path id="Vector-437" data-name="Vector" d="M7.851,3.3A7.78,7.78,0,0,1,9.034,6.92,3.492,3.492,0,0,1,3.725,10,7.682,7.682,0,0,1,1.192,7.191,7.777,7.777,0,0,1,0,3.6,3.521,3.521,0,0,1,5.335.5,7.765,7.765,0,0,1,7.851,3.3ZM6.2,4.247a7.6,7.6,0,0,0-1.477-1.9A1.745,1.745,0,0,0,2.6,1.9,1.745,1.745,0,0,0,1.9,3.969a7.45,7.45,0,0,0,.916,2.245Q4.76,9.559,6.465,8.567A1.734,1.734,0,0,0,7.13,6.485,7.548,7.548,0,0,0,6.2,4.247Z" transform="translate(105.907 103.127) rotate(-59.27)" fill="#afcdfb"/>
      <path id="Vector-438" data-name="Vector" d="M7.862,3.3a7.7,7.7,0,0,1,1.18,3.621A3.492,3.492,0,0,1,3.736,10.01,9.18,9.18,0,0,1,0,3.609,3.514,3.514,0,0,1,5.336.509,7.733,7.733,0,0,1,7.862,3.3ZM6.215,4.25a7.647,7.647,0,0,0-1.477-1.9,1.75,1.75,0,0,0-2.132-.438,1.758,1.758,0,0,0-.695,2.064,7.356,7.356,0,0,0,.916,2.245Q4.771,9.565,6.476,8.573a1.742,1.742,0,0,0,.666-2.082A7.664,7.664,0,0,0,6.215,4.25Z" transform="translate(105.981 94.629) rotate(-59.27)" fill="#afcdfb"/>
      <path id="Vector-439" data-name="Vector" d="M7.858,3.3A7.74,7.74,0,0,1,9.041,6.92a3.492,3.492,0,0,1-5.309,3.085A9.173,9.173,0,0,1,0,3.6,3.517,3.517,0,0,1,5.332.5,7.765,7.765,0,0,1,7.858,3.3Zm-1.647.949a7.6,7.6,0,0,0-1.477-1.9A1.75,1.75,0,0,0,2.6,1.905a1.761,1.761,0,0,0-.695,2.064,7.45,7.45,0,0,0,.916,2.245Q4.767,9.56,6.472,8.568c.659-.362.879-1.086.67-2.082a7.667,7.667,0,0,0-.93-2.252Z" transform="translate(106.113 81.74) rotate(-59.27)" fill="#afcdfb"/>
      <path id="Vector-440" data-name="Vector" d="M7.862,3.3a7.7,7.7,0,0,1,1.18,3.621,3.492,3.492,0,0,1-5.306,3.085A9.18,9.18,0,0,1,0,3.606,3.517,3.517,0,0,1,5.336.506,7.733,7.733,0,0,1,7.862,3.3Zm-1.647.945a7.563,7.563,0,0,0-1.477-1.9,1.75,1.75,0,0,0-2.132-.438,1.758,1.758,0,0,0-.695,2.064,7.487,7.487,0,0,0,.916,2.245Q4.771,9.562,6.476,8.57a1.742,1.742,0,0,0,.666-2.082,7.526,7.526,0,0,0-.926-2.241Z" transform="translate(106.195 73.238) rotate(-59.27)" fill="#afcdfb"/>
      <path id="Vector-441" data-name="Vector" d="M7.862,3.305a7.73,7.73,0,0,1,1.18,3.621,3.488,3.488,0,0,1-5.306,3.081A9.161,9.161,0,0,1,0,3.606,3.517,3.517,0,0,1,5.336.506a7.8,7.8,0,0,1,2.526,2.8Zm-1.647.949a7.734,7.734,0,0,0-1.477-1.9,1.75,1.75,0,0,0-2.132-.442,1.773,1.773,0,0,0-.695,2.064,7.407,7.407,0,0,0,.916,2.249q1.943,3.342,3.648,2.35a1.736,1.736,0,0,0,.666-2.082,7.645,7.645,0,0,0-.926-2.238Z" transform="translate(106.274 64.729) rotate(-59.27)" fill="#afcdfb"/>
      <path id="Vector-442" data-name="Vector" d="M7.862,3.3A7.729,7.729,0,0,1,9.041,6.92a3.492,3.492,0,0,1-5.306,3.085A9.162,9.162,0,0,1,0,3.6,3.517,3.517,0,0,1,5.332.5a7.769,7.769,0,0,1,2.53,2.8Zm-1.647.949a7.759,7.759,0,0,0-1.477-1.9,1.752,1.752,0,0,0-2.132-.438,1.773,1.773,0,0,0-.695,2.064,7.356,7.356,0,0,0,.916,2.245Q4.771,9.56,6.475,8.568a1.747,1.747,0,0,0,.666-2.082,7.646,7.646,0,0,0-.926-2.234Z" transform="translate(106.361 56.225) rotate(-59.27)" fill="#afcdfb"/>
      <path id="Vector-443" data-name="Vector" d="M39.8,5.932,4.764,26.3A3.191,3.191,0,0,1,.421,25.148h0A3.2,3.2,0,0,1,1.575,20.8L36.611.421A3.182,3.182,0,0,1,39.8,5.932Z" transform="translate(58.339 186.757) rotate(-59.27)" fill="#afcdfb"/>
      <path id="Vector-444" data-name="Vector" d="M3.245,2.141A4.865,4.865,0,0,0,.777.034.521.521,0,0,0,.086.4L.017.66a.514.514,0,0,0,.308.608A3.583,3.583,0,0,1,2.112,2.8a3.586,3.586,0,0,1,.449,2.314.521.521,0,0,0,.362.572l.261.069a.521.521,0,0,0,.655-.424,4.887,4.887,0,0,0-.594-3.194Z" transform="translate(88.006 61.058) rotate(-59.27)" fill="#afcdfb"/>
      <path id="Vector-445" data-name="Vector" d="M4.835,3.379A7.474,7.474,0,0,0,.717.026.518.518,0,0,0,.054.388L.014.536a.521.521,0,0,0,.362.623A6.316,6.316,0,0,1,3.817,3.971a6.321,6.321,0,0,1,.739,4.383.521.521,0,0,0,.362.608L5.067,9a.518.518,0,0,0,.648-.391A7.491,7.491,0,0,0,4.835,3.379Z" transform="translate(86.159 59.166) rotate(-59.27)" fill="#afcdfb"/>
      <path id="Vector-446" data-name="Vector" d="M6.213,4.455A9.772,9.772,0,0,0,.673.023.525.525,0,0,0,.014.385h0a.529.529,0,0,0,.362.626A8.759,8.759,0,0,1,5.329,4.97a8.766,8.766,0,0,1,.985,6.266.521.521,0,0,0,.362.612h0a.521.521,0,0,0,.648-.387A9.78,9.78,0,0,0,6.213,4.455Z" transform="translate(84.546 57.507) rotate(-59.27)" fill="#afcdfb"/>
      <path id="Vector-447" data-name="Vector" d="M7.818,5.618A12.259,12.259,0,0,0,.739.024.521.521,0,0,0,.08.386L.015.643a.521.521,0,0,0,.362.626,10.992,10.992,0,0,1,6.319,5,11,11,0,0,1,1.212,7.969.518.518,0,0,0,.362.616l.257.072a.525.525,0,0,0,.648-.387A12.291,12.291,0,0,0,7.818,5.618Z" transform="translate(82.758 55.785) rotate(-59.27)" fill="#afcdfb"/>
      <path id="Vector-448" data-name="Vector" d="M3.793,1.6A3.72,3.72,0,0,1,4.361,3.34,1.679,1.679,0,0,1,1.8,4.824,3.682,3.682,0,0,1,.576,3.47,3.782,3.782,0,0,1,0,1.739,1.7,1.7,0,0,1,2.574.244,3.729,3.729,0,0,1,3.793,1.6ZM3,2.054a3.642,3.642,0,0,0-.724-.916A.835.835,0,0,0,1.249.928a.833.833,0,0,0-.337.992,3.553,3.553,0,0,0,.442,1.086C1.98,4.093,2.563,4.455,3.113,4.14a.837.837,0,0,0,.322-1A3.687,3.687,0,0,0,3,2.054Z" transform="translate(157.251 198.819) rotate(-59.27)" fill="#afcdfb"/>
      <path id="Vector-449" data-name="Vector" d="M3.793,1.6a3.72,3.72,0,0,1,.568,1.738A1.683,1.683,0,0,1,1.8,4.824,3.725,3.725,0,0,1,.576,3.466,3.767,3.767,0,0,1,0,1.736,1.7,1.7,0,0,1,2.574.244,3.729,3.729,0,0,1,3.793,1.6ZM3,2.054a3.642,3.642,0,0,0-.724-.916A.837.837,0,0,0,1.249.925a.837.837,0,0,0-.337,1,3.535,3.535,0,0,0,.442,1.086q.941,1.611,1.759,1.137a.842.842,0,0,0,.322-1.007A3.673,3.673,0,0,0,3,2.054Z" transform="translate(157.293 194.717) rotate(-59.27)" fill="#afcdfb"/>
      <path id="Vector-450" data-name="Vector" d="M.723.179A.576.576,0,0,1,.78.428l.362,4.9a.464.464,0,0,1-.192.485.383.383,0,0,1-.282.043.362.362,0,0,1-.224-.174.562.562,0,0,1-.072-.25L.01.537A.471.471,0,0,1,.2.059.387.387,0,0,1,.484.008a.329.329,0,0,1,.239.17Z" transform="translate(157.799 189.686) rotate(-59.27)" fill="#afcdfb"/>
      <path id="Vector-451" data-name="Vector" d="M3.8,1.6A3.72,3.72,0,0,1,4.369,3.34,1.683,1.683,0,0,1,1.81,4.829,4.425,4.425,0,0,1,0,1.74,1.694,1.694,0,0,1,2.57.244,3.7,3.7,0,0,1,3.8,1.6Zm-.793.46a3.754,3.754,0,0,0-.724-.92A.84.84,0,0,0,1.256.929a.833.833,0,0,0-.337.992,3.647,3.647,0,0,0,.442,1.086Q2.3,4.618,3.12,4.141a.837.837,0,0,0,.322-1,3.712,3.712,0,0,0-.434-1.079Z" transform="translate(157.354 187.816) rotate(-59.27)" fill="#afcdfb"/>
      <path id="Vector-452" data-name="Vector" d="M3.8,1.6a3.72,3.72,0,0,1,.568,1.738A1.683,1.683,0,0,1,1.81,4.825,4.429,4.429,0,0,1,0,1.74,1.694,1.694,0,0,1,2.57.245,3.7,3.7,0,0,1,3.8,1.6Zm-.793.456a3.726,3.726,0,0,0-.724-.916A.841.841,0,0,0,1.256.925a.837.837,0,0,0-.337,1,3.535,3.535,0,0,0,.442,1.086Q2.3,4.622,3.12,4.144a.842.842,0,0,0,.322-1.007,3.752,3.752,0,0,0-.434-1.083Z" transform="translate(157.397 183.715) rotate(-59.27)" fill="#afcdfb"/>
      <path id="Vector-453" data-name="Vector" d="M3.8,1.6A3.72,3.72,0,0,1,4.369,3.34,1.683,1.683,0,0,1,1.81,4.829,4.425,4.425,0,0,1,0,1.74,1.694,1.694,0,0,1,2.57.244,3.743,3.743,0,0,1,3.8,1.6Zm-.807.474a3.755,3.755,0,0,0-.724-.92A.845.845,0,0,0,1.242.947a.856.856,0,0,0-.337,1,3.622,3.622,0,0,0,.442,1.086q.941,1.615,1.759,1.133c.318-.181.423-.518.322-1a3.752,3.752,0,0,0-.434-1.083Z" transform="translate(157.435 179.611) rotate(-59.27)" fill="#afcdfb"/>
      <path id="Vector-454" data-name="Vector" d="M3.793,1.6A3.72,3.72,0,0,1,4.361,3.34,1.683,1.683,0,0,1,1.8,4.828,3.725,3.725,0,0,1,.576,3.47,3.767,3.767,0,0,1,0,1.739,1.7,1.7,0,0,1,2.574.244,3.761,3.761,0,0,1,3.793,1.6Zm-.8.46a3.747,3.747,0,0,0-.724-.92A.84.84,0,0,0,1.245.928a.858.858,0,0,0-.337,1A3.535,3.535,0,0,0,1.35,3.01q.941,1.611,1.759,1.133a.837.837,0,0,0,.322-1,3.622,3.622,0,0,0-.423-1.086Z" transform="translate(157.478 175.515) rotate(-59.27)" fill="#afcdfb"/>
    </g>
    <path id="Vector-455" data-name="Vector" d="M1.107,0H976.959a1.108,1.108,0,0,1,1.107,1.108v.38A1.108,1.108,0,0,1,976.959,2.6H1.107A1.108,1.108,0,0,1,0,1.488v-.38A1.108,1.108,0,0,1,1.107,0Z" transform="translate(6879 -18232.412)" fill="#2e3552"/>
  </g>
</svg>
